G04 #@! TF.GenerationSoftware,KiCad,Pcbnew,9.0.4*
G04 #@! TF.CreationDate,2025-10-23T22:28:14-07:00*
G04 #@! TF.ProjectId,Urban MC,55726261-6e20-44d4-932e-6b696361645f,rev?*
G04 #@! TF.SameCoordinates,Original*
G04 #@! TF.FileFunction,Soldermask,Top*
G04 #@! TF.FilePolarity,Negative*
%FSLAX46Y46*%
G04 Gerber Fmt 4.6, Leading zero omitted, Abs format (unit mm)*
G04 Created by KiCad (PCBNEW 9.0.4) date 2025-10-23 22:28:14*
%MOMM*%
%LPD*%
G01*
G04 APERTURE LIST*
G04 Aperture macros list*
%AMRoundRect*
0 Rectangle with rounded corners*
0 $1 Rounding radius*
0 $2 $3 $4 $5 $6 $7 $8 $9 X,Y pos of 4 corners*
0 Add a 4 corners polygon primitive as box body*
4,1,4,$2,$3,$4,$5,$6,$7,$8,$9,$2,$3,0*
0 Add four circle primitives for the rounded corners*
1,1,$1+$1,$2,$3*
1,1,$1+$1,$4,$5*
1,1,$1+$1,$6,$7*
1,1,$1+$1,$8,$9*
0 Add four rect primitives between the rounded corners*
20,1,$1+$1,$2,$3,$4,$5,0*
20,1,$1+$1,$4,$5,$6,$7,0*
20,1,$1+$1,$6,$7,$8,$9,0*
20,1,$1+$1,$8,$9,$2,$3,0*%
G04 Aperture macros list end*
%ADD10R,2.159000X1.955800*%
%ADD11RoundRect,0.250000X0.450000X-0.262500X0.450000X0.262500X-0.450000X0.262500X-0.450000X-0.262500X0*%
%ADD12RoundRect,0.150000X0.150000X-0.825000X0.150000X0.825000X-0.150000X0.825000X-0.150000X-0.825000X0*%
%ADD13RoundRect,0.250000X-0.337500X-0.475000X0.337500X-0.475000X0.337500X0.475000X-0.337500X0.475000X0*%
%ADD14RoundRect,0.243750X0.243750X0.456250X-0.243750X0.456250X-0.243750X-0.456250X0.243750X-0.456250X0*%
%ADD15RoundRect,0.250000X-0.262500X-0.450000X0.262500X-0.450000X0.262500X0.450000X-0.262500X0.450000X0*%
%ADD16RoundRect,0.243750X-0.243750X-0.456250X0.243750X-0.456250X0.243750X0.456250X-0.243750X0.456250X0*%
%ADD17RoundRect,0.250000X-0.325000X-1.100000X0.325000X-1.100000X0.325000X1.100000X-0.325000X1.100000X0*%
%ADD18C,2.000000*%
%ADD19RoundRect,0.250000X0.475000X-0.250000X0.475000X0.250000X-0.475000X0.250000X-0.475000X-0.250000X0*%
%ADD20RoundRect,0.250000X-0.450000X0.262500X-0.450000X-0.262500X0.450000X-0.262500X0.450000X0.262500X0*%
%ADD21C,1.803400*%
%ADD22C,1.500000*%
%ADD23C,3.204000*%
%ADD24C,3.200000*%
%ADD25R,1.600000X1.600000*%
%ADD26O,1.600000X1.600000*%
%ADD27R,1.700000X1.700000*%
%ADD28C,1.700000*%
%ADD29RoundRect,0.102000X0.700000X-0.700000X0.700000X0.700000X-0.700000X0.700000X-0.700000X-0.700000X0*%
%ADD30C,1.604000*%
%ADD31RoundRect,0.250000X-0.475000X0.250000X-0.475000X-0.250000X0.475000X-0.250000X0.475000X0.250000X0*%
%ADD32RoundRect,0.150000X-0.825000X-0.150000X0.825000X-0.150000X0.825000X0.150000X-0.825000X0.150000X0*%
%ADD33RoundRect,0.150000X0.150000X-0.875000X0.150000X0.875000X-0.150000X0.875000X-0.150000X-0.875000X0*%
%ADD34R,0.800000X2.800000*%
%ADD35R,8.900000X0.600000*%
%ADD36R,10.200000X2.900000*%
%ADD37R,8.900000X2.950000*%
%ADD38R,10.200000X1.650000*%
%ADD39C,3.250000*%
%ADD40RoundRect,0.102000X1.050000X0.700000X-1.050000X0.700000X-1.050000X-0.700000X1.050000X-0.700000X0*%
%ADD41R,4.930000X1.190000*%
%ADD42R,4.930000X5.040000*%
%ADD43RoundRect,0.250000X0.650000X-0.325000X0.650000X0.325000X-0.650000X0.325000X-0.650000X-0.325000X0*%
%ADD44RoundRect,0.250000X-0.475000X0.337500X-0.475000X-0.337500X0.475000X-0.337500X0.475000X0.337500X0*%
%ADD45RoundRect,0.150000X-0.512500X-0.150000X0.512500X-0.150000X0.512500X0.150000X-0.512500X0.150000X0*%
%ADD46RoundRect,0.250000X0.475000X-0.337500X0.475000X0.337500X-0.475000X0.337500X-0.475000X-0.337500X0*%
%ADD47C,2.454000*%
%ADD48RoundRect,0.102000X-1.125000X-1.125000X1.125000X-1.125000X1.125000X1.125000X-1.125000X1.125000X0*%
%ADD49RoundRect,0.250000X-0.325000X-0.650000X0.325000X-0.650000X0.325000X0.650000X-0.325000X0.650000X0*%
%ADD50RoundRect,0.102000X-0.754000X-0.754000X0.754000X-0.754000X0.754000X0.754000X-0.754000X0.754000X0*%
%ADD51C,1.712000*%
%ADD52C,2.362200*%
G04 APERTURE END LIST*
D10*
X147890000Y-114362700D03*
X147890000Y-110425700D03*
D11*
X128168400Y-37131000D03*
X128168400Y-35306000D03*
D12*
X133705600Y-56831000D03*
X134975600Y-56831000D03*
X136245600Y-56831000D03*
X137515600Y-56831000D03*
X137515600Y-51881000D03*
X136245600Y-51881000D03*
X134975600Y-51881000D03*
X133705600Y-51881000D03*
D13*
X136749700Y-59690000D03*
X134674700Y-59690000D03*
D14*
X116410500Y-74168000D03*
X118285500Y-74168000D03*
D15*
X114399700Y-76149200D03*
X112574700Y-76149200D03*
D11*
X138125200Y-86153000D03*
X138125200Y-84328000D03*
D16*
X133756400Y-82753200D03*
X135631400Y-82753200D03*
D17*
X173023000Y-132740400D03*
X175973000Y-132740400D03*
X172972200Y-92456000D03*
X175922200Y-92456000D03*
X173327800Y-54965600D03*
X176277800Y-54965600D03*
X173023000Y-128981200D03*
X175973000Y-128981200D03*
X172921400Y-88696800D03*
X175871400Y-88696800D03*
X173327800Y-51155600D03*
X176277800Y-51155600D03*
D18*
X137363200Y-142443200D03*
X106629200Y-101244400D03*
X103073200Y-86817200D03*
D19*
X148930000Y-55050000D03*
X148930000Y-53150000D03*
D20*
X143600000Y-82067500D03*
X143600000Y-83892500D03*
D21*
X97155000Y-127508000D03*
X97155000Y-122508000D03*
X97155000Y-117508000D03*
D15*
X154027500Y-124110000D03*
X155852500Y-124110000D03*
D20*
X131267200Y-51106700D03*
X131267200Y-52931700D03*
D22*
X124161086Y-67335400D03*
X129041086Y-67335400D03*
D23*
X221280000Y-139982500D03*
X231440000Y-139982500D03*
X221280000Y-129822500D03*
X231440000Y-129822500D03*
D19*
X148390000Y-131600000D03*
X148390000Y-129700000D03*
D24*
X97028000Y-149352000D03*
D25*
X109982000Y-78740000D03*
D26*
X109982000Y-76200000D03*
X109982000Y-73660000D03*
X109982000Y-71120000D03*
X109982000Y-68580000D03*
X109982000Y-66040000D03*
X109982000Y-63500000D03*
X109982000Y-60960000D03*
X109982000Y-58420000D03*
X109982000Y-55880000D03*
X109982000Y-53340000D03*
X109982000Y-50800000D03*
X109982000Y-48260000D03*
X109982000Y-45720000D03*
X109982000Y-43180000D03*
X94742000Y-43180000D03*
X94742000Y-45720000D03*
X94742000Y-48260000D03*
X94742000Y-50800000D03*
X94742000Y-53340000D03*
X94742000Y-55880000D03*
X94742000Y-58420000D03*
X94742000Y-60960000D03*
X94742000Y-63500000D03*
X94742000Y-66040000D03*
X94742000Y-68580000D03*
X94742000Y-71120000D03*
X94742000Y-73660000D03*
X94742000Y-76200000D03*
X94742000Y-78740000D03*
D15*
X154007500Y-78320000D03*
X155832500Y-78320000D03*
D27*
X122372200Y-39081400D03*
D28*
X124912200Y-39081400D03*
D29*
X210616800Y-138988800D03*
D30*
X210616800Y-131488800D03*
D31*
X136017000Y-89159000D03*
X136017000Y-91059000D03*
D24*
X217284191Y-32790338D03*
D19*
X151490000Y-49370000D03*
X151490000Y-47470000D03*
D24*
X97028000Y-32893000D03*
D32*
X143585000Y-76090000D03*
X143585000Y-77360000D03*
X143585000Y-78630000D03*
X143585000Y-79900000D03*
X148535000Y-79900000D03*
X148535000Y-78630000D03*
X148535000Y-77360000D03*
X148535000Y-76090000D03*
D33*
X118211600Y-58904400D03*
X119481600Y-58904400D03*
X120751600Y-58904400D03*
X122021600Y-58904400D03*
X123291600Y-58904400D03*
X124561600Y-58904400D03*
X125831600Y-58904400D03*
X127101600Y-58904400D03*
X128371600Y-58904400D03*
X128371600Y-49604400D03*
X127101600Y-49604400D03*
X125831600Y-49604400D03*
X124561600Y-49604400D03*
X123291600Y-49604400D03*
X122021600Y-49604400D03*
X120751600Y-49604400D03*
X119481600Y-49604400D03*
X118211600Y-49604400D03*
D34*
X180000800Y-88814400D03*
X181200800Y-88814400D03*
X182400800Y-88814400D03*
X183600800Y-88814400D03*
X184800800Y-88814400D03*
X186000800Y-88814400D03*
X187200800Y-88814400D03*
X188400800Y-88814400D03*
D35*
X184200800Y-84734400D03*
D36*
X184200800Y-82985400D03*
D37*
X184200800Y-80060400D03*
D38*
X184200800Y-77760400D03*
D39*
X145810000Y-99850000D03*
X145810000Y-148110000D03*
X196610000Y-99850000D03*
X196610000Y-148110000D03*
D32*
X142895000Y-123760000D03*
X142895000Y-125030000D03*
X142895000Y-126300000D03*
X142895000Y-127570000D03*
X147845000Y-127570000D03*
X147845000Y-126300000D03*
X147845000Y-125030000D03*
X147845000Y-123760000D03*
D23*
X204304791Y-90905538D03*
X214464791Y-90905538D03*
X204304791Y-80745538D03*
X214464791Y-80745538D03*
X204304791Y-70585538D03*
X214464791Y-70585538D03*
D15*
X149627500Y-118280000D03*
X151452500Y-118280000D03*
X123166500Y-83312000D03*
X124991500Y-83312000D03*
D40*
X108410600Y-110835000D03*
X99310600Y-110835000D03*
X108410600Y-106335000D03*
X99310600Y-106335000D03*
D39*
X145800000Y-40890000D03*
X145800000Y-89150000D03*
X196600000Y-40890000D03*
X196600000Y-89150000D03*
D34*
X168275761Y-83501468D03*
X167075761Y-83501468D03*
X165875761Y-83501468D03*
X164675761Y-83501468D03*
X163475761Y-83501468D03*
X162275761Y-83501468D03*
X161075761Y-83501468D03*
X159875761Y-83501468D03*
D35*
X164075761Y-87581468D03*
D36*
X164075761Y-89330468D03*
D37*
X164075761Y-92255468D03*
D38*
X164075761Y-94555468D03*
D10*
X150610000Y-38098500D03*
X150610000Y-34161500D03*
D27*
X133096000Y-88798400D03*
D28*
X133096000Y-91338400D03*
X133096000Y-93878400D03*
X133096000Y-96418400D03*
X133096000Y-98958400D03*
X133096000Y-101498400D03*
X133096000Y-104038400D03*
X133096000Y-106578400D03*
X133096000Y-109118400D03*
X133096000Y-111658400D03*
X133096000Y-114198400D03*
X133096000Y-116738400D03*
X133096000Y-119278400D03*
X133096000Y-121818400D03*
X133096000Y-124358400D03*
D20*
X143880000Y-53177500D03*
X143880000Y-55002500D03*
D19*
X150850000Y-125890000D03*
X150850000Y-123990000D03*
D11*
X136271000Y-106449500D03*
X136271000Y-104624500D03*
D19*
X151390000Y-78410000D03*
X151390000Y-76510000D03*
D41*
X197866000Y-134569200D03*
D42*
X197866000Y-138384200D03*
D19*
X115722400Y-81722000D03*
X115722400Y-79822000D03*
D43*
X135990000Y-138355000D03*
X135990000Y-135405000D03*
D15*
X150697500Y-44010000D03*
X152522500Y-44010000D03*
X150097500Y-71600000D03*
X151922500Y-71600000D03*
X154047500Y-47350000D03*
X155872500Y-47350000D03*
D34*
X168575991Y-123909538D03*
X167375991Y-123909538D03*
X166175991Y-123909538D03*
X164975991Y-123909538D03*
X163775991Y-123909538D03*
X162575991Y-123909538D03*
X161375991Y-123909538D03*
X160175991Y-123909538D03*
D35*
X164375991Y-127989538D03*
D36*
X164375991Y-129738538D03*
D37*
X164375991Y-132663538D03*
D38*
X164375991Y-134963538D03*
D24*
X234517078Y-149753438D03*
D20*
X142980000Y-129827500D03*
X142980000Y-131652500D03*
D44*
X134321086Y-66297900D03*
X134321086Y-68372900D03*
D19*
X148910000Y-83750000D03*
X148910000Y-81850000D03*
D34*
X169515791Y-46185538D03*
X168315791Y-46185538D03*
X167115791Y-46185538D03*
X165915791Y-46185538D03*
X164715791Y-46185538D03*
X163515791Y-46185538D03*
X162315791Y-46185538D03*
X161115791Y-46185538D03*
D35*
X165315791Y-50265538D03*
D36*
X165315791Y-52014538D03*
D37*
X165315791Y-54939538D03*
D38*
X165315791Y-57239538D03*
D10*
X148560000Y-67098500D03*
X148560000Y-63161500D03*
D32*
X143875000Y-47240000D03*
X143875000Y-48510000D03*
X143875000Y-49780000D03*
X143875000Y-51050000D03*
X148825000Y-51050000D03*
X148825000Y-49780000D03*
X148825000Y-48510000D03*
X148825000Y-47240000D03*
D45*
X120782500Y-76520000D03*
X120782500Y-77470000D03*
X120782500Y-78420000D03*
X123057500Y-78420000D03*
X123057500Y-77470000D03*
X123057500Y-76520000D03*
D20*
X113995200Y-50090700D03*
X113995200Y-51915700D03*
D46*
X118110000Y-81809500D03*
X118110000Y-79734500D03*
D21*
X96320501Y-95084900D03*
X96320501Y-100164900D03*
D34*
X179950000Y-129200800D03*
X181150000Y-129200800D03*
X182350000Y-129200800D03*
X183550000Y-129200800D03*
X184750000Y-129200800D03*
X185950000Y-129200800D03*
X187150000Y-129200800D03*
X188350000Y-129200800D03*
D35*
X184150000Y-125120800D03*
D36*
X184150000Y-123371800D03*
D37*
X184150000Y-120446800D03*
D38*
X184150000Y-118146800D03*
D47*
X137450000Y-150160000D03*
D48*
X117550000Y-150160000D03*
D49*
X127805000Y-135180000D03*
X130755000Y-135180000D03*
D34*
X180051600Y-51324000D03*
X181251600Y-51324000D03*
X182451600Y-51324000D03*
X183651600Y-51324000D03*
X184851600Y-51324000D03*
X186051600Y-51324000D03*
X187251600Y-51324000D03*
X188451600Y-51324000D03*
D35*
X184251600Y-47244000D03*
D36*
X184251600Y-45495000D03*
D37*
X184251600Y-42570000D03*
D38*
X184251600Y-40270000D03*
D15*
X123166500Y-81026000D03*
X124991500Y-81026000D03*
D44*
X119118086Y-66297900D03*
X119118086Y-68372900D03*
D25*
X113665000Y-88773000D03*
D26*
X113665000Y-91313000D03*
X113665000Y-93853000D03*
X113665000Y-96393000D03*
X113665000Y-98933000D03*
X113665000Y-101473000D03*
X113665000Y-104013000D03*
X113665000Y-106553000D03*
X113665000Y-109093000D03*
X113665000Y-111633000D03*
X113665000Y-114173000D03*
X113665000Y-116713000D03*
X113665000Y-119253000D03*
X113665000Y-121793000D03*
X113665000Y-124333000D03*
X128905000Y-124333000D03*
X128905000Y-121793000D03*
X128905000Y-119253000D03*
X128905000Y-116713000D03*
X128905000Y-114173000D03*
X128905000Y-111633000D03*
X128905000Y-109093000D03*
X128905000Y-106553000D03*
X128905000Y-104013000D03*
X128905000Y-101473000D03*
X128905000Y-98933000D03*
X128905000Y-96393000D03*
X128905000Y-93853000D03*
X128905000Y-91313000D03*
X128905000Y-88773000D03*
D50*
X124362400Y-139939200D03*
D51*
X126902400Y-139939200D03*
X129442400Y-139939200D03*
D52*
X132672400Y-42929451D03*
X136872398Y-42929451D03*
X132672400Y-48429450D03*
X136872398Y-48429450D03*
M02*
