G04 #@! TF.GenerationSoftware,KiCad,Pcbnew,9.0.4*
G04 #@! TF.CreationDate,2025-10-23T22:28:14-07:00*
G04 #@! TF.ProjectId,Urban MC,55726261-6e20-44d4-932e-6b696361645f,rev?*
G04 #@! TF.SameCoordinates,Original*
G04 #@! TF.FileFunction,Paste,Top*
G04 #@! TF.FilePolarity,Positive*
%FSLAX46Y46*%
G04 Gerber Fmt 4.6, Leading zero omitted, Abs format (unit mm)*
G04 Created by KiCad (PCBNEW 9.0.4) date 2025-10-23 22:28:14*
%MOMM*%
%LPD*%
G01*
G04 APERTURE LIST*
G04 Aperture macros list*
%AMRoundRect*
0 Rectangle with rounded corners*
0 $1 Rounding radius*
0 $2 $3 $4 $5 $6 $7 $8 $9 X,Y pos of 4 corners*
0 Add a 4 corners polygon primitive as box body*
4,1,4,$2,$3,$4,$5,$6,$7,$8,$9,$2,$3,0*
0 Add four circle primitives for the rounded corners*
1,1,$1+$1,$2,$3*
1,1,$1+$1,$4,$5*
1,1,$1+$1,$6,$7*
1,1,$1+$1,$8,$9*
0 Add four rect primitives between the rounded corners*
20,1,$1+$1,$2,$3,$4,$5,0*
20,1,$1+$1,$4,$5,$6,$7,0*
20,1,$1+$1,$6,$7,$8,$9,0*
20,1,$1+$1,$8,$9,$2,$3,0*%
G04 Aperture macros list end*
%ADD10R,2.159000X1.955800*%
%ADD11RoundRect,0.250000X0.450000X-0.262500X0.450000X0.262500X-0.450000X0.262500X-0.450000X-0.262500X0*%
%ADD12RoundRect,0.150000X0.150000X-0.825000X0.150000X0.825000X-0.150000X0.825000X-0.150000X-0.825000X0*%
%ADD13RoundRect,0.250000X-0.337500X-0.475000X0.337500X-0.475000X0.337500X0.475000X-0.337500X0.475000X0*%
%ADD14RoundRect,0.243750X0.243750X0.456250X-0.243750X0.456250X-0.243750X-0.456250X0.243750X-0.456250X0*%
%ADD15RoundRect,0.250000X-0.262500X-0.450000X0.262500X-0.450000X0.262500X0.450000X-0.262500X0.450000X0*%
%ADD16RoundRect,0.243750X-0.243750X-0.456250X0.243750X-0.456250X0.243750X0.456250X-0.243750X0.456250X0*%
%ADD17RoundRect,0.250000X-0.325000X-1.100000X0.325000X-1.100000X0.325000X1.100000X-0.325000X1.100000X0*%
%ADD18RoundRect,0.250000X0.475000X-0.250000X0.475000X0.250000X-0.475000X0.250000X-0.475000X-0.250000X0*%
%ADD19RoundRect,0.250000X-0.450000X0.262500X-0.450000X-0.262500X0.450000X-0.262500X0.450000X0.262500X0*%
%ADD20RoundRect,0.250000X-0.475000X0.250000X-0.475000X-0.250000X0.475000X-0.250000X0.475000X0.250000X0*%
%ADD21RoundRect,0.150000X-0.825000X-0.150000X0.825000X-0.150000X0.825000X0.150000X-0.825000X0.150000X0*%
%ADD22RoundRect,0.150000X0.150000X-0.875000X0.150000X0.875000X-0.150000X0.875000X-0.150000X-0.875000X0*%
%ADD23R,0.800000X2.800000*%
%ADD24R,8.900000X0.600000*%
%ADD25R,10.200000X2.900000*%
%ADD26R,8.900000X2.950000*%
%ADD27R,10.200000X1.650000*%
%ADD28R,2.100000X1.400000*%
%ADD29R,4.930000X1.190000*%
%ADD30R,4.930000X5.040000*%
%ADD31RoundRect,0.250000X0.650000X-0.325000X0.650000X0.325000X-0.650000X0.325000X-0.650000X-0.325000X0*%
%ADD32RoundRect,0.250000X-0.475000X0.337500X-0.475000X-0.337500X0.475000X-0.337500X0.475000X0.337500X0*%
%ADD33RoundRect,0.150000X-0.512500X-0.150000X0.512500X-0.150000X0.512500X0.150000X-0.512500X0.150000X0*%
%ADD34RoundRect,0.250000X0.475000X-0.337500X0.475000X0.337500X-0.475000X0.337500X-0.475000X-0.337500X0*%
%ADD35RoundRect,0.250000X-0.325000X-0.650000X0.325000X-0.650000X0.325000X0.650000X-0.325000X0.650000X0*%
G04 APERTURE END LIST*
D10*
X147890000Y-114362700D03*
X147890000Y-110425700D03*
D11*
X128168400Y-37131000D03*
X128168400Y-35306000D03*
D12*
X133705600Y-56831000D03*
X134975600Y-56831000D03*
X136245600Y-56831000D03*
X137515600Y-56831000D03*
X137515600Y-51881000D03*
X136245600Y-51881000D03*
X134975600Y-51881000D03*
X133705600Y-51881000D03*
D13*
X136749700Y-59690000D03*
X134674700Y-59690000D03*
D14*
X116410500Y-74168000D03*
X118285500Y-74168000D03*
D15*
X114399700Y-76149200D03*
X112574700Y-76149200D03*
D11*
X138125200Y-86153000D03*
X138125200Y-84328000D03*
D16*
X133756400Y-82753200D03*
X135631400Y-82753200D03*
D17*
X173023000Y-132740400D03*
X175973000Y-132740400D03*
X172972200Y-92456000D03*
X175922200Y-92456000D03*
X173327800Y-54965600D03*
X176277800Y-54965600D03*
X173023000Y-128981200D03*
X175973000Y-128981200D03*
X172921400Y-88696800D03*
X175871400Y-88696800D03*
X173327800Y-51155600D03*
X176277800Y-51155600D03*
D18*
X148930000Y-55050000D03*
X148930000Y-53150000D03*
D19*
X143600000Y-82067500D03*
X143600000Y-83892500D03*
D15*
X154027500Y-124110000D03*
X155852500Y-124110000D03*
D19*
X131267200Y-51106700D03*
X131267200Y-52931700D03*
D18*
X148390000Y-131600000D03*
X148390000Y-129700000D03*
D15*
X154007500Y-78320000D03*
X155832500Y-78320000D03*
D20*
X136017000Y-89159000D03*
X136017000Y-91059000D03*
D18*
X151490000Y-49370000D03*
X151490000Y-47470000D03*
D21*
X143585000Y-76090000D03*
X143585000Y-77360000D03*
X143585000Y-78630000D03*
X143585000Y-79900000D03*
X148535000Y-79900000D03*
X148535000Y-78630000D03*
X148535000Y-77360000D03*
X148535000Y-76090000D03*
D22*
X118211600Y-58904400D03*
X119481600Y-58904400D03*
X120751600Y-58904400D03*
X122021600Y-58904400D03*
X123291600Y-58904400D03*
X124561600Y-58904400D03*
X125831600Y-58904400D03*
X127101600Y-58904400D03*
X128371600Y-58904400D03*
X128371600Y-49604400D03*
X127101600Y-49604400D03*
X125831600Y-49604400D03*
X124561600Y-49604400D03*
X123291600Y-49604400D03*
X122021600Y-49604400D03*
X120751600Y-49604400D03*
X119481600Y-49604400D03*
X118211600Y-49604400D03*
D23*
X180000800Y-88814400D03*
X181200800Y-88814400D03*
X182400800Y-88814400D03*
X183600800Y-88814400D03*
X184800800Y-88814400D03*
X186000800Y-88814400D03*
X187200800Y-88814400D03*
X188400800Y-88814400D03*
D24*
X184200800Y-84734400D03*
D25*
X184200800Y-82985400D03*
D26*
X184200800Y-80060400D03*
D27*
X184200800Y-77760400D03*
D21*
X142895000Y-123760000D03*
X142895000Y-125030000D03*
X142895000Y-126300000D03*
X142895000Y-127570000D03*
X147845000Y-127570000D03*
X147845000Y-126300000D03*
X147845000Y-125030000D03*
X147845000Y-123760000D03*
D15*
X149627500Y-118280000D03*
X151452500Y-118280000D03*
X123166500Y-83312000D03*
X124991500Y-83312000D03*
D28*
X108410600Y-110835000D03*
X99310600Y-110835000D03*
X108410600Y-106335000D03*
X99310600Y-106335000D03*
D23*
X168275761Y-83501468D03*
X167075761Y-83501468D03*
X165875761Y-83501468D03*
X164675761Y-83501468D03*
X163475761Y-83501468D03*
X162275761Y-83501468D03*
X161075761Y-83501468D03*
X159875761Y-83501468D03*
D24*
X164075761Y-87581468D03*
D25*
X164075761Y-89330468D03*
D26*
X164075761Y-92255468D03*
D27*
X164075761Y-94555468D03*
D10*
X150610000Y-38098500D03*
X150610000Y-34161500D03*
D19*
X143880000Y-53177500D03*
X143880000Y-55002500D03*
D18*
X150850000Y-125890000D03*
X150850000Y-123990000D03*
D11*
X136271000Y-106449500D03*
X136271000Y-104624500D03*
D18*
X151390000Y-78410000D03*
X151390000Y-76510000D03*
D29*
X197866000Y-134569200D03*
D30*
X197866000Y-138384200D03*
D18*
X115722400Y-81722000D03*
X115722400Y-79822000D03*
D31*
X135990000Y-138355000D03*
X135990000Y-135405000D03*
D15*
X150697500Y-44010000D03*
X152522500Y-44010000D03*
X150097500Y-71600000D03*
X151922500Y-71600000D03*
X154047500Y-47350000D03*
X155872500Y-47350000D03*
D23*
X168575991Y-123909538D03*
X167375991Y-123909538D03*
X166175991Y-123909538D03*
X164975991Y-123909538D03*
X163775991Y-123909538D03*
X162575991Y-123909538D03*
X161375991Y-123909538D03*
X160175991Y-123909538D03*
D24*
X164375991Y-127989538D03*
D25*
X164375991Y-129738538D03*
D26*
X164375991Y-132663538D03*
D27*
X164375991Y-134963538D03*
D19*
X142980000Y-129827500D03*
X142980000Y-131652500D03*
D32*
X134321086Y-66297900D03*
X134321086Y-68372900D03*
D18*
X148910000Y-83750000D03*
X148910000Y-81850000D03*
D23*
X169515791Y-46185538D03*
X168315791Y-46185538D03*
X167115791Y-46185538D03*
X165915791Y-46185538D03*
X164715791Y-46185538D03*
X163515791Y-46185538D03*
X162315791Y-46185538D03*
X161115791Y-46185538D03*
D24*
X165315791Y-50265538D03*
D25*
X165315791Y-52014538D03*
D26*
X165315791Y-54939538D03*
D27*
X165315791Y-57239538D03*
D10*
X148560000Y-67098500D03*
X148560000Y-63161500D03*
D21*
X143875000Y-47240000D03*
X143875000Y-48510000D03*
X143875000Y-49780000D03*
X143875000Y-51050000D03*
X148825000Y-51050000D03*
X148825000Y-49780000D03*
X148825000Y-48510000D03*
X148825000Y-47240000D03*
D33*
X120782500Y-76520000D03*
X120782500Y-77470000D03*
X120782500Y-78420000D03*
X123057500Y-78420000D03*
X123057500Y-77470000D03*
X123057500Y-76520000D03*
D19*
X113995200Y-50090700D03*
X113995200Y-51915700D03*
D34*
X118110000Y-81809500D03*
X118110000Y-79734500D03*
D23*
X179950000Y-129200800D03*
X181150000Y-129200800D03*
X182350000Y-129200800D03*
X183550000Y-129200800D03*
X184750000Y-129200800D03*
X185950000Y-129200800D03*
X187150000Y-129200800D03*
X188350000Y-129200800D03*
D24*
X184150000Y-125120800D03*
D25*
X184150000Y-123371800D03*
D26*
X184150000Y-120446800D03*
D27*
X184150000Y-118146800D03*
D35*
X127805000Y-135180000D03*
X130755000Y-135180000D03*
D23*
X180051600Y-51324000D03*
X181251600Y-51324000D03*
X182451600Y-51324000D03*
X183651600Y-51324000D03*
X184851600Y-51324000D03*
X186051600Y-51324000D03*
X187251600Y-51324000D03*
X188451600Y-51324000D03*
D24*
X184251600Y-47244000D03*
D25*
X184251600Y-45495000D03*
D26*
X184251600Y-42570000D03*
D27*
X184251600Y-40270000D03*
D15*
X123166500Y-81026000D03*
X124991500Y-81026000D03*
D32*
X119118086Y-66297900D03*
X119118086Y-68372900D03*
M02*
