M48
; DRILL file {KiCad 9.0.4} date 2025-10-24T08:47:42-0700
; FORMAT={-:-/ absolute / metric / decimal}
; #@! TF.CreationDate,2025-10-24T08:47:42-07:00
; #@! TF.GenerationSoftware,Kicad,Pcbnew,9.0.4
; #@! TF.FileFunction,Plated,1,4,PTH
FMAT,2
METRIC
; #@! TA.AperFunction,Plated,PTH,ViaDrill
T1C0.400
; #@! TA.AperFunction,Plated,PTH,ComponentDrill
T2C0.800
; #@! TA.AperFunction,Plated,PTH,ComponentDrill
T3C1.000
; #@! TA.AperFunction,Plated,PTH,ComponentDrill
T4C1.050
; #@! TA.AperFunction,Plated,PTH,ComponentDrill
T5C1.295
; #@! TA.AperFunction,Plated,PTH,ComponentDrill
T6C1.500
; #@! TA.AperFunction,Plated,PTH,ComponentDrill
T7C1.600
; #@! TA.AperFunction,Plated,PTH,ComponentDrill
T8C1.854
%
G90
G05
T1
X108.407Y-104.496
X113.132Y-81.94
X116.281Y-50.749
X116.281Y-54.61
X119.583Y-56.947
X120.087Y-55.418
X120.091Y-73.711
X120.65Y-47.447
X122.022Y-47.396
X123.292Y-47.396
X123.423Y-69.474
X123.436Y-65.43
X124.229Y-78.763
X124.562Y-47.396
X124.594Y-77.832
X125.222Y-76.962
X127.356Y-76.556
X129.946Y-59.385
X130.0Y-65.43
X130.058Y-69.417
X131.267Y-54.051
X131.928Y-83.922
X134.671Y-61.214
X135.67Y-133.51
X136.271Y-102.997
X136.75Y-61.751
X140.15Y-123.76
X140.21Y-125.03
X140.67Y-126.57
X141.47Y-76.1
X141.48Y-77.37
X141.529Y-139.852
X141.542Y-148.058
X141.63Y-78.89
X141.65Y-48.51
X141.69Y-47.25
X141.97Y-50.08
X144.249Y-133.249
X144.628Y-143.916
X144.628Y-152.146
X144.9Y-56.66
X145.51Y-84.8
X147.845Y-116.275
X147.845Y-120.995
X148.057Y-139.725
X148.54Y-69.25
X148.54Y-73.56
X148.825Y-45.91
X149.71Y-42.08
X150.09Y-132.46
X150.34Y-55.91
X150.45Y-84.41
X151.168Y-143.839
X151.232Y-152.146
X152.63Y-41.93
X152.77Y-118.44
X153.13Y-71.6
X154.584Y-148.082
X156.515Y-30.124
X156.515Y-38.862
X156.515Y-83.414
X156.616Y-94.539
X156.667Y-50.292
X156.667Y-56.744
X156.667Y-89.459
X156.693Y-69.088
X156.718Y-64.567
X156.718Y-130.658
X156.718Y-135.484
X156.972Y-113.132
X157.277Y-103.886
X157.696Y-152.196
X158.026Y-143.839
X158.039Y-80.061
X158.293Y-53.492
X158.674Y-72.898
X159.093Y-43.154
X159.093Y-47.141
X159.118Y-34.695
X159.182Y-117.45
X159.41Y-98.755
X159.601Y-108.787
X159.614Y-60.198
X160.528Y-64.567
X160.718Y-69.112
X160.845Y-77.748
X160.934Y-103.86
X161.468Y-30.124
X161.468Y-148.107
X161.569Y-38.811
X162.281Y-113.132
X162.712Y-60.198
X162.789Y-72.898
X163.068Y-98.73
X164.147Y-43.103
X164.173Y-34.645
X164.49Y-117.45
X164.554Y-143.814
X164.554Y-152.196
X164.592Y-103.835
X164.694Y-64.567
X164.719Y-69.088
X164.846Y-77.724
X164.909Y-108.787
X166.294Y-38.786
X166.522Y-30.074
X166.624Y-60.249
X166.675Y-98.704
X166.776Y-72.898
X167.361Y-113.132
X168.046Y-148.082
X168.161Y-103.809
X168.28Y-80.39
X168.504Y-64.567
X168.58Y-120.54
X168.618Y-69.062
X168.897Y-34.619
X169.52Y-42.85
X169.875Y-117.424
X170.294Y-108.762
X170.332Y-98.654
X170.485Y-60.249
X170.688Y-72.898
X170.688Y-80.416
X171.158Y-152.196
X171.247Y-30.048
X171.272Y-38.71
X171.45Y-143.866
X171.818Y-103.758
X172.364Y-64.567
X172.402Y-69.036
X172.415Y-76.81
X172.771Y-113.03
X173.85Y-43.001
X173.876Y-34.543
X174.193Y-80.416
X174.473Y-72.873
X174.904Y-148.082
X174.981Y-117.348
X175.4Y-108.686
X176.022Y-141.986
X176.174Y-76.81
X176.2Y-69.011
X176.225Y-29.972
X176.225Y-38.76
X176.733Y-64.567
X176.987Y-104.038
X177.978Y-72.923
X178.016Y-152.196
X178.079Y-113.03
X178.854Y-34.543
X178.918Y-101.194
X179.121Y-141.91
X179.603Y-68.986
X179.883Y-64.516
X179.934Y-132.537
X179.984Y-92.608
X180.052Y-54.949
X180.645Y-104.012
X180.708Y-108.686
X180.746Y-98.272
X180.886Y-138.658
X181.0Y-148.082
X181.204Y-29.972
X181.229Y-72.923
X181.623Y-61.289
X182.474Y-141.884
X182.575Y-95.25
X182.575Y-101.168
X182.804Y-135.66
X183.058Y-68.986
X183.159Y-58.293
X183.159Y-113.03
X183.236Y-64.491
X183.375Y-34.441
X184.112Y-152.196
X184.239Y-138.632
X184.302Y-103.988
X184.404Y-92.125
X184.404Y-98.247
X184.62Y-132.536
X184.887Y-72.923
X184.925Y-55.142
X184.975Y-61.264
X185.788Y-108.686
X185.852Y-29.997
X185.979Y-135.635
X186.03Y-141.834
X186.182Y-95.274
X186.182Y-101.143
X186.334Y-58.268
X186.411Y-64.465
X186.753Y-68.985
X187.096Y-148.082
X187.795Y-132.511
X187.795Y-138.581
X187.871Y-103.961
X187.922Y-92.099
X187.973Y-98.221
X188.1Y-55.117
X188.15Y-61.238
X188.176Y-34.441
X188.519Y-113.03
X188.824Y-72.822
X189.636Y-135.584
X189.687Y-141.783
X189.84Y-95.224
X189.84Y-101.092
X189.992Y-58.217
X190.068Y-64.414
X190.208Y-152.196
X190.436Y-68.935
X190.652Y-29.997
X191.148Y-108.686
X191.364Y-84.201
X191.414Y-76.783
X191.452Y-132.46
X191.452Y-138.531
X191.529Y-103.91
X191.579Y-92.049
X191.63Y-98.17
X191.757Y-55.066
X191.808Y-61.188
X192.507Y-72.771
X192.684Y-80.62
X192.824Y-42.798
X192.849Y-34.34
X193.345Y-148.133
X193.37Y-129.464
X193.548Y-121.768
X193.65Y-113.081
X193.7Y-38.303
X194.221Y-68.909
X194.386Y-84.15
X194.399Y-76.758
X195.186Y-126.34
X195.377Y-29.972
X195.58Y-47.117
X196.291Y-72.746
X196.355Y-117.169
X196.38Y-108.711
X196.469Y-80.594
X196.545Y-129.438
X197.066Y-143.814
X197.066Y-152.196
X198.107Y-60.121
X198.133Y-51.663
X198.171Y-84.125
X198.183Y-34.34
X198.234Y-68.884
X198.361Y-126.314
X198.412Y-76.732
X198.679Y-121.768
X198.857Y-112.979
X198.958Y-105.461
X199.301Y-97.306
X199.796Y-148.133
X200.203Y-129.388
X200.406Y-80.645
X200.431Y-64.719
X200.609Y-55.931
X200.66Y-29.972
X200.66Y-47.092
X200.685Y-38.252
X201.435Y-117.22
X201.485Y-108.635
X201.625Y-101.905
X201.803Y-93.116
X202.019Y-126.263
X202.311Y-84.201
X202.324Y-76.809
X203.162Y-143.814
X203.162Y-152.196
X203.187Y-60.172
X203.238Y-42.773
X203.238Y-51.586
X203.263Y-34.314
X203.784Y-129.413
X203.987Y-121.768
X204.165Y-112.979
X204.267Y-105.461
X204.381Y-97.357
X205.448Y-132.613
X205.6Y-126.289
X205.74Y-64.719
X205.74Y-73.457
X205.842Y-30.023
X205.918Y-55.931
X205.969Y-47.092
X205.994Y-38.252
X206.096Y-84.176
X206.146Y-148.133
X206.299Y-139.04
X206.337Y-76.783
X206.743Y-117.22
X206.794Y-108.635
X206.934Y-101.905
X207.112Y-93.116
X207.112Y-129.388
X208.445Y-68.427
X208.496Y-60.172
X208.547Y-42.773
X208.547Y-51.586
X208.572Y-34.314
X208.775Y-126.263
X209.067Y-121.768
X209.245Y-112.979
X209.296Y-80.67
X209.347Y-105.461
X209.512Y-143.814
X209.512Y-152.196
X209.69Y-97.357
X209.74Y-88.772
X210.185Y-84.201
X210.198Y-76.809
X210.579Y-128.981
X210.769Y-72.085
X210.82Y-64.719
X210.998Y-55.931
X211.049Y-47.092
X211.074Y-29.921
X211.074Y-38.252
X211.823Y-117.22
X211.874Y-108.635
X212.014Y-101.905
X212.192Y-93.116
X212.433Y-126.213
X212.903Y-148.184
X213.309Y-139.04
X213.576Y-60.172
X213.627Y-42.773
X213.627Y-51.586
X213.97Y-84.176
X214.211Y-76.783
X214.274Y-129.464
X214.427Y-121.768
X214.605Y-112.979
X214.706Y-105.461
X214.77Y-97.357
X215.849Y-126.289
X215.849Y-132.639
X216.179Y-64.719
X216.205Y-73.406
X216.268Y-152.247
X216.357Y-55.931
X216.37Y-143.814
X216.408Y-47.092
X216.433Y-38.252
X217.183Y-117.22
X217.233Y-108.635
X217.373Y-101.905
X217.551Y-93.116
X218.262Y-84.176
X218.275Y-76.783
X218.884Y-68.427
X218.935Y-60.172
X218.986Y-42.773
X218.986Y-51.586
X219.253Y-148.184
X219.266Y-132.715
X219.456Y-126.289
X219.71Y-80.62
X219.913Y-121.818
X219.964Y-113.03
X220.015Y-105.359
X220.129Y-97.357
X220.18Y-88.772
X222.618Y-152.247
X222.758Y-143.866
X222.783Y-126.314
X223.012Y-132.69
X224.815Y-129.413
X225.704Y-148.184
X226.416Y-139.598
X226.428Y-132.766
X226.644Y-126.365
X227.99Y-129.388
X228.905Y-152.298
X229.819Y-126.34
X230.073Y-132.791
X230.632Y-143.916
X233.477Y-126.289
X233.49Y-132.867
X235.204Y-139.548
X235.356Y-129.388
X237.033Y-132.944
X237.134Y-126.238
T2
X124.161Y-67.335
X129.041Y-67.335
T3
X94.742Y-43.18
X94.742Y-45.72
X94.742Y-48.26
X94.742Y-50.8
X94.742Y-53.34
X94.742Y-55.88
X94.742Y-58.42
X94.742Y-60.96
X94.742Y-63.5
X94.742Y-66.04
X94.742Y-68.58
X94.742Y-71.12
X94.742Y-73.66
X94.742Y-76.2
X94.742Y-78.74
X103.073Y-86.817
X106.629Y-101.244
X109.982Y-43.18
X109.982Y-45.72
X109.982Y-48.26
X109.982Y-50.8
X109.982Y-53.34
X109.982Y-55.88
X109.982Y-58.42
X109.982Y-60.96
X109.982Y-63.5
X109.982Y-66.04
X109.982Y-68.58
X109.982Y-71.12
X109.982Y-73.66
X109.982Y-76.2
X109.982Y-78.74
X113.665Y-88.773
X113.665Y-91.313
X113.665Y-93.853
X113.665Y-96.393
X113.665Y-98.933
X113.665Y-101.473
X113.665Y-104.013
X113.665Y-106.553
X113.665Y-109.093
X113.665Y-111.633
X113.665Y-114.173
X113.665Y-116.713
X113.665Y-119.253
X113.665Y-121.793
X113.665Y-124.333
X122.372Y-39.081
X124.362Y-139.939
X124.912Y-39.081
X126.902Y-139.939
X128.905Y-88.773
X128.905Y-91.313
X128.905Y-93.853
X128.905Y-96.393
X128.905Y-98.933
X128.905Y-101.473
X128.905Y-104.013
X128.905Y-106.553
X128.905Y-109.093
X128.905Y-111.633
X128.905Y-114.173
X128.905Y-116.713
X128.905Y-119.253
X128.905Y-121.793
X128.905Y-124.333
X129.442Y-139.939
X133.096Y-88.798
X133.096Y-91.338
X133.096Y-93.878
X133.096Y-96.418
X133.096Y-98.958
X133.096Y-101.498
X133.096Y-104.038
X133.096Y-106.578
X133.096Y-109.118
X133.096Y-111.658
X133.096Y-114.198
X133.096Y-116.738
X133.096Y-119.278
X133.096Y-121.818
X133.096Y-124.358
X137.363Y-142.443
T4
X210.617Y-131.489
X210.617Y-138.989
T5
X96.321Y-95.085
X96.321Y-100.165
X97.155Y-117.508
X97.155Y-122.508
X97.155Y-127.508
T6
X117.55Y-150.16
X137.45Y-150.16
T7
X204.305Y-70.586
X204.305Y-80.746
X204.305Y-90.906
X214.465Y-70.586
X214.465Y-80.746
X214.465Y-90.906
X221.28Y-129.822
X221.28Y-139.982
X231.44Y-129.822
X231.44Y-139.982
T8
X132.672Y-42.929
X132.672Y-48.429
X136.872Y-42.929
X136.872Y-48.429
M30
