%TF.GenerationSoftware,KiCad,Pcbnew,9.0.4*%
%TF.CreationDate,2025-10-24T08:47:43-07:00*%
%TF.ProjectId,Urban MC,55726261-6e20-44d4-932e-6b696361645f,rev?*%
%TF.SameCoordinates,Original*%
%TF.FileFunction,Drillmap*%
%TF.FilePolarity,Positive*%
%FSLAX45Y45*%
G04 Gerber Fmt 4.5, Leading zero omitted, Abs format (unit mm)*
G04 Created by KiCad (PCBNEW 9.0.4) date 2025-10-24 08:47:43*
%MOMM*%
%LPD*%
G01*
G04 APERTURE LIST*
%ADD10C,0.100000*%
%ADD11C,0.200000*%
%ADD12C,0.105000*%
%ADD13C,0.129540*%
%ADD14C,0.150000*%
%ADD15C,0.160000*%
%ADD16C,0.185420*%
G04 APERTURE END LIST*
D10*
X22140942Y-10861040D02*
X22145509Y-3287182D01*
X23876000Y-14945360D02*
X23875000Y-14585000D01*
X21714000Y-2855000D02*
G75*
G02*
X22146330Y-3287329I0J-432330D01*
G01*
X9269679Y-3288252D02*
X9271000Y-14935200D01*
X23876000Y-14945361D02*
G75*
G02*
X23444200Y-15377160I-431800J1D01*
G01*
X22140942Y-10861040D02*
X23876000Y-12423000D01*
X9702800Y-15367000D02*
G75*
G02*
X9271000Y-14935200I0J431800D01*
G01*
X21713179Y-2854853D02*
X9701479Y-2856452D01*
X23875000Y-14585000D02*
X23876000Y-12423000D01*
X9702800Y-15367000D02*
X23444200Y-15377160D01*
X9269679Y-3288252D02*
G75*
G02*
X9701479Y-2856449I431801J2D01*
G01*
D11*
D10*
X10820720Y-10429560D02*
X10860720Y-10469560D01*
X10860720Y-10429560D02*
X10820720Y-10469560D01*
X11293160Y-8174040D02*
X11333160Y-8214040D01*
X11333160Y-8174040D02*
X11293160Y-8214040D01*
X11608120Y-5054920D02*
X11648120Y-5094920D01*
X11648120Y-5054920D02*
X11608120Y-5094920D01*
X11608120Y-5441000D02*
X11648120Y-5481000D01*
X11648120Y-5441000D02*
X11608120Y-5481000D01*
X11938320Y-5674680D02*
X11978320Y-5714680D01*
X11978320Y-5674680D02*
X11938320Y-5714680D01*
X11988655Y-5521815D02*
X12028655Y-5561815D01*
X12028655Y-5521815D02*
X11988655Y-5561815D01*
X11989120Y-7351080D02*
X12029120Y-7391080D01*
X12029120Y-7351080D02*
X11989120Y-7391080D01*
X12045000Y-4724720D02*
X12085000Y-4764720D01*
X12085000Y-4724720D02*
X12045000Y-4764720D01*
X12182160Y-4719640D02*
X12222160Y-4759640D01*
X12222160Y-4719640D02*
X12182160Y-4759640D01*
X12309160Y-4719640D02*
X12349160Y-4759640D01*
X12349160Y-4719640D02*
X12309160Y-4759640D01*
X12322283Y-6927416D02*
X12362283Y-6967416D01*
X12362283Y-6927416D02*
X12322283Y-6967416D01*
X12323609Y-6523040D02*
X12363609Y-6563040D01*
X12363609Y-6523040D02*
X12323609Y-6563040D01*
X12402931Y-7856331D02*
X12442931Y-7896331D01*
X12442931Y-7856331D02*
X12402931Y-7896331D01*
X12436160Y-4719640D02*
X12476160Y-4759640D01*
X12476160Y-4719640D02*
X12436160Y-4759640D01*
X12439433Y-7763231D02*
X12479433Y-7803231D01*
X12479433Y-7763231D02*
X12439433Y-7803231D01*
X12502200Y-7676200D02*
X12542200Y-7716200D01*
X12542200Y-7676200D02*
X12502200Y-7716200D01*
X12715560Y-7635560D02*
X12755560Y-7675560D01*
X12755560Y-7635560D02*
X12715560Y-7675560D01*
X12974640Y-5918520D02*
X13014640Y-5958520D01*
X13014640Y-5918520D02*
X12974640Y-5958520D01*
X12980040Y-6523040D02*
X13020040Y-6563040D01*
X13020040Y-6523040D02*
X12980040Y-6563040D01*
X12985785Y-6921671D02*
X13025785Y-6961671D01*
X13025785Y-6921671D02*
X12985785Y-6961671D01*
X13106720Y-5385120D02*
X13146720Y-5425120D01*
X13146720Y-5385120D02*
X13106720Y-5425120D01*
X13172760Y-8372160D02*
X13212760Y-8412160D01*
X13212760Y-8372160D02*
X13172760Y-8412160D01*
X13447080Y-6101400D02*
X13487080Y-6141400D01*
X13487080Y-6101400D02*
X13447080Y-6141400D01*
X13547000Y-13331000D02*
X13587000Y-13371000D01*
X13587000Y-13331000D02*
X13547000Y-13371000D01*
X13607100Y-10279700D02*
X13647100Y-10319700D01*
X13647100Y-10279700D02*
X13607100Y-10319700D01*
X13654970Y-6155130D02*
X13694970Y-6195130D01*
X13694970Y-6155130D02*
X13654970Y-6195130D01*
X13995000Y-12356000D02*
X14035000Y-12396000D01*
X14035000Y-12356000D02*
X13995000Y-12396000D01*
X14001000Y-12483000D02*
X14041000Y-12523000D01*
X14041000Y-12483000D02*
X14001000Y-12523000D01*
X14047000Y-12637000D02*
X14087000Y-12677000D01*
X14087000Y-12637000D02*
X14047000Y-12677000D01*
X14127000Y-7590000D02*
X14167000Y-7630000D01*
X14167000Y-7590000D02*
X14127000Y-7630000D01*
X14128000Y-7717000D02*
X14168000Y-7757000D01*
X14168000Y-7717000D02*
X14128000Y-7757000D01*
X14132880Y-13965240D02*
X14172880Y-14005240D01*
X14172880Y-13965240D02*
X14132880Y-14005240D01*
X14134161Y-14785766D02*
X14174161Y-14825766D01*
X14174161Y-14785766D02*
X14134161Y-14825766D01*
X14143000Y-7869000D02*
X14183000Y-7909000D01*
X14183000Y-7869000D02*
X14143000Y-7909000D01*
X14145000Y-4831000D02*
X14185000Y-4871000D01*
X14185000Y-4831000D02*
X14145000Y-4871000D01*
X14149000Y-4705000D02*
X14189000Y-4745000D01*
X14189000Y-4705000D02*
X14149000Y-4745000D01*
X14177000Y-4988000D02*
X14217000Y-5028000D01*
X14217000Y-4988000D02*
X14177000Y-5028000D01*
X14404897Y-13304897D02*
X14444897Y-13344897D01*
X14444897Y-13304897D02*
X14404897Y-13344897D01*
X14442760Y-14371640D02*
X14482760Y-14411640D01*
X14482760Y-14371640D02*
X14442760Y-14411640D01*
X14442760Y-15194600D02*
X14482760Y-15234600D01*
X14482760Y-15194600D02*
X14442760Y-15234600D01*
X14470000Y-5646000D02*
X14510000Y-5686000D01*
X14510000Y-5646000D02*
X14470000Y-5686000D01*
X14531000Y-8460000D02*
X14571000Y-8500000D01*
X14571000Y-8460000D02*
X14531000Y-8500000D01*
X14764500Y-11607500D02*
X14804500Y-11647500D01*
X14804500Y-11607500D02*
X14764500Y-11647500D01*
X14764500Y-12079500D02*
X14804500Y-12119500D01*
X14804500Y-12079500D02*
X14764500Y-12119500D01*
X14785660Y-13952540D02*
X14825660Y-13992540D01*
X14825660Y-13952540D02*
X14785660Y-13992540D01*
X14834000Y-6905000D02*
X14874000Y-6945000D01*
X14874000Y-6905000D02*
X14834000Y-6945000D01*
X14834000Y-7336000D02*
X14874000Y-7376000D01*
X14874000Y-7336000D02*
X14834000Y-7376000D01*
X14862500Y-4571000D02*
X14902500Y-4611000D01*
X14902500Y-4571000D02*
X14862500Y-4611000D01*
X14951000Y-4188000D02*
X14991000Y-4228000D01*
X14991000Y-4188000D02*
X14951000Y-4228000D01*
X14989000Y-13226000D02*
X15029000Y-13266000D01*
X15029000Y-13226000D02*
X14989000Y-13266000D01*
X15014000Y-5571000D02*
X15054000Y-5611000D01*
X15054000Y-5571000D02*
X15014000Y-5611000D01*
X15025000Y-8421000D02*
X15065000Y-8461000D01*
X15065000Y-8421000D02*
X15025000Y-8461000D01*
X15096799Y-14363914D02*
X15136799Y-14403914D01*
X15136799Y-14363914D02*
X15096799Y-14403914D01*
X15103160Y-15194600D02*
X15143160Y-15234600D01*
X15143160Y-15194600D02*
X15103160Y-15234600D01*
X15243000Y-4173000D02*
X15283000Y-4213000D01*
X15283000Y-4173000D02*
X15243000Y-4213000D01*
X15257000Y-11824000D02*
X15297000Y-11864000D01*
X15297000Y-11824000D02*
X15257000Y-11864000D01*
X15293000Y-7140000D02*
X15333000Y-7180000D01*
X15333000Y-7140000D02*
X15293000Y-7180000D01*
X15438440Y-14788200D02*
X15478440Y-14828200D01*
X15478440Y-14788200D02*
X15438440Y-14828200D01*
X15631480Y-2992440D02*
X15671480Y-3032440D01*
X15671480Y-2992440D02*
X15631480Y-3032440D01*
X15631480Y-3866200D02*
X15671480Y-3906200D01*
X15671480Y-3866200D02*
X15631480Y-3906200D01*
X15631480Y-8321360D02*
X15671480Y-8361360D01*
X15671480Y-8321360D02*
X15631480Y-8361360D01*
X15641640Y-9433880D02*
X15681640Y-9473880D01*
X15681640Y-9433880D02*
X15641640Y-9473880D01*
X15646720Y-5009200D02*
X15686720Y-5049200D01*
X15686720Y-5009200D02*
X15646720Y-5049200D01*
X15646720Y-5654360D02*
X15686720Y-5694360D01*
X15686720Y-5654360D02*
X15646720Y-5694360D01*
X15646720Y-8925880D02*
X15686720Y-8965880D01*
X15686720Y-8925880D02*
X15646720Y-8965880D01*
X15649260Y-6888800D02*
X15689260Y-6928800D01*
X15689260Y-6888800D02*
X15649260Y-6928800D01*
X15651800Y-6436680D02*
X15691800Y-6476680D01*
X15691800Y-6436680D02*
X15651800Y-6476680D01*
X15651800Y-13045760D02*
X15691800Y-13085760D01*
X15691800Y-13045760D02*
X15651800Y-13085760D01*
X15651800Y-13528360D02*
X15691800Y-13568360D01*
X15691800Y-13528360D02*
X15651800Y-13568360D01*
X15677200Y-11293160D02*
X15717200Y-11333160D01*
X15717200Y-11293160D02*
X15677200Y-11333160D01*
X15707680Y-10368600D02*
X15747680Y-10408600D01*
X15747680Y-10368600D02*
X15707680Y-10408600D01*
X15749579Y-15199574D02*
X15789579Y-15239574D01*
X15789579Y-15199574D02*
X15749579Y-15239574D01*
X15782599Y-14363914D02*
X15822599Y-14403914D01*
X15822599Y-14363914D02*
X15782599Y-14403914D01*
X15783880Y-7986080D02*
X15823880Y-8026080D01*
X15823880Y-7986080D02*
X15783880Y-8026080D01*
X15809280Y-5329240D02*
X15849280Y-5369240D01*
X15849280Y-5329240D02*
X15809280Y-5369240D01*
X15847380Y-7269800D02*
X15887380Y-7309800D01*
X15887380Y-7269800D02*
X15847380Y-7309800D01*
X15889279Y-4295354D02*
X15929279Y-4335354D01*
X15929279Y-4295354D02*
X15889279Y-4335354D01*
X15889279Y-4694134D02*
X15929279Y-4734134D01*
X15929279Y-4694134D02*
X15889279Y-4734134D01*
X15891819Y-3449534D02*
X15931819Y-3489534D01*
X15931819Y-3449534D02*
X15891819Y-3489534D01*
X15898180Y-11724960D02*
X15938180Y-11764960D01*
X15938180Y-11724960D02*
X15898180Y-11764960D01*
X15921040Y-9855520D02*
X15961040Y-9895520D01*
X15961040Y-9855520D02*
X15921040Y-9895520D01*
X15940079Y-10858714D02*
X15980079Y-10898714D01*
X15980079Y-10858714D02*
X15940079Y-10898714D01*
X15941360Y-5999800D02*
X15981360Y-6039800D01*
X15981360Y-5999800D02*
X15941360Y-6039800D01*
X16032800Y-6436680D02*
X16072800Y-6476680D01*
X16072800Y-6436680D02*
X16032800Y-6476680D01*
X16051839Y-6891234D02*
X16091839Y-6931234D01*
X16091839Y-6891234D02*
X16051839Y-6931234D01*
X16064539Y-7754834D02*
X16104539Y-7794834D01*
X16104539Y-7754834D02*
X16064539Y-7794834D01*
X16073440Y-10365954D02*
X16113440Y-10405954D01*
X16113440Y-10365954D02*
X16073440Y-10405954D01*
X16126780Y-2992440D02*
X16166780Y-3032440D01*
X16166780Y-2992440D02*
X16126780Y-3032440D01*
X16126780Y-14790740D02*
X16166780Y-14830740D01*
X16166780Y-14790740D02*
X16126780Y-14830740D01*
X16136940Y-3861120D02*
X16176940Y-3901120D01*
X16176940Y-3861120D02*
X16136940Y-3901120D01*
X16208060Y-11293160D02*
X16248060Y-11333160D01*
X16248060Y-11293160D02*
X16208060Y-11333160D01*
X16251240Y-5999800D02*
X16291240Y-6039800D01*
X16291240Y-5999800D02*
X16251240Y-6039800D01*
X16258860Y-7269800D02*
X16298860Y-7309800D01*
X16298860Y-7269800D02*
X16258860Y-7309800D01*
X16286800Y-9852980D02*
X16326800Y-9892980D01*
X16326800Y-9852980D02*
X16286800Y-9892980D01*
X16394739Y-4290274D02*
X16434739Y-4330274D01*
X16434739Y-4290274D02*
X16394739Y-4330274D01*
X16397279Y-3444454D02*
X16437279Y-3484454D01*
X16437279Y-3444454D02*
X16397279Y-3484454D01*
X16429040Y-11724960D02*
X16469040Y-11764960D01*
X16469040Y-11724960D02*
X16429040Y-11764960D01*
X16435379Y-14361374D02*
X16475379Y-14401374D01*
X16475379Y-14361374D02*
X16435379Y-14401374D01*
X16435379Y-15199574D02*
X16475379Y-15239574D01*
X16475379Y-15199574D02*
X16435379Y-15239574D01*
X16439200Y-10363520D02*
X16479200Y-10403520D01*
X16479200Y-10363520D02*
X16439200Y-10403520D01*
X16449360Y-6436680D02*
X16489360Y-6476680D01*
X16489360Y-6436680D02*
X16449360Y-6476680D01*
X16451900Y-6888800D02*
X16491900Y-6928800D01*
X16491900Y-6888800D02*
X16451900Y-6928800D01*
X16464600Y-7752400D02*
X16504600Y-7792400D01*
X16504600Y-7752400D02*
X16464600Y-7792400D01*
X16470939Y-10858714D02*
X16510939Y-10898714D01*
X16510939Y-10858714D02*
X16470939Y-10898714D01*
X16609380Y-3858580D02*
X16649380Y-3898580D01*
X16649380Y-3858580D02*
X16609380Y-3898580D01*
X16632240Y-2987360D02*
X16672240Y-3027360D01*
X16672240Y-2987360D02*
X16632240Y-3027360D01*
X16642400Y-6004880D02*
X16682400Y-6044880D01*
X16682400Y-6004880D02*
X16642400Y-6044880D01*
X16647480Y-9850440D02*
X16687480Y-9890440D01*
X16687480Y-9850440D02*
X16647480Y-9890440D01*
X16657640Y-7269800D02*
X16697640Y-7309800D01*
X16697640Y-7269800D02*
X16657640Y-7309800D01*
X16716060Y-11293160D02*
X16756060Y-11333160D01*
X16756060Y-11293160D02*
X16716060Y-11333160D01*
X16784640Y-14788200D02*
X16824640Y-14828200D01*
X16824640Y-14788200D02*
X16784640Y-14828200D01*
X16796059Y-10360874D02*
X16836059Y-10400874D01*
X16836059Y-10360874D02*
X16796059Y-10400874D01*
X16808000Y-8019000D02*
X16848000Y-8059000D01*
X16848000Y-8019000D02*
X16808000Y-8059000D01*
X16830360Y-6436680D02*
X16870360Y-6476680D01*
X16870360Y-6436680D02*
X16830360Y-6476680D01*
X16838000Y-12034000D02*
X16878000Y-12074000D01*
X16878000Y-12034000D02*
X16838000Y-12074000D01*
X16841779Y-6886154D02*
X16881779Y-6926154D01*
X16881779Y-6886154D02*
X16841779Y-6926154D01*
X16869719Y-3441914D02*
X16909719Y-3481914D01*
X16909719Y-3441914D02*
X16869719Y-3481914D01*
X16932000Y-4265000D02*
X16972000Y-4305000D01*
X16972000Y-4265000D02*
X16932000Y-4305000D01*
X16967520Y-11722420D02*
X17007520Y-11762420D01*
X17007520Y-11722420D02*
X16967520Y-11762420D01*
X17009419Y-10856174D02*
X17049419Y-10896174D01*
X17049419Y-10856174D02*
X17009419Y-10896174D01*
X17013240Y-9845360D02*
X17053240Y-9885360D01*
X17053240Y-9845360D02*
X17013240Y-9885360D01*
X17028480Y-6004880D02*
X17068480Y-6044880D01*
X17068480Y-6004880D02*
X17028480Y-6044880D01*
X17048800Y-7269800D02*
X17088800Y-7309800D01*
X17088800Y-7269800D02*
X17048800Y-7309800D01*
X17048800Y-8021640D02*
X17088800Y-8061640D01*
X17088800Y-8021640D02*
X17048800Y-8061640D01*
X17095779Y-15199574D02*
X17135779Y-15239574D01*
X17135779Y-15199574D02*
X17095779Y-15239574D01*
X17104680Y-2984820D02*
X17144680Y-3024820D01*
X17144680Y-2984820D02*
X17104680Y-3024820D01*
X17107220Y-3850960D02*
X17147220Y-3890960D01*
X17147220Y-3850960D02*
X17107220Y-3890960D01*
X17125000Y-14366560D02*
X17165000Y-14406560D01*
X17165000Y-14366560D02*
X17125000Y-14406560D01*
X17161819Y-10355794D02*
X17201819Y-10395794D01*
X17201819Y-10355794D02*
X17161819Y-10395794D01*
X17216440Y-6436680D02*
X17256440Y-6476680D01*
X17256440Y-6436680D02*
X17216440Y-6476680D01*
X17220239Y-6883614D02*
X17260239Y-6923614D01*
X17260239Y-6883614D02*
X17220239Y-6923614D01*
X17221520Y-7660960D02*
X17261520Y-7700960D01*
X17261520Y-7660960D02*
X17221520Y-7700960D01*
X17257080Y-11283000D02*
X17297080Y-11323000D01*
X17297080Y-11283000D02*
X17257080Y-11323000D01*
X17365019Y-4280114D02*
X17405019Y-4320114D01*
X17405019Y-4280114D02*
X17365019Y-4320114D01*
X17367559Y-3434294D02*
X17407559Y-3474294D01*
X17407559Y-3434294D02*
X17367559Y-3474294D01*
X17399320Y-8021640D02*
X17439320Y-8061640D01*
X17439320Y-8021640D02*
X17399320Y-8061640D01*
X17427260Y-7267260D02*
X17467260Y-7307260D01*
X17467260Y-7267260D02*
X17427260Y-7307260D01*
X17470440Y-14788200D02*
X17510440Y-14828200D01*
X17510440Y-14788200D02*
X17470440Y-14828200D01*
X17478060Y-11714800D02*
X17518060Y-11754800D01*
X17518060Y-11714800D02*
X17478060Y-11754800D01*
X17519959Y-10848554D02*
X17559959Y-10888554D01*
X17559959Y-10848554D02*
X17519959Y-10888554D01*
X17582200Y-14178600D02*
X17622200Y-14218600D01*
X17622200Y-14178600D02*
X17582200Y-14218600D01*
X17597440Y-7660960D02*
X17637440Y-7700960D01*
X17637440Y-7660960D02*
X17597440Y-7700960D01*
X17599980Y-6881074D02*
X17639980Y-6921074D01*
X17639980Y-6881074D02*
X17599980Y-6921074D01*
X17602520Y-2977200D02*
X17642520Y-3017200D01*
X17642520Y-2977200D02*
X17602520Y-3017200D01*
X17602520Y-3856040D02*
X17642520Y-3896040D01*
X17642520Y-3856040D02*
X17602520Y-3896040D01*
X17653320Y-6436680D02*
X17693320Y-6476680D01*
X17693320Y-6436680D02*
X17653320Y-6476680D01*
X17678720Y-10383840D02*
X17718720Y-10423840D01*
X17718720Y-10383840D02*
X17678720Y-10423840D01*
X17777780Y-7272340D02*
X17817780Y-7312340D01*
X17817780Y-7272340D02*
X17777780Y-7312340D01*
X17781579Y-15199574D02*
X17821579Y-15239574D01*
X17821579Y-15199574D02*
X17781579Y-15239574D01*
X17787940Y-11283000D02*
X17827940Y-11323000D01*
X17827940Y-11283000D02*
X17787940Y-11323000D01*
X17865399Y-3434294D02*
X17905399Y-3474294D01*
X17905399Y-3434294D02*
X17865399Y-3474294D01*
X17871760Y-10099360D02*
X17911760Y-10139360D01*
X17911760Y-10099360D02*
X17871760Y-10139360D01*
X17892080Y-14170980D02*
X17932080Y-14210980D01*
X17932080Y-14170980D02*
X17892080Y-14210980D01*
X17940340Y-6878640D02*
X17980340Y-6918640D01*
X17980340Y-6878640D02*
X17940340Y-6918640D01*
X17968280Y-6431600D02*
X18008280Y-6471600D01*
X18008280Y-6431600D02*
X17968280Y-6471600D01*
X17973360Y-13233720D02*
X18013360Y-13273720D01*
X18013360Y-13233720D02*
X17973360Y-13273720D01*
X17978440Y-9240840D02*
X18018440Y-9280840D01*
X18018440Y-9240840D02*
X17978440Y-9280840D01*
X17985160Y-5474920D02*
X18025160Y-5514920D01*
X18025160Y-5474920D02*
X17985160Y-5514920D01*
X18044480Y-10381194D02*
X18084480Y-10421194D01*
X18084480Y-10381194D02*
X18044480Y-10421194D01*
X18050819Y-10848554D02*
X18090819Y-10888554D01*
X18090819Y-10848554D02*
X18050819Y-10888554D01*
X18054640Y-9807154D02*
X18094640Y-9847154D01*
X18094640Y-9807154D02*
X18054640Y-9847154D01*
X18068599Y-13845754D02*
X18108599Y-13885754D01*
X18108599Y-13845754D02*
X18068599Y-13885754D01*
X18080040Y-14788200D02*
X18120040Y-14828200D01*
X18120040Y-14788200D02*
X18080040Y-14828200D01*
X18100360Y-2977200D02*
X18140360Y-3017200D01*
X18140360Y-2977200D02*
X18100360Y-3017200D01*
X18102900Y-7272340D02*
X18142900Y-7312340D01*
X18142900Y-7272340D02*
X18102900Y-7312340D01*
X18142259Y-6108914D02*
X18182259Y-6148914D01*
X18182259Y-6108914D02*
X18142259Y-6148914D01*
X18227360Y-14168440D02*
X18267360Y-14208440D01*
X18267360Y-14168440D02*
X18227360Y-14208440D01*
X18237520Y-9505000D02*
X18277520Y-9545000D01*
X18277520Y-9505000D02*
X18237520Y-9545000D01*
X18237520Y-10096820D02*
X18277520Y-10136820D01*
X18277520Y-10096820D02*
X18237520Y-10136820D01*
X18260380Y-13546034D02*
X18300380Y-13586034D01*
X18300380Y-13546034D02*
X18260380Y-13586034D01*
X18285780Y-6878640D02*
X18325780Y-6918640D01*
X18325780Y-6878640D02*
X18285780Y-6918640D01*
X18295940Y-5809300D02*
X18335940Y-5849300D01*
X18335940Y-5809300D02*
X18295940Y-5849300D01*
X18295940Y-11283000D02*
X18335940Y-11323000D01*
X18335940Y-11283000D02*
X18295940Y-11323000D01*
X18303560Y-6429060D02*
X18343560Y-6469060D01*
X18343560Y-6429060D02*
X18303560Y-6469060D01*
X18317519Y-3424134D02*
X18357519Y-3464134D01*
X18357519Y-3424134D02*
X18317519Y-3464134D01*
X18391179Y-15199574D02*
X18431179Y-15239574D01*
X18431179Y-15199574D02*
X18391179Y-15239574D01*
X18403879Y-13843214D02*
X18443879Y-13883214D01*
X18443879Y-13843214D02*
X18403879Y-13883214D01*
X18410240Y-10378760D02*
X18450240Y-10418760D01*
X18450240Y-10378760D02*
X18410240Y-10418760D01*
X18420400Y-9192474D02*
X18460400Y-9232474D01*
X18460400Y-9192474D02*
X18420400Y-9232474D01*
X18420400Y-9804720D02*
X18460400Y-9844720D01*
X18460400Y-9804720D02*
X18420400Y-9844720D01*
X18441979Y-13233614D02*
X18481979Y-13273614D01*
X18481979Y-13233614D02*
X18441979Y-13273614D01*
X18468660Y-7272340D02*
X18508660Y-7312340D01*
X18508660Y-7272340D02*
X18468660Y-7312340D01*
X18472459Y-5494234D02*
X18512459Y-5534234D01*
X18512459Y-5494234D02*
X18472459Y-5534234D01*
X18477539Y-6106374D02*
X18517539Y-6146374D01*
X18517539Y-6106374D02*
X18477539Y-6146374D01*
X18558819Y-10848554D02*
X18598819Y-10888554D01*
X18598819Y-10848554D02*
X18558819Y-10888554D01*
X18565180Y-2979740D02*
X18605180Y-3019740D01*
X18605180Y-2979740D02*
X18565180Y-3019740D01*
X18577880Y-13543494D02*
X18617880Y-13583494D01*
X18617880Y-13543494D02*
X18577880Y-13583494D01*
X18582960Y-14163360D02*
X18622960Y-14203360D01*
X18622960Y-14163360D02*
X18582960Y-14203360D01*
X18598200Y-9507434D02*
X18638200Y-9547434D01*
X18638200Y-9507434D02*
X18598200Y-9547434D01*
X18598200Y-10094280D02*
X18638200Y-10134280D01*
X18638200Y-10094280D02*
X18598200Y-10134280D01*
X18613440Y-5806760D02*
X18653440Y-5846760D01*
X18653440Y-5806760D02*
X18613440Y-5846760D01*
X18621060Y-6426520D02*
X18661060Y-6466520D01*
X18661060Y-6426520D02*
X18621060Y-6466520D01*
X18655339Y-6878534D02*
X18695339Y-6918534D01*
X18695339Y-6878534D02*
X18655339Y-6918534D01*
X18689640Y-14788200D02*
X18729640Y-14828200D01*
X18729640Y-14788200D02*
X18689640Y-14828200D01*
X18759479Y-13231074D02*
X18799479Y-13271074D01*
X18799479Y-13231074D02*
X18759479Y-13271074D01*
X18759479Y-13838134D02*
X18799479Y-13878134D01*
X18799479Y-13838134D02*
X18759479Y-13878134D01*
X18767099Y-10376114D02*
X18807099Y-10416114D01*
X18807099Y-10376114D02*
X18767099Y-10416114D01*
X18772179Y-9189934D02*
X18812179Y-9229934D01*
X18812179Y-9189934D02*
X18772179Y-9229934D01*
X18777259Y-9802074D02*
X18817259Y-9842074D01*
X18817259Y-9802074D02*
X18777259Y-9842074D01*
X18789959Y-5491694D02*
X18829959Y-5531694D01*
X18829959Y-5491694D02*
X18789959Y-5531694D01*
X18795039Y-6103834D02*
X18835039Y-6143834D01*
X18835039Y-6103834D02*
X18795039Y-6143834D01*
X18797579Y-3424134D02*
X18837579Y-3464134D01*
X18837579Y-3424134D02*
X18797579Y-3464134D01*
X18831880Y-11283000D02*
X18871880Y-11323000D01*
X18871880Y-11283000D02*
X18831880Y-11323000D01*
X18862360Y-7262180D02*
X18902360Y-7302180D01*
X18902360Y-7262180D02*
X18862360Y-7302180D01*
X18943640Y-13538414D02*
X18983640Y-13578414D01*
X18983640Y-13538414D02*
X18943640Y-13578414D01*
X18948720Y-14158280D02*
X18988720Y-14198280D01*
X18988720Y-14158280D02*
X18948720Y-14198280D01*
X18963960Y-9502354D02*
X19003960Y-9542354D01*
X19003960Y-9502354D02*
X18963960Y-9542354D01*
X18963960Y-10089200D02*
X19003960Y-10129200D01*
X19003960Y-10089200D02*
X18963960Y-10129200D01*
X18979200Y-5801680D02*
X19019200Y-5841680D01*
X19019200Y-5801680D02*
X18979200Y-5841680D01*
X18986820Y-6421440D02*
X19026820Y-6461440D01*
X19026820Y-6421440D02*
X18986820Y-6461440D01*
X19000779Y-15199574D02*
X19040779Y-15239574D01*
X19040779Y-15199574D02*
X19000779Y-15239574D01*
X19023639Y-6873454D02*
X19063639Y-6913454D01*
X19063639Y-6873454D02*
X19023639Y-6913454D01*
X19045240Y-2979740D02*
X19085240Y-3019740D01*
X19085240Y-2979740D02*
X19045240Y-3019740D01*
X19094759Y-10848554D02*
X19134759Y-10888554D01*
X19134759Y-10848554D02*
X19094759Y-10888554D01*
X19116360Y-8400100D02*
X19156360Y-8440100D01*
X19156360Y-8400100D02*
X19116360Y-8440100D01*
X19121440Y-7658314D02*
X19161440Y-7698314D01*
X19161440Y-7658314D02*
X19121440Y-7698314D01*
X19125239Y-13225994D02*
X19165239Y-13265994D01*
X19165239Y-13225994D02*
X19125239Y-13265994D01*
X19125239Y-13833054D02*
X19165239Y-13873054D01*
X19165239Y-13833054D02*
X19125239Y-13873054D01*
X19132859Y-10371034D02*
X19172859Y-10411034D01*
X19172859Y-10371034D02*
X19132859Y-10411034D01*
X19137939Y-9184854D02*
X19177939Y-9224854D01*
X19177939Y-9184854D02*
X19137939Y-9224854D01*
X19143019Y-9796994D02*
X19183019Y-9836994D01*
X19183019Y-9796994D02*
X19143019Y-9836994D01*
X19155719Y-5486614D02*
X19195719Y-5526614D01*
X19195719Y-5486614D02*
X19155719Y-5526614D01*
X19160799Y-6098754D02*
X19200799Y-6138754D01*
X19200799Y-6098754D02*
X19160799Y-6138754D01*
X19230660Y-7257100D02*
X19270660Y-7297100D01*
X19270660Y-7257100D02*
X19230660Y-7297100D01*
X19248440Y-8041960D02*
X19288440Y-8081960D01*
X19288440Y-8041960D02*
X19248440Y-8081960D01*
X19262399Y-4259794D02*
X19302399Y-4299794D01*
X19302399Y-4259794D02*
X19262399Y-4299794D01*
X19264939Y-3413974D02*
X19304939Y-3453974D01*
X19304939Y-3413974D02*
X19264939Y-3453974D01*
X19314480Y-14793280D02*
X19354480Y-14833280D01*
X19354480Y-14793280D02*
X19314480Y-14833280D01*
X19317020Y-12926380D02*
X19357020Y-12966380D01*
X19357020Y-12926380D02*
X19317020Y-12966380D01*
X19334800Y-12156760D02*
X19374800Y-12196760D01*
X19374800Y-12156760D02*
X19334800Y-12196760D01*
X19344960Y-11288080D02*
X19384960Y-11328080D01*
X19384960Y-11288080D02*
X19344960Y-11328080D01*
X19350040Y-3810320D02*
X19390040Y-3850320D01*
X19390040Y-3810320D02*
X19350040Y-3850320D01*
X19402099Y-6870914D02*
X19442099Y-6910914D01*
X19442099Y-6870914D02*
X19402099Y-6910914D01*
X19418620Y-8395020D02*
X19458620Y-8435020D01*
X19458620Y-8395020D02*
X19418620Y-8435020D01*
X19419879Y-7655774D02*
X19459879Y-7695774D01*
X19459879Y-7655774D02*
X19419879Y-7695774D01*
X19498619Y-12613960D02*
X19538619Y-12653960D01*
X19538619Y-12613960D02*
X19498619Y-12653960D01*
X19517680Y-2977200D02*
X19557680Y-3017200D01*
X19557680Y-2977200D02*
X19517680Y-3017200D01*
X19538000Y-4691700D02*
X19578000Y-4731700D01*
X19578000Y-4691700D02*
X19538000Y-4731700D01*
X19609120Y-7254560D02*
X19649120Y-7294560D01*
X19649120Y-7254560D02*
X19609120Y-7294560D01*
X19615459Y-11696914D02*
X19655459Y-11736914D01*
X19655459Y-11696914D02*
X19615459Y-11736914D01*
X19617999Y-10851094D02*
X19657999Y-10891094D01*
X19657999Y-10851094D02*
X19617999Y-10891094D01*
X19626900Y-8039420D02*
X19666900Y-8079420D01*
X19666900Y-8039420D02*
X19626900Y-8079420D01*
X19634520Y-12923840D02*
X19674520Y-12963840D01*
X19674520Y-12923840D02*
X19634520Y-12963840D01*
X19686579Y-14361374D02*
X19726579Y-14401374D01*
X19726579Y-14361374D02*
X19686579Y-14401374D01*
X19686579Y-15199574D02*
X19726579Y-15239574D01*
X19726579Y-15199574D02*
X19686579Y-15239574D01*
X19790719Y-5992074D02*
X19830719Y-6032074D01*
X19830719Y-5992074D02*
X19790719Y-6032074D01*
X19793259Y-5146254D02*
X19833259Y-5186254D01*
X19833259Y-5146254D02*
X19793259Y-5186254D01*
X19797080Y-8392480D02*
X19837080Y-8432480D01*
X19837080Y-8392480D02*
X19797080Y-8432480D01*
X19798339Y-3413974D02*
X19838339Y-3453974D01*
X19838339Y-3413974D02*
X19798339Y-3453974D01*
X19803419Y-6868374D02*
X19843419Y-6908374D01*
X19843419Y-6868374D02*
X19803419Y-6908374D01*
X19816119Y-12611420D02*
X19856119Y-12651420D01*
X19856119Y-12611420D02*
X19816119Y-12651420D01*
X19821199Y-7653234D02*
X19861199Y-7693234D01*
X19861199Y-7653234D02*
X19821199Y-7693234D01*
X19847880Y-12156760D02*
X19887880Y-12196760D01*
X19887880Y-12156760D02*
X19847880Y-12196760D01*
X19865660Y-11277920D02*
X19905660Y-11317920D01*
X19905660Y-11277920D02*
X19865660Y-11317920D01*
X19875820Y-10526080D02*
X19915820Y-10566080D01*
X19915820Y-10526080D02*
X19875820Y-10566080D01*
X19910099Y-9710634D02*
X19950099Y-9750634D01*
X19950099Y-9710634D02*
X19910099Y-9750634D01*
X19959640Y-14793280D02*
X19999640Y-14833280D01*
X19999640Y-14793280D02*
X19959640Y-14833280D01*
X20000280Y-12918760D02*
X20040280Y-12958760D01*
X20040280Y-12918760D02*
X20000280Y-12958760D01*
X20020600Y-8044500D02*
X20060600Y-8084500D01*
X20060600Y-8044500D02*
X20020600Y-8084500D01*
X20023140Y-6451920D02*
X20063140Y-6491920D01*
X20063140Y-6451920D02*
X20023140Y-6491920D01*
X20040920Y-5573080D02*
X20080920Y-5613080D01*
X20080920Y-5573080D02*
X20040920Y-5613080D01*
X20046000Y-2977200D02*
X20086000Y-3017200D01*
X20086000Y-2977200D02*
X20046000Y-3017200D01*
X20046000Y-4689160D02*
X20086000Y-4729160D01*
X20086000Y-4689160D02*
X20046000Y-4729160D01*
X20048540Y-3805240D02*
X20088540Y-3845240D01*
X20088540Y-3805240D02*
X20048540Y-3845240D01*
X20123459Y-11701994D02*
X20163459Y-11741994D01*
X20163459Y-11701994D02*
X20123459Y-11741994D01*
X20128539Y-10843474D02*
X20168539Y-10883474D01*
X20168539Y-10843474D02*
X20128539Y-10883474D01*
X20142520Y-10170480D02*
X20182520Y-10210480D01*
X20182520Y-10170480D02*
X20142520Y-10210480D01*
X20160300Y-9291640D02*
X20200300Y-9331640D01*
X20200300Y-9291640D02*
X20160300Y-9331640D01*
X20181879Y-12606340D02*
X20221879Y-12646340D01*
X20221879Y-12606340D02*
X20181879Y-12646340D01*
X20211100Y-8400100D02*
X20251100Y-8440100D01*
X20251100Y-8400100D02*
X20211100Y-8440100D01*
X20212359Y-7660854D02*
X20252359Y-7700854D01*
X20252359Y-7660854D02*
X20212359Y-7700854D01*
X20296179Y-14361374D02*
X20336179Y-14401374D01*
X20336179Y-14361374D02*
X20296179Y-14401374D01*
X20296179Y-15199574D02*
X20336179Y-15239574D01*
X20336179Y-15199574D02*
X20296179Y-15239574D01*
X20298719Y-5997154D02*
X20338719Y-6037154D01*
X20338719Y-5997154D02*
X20298719Y-6037154D01*
X20303799Y-4257254D02*
X20343799Y-4297254D01*
X20343799Y-4257254D02*
X20303799Y-4297254D01*
X20303799Y-5138634D02*
X20343799Y-5178634D01*
X20343799Y-5138634D02*
X20303799Y-5178634D01*
X20306339Y-3411434D02*
X20346339Y-3451434D01*
X20346339Y-3411434D02*
X20306339Y-3451434D01*
X20358420Y-12921300D02*
X20398420Y-12961300D01*
X20398420Y-12921300D02*
X20358420Y-12961300D01*
X20378740Y-12156760D02*
X20418740Y-12196760D01*
X20418740Y-12156760D02*
X20378740Y-12196760D01*
X20396520Y-11277920D02*
X20436520Y-11317920D01*
X20436520Y-11277920D02*
X20396520Y-11317920D01*
X20406680Y-10526080D02*
X20446680Y-10566080D01*
X20446680Y-10526080D02*
X20406680Y-10566080D01*
X20418099Y-9715714D02*
X20458099Y-9755714D01*
X20458099Y-9715714D02*
X20418099Y-9755714D01*
X20524801Y-13241340D02*
X20564801Y-13281340D01*
X20564801Y-13241340D02*
X20524801Y-13281340D01*
X20540019Y-12608880D02*
X20580019Y-12648880D01*
X20580019Y-12608880D02*
X20540019Y-12648880D01*
X20554000Y-6451920D02*
X20594000Y-6491920D01*
X20594000Y-6451920D02*
X20554000Y-6491920D01*
X20554000Y-7325680D02*
X20594000Y-7365680D01*
X20594000Y-7325680D02*
X20554000Y-7365680D01*
X20564160Y-2982280D02*
X20604160Y-3022280D01*
X20604160Y-2982280D02*
X20564160Y-3022280D01*
X20571780Y-5573080D02*
X20611780Y-5613080D01*
X20611780Y-5573080D02*
X20571780Y-5613080D01*
X20576860Y-4689160D02*
X20616860Y-4729160D01*
X20616860Y-4689160D02*
X20576860Y-4729160D01*
X20579400Y-3805240D02*
X20619400Y-3845240D01*
X20619400Y-3805240D02*
X20579400Y-3845240D01*
X20589560Y-8397560D02*
X20629560Y-8437560D01*
X20629560Y-8397560D02*
X20589560Y-8437560D01*
X20594640Y-14793280D02*
X20634640Y-14833280D01*
X20634640Y-14793280D02*
X20594640Y-14833280D01*
X20609880Y-13883960D02*
X20649880Y-13923960D01*
X20649880Y-13883960D02*
X20609880Y-13923960D01*
X20613679Y-7658314D02*
X20653679Y-7698314D01*
X20653679Y-7658314D02*
X20613679Y-7698314D01*
X20654319Y-11701994D02*
X20694319Y-11741994D01*
X20694319Y-11701994D02*
X20654319Y-11741994D01*
X20659399Y-10843474D02*
X20699399Y-10883474D01*
X20699399Y-10843474D02*
X20659399Y-10883474D01*
X20673380Y-10170480D02*
X20713380Y-10210480D01*
X20713380Y-10170480D02*
X20673380Y-10210480D01*
X20691160Y-9291640D02*
X20731160Y-9331640D01*
X20731160Y-9291640D02*
X20691160Y-9331640D01*
X20691160Y-12918760D02*
X20731160Y-12958760D01*
X20731160Y-12918760D02*
X20691160Y-12958760D01*
X20824499Y-6822654D02*
X20864499Y-6862654D01*
X20864499Y-6822654D02*
X20824499Y-6862654D01*
X20829579Y-5997154D02*
X20869579Y-6037154D01*
X20869579Y-5997154D02*
X20829579Y-6037154D01*
X20834659Y-4257254D02*
X20874659Y-4297254D01*
X20874659Y-4257254D02*
X20834659Y-4297254D01*
X20834659Y-5138634D02*
X20874659Y-5178634D01*
X20874659Y-5138634D02*
X20834659Y-5178634D01*
X20837199Y-3411434D02*
X20877199Y-3451434D01*
X20877199Y-3411434D02*
X20837199Y-3451434D01*
X20857519Y-12606340D02*
X20897519Y-12646340D01*
X20897519Y-12606340D02*
X20857519Y-12646340D01*
X20886740Y-12156760D02*
X20926740Y-12196760D01*
X20926740Y-12156760D02*
X20886740Y-12196760D01*
X20904520Y-11277920D02*
X20944520Y-11317920D01*
X20944520Y-11277920D02*
X20904520Y-11317920D01*
X20909600Y-8047040D02*
X20949600Y-8087040D01*
X20949600Y-8047040D02*
X20909600Y-8087040D01*
X20914680Y-10526080D02*
X20954680Y-10566080D01*
X20954680Y-10526080D02*
X20914680Y-10566080D01*
X20931179Y-14361374D02*
X20971179Y-14401374D01*
X20971179Y-14361374D02*
X20931179Y-14401374D01*
X20931179Y-15199574D02*
X20971179Y-15239574D01*
X20971179Y-15199574D02*
X20931179Y-15239574D01*
X20948959Y-9715714D02*
X20988959Y-9755714D01*
X20988959Y-9715714D02*
X20948959Y-9755714D01*
X20954039Y-8857194D02*
X20994039Y-8897194D01*
X20994039Y-8857194D02*
X20954039Y-8897194D01*
X20998500Y-8400100D02*
X21038500Y-8440100D01*
X21038500Y-8400100D02*
X20998500Y-8440100D01*
X20999759Y-7660854D02*
X21039759Y-7700854D01*
X21039759Y-7660854D02*
X20999759Y-7700854D01*
X21037859Y-12878120D02*
X21077859Y-12918120D01*
X21077859Y-12878120D02*
X21037859Y-12918120D01*
X21056920Y-7188520D02*
X21096920Y-7228520D01*
X21096920Y-7188520D02*
X21056920Y-7228520D01*
X21062000Y-6451920D02*
X21102000Y-6491920D01*
X21102000Y-6451920D02*
X21062000Y-6491920D01*
X21079780Y-5573080D02*
X21119780Y-5613080D01*
X21119780Y-5573080D02*
X21079780Y-5613080D01*
X21084860Y-4689160D02*
X21124860Y-4729160D01*
X21124860Y-4689160D02*
X21084860Y-4729160D01*
X21087400Y-2972120D02*
X21127400Y-3012120D01*
X21127400Y-2972120D02*
X21087400Y-3012120D01*
X21087400Y-3805240D02*
X21127400Y-3845240D01*
X21127400Y-3805240D02*
X21087400Y-3845240D01*
X21162319Y-11701994D02*
X21202319Y-11741994D01*
X21202319Y-11701994D02*
X21162319Y-11741994D01*
X21167399Y-10843474D02*
X21207399Y-10883474D01*
X21207399Y-10843474D02*
X21167399Y-10883474D01*
X21181380Y-10170480D02*
X21221380Y-10210480D01*
X21221380Y-10170480D02*
X21181380Y-10210480D01*
X21199160Y-9291640D02*
X21239160Y-9331640D01*
X21239160Y-9291640D02*
X21199160Y-9331640D01*
X21223279Y-12601260D02*
X21263279Y-12641260D01*
X21263279Y-12601260D02*
X21223279Y-12641260D01*
X21270280Y-14798360D02*
X21310280Y-14838360D01*
X21310280Y-14798360D02*
X21270280Y-14838360D01*
X21310920Y-13883960D02*
X21350920Y-13923960D01*
X21350920Y-13883960D02*
X21310920Y-13923960D01*
X21337579Y-5997154D02*
X21377579Y-6037154D01*
X21377579Y-5997154D02*
X21337579Y-6037154D01*
X21342659Y-4257254D02*
X21382659Y-4297254D01*
X21382659Y-4257254D02*
X21342659Y-4297254D01*
X21342659Y-5138634D02*
X21382659Y-5178634D01*
X21382659Y-5138634D02*
X21342659Y-5178634D01*
X21376960Y-8397560D02*
X21416960Y-8437560D01*
X21416960Y-8397560D02*
X21376960Y-8437560D01*
X21401079Y-7658314D02*
X21441079Y-7698314D01*
X21441079Y-7658314D02*
X21401079Y-7698314D01*
X21407440Y-12926380D02*
X21447440Y-12966380D01*
X21447440Y-12926380D02*
X21407440Y-12966380D01*
X21422680Y-12156760D02*
X21462680Y-12196760D01*
X21462680Y-12156760D02*
X21422680Y-12196760D01*
X21440460Y-11277920D02*
X21480460Y-11317920D01*
X21480460Y-11277920D02*
X21440460Y-11317920D01*
X21450620Y-10526080D02*
X21490620Y-10566080D01*
X21490620Y-10526080D02*
X21450620Y-10566080D01*
X21456959Y-9715714D02*
X21496959Y-9755714D01*
X21496959Y-9715714D02*
X21456959Y-9755714D01*
X21564920Y-12608880D02*
X21604920Y-12648880D01*
X21604920Y-12608880D02*
X21564920Y-12648880D01*
X21564920Y-13243880D02*
X21604920Y-13283880D01*
X21604920Y-13243880D02*
X21564920Y-13283880D01*
X21597940Y-6451920D02*
X21637940Y-6491920D01*
X21637940Y-6451920D02*
X21597940Y-6491920D01*
X21600480Y-7320600D02*
X21640480Y-7360600D01*
X21640480Y-7320600D02*
X21600480Y-7360600D01*
X21606819Y-15204654D02*
X21646819Y-15244654D01*
X21646819Y-15204654D02*
X21606819Y-15244654D01*
X21615720Y-5573080D02*
X21655720Y-5613080D01*
X21655720Y-5573080D02*
X21615720Y-5613080D01*
X21616979Y-14361374D02*
X21656979Y-14401374D01*
X21656979Y-14361374D02*
X21616979Y-14401374D01*
X21620800Y-4689160D02*
X21660800Y-4729160D01*
X21660800Y-4689160D02*
X21620800Y-4729160D01*
X21623340Y-3805240D02*
X21663340Y-3845240D01*
X21663340Y-3805240D02*
X21623340Y-3845240D01*
X21698259Y-11701994D02*
X21738259Y-11741994D01*
X21738259Y-11701994D02*
X21698259Y-11741994D01*
X21703339Y-10843474D02*
X21743339Y-10883474D01*
X21743339Y-10843474D02*
X21703339Y-10883474D01*
X21717320Y-10170480D02*
X21757320Y-10210480D01*
X21757320Y-10170480D02*
X21717320Y-10210480D01*
X21735100Y-9291640D02*
X21775100Y-9331640D01*
X21775100Y-9291640D02*
X21735100Y-9331640D01*
X21806220Y-8397560D02*
X21846220Y-8437560D01*
X21846220Y-8397560D02*
X21806220Y-8437560D01*
X21807479Y-7658314D02*
X21847479Y-7698314D01*
X21847479Y-7658314D02*
X21807479Y-7698314D01*
X21868439Y-6822654D02*
X21908439Y-6862654D01*
X21908439Y-6822654D02*
X21868439Y-6862654D01*
X21873519Y-5997154D02*
X21913519Y-6037154D01*
X21913519Y-5997154D02*
X21873519Y-6037154D01*
X21878599Y-4257254D02*
X21918599Y-4297254D01*
X21918599Y-4257254D02*
X21878599Y-4297254D01*
X21878599Y-5138634D02*
X21918599Y-5178634D01*
X21918599Y-5138634D02*
X21878599Y-5178634D01*
X21905280Y-14798360D02*
X21945280Y-14838360D01*
X21945280Y-14798360D02*
X21905280Y-14838360D01*
X21906561Y-13251500D02*
X21946561Y-13291500D01*
X21946561Y-13251500D02*
X21906561Y-13291500D01*
X21925600Y-12608880D02*
X21965600Y-12648880D01*
X21965600Y-12608880D02*
X21925600Y-12648880D01*
X21951000Y-8041960D02*
X21991000Y-8081960D01*
X21991000Y-8041960D02*
X21951000Y-8081960D01*
X21971320Y-12161840D02*
X22011320Y-12201840D01*
X22011320Y-12161840D02*
X21971320Y-12201840D01*
X21976400Y-11283000D02*
X22016400Y-11323000D01*
X22016400Y-11283000D02*
X21976400Y-11323000D01*
X21981480Y-10515920D02*
X22021480Y-10555920D01*
X22021480Y-10515920D02*
X21981480Y-10555920D01*
X21992899Y-9715714D02*
X22032899Y-9755714D01*
X22032899Y-9715714D02*
X21992899Y-9755714D01*
X21997979Y-8857194D02*
X22037979Y-8897194D01*
X22037979Y-8857194D02*
X21997979Y-8897194D01*
X22241819Y-15204654D02*
X22281819Y-15244654D01*
X22281819Y-15204654D02*
X22241819Y-15244654D01*
X22255800Y-14366560D02*
X22295800Y-14406560D01*
X22295800Y-14366560D02*
X22255800Y-14406560D01*
X22258340Y-12611420D02*
X22298340Y-12651420D01*
X22298340Y-12611420D02*
X22258340Y-12651420D01*
X22281200Y-13248960D02*
X22321200Y-13288960D01*
X22321200Y-13248960D02*
X22281200Y-13288960D01*
X22461540Y-12921300D02*
X22501540Y-12961300D01*
X22501540Y-12921300D02*
X22461540Y-12961300D01*
X22550440Y-14798360D02*
X22590440Y-14838360D01*
X22590440Y-14798360D02*
X22550440Y-14838360D01*
X22621560Y-13939840D02*
X22661560Y-13979840D01*
X22661560Y-13939840D02*
X22621560Y-13979840D01*
X22622841Y-13256580D02*
X22662841Y-13296580D01*
X22662841Y-13256580D02*
X22622841Y-13296580D01*
X22644420Y-12616500D02*
X22684420Y-12656500D01*
X22684420Y-12616500D02*
X22644420Y-12656500D01*
X22779040Y-12918760D02*
X22819040Y-12958760D01*
X22819040Y-12918760D02*
X22779040Y-12958760D01*
X22870480Y-15209840D02*
X22910480Y-15249840D01*
X22910480Y-15209840D02*
X22870480Y-15249840D01*
X22961920Y-12613960D02*
X23001920Y-12653960D01*
X23001920Y-12613960D02*
X22961920Y-12653960D01*
X22987320Y-13259120D02*
X23027320Y-13299120D01*
X23027320Y-13259120D02*
X22987320Y-13299120D01*
X23043200Y-14371640D02*
X23083200Y-14411640D01*
X23083200Y-14371640D02*
X23043200Y-14411640D01*
X23327680Y-12608880D02*
X23367680Y-12648880D01*
X23367680Y-12608880D02*
X23327680Y-12648880D01*
X23328961Y-13266740D02*
X23368961Y-13306740D01*
X23368961Y-13266740D02*
X23328961Y-13306740D01*
X23500400Y-13934760D02*
X23540400Y-13974760D01*
X23540400Y-13934760D02*
X23500400Y-13974760D01*
X23515640Y-12918760D02*
X23555640Y-12958760D01*
X23555640Y-12918760D02*
X23515640Y-12958760D01*
X23683280Y-13274360D02*
X23723280Y-13314360D01*
X23723280Y-13274360D02*
X23683280Y-13314360D01*
X23693440Y-12603800D02*
X23733440Y-12643800D01*
X23733440Y-12603800D02*
X23693440Y-12643800D01*
X12456109Y-6733540D02*
G75*
G02*
X12376109Y-6733540I-40000J0D01*
G01*
X12376109Y-6733540D02*
G75*
G02*
X12456109Y-6733540I40000J0D01*
G01*
X12944109Y-6733540D02*
G75*
G02*
X12864109Y-6733540I-40000J0D01*
G01*
X12864109Y-6733540D02*
G75*
G02*
X12944109Y-6733540I40000J0D01*
G01*
X9474200Y-4268000D02*
X9474200Y-4368000D01*
X9424200Y-4318000D02*
X9524200Y-4318000D01*
X9474200Y-4522000D02*
X9474200Y-4622000D01*
X9424200Y-4572000D02*
X9524200Y-4572000D01*
X9474200Y-4776000D02*
X9474200Y-4876000D01*
X9424200Y-4826000D02*
X9524200Y-4826000D01*
X9474200Y-5030000D02*
X9474200Y-5130000D01*
X9424200Y-5080000D02*
X9524200Y-5080000D01*
X9474200Y-5284000D02*
X9474200Y-5384000D01*
X9424200Y-5334000D02*
X9524200Y-5334000D01*
X9474200Y-5538000D02*
X9474200Y-5638000D01*
X9424200Y-5588000D02*
X9524200Y-5588000D01*
X9474200Y-5792000D02*
X9474200Y-5892000D01*
X9424200Y-5842000D02*
X9524200Y-5842000D01*
X9474200Y-6046000D02*
X9474200Y-6146000D01*
X9424200Y-6096000D02*
X9524200Y-6096000D01*
X9474200Y-6300000D02*
X9474200Y-6400000D01*
X9424200Y-6350000D02*
X9524200Y-6350000D01*
X9474200Y-6554000D02*
X9474200Y-6654000D01*
X9424200Y-6604000D02*
X9524200Y-6604000D01*
X9474200Y-6808000D02*
X9474200Y-6908000D01*
X9424200Y-6858000D02*
X9524200Y-6858000D01*
X9474200Y-7062000D02*
X9474200Y-7162000D01*
X9424200Y-7112000D02*
X9524200Y-7112000D01*
X9474200Y-7316000D02*
X9474200Y-7416000D01*
X9424200Y-7366000D02*
X9524200Y-7366000D01*
X9474200Y-7570000D02*
X9474200Y-7670000D01*
X9424200Y-7620000D02*
X9524200Y-7620000D01*
X9474200Y-7824000D02*
X9474200Y-7924000D01*
X9424200Y-7874000D02*
X9524200Y-7874000D01*
X10307320Y-8631720D02*
X10307320Y-8731720D01*
X10257320Y-8681720D02*
X10357320Y-8681720D01*
X10662920Y-10074440D02*
X10662920Y-10174440D01*
X10612920Y-10124440D02*
X10712920Y-10124440D01*
X10998200Y-4268000D02*
X10998200Y-4368000D01*
X10948200Y-4318000D02*
X11048200Y-4318000D01*
X10998200Y-4522000D02*
X10998200Y-4622000D01*
X10948200Y-4572000D02*
X11048200Y-4572000D01*
X10998200Y-4776000D02*
X10998200Y-4876000D01*
X10948200Y-4826000D02*
X11048200Y-4826000D01*
X10998200Y-5030000D02*
X10998200Y-5130000D01*
X10948200Y-5080000D02*
X11048200Y-5080000D01*
X10998200Y-5284000D02*
X10998200Y-5384000D01*
X10948200Y-5334000D02*
X11048200Y-5334000D01*
X10998200Y-5538000D02*
X10998200Y-5638000D01*
X10948200Y-5588000D02*
X11048200Y-5588000D01*
X10998200Y-5792000D02*
X10998200Y-5892000D01*
X10948200Y-5842000D02*
X11048200Y-5842000D01*
X10998200Y-6046000D02*
X10998200Y-6146000D01*
X10948200Y-6096000D02*
X11048200Y-6096000D01*
X10998200Y-6300000D02*
X10998200Y-6400000D01*
X10948200Y-6350000D02*
X11048200Y-6350000D01*
X10998200Y-6554000D02*
X10998200Y-6654000D01*
X10948200Y-6604000D02*
X11048200Y-6604000D01*
X10998200Y-6808000D02*
X10998200Y-6908000D01*
X10948200Y-6858000D02*
X11048200Y-6858000D01*
X10998200Y-7062000D02*
X10998200Y-7162000D01*
X10948200Y-7112000D02*
X11048200Y-7112000D01*
X10998200Y-7316000D02*
X10998200Y-7416000D01*
X10948200Y-7366000D02*
X11048200Y-7366000D01*
X10998200Y-7570000D02*
X10998200Y-7670000D01*
X10948200Y-7620000D02*
X11048200Y-7620000D01*
X10998200Y-7824000D02*
X10998200Y-7924000D01*
X10948200Y-7874000D02*
X11048200Y-7874000D01*
X11366500Y-8827300D02*
X11366500Y-8927300D01*
X11316500Y-8877300D02*
X11416500Y-8877300D01*
X11366500Y-9081300D02*
X11366500Y-9181300D01*
X11316500Y-9131300D02*
X11416500Y-9131300D01*
X11366500Y-9335300D02*
X11366500Y-9435300D01*
X11316500Y-9385300D02*
X11416500Y-9385300D01*
X11366500Y-9589300D02*
X11366500Y-9689300D01*
X11316500Y-9639300D02*
X11416500Y-9639300D01*
X11366500Y-9843300D02*
X11366500Y-9943300D01*
X11316500Y-9893300D02*
X11416500Y-9893300D01*
X11366500Y-10097300D02*
X11366500Y-10197300D01*
X11316500Y-10147300D02*
X11416500Y-10147300D01*
X11366500Y-10351300D02*
X11366500Y-10451300D01*
X11316500Y-10401300D02*
X11416500Y-10401300D01*
X11366500Y-10605300D02*
X11366500Y-10705300D01*
X11316500Y-10655300D02*
X11416500Y-10655300D01*
X11366500Y-10859300D02*
X11366500Y-10959300D01*
X11316500Y-10909300D02*
X11416500Y-10909300D01*
X11366500Y-11113300D02*
X11366500Y-11213300D01*
X11316500Y-11163300D02*
X11416500Y-11163300D01*
X11366500Y-11367300D02*
X11366500Y-11467300D01*
X11316500Y-11417300D02*
X11416500Y-11417300D01*
X11366500Y-11621300D02*
X11366500Y-11721300D01*
X11316500Y-11671300D02*
X11416500Y-11671300D01*
X11366500Y-11875300D02*
X11366500Y-11975300D01*
X11316500Y-11925300D02*
X11416500Y-11925300D01*
X11366500Y-12129300D02*
X11366500Y-12229300D01*
X11316500Y-12179300D02*
X11416500Y-12179300D01*
X11366500Y-12383300D02*
X11366500Y-12483300D01*
X11316500Y-12433300D02*
X11416500Y-12433300D01*
X12237220Y-3858140D02*
X12237220Y-3958140D01*
X12187220Y-3908140D02*
X12287220Y-3908140D01*
X12436240Y-13943920D02*
X12436240Y-14043920D01*
X12386240Y-13993920D02*
X12486240Y-13993920D01*
X12491220Y-3858140D02*
X12491220Y-3958140D01*
X12441220Y-3908140D02*
X12541220Y-3908140D01*
X12690240Y-13943920D02*
X12690240Y-14043920D01*
X12640240Y-13993920D02*
X12740240Y-13993920D01*
X12890500Y-8827300D02*
X12890500Y-8927300D01*
X12840500Y-8877300D02*
X12940500Y-8877300D01*
X12890500Y-9081300D02*
X12890500Y-9181300D01*
X12840500Y-9131300D02*
X12940500Y-9131300D01*
X12890500Y-9335300D02*
X12890500Y-9435300D01*
X12840500Y-9385300D02*
X12940500Y-9385300D01*
X12890500Y-9589300D02*
X12890500Y-9689300D01*
X12840500Y-9639300D02*
X12940500Y-9639300D01*
X12890500Y-9843300D02*
X12890500Y-9943300D01*
X12840500Y-9893300D02*
X12940500Y-9893300D01*
X12890500Y-10097300D02*
X12890500Y-10197300D01*
X12840500Y-10147300D02*
X12940500Y-10147300D01*
X12890500Y-10351300D02*
X12890500Y-10451300D01*
X12840500Y-10401300D02*
X12940500Y-10401300D01*
X12890500Y-10605300D02*
X12890500Y-10705300D01*
X12840500Y-10655300D02*
X12940500Y-10655300D01*
X12890500Y-10859300D02*
X12890500Y-10959300D01*
X12840500Y-10909300D02*
X12940500Y-10909300D01*
X12890500Y-11113300D02*
X12890500Y-11213300D01*
X12840500Y-11163300D02*
X12940500Y-11163300D01*
X12890500Y-11367300D02*
X12890500Y-11467300D01*
X12840500Y-11417300D02*
X12940500Y-11417300D01*
X12890500Y-11621300D02*
X12890500Y-11721300D01*
X12840500Y-11671300D02*
X12940500Y-11671300D01*
X12890500Y-11875300D02*
X12890500Y-11975300D01*
X12840500Y-11925300D02*
X12940500Y-11925300D01*
X12890500Y-12129300D02*
X12890500Y-12229300D01*
X12840500Y-12179300D02*
X12940500Y-12179300D01*
X12890500Y-12383300D02*
X12890500Y-12483300D01*
X12840500Y-12433300D02*
X12940500Y-12433300D01*
X12944240Y-13943920D02*
X12944240Y-14043920D01*
X12894240Y-13993920D02*
X12994240Y-13993920D01*
X13309600Y-8829840D02*
X13309600Y-8929840D01*
X13259600Y-8879840D02*
X13359600Y-8879840D01*
X13309600Y-9083840D02*
X13309600Y-9183840D01*
X13259600Y-9133840D02*
X13359600Y-9133840D01*
X13309600Y-9337840D02*
X13309600Y-9437840D01*
X13259600Y-9387840D02*
X13359600Y-9387840D01*
X13309600Y-9591840D02*
X13309600Y-9691840D01*
X13259600Y-9641840D02*
X13359600Y-9641840D01*
X13309600Y-9845840D02*
X13309600Y-9945840D01*
X13259600Y-9895840D02*
X13359600Y-9895840D01*
X13309600Y-10099840D02*
X13309600Y-10199840D01*
X13259600Y-10149840D02*
X13359600Y-10149840D01*
X13309600Y-10353840D02*
X13309600Y-10453840D01*
X13259600Y-10403840D02*
X13359600Y-10403840D01*
X13309600Y-10607840D02*
X13309600Y-10707840D01*
X13259600Y-10657840D02*
X13359600Y-10657840D01*
X13309600Y-10861840D02*
X13309600Y-10961840D01*
X13259600Y-10911840D02*
X13359600Y-10911840D01*
X13309600Y-11115840D02*
X13309600Y-11215840D01*
X13259600Y-11165840D02*
X13359600Y-11165840D01*
X13309600Y-11369840D02*
X13309600Y-11469840D01*
X13259600Y-11419840D02*
X13359600Y-11419840D01*
X13309600Y-11623840D02*
X13309600Y-11723840D01*
X13259600Y-11673840D02*
X13359600Y-11673840D01*
X13309600Y-11877840D02*
X13309600Y-11977840D01*
X13259600Y-11927840D02*
X13359600Y-11927840D01*
X13309600Y-12131840D02*
X13309600Y-12231840D01*
X13259600Y-12181840D02*
X13359600Y-12181840D01*
X13309600Y-12385840D02*
X13309600Y-12485840D01*
X13259600Y-12435840D02*
X13359600Y-12435840D01*
X13736320Y-14194320D02*
X13736320Y-14294320D01*
X13686320Y-14244320D02*
X13786320Y-14244320D01*
D12*
X21098804Y-13186003D02*
X21098804Y-13111756D01*
X21024557Y-13111756D01*
X21024557Y-13186003D01*
X21098804Y-13186003D01*
X21098804Y-13936003D02*
X21098804Y-13861756D01*
X21024557Y-13861756D01*
X21024557Y-13936003D01*
X21098804Y-13936003D01*
D13*
X9632050Y-9573260D02*
X9696820Y-9508490D01*
X9632050Y-9443720D01*
X9567280Y-9508490D01*
X9632050Y-9573260D01*
X9632050Y-10081260D02*
X9696820Y-10016490D01*
X9632050Y-9951720D01*
X9567280Y-10016490D01*
X9632050Y-10081260D01*
X9715500Y-11815570D02*
X9780270Y-11750800D01*
X9715500Y-11686030D01*
X9650730Y-11750800D01*
X9715500Y-11815570D01*
X9715500Y-12315570D02*
X9780270Y-12250800D01*
X9715500Y-12186030D01*
X9650730Y-12250800D01*
X9715500Y-12315570D01*
X9715500Y-12815570D02*
X9780270Y-12750800D01*
X9715500Y-12686030D01*
X9650730Y-12750800D01*
X9715500Y-12815570D01*
D14*
X11680000Y-14941000D02*
X11830000Y-15091000D01*
X11830000Y-14941000D02*
X11680000Y-15091000D01*
X11830000Y-15016000D02*
G75*
G02*
X11680000Y-15016000I-75000J0D01*
G01*
X11680000Y-15016000D02*
G75*
G02*
X11830000Y-15016000I75000J0D01*
G01*
X13670000Y-14941000D02*
X13820000Y-15091000D01*
X13820000Y-14941000D02*
X13670000Y-15091000D01*
X13820000Y-15016000D02*
G75*
G02*
X13670000Y-15016000I-75000J0D01*
G01*
X13670000Y-15016000D02*
G75*
G02*
X13820000Y-15016000I75000J0D01*
G01*
D15*
X20350479Y-6978554D02*
X20510479Y-7138554D01*
X20510479Y-6978554D02*
X20350479Y-7138554D01*
X20430479Y-6978554D02*
X20430479Y-7138554D01*
X20350479Y-7058554D02*
X20510479Y-7058554D01*
X20350479Y-7994554D02*
X20510479Y-8154554D01*
X20510479Y-7994554D02*
X20350479Y-8154554D01*
X20430479Y-7994554D02*
X20430479Y-8154554D01*
X20350479Y-8074554D02*
X20510479Y-8074554D01*
X20350479Y-9010554D02*
X20510479Y-9170554D01*
X20510479Y-9010554D02*
X20350479Y-9170554D01*
X20430479Y-9010554D02*
X20430479Y-9170554D01*
X20350479Y-9090554D02*
X20510479Y-9090554D01*
X21366479Y-6978554D02*
X21526479Y-7138554D01*
X21526479Y-6978554D02*
X21366479Y-7138554D01*
X21446479Y-6978554D02*
X21446479Y-7138554D01*
X21366479Y-7058554D02*
X21526479Y-7058554D01*
X21366479Y-7994554D02*
X21526479Y-8154554D01*
X21526479Y-7994554D02*
X21366479Y-8154554D01*
X21446479Y-7994554D02*
X21446479Y-8154554D01*
X21366479Y-8074554D02*
X21526479Y-8074554D01*
X21366479Y-9010554D02*
X21526479Y-9170554D01*
X21526479Y-9010554D02*
X21366479Y-9170554D01*
X21446479Y-9010554D02*
X21446479Y-9170554D01*
X21366479Y-9090554D02*
X21526479Y-9090554D01*
X22048000Y-12902250D02*
X22208000Y-13062250D01*
X22208000Y-12902250D02*
X22048000Y-13062250D01*
X22128000Y-12902250D02*
X22128000Y-13062250D01*
X22048000Y-12982250D02*
X22208000Y-12982250D01*
X22048000Y-13918250D02*
X22208000Y-14078250D01*
X22208000Y-13918250D02*
X22048000Y-14078250D01*
X22128000Y-13918250D02*
X22128000Y-14078250D01*
X22048000Y-13998250D02*
X22208000Y-13998250D01*
X23064000Y-12902250D02*
X23224000Y-13062250D01*
X23224000Y-12902250D02*
X23064000Y-13062250D01*
X23144000Y-12902250D02*
X23144000Y-13062250D01*
X23064000Y-12982250D02*
X23224000Y-12982250D01*
X23064000Y-13918250D02*
X23224000Y-14078250D01*
X23224000Y-13918250D02*
X23064000Y-14078250D01*
X23144000Y-13918250D02*
X23144000Y-14078250D01*
X23064000Y-13998250D02*
X23224000Y-13998250D01*
D16*
X13174530Y-4200235D02*
X13359950Y-4385655D01*
X13359950Y-4200235D02*
X13174530Y-4385655D01*
X13332796Y-4358502D02*
X13332796Y-4227389D01*
X13201683Y-4227389D01*
X13201683Y-4358502D01*
X13332796Y-4358502D01*
X13174530Y-4750235D02*
X13359950Y-4935655D01*
X13359950Y-4750235D02*
X13174530Y-4935655D01*
X13332796Y-4908502D02*
X13332796Y-4777389D01*
X13201683Y-4777389D01*
X13201683Y-4908502D01*
X13332796Y-4908502D01*
X13594530Y-4200235D02*
X13779950Y-4385655D01*
X13779950Y-4200235D02*
X13594530Y-4385655D01*
X13752796Y-4358502D02*
X13752796Y-4227389D01*
X13621683Y-4227389D01*
X13621683Y-4358502D01*
X13752796Y-4358502D01*
X13594530Y-4750235D02*
X13779950Y-4935655D01*
X13779950Y-4750235D02*
X13594530Y-4935655D01*
X13752796Y-4908502D02*
X13752796Y-4777389D01*
X13621683Y-4777389D01*
X13621683Y-4908502D01*
X13752796Y-4908502D01*
D11*
X9525456Y-15693645D02*
X9525456Y-15493645D01*
X9525456Y-15493645D02*
X9573075Y-15493645D01*
X9573075Y-15493645D02*
X9601647Y-15503169D01*
X9601647Y-15503169D02*
X9620694Y-15522216D01*
X9620694Y-15522216D02*
X9630218Y-15541264D01*
X9630218Y-15541264D02*
X9639742Y-15579359D01*
X9639742Y-15579359D02*
X9639742Y-15607931D01*
X9639742Y-15607931D02*
X9630218Y-15646026D01*
X9630218Y-15646026D02*
X9620694Y-15665074D01*
X9620694Y-15665074D02*
X9601647Y-15684121D01*
X9601647Y-15684121D02*
X9573075Y-15693645D01*
X9573075Y-15693645D02*
X9525456Y-15693645D01*
X9725456Y-15693645D02*
X9725456Y-15560312D01*
X9725456Y-15598407D02*
X9734980Y-15579359D01*
X9734980Y-15579359D02*
X9744504Y-15569835D01*
X9744504Y-15569835D02*
X9763551Y-15560312D01*
X9763551Y-15560312D02*
X9782599Y-15560312D01*
X9849266Y-15693645D02*
X9849266Y-15560312D01*
X9849266Y-15493645D02*
X9839742Y-15503169D01*
X9839742Y-15503169D02*
X9849266Y-15512693D01*
X9849266Y-15512693D02*
X9858789Y-15503169D01*
X9858789Y-15503169D02*
X9849266Y-15493645D01*
X9849266Y-15493645D02*
X9849266Y-15512693D01*
X9973075Y-15693645D02*
X9954027Y-15684121D01*
X9954027Y-15684121D02*
X9944504Y-15665074D01*
X9944504Y-15665074D02*
X9944504Y-15493645D01*
X10077837Y-15693645D02*
X10058789Y-15684121D01*
X10058789Y-15684121D02*
X10049266Y-15665074D01*
X10049266Y-15665074D02*
X10049266Y-15493645D01*
X10306408Y-15693645D02*
X10306408Y-15493645D01*
X10306408Y-15493645D02*
X10373075Y-15636502D01*
X10373075Y-15636502D02*
X10439742Y-15493645D01*
X10439742Y-15493645D02*
X10439742Y-15693645D01*
X10620694Y-15693645D02*
X10620694Y-15588883D01*
X10620694Y-15588883D02*
X10611170Y-15569835D01*
X10611170Y-15569835D02*
X10592123Y-15560312D01*
X10592123Y-15560312D02*
X10554027Y-15560312D01*
X10554027Y-15560312D02*
X10534980Y-15569835D01*
X10620694Y-15684121D02*
X10601647Y-15693645D01*
X10601647Y-15693645D02*
X10554027Y-15693645D01*
X10554027Y-15693645D02*
X10534980Y-15684121D01*
X10534980Y-15684121D02*
X10525456Y-15665074D01*
X10525456Y-15665074D02*
X10525456Y-15646026D01*
X10525456Y-15646026D02*
X10534980Y-15626978D01*
X10534980Y-15626978D02*
X10554027Y-15617455D01*
X10554027Y-15617455D02*
X10601647Y-15617455D01*
X10601647Y-15617455D02*
X10620694Y-15607931D01*
X10715932Y-15560312D02*
X10715932Y-15760312D01*
X10715932Y-15569835D02*
X10734980Y-15560312D01*
X10734980Y-15560312D02*
X10773075Y-15560312D01*
X10773075Y-15560312D02*
X10792123Y-15569835D01*
X10792123Y-15569835D02*
X10801647Y-15579359D01*
X10801647Y-15579359D02*
X10811170Y-15598407D01*
X10811170Y-15598407D02*
X10811170Y-15655550D01*
X10811170Y-15655550D02*
X10801647Y-15674597D01*
X10801647Y-15674597D02*
X10792123Y-15684121D01*
X10792123Y-15684121D02*
X10773075Y-15693645D01*
X10773075Y-15693645D02*
X10734980Y-15693645D01*
X10734980Y-15693645D02*
X10715932Y-15684121D01*
X10896885Y-15674597D02*
X10906408Y-15684121D01*
X10906408Y-15684121D02*
X10896885Y-15693645D01*
X10896885Y-15693645D02*
X10887361Y-15684121D01*
X10887361Y-15684121D02*
X10896885Y-15674597D01*
X10896885Y-15674597D02*
X10896885Y-15693645D01*
X10896885Y-15569835D02*
X10906408Y-15579359D01*
X10906408Y-15579359D02*
X10896885Y-15588883D01*
X10896885Y-15588883D02*
X10887361Y-15579359D01*
X10887361Y-15579359D02*
X10896885Y-15569835D01*
X10896885Y-15569835D02*
X10896885Y-15588883D01*
D10*
X9224679Y-16002161D02*
X9264679Y-16042161D01*
X9264679Y-16002161D02*
X9224679Y-16042161D01*
D11*
X9563551Y-15913645D02*
X9582599Y-15913645D01*
X9582599Y-15913645D02*
X9601647Y-15923169D01*
X9601647Y-15923169D02*
X9611170Y-15932693D01*
X9611170Y-15932693D02*
X9620694Y-15951740D01*
X9620694Y-15951740D02*
X9630218Y-15989835D01*
X9630218Y-15989835D02*
X9630218Y-16037455D01*
X9630218Y-16037455D02*
X9620694Y-16075550D01*
X9620694Y-16075550D02*
X9611170Y-16094597D01*
X9611170Y-16094597D02*
X9601647Y-16104121D01*
X9601647Y-16104121D02*
X9582599Y-16113645D01*
X9582599Y-16113645D02*
X9563551Y-16113645D01*
X9563551Y-16113645D02*
X9544504Y-16104121D01*
X9544504Y-16104121D02*
X9534980Y-16094597D01*
X9534980Y-16094597D02*
X9525456Y-16075550D01*
X9525456Y-16075550D02*
X9515932Y-16037455D01*
X9515932Y-16037455D02*
X9515932Y-15989835D01*
X9515932Y-15989835D02*
X9525456Y-15951740D01*
X9525456Y-15951740D02*
X9534980Y-15932693D01*
X9534980Y-15932693D02*
X9544504Y-15923169D01*
X9544504Y-15923169D02*
X9563551Y-15913645D01*
X9715932Y-16094597D02*
X9725456Y-16104121D01*
X9725456Y-16104121D02*
X9715932Y-16113645D01*
X9715932Y-16113645D02*
X9706408Y-16104121D01*
X9706408Y-16104121D02*
X9715932Y-16094597D01*
X9715932Y-16094597D02*
X9715932Y-16113645D01*
X9896885Y-15980312D02*
X9896885Y-16113645D01*
X9849266Y-15904121D02*
X9801647Y-16046978D01*
X9801647Y-16046978D02*
X9925456Y-16046978D01*
X10039742Y-15913645D02*
X10058789Y-15913645D01*
X10058789Y-15913645D02*
X10077837Y-15923169D01*
X10077837Y-15923169D02*
X10087361Y-15932693D01*
X10087361Y-15932693D02*
X10096885Y-15951740D01*
X10096885Y-15951740D02*
X10106408Y-15989835D01*
X10106408Y-15989835D02*
X10106408Y-16037455D01*
X10106408Y-16037455D02*
X10096885Y-16075550D01*
X10096885Y-16075550D02*
X10087361Y-16094597D01*
X10087361Y-16094597D02*
X10077837Y-16104121D01*
X10077837Y-16104121D02*
X10058789Y-16113645D01*
X10058789Y-16113645D02*
X10039742Y-16113645D01*
X10039742Y-16113645D02*
X10020694Y-16104121D01*
X10020694Y-16104121D02*
X10011170Y-16094597D01*
X10011170Y-16094597D02*
X10001647Y-16075550D01*
X10001647Y-16075550D02*
X9992123Y-16037455D01*
X9992123Y-16037455D02*
X9992123Y-15989835D01*
X9992123Y-15989835D02*
X10001647Y-15951740D01*
X10001647Y-15951740D02*
X10011170Y-15932693D01*
X10011170Y-15932693D02*
X10020694Y-15923169D01*
X10020694Y-15923169D02*
X10039742Y-15913645D01*
X10230218Y-15913645D02*
X10249266Y-15913645D01*
X10249266Y-15913645D02*
X10268313Y-15923169D01*
X10268313Y-15923169D02*
X10277837Y-15932693D01*
X10277837Y-15932693D02*
X10287361Y-15951740D01*
X10287361Y-15951740D02*
X10296885Y-15989835D01*
X10296885Y-15989835D02*
X10296885Y-16037455D01*
X10296885Y-16037455D02*
X10287361Y-16075550D01*
X10287361Y-16075550D02*
X10277837Y-16094597D01*
X10277837Y-16094597D02*
X10268313Y-16104121D01*
X10268313Y-16104121D02*
X10249266Y-16113645D01*
X10249266Y-16113645D02*
X10230218Y-16113645D01*
X10230218Y-16113645D02*
X10211170Y-16104121D01*
X10211170Y-16104121D02*
X10201647Y-16094597D01*
X10201647Y-16094597D02*
X10192123Y-16075550D01*
X10192123Y-16075550D02*
X10182599Y-16037455D01*
X10182599Y-16037455D02*
X10182599Y-15989835D01*
X10182599Y-15989835D02*
X10192123Y-15951740D01*
X10192123Y-15951740D02*
X10201647Y-15932693D01*
X10201647Y-15932693D02*
X10211170Y-15923169D01*
X10211170Y-15923169D02*
X10230218Y-15913645D01*
X10382599Y-16113645D02*
X10382599Y-15980312D01*
X10382599Y-15999359D02*
X10392123Y-15989835D01*
X10392123Y-15989835D02*
X10411170Y-15980312D01*
X10411170Y-15980312D02*
X10439742Y-15980312D01*
X10439742Y-15980312D02*
X10458789Y-15989835D01*
X10458789Y-15989835D02*
X10468313Y-16008883D01*
X10468313Y-16008883D02*
X10468313Y-16113645D01*
X10468313Y-16008883D02*
X10477837Y-15989835D01*
X10477837Y-15989835D02*
X10496885Y-15980312D01*
X10496885Y-15980312D02*
X10525456Y-15980312D01*
X10525456Y-15980312D02*
X10544504Y-15989835D01*
X10544504Y-15989835D02*
X10554028Y-16008883D01*
X10554028Y-16008883D02*
X10554028Y-16113645D01*
X10649266Y-16113645D02*
X10649266Y-15980312D01*
X10649266Y-15999359D02*
X10658789Y-15989835D01*
X10658789Y-15989835D02*
X10677837Y-15980312D01*
X10677837Y-15980312D02*
X10706409Y-15980312D01*
X10706409Y-15980312D02*
X10725456Y-15989835D01*
X10725456Y-15989835D02*
X10734980Y-16008883D01*
X10734980Y-16008883D02*
X10734980Y-16113645D01*
X10734980Y-16008883D02*
X10744504Y-15989835D01*
X10744504Y-15989835D02*
X10763551Y-15980312D01*
X10763551Y-15980312D02*
X10792123Y-15980312D01*
X10792123Y-15980312D02*
X10811170Y-15989835D01*
X10811170Y-15989835D02*
X10820694Y-16008883D01*
X10820694Y-16008883D02*
X10820694Y-16113645D01*
X11211170Y-15904121D02*
X11039742Y-16161264D01*
X11468313Y-15913645D02*
X11487361Y-15913645D01*
X11487361Y-15913645D02*
X11506409Y-15923169D01*
X11506409Y-15923169D02*
X11515932Y-15932693D01*
X11515932Y-15932693D02*
X11525456Y-15951740D01*
X11525456Y-15951740D02*
X11534980Y-15989835D01*
X11534980Y-15989835D02*
X11534980Y-16037455D01*
X11534980Y-16037455D02*
X11525456Y-16075550D01*
X11525456Y-16075550D02*
X11515932Y-16094597D01*
X11515932Y-16094597D02*
X11506409Y-16104121D01*
X11506409Y-16104121D02*
X11487361Y-16113645D01*
X11487361Y-16113645D02*
X11468313Y-16113645D01*
X11468313Y-16113645D02*
X11449266Y-16104121D01*
X11449266Y-16104121D02*
X11439742Y-16094597D01*
X11439742Y-16094597D02*
X11430218Y-16075550D01*
X11430218Y-16075550D02*
X11420694Y-16037455D01*
X11420694Y-16037455D02*
X11420694Y-15989835D01*
X11420694Y-15989835D02*
X11430218Y-15951740D01*
X11430218Y-15951740D02*
X11439742Y-15932693D01*
X11439742Y-15932693D02*
X11449266Y-15923169D01*
X11449266Y-15923169D02*
X11468313Y-15913645D01*
X11620694Y-16094597D02*
X11630218Y-16104121D01*
X11630218Y-16104121D02*
X11620694Y-16113645D01*
X11620694Y-16113645D02*
X11611170Y-16104121D01*
X11611170Y-16104121D02*
X11620694Y-16094597D01*
X11620694Y-16094597D02*
X11620694Y-16113645D01*
X11754028Y-15913645D02*
X11773075Y-15913645D01*
X11773075Y-15913645D02*
X11792123Y-15923169D01*
X11792123Y-15923169D02*
X11801647Y-15932693D01*
X11801647Y-15932693D02*
X11811170Y-15951740D01*
X11811170Y-15951740D02*
X11820694Y-15989835D01*
X11820694Y-15989835D02*
X11820694Y-16037455D01*
X11820694Y-16037455D02*
X11811170Y-16075550D01*
X11811170Y-16075550D02*
X11801647Y-16094597D01*
X11801647Y-16094597D02*
X11792123Y-16104121D01*
X11792123Y-16104121D02*
X11773075Y-16113645D01*
X11773075Y-16113645D02*
X11754028Y-16113645D01*
X11754028Y-16113645D02*
X11734980Y-16104121D01*
X11734980Y-16104121D02*
X11725456Y-16094597D01*
X11725456Y-16094597D02*
X11715932Y-16075550D01*
X11715932Y-16075550D02*
X11706409Y-16037455D01*
X11706409Y-16037455D02*
X11706409Y-15989835D01*
X11706409Y-15989835D02*
X11715932Y-15951740D01*
X11715932Y-15951740D02*
X11725456Y-15932693D01*
X11725456Y-15932693D02*
X11734980Y-15923169D01*
X11734980Y-15923169D02*
X11754028Y-15913645D01*
X12011170Y-16113645D02*
X11896885Y-16113645D01*
X11954028Y-16113645D02*
X11954028Y-15913645D01*
X11954028Y-15913645D02*
X11934980Y-15942216D01*
X11934980Y-15942216D02*
X11915932Y-15961264D01*
X11915932Y-15961264D02*
X11896885Y-15970788D01*
X12192123Y-15913645D02*
X12096885Y-15913645D01*
X12096885Y-15913645D02*
X12087361Y-16008883D01*
X12087361Y-16008883D02*
X12096885Y-15999359D01*
X12096885Y-15999359D02*
X12115932Y-15989835D01*
X12115932Y-15989835D02*
X12163551Y-15989835D01*
X12163551Y-15989835D02*
X12182599Y-15999359D01*
X12182599Y-15999359D02*
X12192123Y-16008883D01*
X12192123Y-16008883D02*
X12201647Y-16027931D01*
X12201647Y-16027931D02*
X12201647Y-16075550D01*
X12201647Y-16075550D02*
X12192123Y-16094597D01*
X12192123Y-16094597D02*
X12182599Y-16104121D01*
X12182599Y-16104121D02*
X12163551Y-16113645D01*
X12163551Y-16113645D02*
X12115932Y-16113645D01*
X12115932Y-16113645D02*
X12096885Y-16104121D01*
X12096885Y-16104121D02*
X12087361Y-16094597D01*
X12268313Y-15913645D02*
X12401647Y-15913645D01*
X12401647Y-15913645D02*
X12315932Y-16113645D01*
X12468313Y-15913645D02*
X12468313Y-15951740D01*
X12544504Y-15913645D02*
X12544504Y-15951740D01*
X12839742Y-16189835D02*
X12830218Y-16180312D01*
X12830218Y-16180312D02*
X12811171Y-16151740D01*
X12811171Y-16151740D02*
X12801647Y-16132693D01*
X12801647Y-16132693D02*
X12792123Y-16104121D01*
X12792123Y-16104121D02*
X12782599Y-16056502D01*
X12782599Y-16056502D02*
X12782599Y-16018407D01*
X12782599Y-16018407D02*
X12792123Y-15970788D01*
X12792123Y-15970788D02*
X12801647Y-15942216D01*
X12801647Y-15942216D02*
X12811171Y-15923169D01*
X12811171Y-15923169D02*
X12830218Y-15894597D01*
X12830218Y-15894597D02*
X12839742Y-15885074D01*
X12896885Y-15913645D02*
X13020694Y-15913645D01*
X13020694Y-15913645D02*
X12954028Y-15989835D01*
X12954028Y-15989835D02*
X12982599Y-15989835D01*
X12982599Y-15989835D02*
X13001647Y-15999359D01*
X13001647Y-15999359D02*
X13011171Y-16008883D01*
X13011171Y-16008883D02*
X13020694Y-16027931D01*
X13020694Y-16027931D02*
X13020694Y-16075550D01*
X13020694Y-16075550D02*
X13011171Y-16094597D01*
X13011171Y-16094597D02*
X13001647Y-16104121D01*
X13001647Y-16104121D02*
X12982599Y-16113645D01*
X12982599Y-16113645D02*
X12925456Y-16113645D01*
X12925456Y-16113645D02*
X12906409Y-16104121D01*
X12906409Y-16104121D02*
X12896885Y-16094597D01*
X13134980Y-15999359D02*
X13115932Y-15989835D01*
X13115932Y-15989835D02*
X13106409Y-15980312D01*
X13106409Y-15980312D02*
X13096885Y-15961264D01*
X13096885Y-15961264D02*
X13096885Y-15951740D01*
X13096885Y-15951740D02*
X13106409Y-15932693D01*
X13106409Y-15932693D02*
X13115932Y-15923169D01*
X13115932Y-15923169D02*
X13134980Y-15913645D01*
X13134980Y-15913645D02*
X13173075Y-15913645D01*
X13173075Y-15913645D02*
X13192123Y-15923169D01*
X13192123Y-15923169D02*
X13201647Y-15932693D01*
X13201647Y-15932693D02*
X13211171Y-15951740D01*
X13211171Y-15951740D02*
X13211171Y-15961264D01*
X13211171Y-15961264D02*
X13201647Y-15980312D01*
X13201647Y-15980312D02*
X13192123Y-15989835D01*
X13192123Y-15989835D02*
X13173075Y-15999359D01*
X13173075Y-15999359D02*
X13134980Y-15999359D01*
X13134980Y-15999359D02*
X13115932Y-16008883D01*
X13115932Y-16008883D02*
X13106409Y-16018407D01*
X13106409Y-16018407D02*
X13096885Y-16037455D01*
X13096885Y-16037455D02*
X13096885Y-16075550D01*
X13096885Y-16075550D02*
X13106409Y-16094597D01*
X13106409Y-16094597D02*
X13115932Y-16104121D01*
X13115932Y-16104121D02*
X13134980Y-16113645D01*
X13134980Y-16113645D02*
X13173075Y-16113645D01*
X13173075Y-16113645D02*
X13192123Y-16104121D01*
X13192123Y-16104121D02*
X13201647Y-16094597D01*
X13201647Y-16094597D02*
X13211171Y-16075550D01*
X13211171Y-16075550D02*
X13211171Y-16037455D01*
X13211171Y-16037455D02*
X13201647Y-16018407D01*
X13201647Y-16018407D02*
X13192123Y-16008883D01*
X13192123Y-16008883D02*
X13173075Y-15999359D01*
X13277837Y-15913645D02*
X13411171Y-15913645D01*
X13411171Y-15913645D02*
X13325456Y-16113645D01*
X13639742Y-16113645D02*
X13639742Y-15913645D01*
X13725456Y-16113645D02*
X13725456Y-16008883D01*
X13725456Y-16008883D02*
X13715933Y-15989835D01*
X13715933Y-15989835D02*
X13696885Y-15980312D01*
X13696885Y-15980312D02*
X13668313Y-15980312D01*
X13668313Y-15980312D02*
X13649266Y-15989835D01*
X13649266Y-15989835D02*
X13639742Y-15999359D01*
X13849266Y-16113645D02*
X13830218Y-16104121D01*
X13830218Y-16104121D02*
X13820694Y-16094597D01*
X13820694Y-16094597D02*
X13811171Y-16075550D01*
X13811171Y-16075550D02*
X13811171Y-16018407D01*
X13811171Y-16018407D02*
X13820694Y-15999359D01*
X13820694Y-15999359D02*
X13830218Y-15989835D01*
X13830218Y-15989835D02*
X13849266Y-15980312D01*
X13849266Y-15980312D02*
X13877837Y-15980312D01*
X13877837Y-15980312D02*
X13896885Y-15989835D01*
X13896885Y-15989835D02*
X13906409Y-15999359D01*
X13906409Y-15999359D02*
X13915933Y-16018407D01*
X13915933Y-16018407D02*
X13915933Y-16075550D01*
X13915933Y-16075550D02*
X13906409Y-16094597D01*
X13906409Y-16094597D02*
X13896885Y-16104121D01*
X13896885Y-16104121D02*
X13877837Y-16113645D01*
X13877837Y-16113645D02*
X13849266Y-16113645D01*
X14030218Y-16113645D02*
X14011171Y-16104121D01*
X14011171Y-16104121D02*
X14001647Y-16085074D01*
X14001647Y-16085074D02*
X14001647Y-15913645D01*
X14182599Y-16104121D02*
X14163552Y-16113645D01*
X14163552Y-16113645D02*
X14125456Y-16113645D01*
X14125456Y-16113645D02*
X14106409Y-16104121D01*
X14106409Y-16104121D02*
X14096885Y-16085074D01*
X14096885Y-16085074D02*
X14096885Y-16008883D01*
X14096885Y-16008883D02*
X14106409Y-15989835D01*
X14106409Y-15989835D02*
X14125456Y-15980312D01*
X14125456Y-15980312D02*
X14163552Y-15980312D01*
X14163552Y-15980312D02*
X14182599Y-15989835D01*
X14182599Y-15989835D02*
X14192123Y-16008883D01*
X14192123Y-16008883D02*
X14192123Y-16027931D01*
X14192123Y-16027931D02*
X14096885Y-16046978D01*
X14268314Y-16104121D02*
X14287361Y-16113645D01*
X14287361Y-16113645D02*
X14325456Y-16113645D01*
X14325456Y-16113645D02*
X14344504Y-16104121D01*
X14344504Y-16104121D02*
X14354028Y-16085074D01*
X14354028Y-16085074D02*
X14354028Y-16075550D01*
X14354028Y-16075550D02*
X14344504Y-16056502D01*
X14344504Y-16056502D02*
X14325456Y-16046978D01*
X14325456Y-16046978D02*
X14296885Y-16046978D01*
X14296885Y-16046978D02*
X14277837Y-16037455D01*
X14277837Y-16037455D02*
X14268314Y-16018407D01*
X14268314Y-16018407D02*
X14268314Y-16008883D01*
X14268314Y-16008883D02*
X14277837Y-15989835D01*
X14277837Y-15989835D02*
X14296885Y-15980312D01*
X14296885Y-15980312D02*
X14325456Y-15980312D01*
X14325456Y-15980312D02*
X14344504Y-15989835D01*
X14420695Y-16189835D02*
X14430218Y-16180312D01*
X14430218Y-16180312D02*
X14449266Y-16151740D01*
X14449266Y-16151740D02*
X14458790Y-16132693D01*
X14458790Y-16132693D02*
X14468314Y-16104121D01*
X14468314Y-16104121D02*
X14477837Y-16056502D01*
X14477837Y-16056502D02*
X14477837Y-16018407D01*
X14477837Y-16018407D02*
X14468314Y-15970788D01*
X14468314Y-15970788D02*
X14458790Y-15942216D01*
X14458790Y-15942216D02*
X14449266Y-15923169D01*
X14449266Y-15923169D02*
X14430218Y-15894597D01*
X14430218Y-15894597D02*
X14420695Y-15885074D01*
D10*
X9264679Y-16286161D02*
G75*
G02*
X9184679Y-16286161I-40000J0D01*
G01*
X9184679Y-16286161D02*
G75*
G02*
X9264679Y-16286161I40000J0D01*
G01*
D11*
X9563551Y-16177645D02*
X9582599Y-16177645D01*
X9582599Y-16177645D02*
X9601647Y-16187169D01*
X9601647Y-16187169D02*
X9611170Y-16196693D01*
X9611170Y-16196693D02*
X9620694Y-16215740D01*
X9620694Y-16215740D02*
X9630218Y-16253835D01*
X9630218Y-16253835D02*
X9630218Y-16301455D01*
X9630218Y-16301455D02*
X9620694Y-16339550D01*
X9620694Y-16339550D02*
X9611170Y-16358597D01*
X9611170Y-16358597D02*
X9601647Y-16368121D01*
X9601647Y-16368121D02*
X9582599Y-16377645D01*
X9582599Y-16377645D02*
X9563551Y-16377645D01*
X9563551Y-16377645D02*
X9544504Y-16368121D01*
X9544504Y-16368121D02*
X9534980Y-16358597D01*
X9534980Y-16358597D02*
X9525456Y-16339550D01*
X9525456Y-16339550D02*
X9515932Y-16301455D01*
X9515932Y-16301455D02*
X9515932Y-16253835D01*
X9515932Y-16253835D02*
X9525456Y-16215740D01*
X9525456Y-16215740D02*
X9534980Y-16196693D01*
X9534980Y-16196693D02*
X9544504Y-16187169D01*
X9544504Y-16187169D02*
X9563551Y-16177645D01*
X9715932Y-16358597D02*
X9725456Y-16368121D01*
X9725456Y-16368121D02*
X9715932Y-16377645D01*
X9715932Y-16377645D02*
X9706408Y-16368121D01*
X9706408Y-16368121D02*
X9715932Y-16358597D01*
X9715932Y-16358597D02*
X9715932Y-16377645D01*
X9839742Y-16263359D02*
X9820694Y-16253835D01*
X9820694Y-16253835D02*
X9811170Y-16244312D01*
X9811170Y-16244312D02*
X9801647Y-16225264D01*
X9801647Y-16225264D02*
X9801647Y-16215740D01*
X9801647Y-16215740D02*
X9811170Y-16196693D01*
X9811170Y-16196693D02*
X9820694Y-16187169D01*
X9820694Y-16187169D02*
X9839742Y-16177645D01*
X9839742Y-16177645D02*
X9877837Y-16177645D01*
X9877837Y-16177645D02*
X9896885Y-16187169D01*
X9896885Y-16187169D02*
X9906408Y-16196693D01*
X9906408Y-16196693D02*
X9915932Y-16215740D01*
X9915932Y-16215740D02*
X9915932Y-16225264D01*
X9915932Y-16225264D02*
X9906408Y-16244312D01*
X9906408Y-16244312D02*
X9896885Y-16253835D01*
X9896885Y-16253835D02*
X9877837Y-16263359D01*
X9877837Y-16263359D02*
X9839742Y-16263359D01*
X9839742Y-16263359D02*
X9820694Y-16272883D01*
X9820694Y-16272883D02*
X9811170Y-16282407D01*
X9811170Y-16282407D02*
X9801647Y-16301455D01*
X9801647Y-16301455D02*
X9801647Y-16339550D01*
X9801647Y-16339550D02*
X9811170Y-16358597D01*
X9811170Y-16358597D02*
X9820694Y-16368121D01*
X9820694Y-16368121D02*
X9839742Y-16377645D01*
X9839742Y-16377645D02*
X9877837Y-16377645D01*
X9877837Y-16377645D02*
X9896885Y-16368121D01*
X9896885Y-16368121D02*
X9906408Y-16358597D01*
X9906408Y-16358597D02*
X9915932Y-16339550D01*
X9915932Y-16339550D02*
X9915932Y-16301455D01*
X9915932Y-16301455D02*
X9906408Y-16282407D01*
X9906408Y-16282407D02*
X9896885Y-16272883D01*
X9896885Y-16272883D02*
X9877837Y-16263359D01*
X10039742Y-16177645D02*
X10058789Y-16177645D01*
X10058789Y-16177645D02*
X10077837Y-16187169D01*
X10077837Y-16187169D02*
X10087361Y-16196693D01*
X10087361Y-16196693D02*
X10096885Y-16215740D01*
X10096885Y-16215740D02*
X10106408Y-16253835D01*
X10106408Y-16253835D02*
X10106408Y-16301455D01*
X10106408Y-16301455D02*
X10096885Y-16339550D01*
X10096885Y-16339550D02*
X10087361Y-16358597D01*
X10087361Y-16358597D02*
X10077837Y-16368121D01*
X10077837Y-16368121D02*
X10058789Y-16377645D01*
X10058789Y-16377645D02*
X10039742Y-16377645D01*
X10039742Y-16377645D02*
X10020694Y-16368121D01*
X10020694Y-16368121D02*
X10011170Y-16358597D01*
X10011170Y-16358597D02*
X10001647Y-16339550D01*
X10001647Y-16339550D02*
X9992123Y-16301455D01*
X9992123Y-16301455D02*
X9992123Y-16253835D01*
X9992123Y-16253835D02*
X10001647Y-16215740D01*
X10001647Y-16215740D02*
X10011170Y-16196693D01*
X10011170Y-16196693D02*
X10020694Y-16187169D01*
X10020694Y-16187169D02*
X10039742Y-16177645D01*
X10230218Y-16177645D02*
X10249266Y-16177645D01*
X10249266Y-16177645D02*
X10268313Y-16187169D01*
X10268313Y-16187169D02*
X10277837Y-16196693D01*
X10277837Y-16196693D02*
X10287361Y-16215740D01*
X10287361Y-16215740D02*
X10296885Y-16253835D01*
X10296885Y-16253835D02*
X10296885Y-16301455D01*
X10296885Y-16301455D02*
X10287361Y-16339550D01*
X10287361Y-16339550D02*
X10277837Y-16358597D01*
X10277837Y-16358597D02*
X10268313Y-16368121D01*
X10268313Y-16368121D02*
X10249266Y-16377645D01*
X10249266Y-16377645D02*
X10230218Y-16377645D01*
X10230218Y-16377645D02*
X10211170Y-16368121D01*
X10211170Y-16368121D02*
X10201647Y-16358597D01*
X10201647Y-16358597D02*
X10192123Y-16339550D01*
X10192123Y-16339550D02*
X10182599Y-16301455D01*
X10182599Y-16301455D02*
X10182599Y-16253835D01*
X10182599Y-16253835D02*
X10192123Y-16215740D01*
X10192123Y-16215740D02*
X10201647Y-16196693D01*
X10201647Y-16196693D02*
X10211170Y-16187169D01*
X10211170Y-16187169D02*
X10230218Y-16177645D01*
X10382599Y-16377645D02*
X10382599Y-16244312D01*
X10382599Y-16263359D02*
X10392123Y-16253835D01*
X10392123Y-16253835D02*
X10411170Y-16244312D01*
X10411170Y-16244312D02*
X10439742Y-16244312D01*
X10439742Y-16244312D02*
X10458789Y-16253835D01*
X10458789Y-16253835D02*
X10468313Y-16272883D01*
X10468313Y-16272883D02*
X10468313Y-16377645D01*
X10468313Y-16272883D02*
X10477837Y-16253835D01*
X10477837Y-16253835D02*
X10496885Y-16244312D01*
X10496885Y-16244312D02*
X10525456Y-16244312D01*
X10525456Y-16244312D02*
X10544504Y-16253835D01*
X10544504Y-16253835D02*
X10554028Y-16272883D01*
X10554028Y-16272883D02*
X10554028Y-16377645D01*
X10649266Y-16377645D02*
X10649266Y-16244312D01*
X10649266Y-16263359D02*
X10658789Y-16253835D01*
X10658789Y-16253835D02*
X10677837Y-16244312D01*
X10677837Y-16244312D02*
X10706409Y-16244312D01*
X10706409Y-16244312D02*
X10725456Y-16253835D01*
X10725456Y-16253835D02*
X10734980Y-16272883D01*
X10734980Y-16272883D02*
X10734980Y-16377645D01*
X10734980Y-16272883D02*
X10744504Y-16253835D01*
X10744504Y-16253835D02*
X10763551Y-16244312D01*
X10763551Y-16244312D02*
X10792123Y-16244312D01*
X10792123Y-16244312D02*
X10811170Y-16253835D01*
X10811170Y-16253835D02*
X10820694Y-16272883D01*
X10820694Y-16272883D02*
X10820694Y-16377645D01*
X11211170Y-16168121D02*
X11039742Y-16425264D01*
X11468313Y-16177645D02*
X11487361Y-16177645D01*
X11487361Y-16177645D02*
X11506409Y-16187169D01*
X11506409Y-16187169D02*
X11515932Y-16196693D01*
X11515932Y-16196693D02*
X11525456Y-16215740D01*
X11525456Y-16215740D02*
X11534980Y-16253835D01*
X11534980Y-16253835D02*
X11534980Y-16301455D01*
X11534980Y-16301455D02*
X11525456Y-16339550D01*
X11525456Y-16339550D02*
X11515932Y-16358597D01*
X11515932Y-16358597D02*
X11506409Y-16368121D01*
X11506409Y-16368121D02*
X11487361Y-16377645D01*
X11487361Y-16377645D02*
X11468313Y-16377645D01*
X11468313Y-16377645D02*
X11449266Y-16368121D01*
X11449266Y-16368121D02*
X11439742Y-16358597D01*
X11439742Y-16358597D02*
X11430218Y-16339550D01*
X11430218Y-16339550D02*
X11420694Y-16301455D01*
X11420694Y-16301455D02*
X11420694Y-16253835D01*
X11420694Y-16253835D02*
X11430218Y-16215740D01*
X11430218Y-16215740D02*
X11439742Y-16196693D01*
X11439742Y-16196693D02*
X11449266Y-16187169D01*
X11449266Y-16187169D02*
X11468313Y-16177645D01*
X11620694Y-16358597D02*
X11630218Y-16368121D01*
X11630218Y-16368121D02*
X11620694Y-16377645D01*
X11620694Y-16377645D02*
X11611170Y-16368121D01*
X11611170Y-16368121D02*
X11620694Y-16358597D01*
X11620694Y-16358597D02*
X11620694Y-16377645D01*
X11754028Y-16177645D02*
X11773075Y-16177645D01*
X11773075Y-16177645D02*
X11792123Y-16187169D01*
X11792123Y-16187169D02*
X11801647Y-16196693D01*
X11801647Y-16196693D02*
X11811170Y-16215740D01*
X11811170Y-16215740D02*
X11820694Y-16253835D01*
X11820694Y-16253835D02*
X11820694Y-16301455D01*
X11820694Y-16301455D02*
X11811170Y-16339550D01*
X11811170Y-16339550D02*
X11801647Y-16358597D01*
X11801647Y-16358597D02*
X11792123Y-16368121D01*
X11792123Y-16368121D02*
X11773075Y-16377645D01*
X11773075Y-16377645D02*
X11754028Y-16377645D01*
X11754028Y-16377645D02*
X11734980Y-16368121D01*
X11734980Y-16368121D02*
X11725456Y-16358597D01*
X11725456Y-16358597D02*
X11715932Y-16339550D01*
X11715932Y-16339550D02*
X11706409Y-16301455D01*
X11706409Y-16301455D02*
X11706409Y-16253835D01*
X11706409Y-16253835D02*
X11715932Y-16215740D01*
X11715932Y-16215740D02*
X11725456Y-16196693D01*
X11725456Y-16196693D02*
X11734980Y-16187169D01*
X11734980Y-16187169D02*
X11754028Y-16177645D01*
X11887361Y-16177645D02*
X12011170Y-16177645D01*
X12011170Y-16177645D02*
X11944504Y-16253835D01*
X11944504Y-16253835D02*
X11973075Y-16253835D01*
X11973075Y-16253835D02*
X11992123Y-16263359D01*
X11992123Y-16263359D02*
X12001647Y-16272883D01*
X12001647Y-16272883D02*
X12011170Y-16291931D01*
X12011170Y-16291931D02*
X12011170Y-16339550D01*
X12011170Y-16339550D02*
X12001647Y-16358597D01*
X12001647Y-16358597D02*
X11992123Y-16368121D01*
X11992123Y-16368121D02*
X11973075Y-16377645D01*
X11973075Y-16377645D02*
X11915932Y-16377645D01*
X11915932Y-16377645D02*
X11896885Y-16368121D01*
X11896885Y-16368121D02*
X11887361Y-16358597D01*
X12201647Y-16377645D02*
X12087361Y-16377645D01*
X12144504Y-16377645D02*
X12144504Y-16177645D01*
X12144504Y-16177645D02*
X12125456Y-16206216D01*
X12125456Y-16206216D02*
X12106409Y-16225264D01*
X12106409Y-16225264D02*
X12087361Y-16234788D01*
X12382599Y-16177645D02*
X12287361Y-16177645D01*
X12287361Y-16177645D02*
X12277837Y-16272883D01*
X12277837Y-16272883D02*
X12287361Y-16263359D01*
X12287361Y-16263359D02*
X12306409Y-16253835D01*
X12306409Y-16253835D02*
X12354028Y-16253835D01*
X12354028Y-16253835D02*
X12373075Y-16263359D01*
X12373075Y-16263359D02*
X12382599Y-16272883D01*
X12382599Y-16272883D02*
X12392123Y-16291931D01*
X12392123Y-16291931D02*
X12392123Y-16339550D01*
X12392123Y-16339550D02*
X12382599Y-16358597D01*
X12382599Y-16358597D02*
X12373075Y-16368121D01*
X12373075Y-16368121D02*
X12354028Y-16377645D01*
X12354028Y-16377645D02*
X12306409Y-16377645D01*
X12306409Y-16377645D02*
X12287361Y-16368121D01*
X12287361Y-16368121D02*
X12277837Y-16358597D01*
X12468313Y-16177645D02*
X12468313Y-16215740D01*
X12544504Y-16177645D02*
X12544504Y-16215740D01*
X12839742Y-16453835D02*
X12830218Y-16444312D01*
X12830218Y-16444312D02*
X12811171Y-16415740D01*
X12811171Y-16415740D02*
X12801647Y-16396693D01*
X12801647Y-16396693D02*
X12792123Y-16368121D01*
X12792123Y-16368121D02*
X12782599Y-16320502D01*
X12782599Y-16320502D02*
X12782599Y-16282407D01*
X12782599Y-16282407D02*
X12792123Y-16234788D01*
X12792123Y-16234788D02*
X12801647Y-16206216D01*
X12801647Y-16206216D02*
X12811171Y-16187169D01*
X12811171Y-16187169D02*
X12830218Y-16158597D01*
X12830218Y-16158597D02*
X12839742Y-16149074D01*
X12906409Y-16196693D02*
X12915932Y-16187169D01*
X12915932Y-16187169D02*
X12934980Y-16177645D01*
X12934980Y-16177645D02*
X12982599Y-16177645D01*
X12982599Y-16177645D02*
X13001647Y-16187169D01*
X13001647Y-16187169D02*
X13011171Y-16196693D01*
X13011171Y-16196693D02*
X13020694Y-16215740D01*
X13020694Y-16215740D02*
X13020694Y-16234788D01*
X13020694Y-16234788D02*
X13011171Y-16263359D01*
X13011171Y-16263359D02*
X12896885Y-16377645D01*
X12896885Y-16377645D02*
X13020694Y-16377645D01*
X13258790Y-16377645D02*
X13258790Y-16177645D01*
X13344504Y-16377645D02*
X13344504Y-16272883D01*
X13344504Y-16272883D02*
X13334980Y-16253835D01*
X13334980Y-16253835D02*
X13315933Y-16244312D01*
X13315933Y-16244312D02*
X13287361Y-16244312D01*
X13287361Y-16244312D02*
X13268313Y-16253835D01*
X13268313Y-16253835D02*
X13258790Y-16263359D01*
X13468313Y-16377645D02*
X13449266Y-16368121D01*
X13449266Y-16368121D02*
X13439742Y-16358597D01*
X13439742Y-16358597D02*
X13430218Y-16339550D01*
X13430218Y-16339550D02*
X13430218Y-16282407D01*
X13430218Y-16282407D02*
X13439742Y-16263359D01*
X13439742Y-16263359D02*
X13449266Y-16253835D01*
X13449266Y-16253835D02*
X13468313Y-16244312D01*
X13468313Y-16244312D02*
X13496885Y-16244312D01*
X13496885Y-16244312D02*
X13515933Y-16253835D01*
X13515933Y-16253835D02*
X13525456Y-16263359D01*
X13525456Y-16263359D02*
X13534980Y-16282407D01*
X13534980Y-16282407D02*
X13534980Y-16339550D01*
X13534980Y-16339550D02*
X13525456Y-16358597D01*
X13525456Y-16358597D02*
X13515933Y-16368121D01*
X13515933Y-16368121D02*
X13496885Y-16377645D01*
X13496885Y-16377645D02*
X13468313Y-16377645D01*
X13649266Y-16377645D02*
X13630218Y-16368121D01*
X13630218Y-16368121D02*
X13620694Y-16349074D01*
X13620694Y-16349074D02*
X13620694Y-16177645D01*
X13801647Y-16368121D02*
X13782599Y-16377645D01*
X13782599Y-16377645D02*
X13744504Y-16377645D01*
X13744504Y-16377645D02*
X13725456Y-16368121D01*
X13725456Y-16368121D02*
X13715933Y-16349074D01*
X13715933Y-16349074D02*
X13715933Y-16272883D01*
X13715933Y-16272883D02*
X13725456Y-16253835D01*
X13725456Y-16253835D02*
X13744504Y-16244312D01*
X13744504Y-16244312D02*
X13782599Y-16244312D01*
X13782599Y-16244312D02*
X13801647Y-16253835D01*
X13801647Y-16253835D02*
X13811171Y-16272883D01*
X13811171Y-16272883D02*
X13811171Y-16291931D01*
X13811171Y-16291931D02*
X13715933Y-16310978D01*
X13887361Y-16368121D02*
X13906409Y-16377645D01*
X13906409Y-16377645D02*
X13944504Y-16377645D01*
X13944504Y-16377645D02*
X13963552Y-16368121D01*
X13963552Y-16368121D02*
X13973075Y-16349074D01*
X13973075Y-16349074D02*
X13973075Y-16339550D01*
X13973075Y-16339550D02*
X13963552Y-16320502D01*
X13963552Y-16320502D02*
X13944504Y-16310978D01*
X13944504Y-16310978D02*
X13915933Y-16310978D01*
X13915933Y-16310978D02*
X13896885Y-16301455D01*
X13896885Y-16301455D02*
X13887361Y-16282407D01*
X13887361Y-16282407D02*
X13887361Y-16272883D01*
X13887361Y-16272883D02*
X13896885Y-16253835D01*
X13896885Y-16253835D02*
X13915933Y-16244312D01*
X13915933Y-16244312D02*
X13944504Y-16244312D01*
X13944504Y-16244312D02*
X13963552Y-16253835D01*
X14039742Y-16453835D02*
X14049266Y-16444312D01*
X14049266Y-16444312D02*
X14068314Y-16415740D01*
X14068314Y-16415740D02*
X14077837Y-16396693D01*
X14077837Y-16396693D02*
X14087361Y-16368121D01*
X14087361Y-16368121D02*
X14096885Y-16320502D01*
X14096885Y-16320502D02*
X14096885Y-16282407D01*
X14096885Y-16282407D02*
X14087361Y-16234788D01*
X14087361Y-16234788D02*
X14077837Y-16206216D01*
X14077837Y-16206216D02*
X14068314Y-16187169D01*
X14068314Y-16187169D02*
X14049266Y-16158597D01*
X14049266Y-16158597D02*
X14039742Y-16149074D01*
D10*
X9214679Y-16500161D02*
X9214679Y-16600161D01*
X9164679Y-16550161D02*
X9264679Y-16550161D01*
D11*
X9630218Y-16641645D02*
X9515932Y-16641645D01*
X9573075Y-16641645D02*
X9573075Y-16441645D01*
X9573075Y-16441645D02*
X9554027Y-16470216D01*
X9554027Y-16470216D02*
X9534980Y-16489264D01*
X9534980Y-16489264D02*
X9515932Y-16498788D01*
X9715932Y-16622597D02*
X9725456Y-16632121D01*
X9725456Y-16632121D02*
X9715932Y-16641645D01*
X9715932Y-16641645D02*
X9706408Y-16632121D01*
X9706408Y-16632121D02*
X9715932Y-16622597D01*
X9715932Y-16622597D02*
X9715932Y-16641645D01*
X9849266Y-16441645D02*
X9868313Y-16441645D01*
X9868313Y-16441645D02*
X9887361Y-16451169D01*
X9887361Y-16451169D02*
X9896885Y-16460693D01*
X9896885Y-16460693D02*
X9906408Y-16479740D01*
X9906408Y-16479740D02*
X9915932Y-16517835D01*
X9915932Y-16517835D02*
X9915932Y-16565455D01*
X9915932Y-16565455D02*
X9906408Y-16603550D01*
X9906408Y-16603550D02*
X9896885Y-16622597D01*
X9896885Y-16622597D02*
X9887361Y-16632121D01*
X9887361Y-16632121D02*
X9868313Y-16641645D01*
X9868313Y-16641645D02*
X9849266Y-16641645D01*
X9849266Y-16641645D02*
X9830218Y-16632121D01*
X9830218Y-16632121D02*
X9820694Y-16622597D01*
X9820694Y-16622597D02*
X9811170Y-16603550D01*
X9811170Y-16603550D02*
X9801647Y-16565455D01*
X9801647Y-16565455D02*
X9801647Y-16517835D01*
X9801647Y-16517835D02*
X9811170Y-16479740D01*
X9811170Y-16479740D02*
X9820694Y-16460693D01*
X9820694Y-16460693D02*
X9830218Y-16451169D01*
X9830218Y-16451169D02*
X9849266Y-16441645D01*
X10039742Y-16441645D02*
X10058789Y-16441645D01*
X10058789Y-16441645D02*
X10077837Y-16451169D01*
X10077837Y-16451169D02*
X10087361Y-16460693D01*
X10087361Y-16460693D02*
X10096885Y-16479740D01*
X10096885Y-16479740D02*
X10106408Y-16517835D01*
X10106408Y-16517835D02*
X10106408Y-16565455D01*
X10106408Y-16565455D02*
X10096885Y-16603550D01*
X10096885Y-16603550D02*
X10087361Y-16622597D01*
X10087361Y-16622597D02*
X10077837Y-16632121D01*
X10077837Y-16632121D02*
X10058789Y-16641645D01*
X10058789Y-16641645D02*
X10039742Y-16641645D01*
X10039742Y-16641645D02*
X10020694Y-16632121D01*
X10020694Y-16632121D02*
X10011170Y-16622597D01*
X10011170Y-16622597D02*
X10001647Y-16603550D01*
X10001647Y-16603550D02*
X9992123Y-16565455D01*
X9992123Y-16565455D02*
X9992123Y-16517835D01*
X9992123Y-16517835D02*
X10001647Y-16479740D01*
X10001647Y-16479740D02*
X10011170Y-16460693D01*
X10011170Y-16460693D02*
X10020694Y-16451169D01*
X10020694Y-16451169D02*
X10039742Y-16441645D01*
X10230218Y-16441645D02*
X10249266Y-16441645D01*
X10249266Y-16441645D02*
X10268313Y-16451169D01*
X10268313Y-16451169D02*
X10277837Y-16460693D01*
X10277837Y-16460693D02*
X10287361Y-16479740D01*
X10287361Y-16479740D02*
X10296885Y-16517835D01*
X10296885Y-16517835D02*
X10296885Y-16565455D01*
X10296885Y-16565455D02*
X10287361Y-16603550D01*
X10287361Y-16603550D02*
X10277837Y-16622597D01*
X10277837Y-16622597D02*
X10268313Y-16632121D01*
X10268313Y-16632121D02*
X10249266Y-16641645D01*
X10249266Y-16641645D02*
X10230218Y-16641645D01*
X10230218Y-16641645D02*
X10211170Y-16632121D01*
X10211170Y-16632121D02*
X10201647Y-16622597D01*
X10201647Y-16622597D02*
X10192123Y-16603550D01*
X10192123Y-16603550D02*
X10182599Y-16565455D01*
X10182599Y-16565455D02*
X10182599Y-16517835D01*
X10182599Y-16517835D02*
X10192123Y-16479740D01*
X10192123Y-16479740D02*
X10201647Y-16460693D01*
X10201647Y-16460693D02*
X10211170Y-16451169D01*
X10211170Y-16451169D02*
X10230218Y-16441645D01*
X10382599Y-16641645D02*
X10382599Y-16508312D01*
X10382599Y-16527359D02*
X10392123Y-16517835D01*
X10392123Y-16517835D02*
X10411170Y-16508312D01*
X10411170Y-16508312D02*
X10439742Y-16508312D01*
X10439742Y-16508312D02*
X10458789Y-16517835D01*
X10458789Y-16517835D02*
X10468313Y-16536883D01*
X10468313Y-16536883D02*
X10468313Y-16641645D01*
X10468313Y-16536883D02*
X10477837Y-16517835D01*
X10477837Y-16517835D02*
X10496885Y-16508312D01*
X10496885Y-16508312D02*
X10525456Y-16508312D01*
X10525456Y-16508312D02*
X10544504Y-16517835D01*
X10544504Y-16517835D02*
X10554028Y-16536883D01*
X10554028Y-16536883D02*
X10554028Y-16641645D01*
X10649266Y-16641645D02*
X10649266Y-16508312D01*
X10649266Y-16527359D02*
X10658789Y-16517835D01*
X10658789Y-16517835D02*
X10677837Y-16508312D01*
X10677837Y-16508312D02*
X10706409Y-16508312D01*
X10706409Y-16508312D02*
X10725456Y-16517835D01*
X10725456Y-16517835D02*
X10734980Y-16536883D01*
X10734980Y-16536883D02*
X10734980Y-16641645D01*
X10734980Y-16536883D02*
X10744504Y-16517835D01*
X10744504Y-16517835D02*
X10763551Y-16508312D01*
X10763551Y-16508312D02*
X10792123Y-16508312D01*
X10792123Y-16508312D02*
X10811170Y-16517835D01*
X10811170Y-16517835D02*
X10820694Y-16536883D01*
X10820694Y-16536883D02*
X10820694Y-16641645D01*
X11211170Y-16432121D02*
X11039742Y-16689264D01*
X11468313Y-16441645D02*
X11487361Y-16441645D01*
X11487361Y-16441645D02*
X11506409Y-16451169D01*
X11506409Y-16451169D02*
X11515932Y-16460693D01*
X11515932Y-16460693D02*
X11525456Y-16479740D01*
X11525456Y-16479740D02*
X11534980Y-16517835D01*
X11534980Y-16517835D02*
X11534980Y-16565455D01*
X11534980Y-16565455D02*
X11525456Y-16603550D01*
X11525456Y-16603550D02*
X11515932Y-16622597D01*
X11515932Y-16622597D02*
X11506409Y-16632121D01*
X11506409Y-16632121D02*
X11487361Y-16641645D01*
X11487361Y-16641645D02*
X11468313Y-16641645D01*
X11468313Y-16641645D02*
X11449266Y-16632121D01*
X11449266Y-16632121D02*
X11439742Y-16622597D01*
X11439742Y-16622597D02*
X11430218Y-16603550D01*
X11430218Y-16603550D02*
X11420694Y-16565455D01*
X11420694Y-16565455D02*
X11420694Y-16517835D01*
X11420694Y-16517835D02*
X11430218Y-16479740D01*
X11430218Y-16479740D02*
X11439742Y-16460693D01*
X11439742Y-16460693D02*
X11449266Y-16451169D01*
X11449266Y-16451169D02*
X11468313Y-16441645D01*
X11620694Y-16622597D02*
X11630218Y-16632121D01*
X11630218Y-16632121D02*
X11620694Y-16641645D01*
X11620694Y-16641645D02*
X11611170Y-16632121D01*
X11611170Y-16632121D02*
X11620694Y-16622597D01*
X11620694Y-16622597D02*
X11620694Y-16641645D01*
X11754028Y-16441645D02*
X11773075Y-16441645D01*
X11773075Y-16441645D02*
X11792123Y-16451169D01*
X11792123Y-16451169D02*
X11801647Y-16460693D01*
X11801647Y-16460693D02*
X11811170Y-16479740D01*
X11811170Y-16479740D02*
X11820694Y-16517835D01*
X11820694Y-16517835D02*
X11820694Y-16565455D01*
X11820694Y-16565455D02*
X11811170Y-16603550D01*
X11811170Y-16603550D02*
X11801647Y-16622597D01*
X11801647Y-16622597D02*
X11792123Y-16632121D01*
X11792123Y-16632121D02*
X11773075Y-16641645D01*
X11773075Y-16641645D02*
X11754028Y-16641645D01*
X11754028Y-16641645D02*
X11734980Y-16632121D01*
X11734980Y-16632121D02*
X11725456Y-16622597D01*
X11725456Y-16622597D02*
X11715932Y-16603550D01*
X11715932Y-16603550D02*
X11706409Y-16565455D01*
X11706409Y-16565455D02*
X11706409Y-16517835D01*
X11706409Y-16517835D02*
X11715932Y-16479740D01*
X11715932Y-16479740D02*
X11725456Y-16460693D01*
X11725456Y-16460693D02*
X11734980Y-16451169D01*
X11734980Y-16451169D02*
X11754028Y-16441645D01*
X11887361Y-16441645D02*
X12011170Y-16441645D01*
X12011170Y-16441645D02*
X11944504Y-16517835D01*
X11944504Y-16517835D02*
X11973075Y-16517835D01*
X11973075Y-16517835D02*
X11992123Y-16527359D01*
X11992123Y-16527359D02*
X12001647Y-16536883D01*
X12001647Y-16536883D02*
X12011170Y-16555931D01*
X12011170Y-16555931D02*
X12011170Y-16603550D01*
X12011170Y-16603550D02*
X12001647Y-16622597D01*
X12001647Y-16622597D02*
X11992123Y-16632121D01*
X11992123Y-16632121D02*
X11973075Y-16641645D01*
X11973075Y-16641645D02*
X11915932Y-16641645D01*
X11915932Y-16641645D02*
X11896885Y-16632121D01*
X11896885Y-16632121D02*
X11887361Y-16622597D01*
X12106409Y-16641645D02*
X12144504Y-16641645D01*
X12144504Y-16641645D02*
X12163551Y-16632121D01*
X12163551Y-16632121D02*
X12173075Y-16622597D01*
X12173075Y-16622597D02*
X12192123Y-16594026D01*
X12192123Y-16594026D02*
X12201647Y-16555931D01*
X12201647Y-16555931D02*
X12201647Y-16479740D01*
X12201647Y-16479740D02*
X12192123Y-16460693D01*
X12192123Y-16460693D02*
X12182599Y-16451169D01*
X12182599Y-16451169D02*
X12163551Y-16441645D01*
X12163551Y-16441645D02*
X12125456Y-16441645D01*
X12125456Y-16441645D02*
X12106409Y-16451169D01*
X12106409Y-16451169D02*
X12096885Y-16460693D01*
X12096885Y-16460693D02*
X12087361Y-16479740D01*
X12087361Y-16479740D02*
X12087361Y-16527359D01*
X12087361Y-16527359D02*
X12096885Y-16546407D01*
X12096885Y-16546407D02*
X12106409Y-16555931D01*
X12106409Y-16555931D02*
X12125456Y-16565455D01*
X12125456Y-16565455D02*
X12163551Y-16565455D01*
X12163551Y-16565455D02*
X12182599Y-16555931D01*
X12182599Y-16555931D02*
X12192123Y-16546407D01*
X12192123Y-16546407D02*
X12201647Y-16527359D01*
X12373075Y-16508312D02*
X12373075Y-16641645D01*
X12325456Y-16432121D02*
X12277837Y-16574978D01*
X12277837Y-16574978D02*
X12401647Y-16574978D01*
X12468313Y-16441645D02*
X12468313Y-16479740D01*
X12544504Y-16441645D02*
X12544504Y-16479740D01*
X12839742Y-16717835D02*
X12830218Y-16708312D01*
X12830218Y-16708312D02*
X12811171Y-16679740D01*
X12811171Y-16679740D02*
X12801647Y-16660693D01*
X12801647Y-16660693D02*
X12792123Y-16632121D01*
X12792123Y-16632121D02*
X12782599Y-16584502D01*
X12782599Y-16584502D02*
X12782599Y-16546407D01*
X12782599Y-16546407D02*
X12792123Y-16498788D01*
X12792123Y-16498788D02*
X12801647Y-16470216D01*
X12801647Y-16470216D02*
X12811171Y-16451169D01*
X12811171Y-16451169D02*
X12830218Y-16422597D01*
X12830218Y-16422597D02*
X12839742Y-16413074D01*
X12944504Y-16527359D02*
X12925456Y-16517835D01*
X12925456Y-16517835D02*
X12915932Y-16508312D01*
X12915932Y-16508312D02*
X12906409Y-16489264D01*
X12906409Y-16489264D02*
X12906409Y-16479740D01*
X12906409Y-16479740D02*
X12915932Y-16460693D01*
X12915932Y-16460693D02*
X12925456Y-16451169D01*
X12925456Y-16451169D02*
X12944504Y-16441645D01*
X12944504Y-16441645D02*
X12982599Y-16441645D01*
X12982599Y-16441645D02*
X13001647Y-16451169D01*
X13001647Y-16451169D02*
X13011171Y-16460693D01*
X13011171Y-16460693D02*
X13020694Y-16479740D01*
X13020694Y-16479740D02*
X13020694Y-16489264D01*
X13020694Y-16489264D02*
X13011171Y-16508312D01*
X13011171Y-16508312D02*
X13001647Y-16517835D01*
X13001647Y-16517835D02*
X12982599Y-16527359D01*
X12982599Y-16527359D02*
X12944504Y-16527359D01*
X12944504Y-16527359D02*
X12925456Y-16536883D01*
X12925456Y-16536883D02*
X12915932Y-16546407D01*
X12915932Y-16546407D02*
X12906409Y-16565455D01*
X12906409Y-16565455D02*
X12906409Y-16603550D01*
X12906409Y-16603550D02*
X12915932Y-16622597D01*
X12915932Y-16622597D02*
X12925456Y-16632121D01*
X12925456Y-16632121D02*
X12944504Y-16641645D01*
X12944504Y-16641645D02*
X12982599Y-16641645D01*
X12982599Y-16641645D02*
X13001647Y-16632121D01*
X13001647Y-16632121D02*
X13011171Y-16622597D01*
X13011171Y-16622597D02*
X13020694Y-16603550D01*
X13020694Y-16603550D02*
X13020694Y-16565455D01*
X13020694Y-16565455D02*
X13011171Y-16546407D01*
X13011171Y-16546407D02*
X13001647Y-16536883D01*
X13001647Y-16536883D02*
X12982599Y-16527359D01*
X13087361Y-16441645D02*
X13211171Y-16441645D01*
X13211171Y-16441645D02*
X13144504Y-16517835D01*
X13144504Y-16517835D02*
X13173075Y-16517835D01*
X13173075Y-16517835D02*
X13192123Y-16527359D01*
X13192123Y-16527359D02*
X13201647Y-16536883D01*
X13201647Y-16536883D02*
X13211171Y-16555931D01*
X13211171Y-16555931D02*
X13211171Y-16603550D01*
X13211171Y-16603550D02*
X13201647Y-16622597D01*
X13201647Y-16622597D02*
X13192123Y-16632121D01*
X13192123Y-16632121D02*
X13173075Y-16641645D01*
X13173075Y-16641645D02*
X13115932Y-16641645D01*
X13115932Y-16641645D02*
X13096885Y-16632121D01*
X13096885Y-16632121D02*
X13087361Y-16622597D01*
X13449266Y-16641645D02*
X13449266Y-16441645D01*
X13534980Y-16641645D02*
X13534980Y-16536883D01*
X13534980Y-16536883D02*
X13525456Y-16517835D01*
X13525456Y-16517835D02*
X13506409Y-16508312D01*
X13506409Y-16508312D02*
X13477837Y-16508312D01*
X13477837Y-16508312D02*
X13458790Y-16517835D01*
X13458790Y-16517835D02*
X13449266Y-16527359D01*
X13658790Y-16641645D02*
X13639742Y-16632121D01*
X13639742Y-16632121D02*
X13630218Y-16622597D01*
X13630218Y-16622597D02*
X13620694Y-16603550D01*
X13620694Y-16603550D02*
X13620694Y-16546407D01*
X13620694Y-16546407D02*
X13630218Y-16527359D01*
X13630218Y-16527359D02*
X13639742Y-16517835D01*
X13639742Y-16517835D02*
X13658790Y-16508312D01*
X13658790Y-16508312D02*
X13687361Y-16508312D01*
X13687361Y-16508312D02*
X13706409Y-16517835D01*
X13706409Y-16517835D02*
X13715933Y-16527359D01*
X13715933Y-16527359D02*
X13725456Y-16546407D01*
X13725456Y-16546407D02*
X13725456Y-16603550D01*
X13725456Y-16603550D02*
X13715933Y-16622597D01*
X13715933Y-16622597D02*
X13706409Y-16632121D01*
X13706409Y-16632121D02*
X13687361Y-16641645D01*
X13687361Y-16641645D02*
X13658790Y-16641645D01*
X13839742Y-16641645D02*
X13820694Y-16632121D01*
X13820694Y-16632121D02*
X13811171Y-16613074D01*
X13811171Y-16613074D02*
X13811171Y-16441645D01*
X13992123Y-16632121D02*
X13973075Y-16641645D01*
X13973075Y-16641645D02*
X13934980Y-16641645D01*
X13934980Y-16641645D02*
X13915933Y-16632121D01*
X13915933Y-16632121D02*
X13906409Y-16613074D01*
X13906409Y-16613074D02*
X13906409Y-16536883D01*
X13906409Y-16536883D02*
X13915933Y-16517835D01*
X13915933Y-16517835D02*
X13934980Y-16508312D01*
X13934980Y-16508312D02*
X13973075Y-16508312D01*
X13973075Y-16508312D02*
X13992123Y-16517835D01*
X13992123Y-16517835D02*
X14001647Y-16536883D01*
X14001647Y-16536883D02*
X14001647Y-16555931D01*
X14001647Y-16555931D02*
X13906409Y-16574978D01*
X14077837Y-16632121D02*
X14096885Y-16641645D01*
X14096885Y-16641645D02*
X14134980Y-16641645D01*
X14134980Y-16641645D02*
X14154028Y-16632121D01*
X14154028Y-16632121D02*
X14163552Y-16613074D01*
X14163552Y-16613074D02*
X14163552Y-16603550D01*
X14163552Y-16603550D02*
X14154028Y-16584502D01*
X14154028Y-16584502D02*
X14134980Y-16574978D01*
X14134980Y-16574978D02*
X14106409Y-16574978D01*
X14106409Y-16574978D02*
X14087361Y-16565455D01*
X14087361Y-16565455D02*
X14077837Y-16546407D01*
X14077837Y-16546407D02*
X14077837Y-16536883D01*
X14077837Y-16536883D02*
X14087361Y-16517835D01*
X14087361Y-16517835D02*
X14106409Y-16508312D01*
X14106409Y-16508312D02*
X14134980Y-16508312D01*
X14134980Y-16508312D02*
X14154028Y-16517835D01*
X14230218Y-16717835D02*
X14239742Y-16708312D01*
X14239742Y-16708312D02*
X14258790Y-16679740D01*
X14258790Y-16679740D02*
X14268314Y-16660693D01*
X14268314Y-16660693D02*
X14277837Y-16632121D01*
X14277837Y-16632121D02*
X14287361Y-16584502D01*
X14287361Y-16584502D02*
X14287361Y-16546407D01*
X14287361Y-16546407D02*
X14277837Y-16498788D01*
X14277837Y-16498788D02*
X14268314Y-16470216D01*
X14268314Y-16470216D02*
X14258790Y-16451169D01*
X14258790Y-16451169D02*
X14239742Y-16422597D01*
X14239742Y-16422597D02*
X14230218Y-16413074D01*
D12*
X9249303Y-16851285D02*
X9249303Y-16777038D01*
X9175056Y-16777038D01*
X9175056Y-16851285D01*
X9249303Y-16851285D01*
D11*
X9630218Y-16905645D02*
X9515932Y-16905645D01*
X9573075Y-16905645D02*
X9573075Y-16705645D01*
X9573075Y-16705645D02*
X9554027Y-16734216D01*
X9554027Y-16734216D02*
X9534980Y-16753264D01*
X9534980Y-16753264D02*
X9515932Y-16762788D01*
X9715932Y-16886597D02*
X9725456Y-16896121D01*
X9725456Y-16896121D02*
X9715932Y-16905645D01*
X9715932Y-16905645D02*
X9706408Y-16896121D01*
X9706408Y-16896121D02*
X9715932Y-16886597D01*
X9715932Y-16886597D02*
X9715932Y-16905645D01*
X9849266Y-16705645D02*
X9868313Y-16705645D01*
X9868313Y-16705645D02*
X9887361Y-16715169D01*
X9887361Y-16715169D02*
X9896885Y-16724693D01*
X9896885Y-16724693D02*
X9906408Y-16743740D01*
X9906408Y-16743740D02*
X9915932Y-16781836D01*
X9915932Y-16781836D02*
X9915932Y-16829455D01*
X9915932Y-16829455D02*
X9906408Y-16867550D01*
X9906408Y-16867550D02*
X9896885Y-16886597D01*
X9896885Y-16886597D02*
X9887361Y-16896121D01*
X9887361Y-16896121D02*
X9868313Y-16905645D01*
X9868313Y-16905645D02*
X9849266Y-16905645D01*
X9849266Y-16905645D02*
X9830218Y-16896121D01*
X9830218Y-16896121D02*
X9820694Y-16886597D01*
X9820694Y-16886597D02*
X9811170Y-16867550D01*
X9811170Y-16867550D02*
X9801647Y-16829455D01*
X9801647Y-16829455D02*
X9801647Y-16781836D01*
X9801647Y-16781836D02*
X9811170Y-16743740D01*
X9811170Y-16743740D02*
X9820694Y-16724693D01*
X9820694Y-16724693D02*
X9830218Y-16715169D01*
X9830218Y-16715169D02*
X9849266Y-16705645D01*
X10096885Y-16705645D02*
X10001647Y-16705645D01*
X10001647Y-16705645D02*
X9992123Y-16800883D01*
X9992123Y-16800883D02*
X10001647Y-16791359D01*
X10001647Y-16791359D02*
X10020694Y-16781836D01*
X10020694Y-16781836D02*
X10068313Y-16781836D01*
X10068313Y-16781836D02*
X10087361Y-16791359D01*
X10087361Y-16791359D02*
X10096885Y-16800883D01*
X10096885Y-16800883D02*
X10106408Y-16819931D01*
X10106408Y-16819931D02*
X10106408Y-16867550D01*
X10106408Y-16867550D02*
X10096885Y-16886597D01*
X10096885Y-16886597D02*
X10087361Y-16896121D01*
X10087361Y-16896121D02*
X10068313Y-16905645D01*
X10068313Y-16905645D02*
X10020694Y-16905645D01*
X10020694Y-16905645D02*
X10001647Y-16896121D01*
X10001647Y-16896121D02*
X9992123Y-16886597D01*
X10230218Y-16705645D02*
X10249266Y-16705645D01*
X10249266Y-16705645D02*
X10268313Y-16715169D01*
X10268313Y-16715169D02*
X10277837Y-16724693D01*
X10277837Y-16724693D02*
X10287361Y-16743740D01*
X10287361Y-16743740D02*
X10296885Y-16781836D01*
X10296885Y-16781836D02*
X10296885Y-16829455D01*
X10296885Y-16829455D02*
X10287361Y-16867550D01*
X10287361Y-16867550D02*
X10277837Y-16886597D01*
X10277837Y-16886597D02*
X10268313Y-16896121D01*
X10268313Y-16896121D02*
X10249266Y-16905645D01*
X10249266Y-16905645D02*
X10230218Y-16905645D01*
X10230218Y-16905645D02*
X10211170Y-16896121D01*
X10211170Y-16896121D02*
X10201647Y-16886597D01*
X10201647Y-16886597D02*
X10192123Y-16867550D01*
X10192123Y-16867550D02*
X10182599Y-16829455D01*
X10182599Y-16829455D02*
X10182599Y-16781836D01*
X10182599Y-16781836D02*
X10192123Y-16743740D01*
X10192123Y-16743740D02*
X10201647Y-16724693D01*
X10201647Y-16724693D02*
X10211170Y-16715169D01*
X10211170Y-16715169D02*
X10230218Y-16705645D01*
X10382599Y-16905645D02*
X10382599Y-16772312D01*
X10382599Y-16791359D02*
X10392123Y-16781836D01*
X10392123Y-16781836D02*
X10411170Y-16772312D01*
X10411170Y-16772312D02*
X10439742Y-16772312D01*
X10439742Y-16772312D02*
X10458789Y-16781836D01*
X10458789Y-16781836D02*
X10468313Y-16800883D01*
X10468313Y-16800883D02*
X10468313Y-16905645D01*
X10468313Y-16800883D02*
X10477837Y-16781836D01*
X10477837Y-16781836D02*
X10496885Y-16772312D01*
X10496885Y-16772312D02*
X10525456Y-16772312D01*
X10525456Y-16772312D02*
X10544504Y-16781836D01*
X10544504Y-16781836D02*
X10554028Y-16800883D01*
X10554028Y-16800883D02*
X10554028Y-16905645D01*
X10649266Y-16905645D02*
X10649266Y-16772312D01*
X10649266Y-16791359D02*
X10658789Y-16781836D01*
X10658789Y-16781836D02*
X10677837Y-16772312D01*
X10677837Y-16772312D02*
X10706409Y-16772312D01*
X10706409Y-16772312D02*
X10725456Y-16781836D01*
X10725456Y-16781836D02*
X10734980Y-16800883D01*
X10734980Y-16800883D02*
X10734980Y-16905645D01*
X10734980Y-16800883D02*
X10744504Y-16781836D01*
X10744504Y-16781836D02*
X10763551Y-16772312D01*
X10763551Y-16772312D02*
X10792123Y-16772312D01*
X10792123Y-16772312D02*
X10811170Y-16781836D01*
X10811170Y-16781836D02*
X10820694Y-16800883D01*
X10820694Y-16800883D02*
X10820694Y-16905645D01*
X11211170Y-16696121D02*
X11039742Y-16953264D01*
X11468313Y-16705645D02*
X11487361Y-16705645D01*
X11487361Y-16705645D02*
X11506409Y-16715169D01*
X11506409Y-16715169D02*
X11515932Y-16724693D01*
X11515932Y-16724693D02*
X11525456Y-16743740D01*
X11525456Y-16743740D02*
X11534980Y-16781836D01*
X11534980Y-16781836D02*
X11534980Y-16829455D01*
X11534980Y-16829455D02*
X11525456Y-16867550D01*
X11525456Y-16867550D02*
X11515932Y-16886597D01*
X11515932Y-16886597D02*
X11506409Y-16896121D01*
X11506409Y-16896121D02*
X11487361Y-16905645D01*
X11487361Y-16905645D02*
X11468313Y-16905645D01*
X11468313Y-16905645D02*
X11449266Y-16896121D01*
X11449266Y-16896121D02*
X11439742Y-16886597D01*
X11439742Y-16886597D02*
X11430218Y-16867550D01*
X11430218Y-16867550D02*
X11420694Y-16829455D01*
X11420694Y-16829455D02*
X11420694Y-16781836D01*
X11420694Y-16781836D02*
X11430218Y-16743740D01*
X11430218Y-16743740D02*
X11439742Y-16724693D01*
X11439742Y-16724693D02*
X11449266Y-16715169D01*
X11449266Y-16715169D02*
X11468313Y-16705645D01*
X11620694Y-16886597D02*
X11630218Y-16896121D01*
X11630218Y-16896121D02*
X11620694Y-16905645D01*
X11620694Y-16905645D02*
X11611170Y-16896121D01*
X11611170Y-16896121D02*
X11620694Y-16886597D01*
X11620694Y-16886597D02*
X11620694Y-16905645D01*
X11754028Y-16705645D02*
X11773075Y-16705645D01*
X11773075Y-16705645D02*
X11792123Y-16715169D01*
X11792123Y-16715169D02*
X11801647Y-16724693D01*
X11801647Y-16724693D02*
X11811170Y-16743740D01*
X11811170Y-16743740D02*
X11820694Y-16781836D01*
X11820694Y-16781836D02*
X11820694Y-16829455D01*
X11820694Y-16829455D02*
X11811170Y-16867550D01*
X11811170Y-16867550D02*
X11801647Y-16886597D01*
X11801647Y-16886597D02*
X11792123Y-16896121D01*
X11792123Y-16896121D02*
X11773075Y-16905645D01*
X11773075Y-16905645D02*
X11754028Y-16905645D01*
X11754028Y-16905645D02*
X11734980Y-16896121D01*
X11734980Y-16896121D02*
X11725456Y-16886597D01*
X11725456Y-16886597D02*
X11715932Y-16867550D01*
X11715932Y-16867550D02*
X11706409Y-16829455D01*
X11706409Y-16829455D02*
X11706409Y-16781836D01*
X11706409Y-16781836D02*
X11715932Y-16743740D01*
X11715932Y-16743740D02*
X11725456Y-16724693D01*
X11725456Y-16724693D02*
X11734980Y-16715169D01*
X11734980Y-16715169D02*
X11754028Y-16705645D01*
X11992123Y-16772312D02*
X11992123Y-16905645D01*
X11944504Y-16696121D02*
X11896885Y-16838978D01*
X11896885Y-16838978D02*
X12020694Y-16838978D01*
X12201647Y-16905645D02*
X12087361Y-16905645D01*
X12144504Y-16905645D02*
X12144504Y-16705645D01*
X12144504Y-16705645D02*
X12125456Y-16734216D01*
X12125456Y-16734216D02*
X12106409Y-16753264D01*
X12106409Y-16753264D02*
X12087361Y-16762788D01*
X12268313Y-16705645D02*
X12392123Y-16705645D01*
X12392123Y-16705645D02*
X12325456Y-16781836D01*
X12325456Y-16781836D02*
X12354028Y-16781836D01*
X12354028Y-16781836D02*
X12373075Y-16791359D01*
X12373075Y-16791359D02*
X12382599Y-16800883D01*
X12382599Y-16800883D02*
X12392123Y-16819931D01*
X12392123Y-16819931D02*
X12392123Y-16867550D01*
X12392123Y-16867550D02*
X12382599Y-16886597D01*
X12382599Y-16886597D02*
X12373075Y-16896121D01*
X12373075Y-16896121D02*
X12354028Y-16905645D01*
X12354028Y-16905645D02*
X12296885Y-16905645D01*
X12296885Y-16905645D02*
X12277837Y-16896121D01*
X12277837Y-16896121D02*
X12268313Y-16886597D01*
X12468313Y-16705645D02*
X12468313Y-16743740D01*
X12544504Y-16705645D02*
X12544504Y-16743740D01*
X12839742Y-16981836D02*
X12830218Y-16972312D01*
X12830218Y-16972312D02*
X12811171Y-16943740D01*
X12811171Y-16943740D02*
X12801647Y-16924693D01*
X12801647Y-16924693D02*
X12792123Y-16896121D01*
X12792123Y-16896121D02*
X12782599Y-16848502D01*
X12782599Y-16848502D02*
X12782599Y-16810407D01*
X12782599Y-16810407D02*
X12792123Y-16762788D01*
X12792123Y-16762788D02*
X12801647Y-16734216D01*
X12801647Y-16734216D02*
X12811171Y-16715169D01*
X12811171Y-16715169D02*
X12830218Y-16686597D01*
X12830218Y-16686597D02*
X12839742Y-16677074D01*
X12906409Y-16724693D02*
X12915932Y-16715169D01*
X12915932Y-16715169D02*
X12934980Y-16705645D01*
X12934980Y-16705645D02*
X12982599Y-16705645D01*
X12982599Y-16705645D02*
X13001647Y-16715169D01*
X13001647Y-16715169D02*
X13011171Y-16724693D01*
X13011171Y-16724693D02*
X13020694Y-16743740D01*
X13020694Y-16743740D02*
X13020694Y-16762788D01*
X13020694Y-16762788D02*
X13011171Y-16791359D01*
X13011171Y-16791359D02*
X12896885Y-16905645D01*
X12896885Y-16905645D02*
X13020694Y-16905645D01*
X13258790Y-16905645D02*
X13258790Y-16705645D01*
X13344504Y-16905645D02*
X13344504Y-16800883D01*
X13344504Y-16800883D02*
X13334980Y-16781836D01*
X13334980Y-16781836D02*
X13315933Y-16772312D01*
X13315933Y-16772312D02*
X13287361Y-16772312D01*
X13287361Y-16772312D02*
X13268313Y-16781836D01*
X13268313Y-16781836D02*
X13258790Y-16791359D01*
X13468313Y-16905645D02*
X13449266Y-16896121D01*
X13449266Y-16896121D02*
X13439742Y-16886597D01*
X13439742Y-16886597D02*
X13430218Y-16867550D01*
X13430218Y-16867550D02*
X13430218Y-16810407D01*
X13430218Y-16810407D02*
X13439742Y-16791359D01*
X13439742Y-16791359D02*
X13449266Y-16781836D01*
X13449266Y-16781836D02*
X13468313Y-16772312D01*
X13468313Y-16772312D02*
X13496885Y-16772312D01*
X13496885Y-16772312D02*
X13515933Y-16781836D01*
X13515933Y-16781836D02*
X13525456Y-16791359D01*
X13525456Y-16791359D02*
X13534980Y-16810407D01*
X13534980Y-16810407D02*
X13534980Y-16867550D01*
X13534980Y-16867550D02*
X13525456Y-16886597D01*
X13525456Y-16886597D02*
X13515933Y-16896121D01*
X13515933Y-16896121D02*
X13496885Y-16905645D01*
X13496885Y-16905645D02*
X13468313Y-16905645D01*
X13649266Y-16905645D02*
X13630218Y-16896121D01*
X13630218Y-16896121D02*
X13620694Y-16877074D01*
X13620694Y-16877074D02*
X13620694Y-16705645D01*
X13801647Y-16896121D02*
X13782599Y-16905645D01*
X13782599Y-16905645D02*
X13744504Y-16905645D01*
X13744504Y-16905645D02*
X13725456Y-16896121D01*
X13725456Y-16896121D02*
X13715933Y-16877074D01*
X13715933Y-16877074D02*
X13715933Y-16800883D01*
X13715933Y-16800883D02*
X13725456Y-16781836D01*
X13725456Y-16781836D02*
X13744504Y-16772312D01*
X13744504Y-16772312D02*
X13782599Y-16772312D01*
X13782599Y-16772312D02*
X13801647Y-16781836D01*
X13801647Y-16781836D02*
X13811171Y-16800883D01*
X13811171Y-16800883D02*
X13811171Y-16819931D01*
X13811171Y-16819931D02*
X13715933Y-16838978D01*
X13887361Y-16896121D02*
X13906409Y-16905645D01*
X13906409Y-16905645D02*
X13944504Y-16905645D01*
X13944504Y-16905645D02*
X13963552Y-16896121D01*
X13963552Y-16896121D02*
X13973075Y-16877074D01*
X13973075Y-16877074D02*
X13973075Y-16867550D01*
X13973075Y-16867550D02*
X13963552Y-16848502D01*
X13963552Y-16848502D02*
X13944504Y-16838978D01*
X13944504Y-16838978D02*
X13915933Y-16838978D01*
X13915933Y-16838978D02*
X13896885Y-16829455D01*
X13896885Y-16829455D02*
X13887361Y-16810407D01*
X13887361Y-16810407D02*
X13887361Y-16800883D01*
X13887361Y-16800883D02*
X13896885Y-16781836D01*
X13896885Y-16781836D02*
X13915933Y-16772312D01*
X13915933Y-16772312D02*
X13944504Y-16772312D01*
X13944504Y-16772312D02*
X13963552Y-16781836D01*
X14039742Y-16981836D02*
X14049266Y-16972312D01*
X14049266Y-16972312D02*
X14068314Y-16943740D01*
X14068314Y-16943740D02*
X14077837Y-16924693D01*
X14077837Y-16924693D02*
X14087361Y-16896121D01*
X14087361Y-16896121D02*
X14096885Y-16848502D01*
X14096885Y-16848502D02*
X14096885Y-16810407D01*
X14096885Y-16810407D02*
X14087361Y-16762788D01*
X14087361Y-16762788D02*
X14077837Y-16734216D01*
X14077837Y-16734216D02*
X14068314Y-16715169D01*
X14068314Y-16715169D02*
X14049266Y-16686597D01*
X14049266Y-16686597D02*
X14039742Y-16677074D01*
D13*
X9199909Y-17142931D02*
X9264679Y-17078161D01*
X9199909Y-17013391D01*
X9135139Y-17078161D01*
X9199909Y-17142931D01*
D11*
X9630218Y-17169645D02*
X9515932Y-17169645D01*
X9573075Y-17169645D02*
X9573075Y-16969645D01*
X9573075Y-16969645D02*
X9554027Y-16998217D01*
X9554027Y-16998217D02*
X9534980Y-17017264D01*
X9534980Y-17017264D02*
X9515932Y-17026788D01*
X9715932Y-17150597D02*
X9725456Y-17160121D01*
X9725456Y-17160121D02*
X9715932Y-17169645D01*
X9715932Y-17169645D02*
X9706408Y-17160121D01*
X9706408Y-17160121D02*
X9715932Y-17150597D01*
X9715932Y-17150597D02*
X9715932Y-17169645D01*
X9801647Y-16988693D02*
X9811170Y-16979169D01*
X9811170Y-16979169D02*
X9830218Y-16969645D01*
X9830218Y-16969645D02*
X9877837Y-16969645D01*
X9877837Y-16969645D02*
X9896885Y-16979169D01*
X9896885Y-16979169D02*
X9906408Y-16988693D01*
X9906408Y-16988693D02*
X9915932Y-17007740D01*
X9915932Y-17007740D02*
X9915932Y-17026788D01*
X9915932Y-17026788D02*
X9906408Y-17055359D01*
X9906408Y-17055359D02*
X9792123Y-17169645D01*
X9792123Y-17169645D02*
X9915932Y-17169645D01*
X10011170Y-17169645D02*
X10049266Y-17169645D01*
X10049266Y-17169645D02*
X10068313Y-17160121D01*
X10068313Y-17160121D02*
X10077837Y-17150597D01*
X10077837Y-17150597D02*
X10096885Y-17122026D01*
X10096885Y-17122026D02*
X10106408Y-17083931D01*
X10106408Y-17083931D02*
X10106408Y-17007740D01*
X10106408Y-17007740D02*
X10096885Y-16988693D01*
X10096885Y-16988693D02*
X10087361Y-16979169D01*
X10087361Y-16979169D02*
X10068313Y-16969645D01*
X10068313Y-16969645D02*
X10030218Y-16969645D01*
X10030218Y-16969645D02*
X10011170Y-16979169D01*
X10011170Y-16979169D02*
X10001647Y-16988693D01*
X10001647Y-16988693D02*
X9992123Y-17007740D01*
X9992123Y-17007740D02*
X9992123Y-17055359D01*
X9992123Y-17055359D02*
X10001647Y-17074407D01*
X10001647Y-17074407D02*
X10011170Y-17083931D01*
X10011170Y-17083931D02*
X10030218Y-17093455D01*
X10030218Y-17093455D02*
X10068313Y-17093455D01*
X10068313Y-17093455D02*
X10087361Y-17083931D01*
X10087361Y-17083931D02*
X10096885Y-17074407D01*
X10096885Y-17074407D02*
X10106408Y-17055359D01*
X10287361Y-16969645D02*
X10192123Y-16969645D01*
X10192123Y-16969645D02*
X10182599Y-17064883D01*
X10182599Y-17064883D02*
X10192123Y-17055359D01*
X10192123Y-17055359D02*
X10211170Y-17045836D01*
X10211170Y-17045836D02*
X10258789Y-17045836D01*
X10258789Y-17045836D02*
X10277837Y-17055359D01*
X10277837Y-17055359D02*
X10287361Y-17064883D01*
X10287361Y-17064883D02*
X10296885Y-17083931D01*
X10296885Y-17083931D02*
X10296885Y-17131550D01*
X10296885Y-17131550D02*
X10287361Y-17150597D01*
X10287361Y-17150597D02*
X10277837Y-17160121D01*
X10277837Y-17160121D02*
X10258789Y-17169645D01*
X10258789Y-17169645D02*
X10211170Y-17169645D01*
X10211170Y-17169645D02*
X10192123Y-17160121D01*
X10192123Y-17160121D02*
X10182599Y-17150597D01*
X10382599Y-17169645D02*
X10382599Y-17036312D01*
X10382599Y-17055359D02*
X10392123Y-17045836D01*
X10392123Y-17045836D02*
X10411170Y-17036312D01*
X10411170Y-17036312D02*
X10439742Y-17036312D01*
X10439742Y-17036312D02*
X10458789Y-17045836D01*
X10458789Y-17045836D02*
X10468313Y-17064883D01*
X10468313Y-17064883D02*
X10468313Y-17169645D01*
X10468313Y-17064883D02*
X10477837Y-17045836D01*
X10477837Y-17045836D02*
X10496885Y-17036312D01*
X10496885Y-17036312D02*
X10525456Y-17036312D01*
X10525456Y-17036312D02*
X10544504Y-17045836D01*
X10544504Y-17045836D02*
X10554028Y-17064883D01*
X10554028Y-17064883D02*
X10554028Y-17169645D01*
X10649266Y-17169645D02*
X10649266Y-17036312D01*
X10649266Y-17055359D02*
X10658789Y-17045836D01*
X10658789Y-17045836D02*
X10677837Y-17036312D01*
X10677837Y-17036312D02*
X10706409Y-17036312D01*
X10706409Y-17036312D02*
X10725456Y-17045836D01*
X10725456Y-17045836D02*
X10734980Y-17064883D01*
X10734980Y-17064883D02*
X10734980Y-17169645D01*
X10734980Y-17064883D02*
X10744504Y-17045836D01*
X10744504Y-17045836D02*
X10763551Y-17036312D01*
X10763551Y-17036312D02*
X10792123Y-17036312D01*
X10792123Y-17036312D02*
X10811170Y-17045836D01*
X10811170Y-17045836D02*
X10820694Y-17064883D01*
X10820694Y-17064883D02*
X10820694Y-17169645D01*
X11211170Y-16960121D02*
X11039742Y-17217264D01*
X11468313Y-16969645D02*
X11487361Y-16969645D01*
X11487361Y-16969645D02*
X11506409Y-16979169D01*
X11506409Y-16979169D02*
X11515932Y-16988693D01*
X11515932Y-16988693D02*
X11525456Y-17007740D01*
X11525456Y-17007740D02*
X11534980Y-17045836D01*
X11534980Y-17045836D02*
X11534980Y-17093455D01*
X11534980Y-17093455D02*
X11525456Y-17131550D01*
X11525456Y-17131550D02*
X11515932Y-17150597D01*
X11515932Y-17150597D02*
X11506409Y-17160121D01*
X11506409Y-17160121D02*
X11487361Y-17169645D01*
X11487361Y-17169645D02*
X11468313Y-17169645D01*
X11468313Y-17169645D02*
X11449266Y-17160121D01*
X11449266Y-17160121D02*
X11439742Y-17150597D01*
X11439742Y-17150597D02*
X11430218Y-17131550D01*
X11430218Y-17131550D02*
X11420694Y-17093455D01*
X11420694Y-17093455D02*
X11420694Y-17045836D01*
X11420694Y-17045836D02*
X11430218Y-17007740D01*
X11430218Y-17007740D02*
X11439742Y-16988693D01*
X11439742Y-16988693D02*
X11449266Y-16979169D01*
X11449266Y-16979169D02*
X11468313Y-16969645D01*
X11620694Y-17150597D02*
X11630218Y-17160121D01*
X11630218Y-17160121D02*
X11620694Y-17169645D01*
X11620694Y-17169645D02*
X11611170Y-17160121D01*
X11611170Y-17160121D02*
X11620694Y-17150597D01*
X11620694Y-17150597D02*
X11620694Y-17169645D01*
X11754028Y-16969645D02*
X11773075Y-16969645D01*
X11773075Y-16969645D02*
X11792123Y-16979169D01*
X11792123Y-16979169D02*
X11801647Y-16988693D01*
X11801647Y-16988693D02*
X11811170Y-17007740D01*
X11811170Y-17007740D02*
X11820694Y-17045836D01*
X11820694Y-17045836D02*
X11820694Y-17093455D01*
X11820694Y-17093455D02*
X11811170Y-17131550D01*
X11811170Y-17131550D02*
X11801647Y-17150597D01*
X11801647Y-17150597D02*
X11792123Y-17160121D01*
X11792123Y-17160121D02*
X11773075Y-17169645D01*
X11773075Y-17169645D02*
X11754028Y-17169645D01*
X11754028Y-17169645D02*
X11734980Y-17160121D01*
X11734980Y-17160121D02*
X11725456Y-17150597D01*
X11725456Y-17150597D02*
X11715932Y-17131550D01*
X11715932Y-17131550D02*
X11706409Y-17093455D01*
X11706409Y-17093455D02*
X11706409Y-17045836D01*
X11706409Y-17045836D02*
X11715932Y-17007740D01*
X11715932Y-17007740D02*
X11725456Y-16988693D01*
X11725456Y-16988693D02*
X11734980Y-16979169D01*
X11734980Y-16979169D02*
X11754028Y-16969645D01*
X12001647Y-16969645D02*
X11906409Y-16969645D01*
X11906409Y-16969645D02*
X11896885Y-17064883D01*
X11896885Y-17064883D02*
X11906409Y-17055359D01*
X11906409Y-17055359D02*
X11925456Y-17045836D01*
X11925456Y-17045836D02*
X11973075Y-17045836D01*
X11973075Y-17045836D02*
X11992123Y-17055359D01*
X11992123Y-17055359D02*
X12001647Y-17064883D01*
X12001647Y-17064883D02*
X12011170Y-17083931D01*
X12011170Y-17083931D02*
X12011170Y-17131550D01*
X12011170Y-17131550D02*
X12001647Y-17150597D01*
X12001647Y-17150597D02*
X11992123Y-17160121D01*
X11992123Y-17160121D02*
X11973075Y-17169645D01*
X11973075Y-17169645D02*
X11925456Y-17169645D01*
X11925456Y-17169645D02*
X11906409Y-17160121D01*
X11906409Y-17160121D02*
X11896885Y-17150597D01*
X12201647Y-17169645D02*
X12087361Y-17169645D01*
X12144504Y-17169645D02*
X12144504Y-16969645D01*
X12144504Y-16969645D02*
X12125456Y-16998217D01*
X12125456Y-16998217D02*
X12106409Y-17017264D01*
X12106409Y-17017264D02*
X12087361Y-17026788D01*
X12325456Y-16969645D02*
X12344504Y-16969645D01*
X12344504Y-16969645D02*
X12363551Y-16979169D01*
X12363551Y-16979169D02*
X12373075Y-16988693D01*
X12373075Y-16988693D02*
X12382599Y-17007740D01*
X12382599Y-17007740D02*
X12392123Y-17045836D01*
X12392123Y-17045836D02*
X12392123Y-17093455D01*
X12392123Y-17093455D02*
X12382599Y-17131550D01*
X12382599Y-17131550D02*
X12373075Y-17150597D01*
X12373075Y-17150597D02*
X12363551Y-17160121D01*
X12363551Y-17160121D02*
X12344504Y-17169645D01*
X12344504Y-17169645D02*
X12325456Y-17169645D01*
X12325456Y-17169645D02*
X12306409Y-17160121D01*
X12306409Y-17160121D02*
X12296885Y-17150597D01*
X12296885Y-17150597D02*
X12287361Y-17131550D01*
X12287361Y-17131550D02*
X12277837Y-17093455D01*
X12277837Y-17093455D02*
X12277837Y-17045836D01*
X12277837Y-17045836D02*
X12287361Y-17007740D01*
X12287361Y-17007740D02*
X12296885Y-16988693D01*
X12296885Y-16988693D02*
X12306409Y-16979169D01*
X12306409Y-16979169D02*
X12325456Y-16969645D01*
X12468313Y-16969645D02*
X12468313Y-17007740D01*
X12544504Y-16969645D02*
X12544504Y-17007740D01*
X12839742Y-17245836D02*
X12830218Y-17236312D01*
X12830218Y-17236312D02*
X12811171Y-17207740D01*
X12811171Y-17207740D02*
X12801647Y-17188693D01*
X12801647Y-17188693D02*
X12792123Y-17160121D01*
X12792123Y-17160121D02*
X12782599Y-17112502D01*
X12782599Y-17112502D02*
X12782599Y-17074407D01*
X12782599Y-17074407D02*
X12792123Y-17026788D01*
X12792123Y-17026788D02*
X12801647Y-16998217D01*
X12801647Y-16998217D02*
X12811171Y-16979169D01*
X12811171Y-16979169D02*
X12830218Y-16950597D01*
X12830218Y-16950597D02*
X12839742Y-16941074D01*
X13011171Y-16969645D02*
X12915932Y-16969645D01*
X12915932Y-16969645D02*
X12906409Y-17064883D01*
X12906409Y-17064883D02*
X12915932Y-17055359D01*
X12915932Y-17055359D02*
X12934980Y-17045836D01*
X12934980Y-17045836D02*
X12982599Y-17045836D01*
X12982599Y-17045836D02*
X13001647Y-17055359D01*
X13001647Y-17055359D02*
X13011171Y-17064883D01*
X13011171Y-17064883D02*
X13020694Y-17083931D01*
X13020694Y-17083931D02*
X13020694Y-17131550D01*
X13020694Y-17131550D02*
X13011171Y-17150597D01*
X13011171Y-17150597D02*
X13001647Y-17160121D01*
X13001647Y-17160121D02*
X12982599Y-17169645D01*
X12982599Y-17169645D02*
X12934980Y-17169645D01*
X12934980Y-17169645D02*
X12915932Y-17160121D01*
X12915932Y-17160121D02*
X12906409Y-17150597D01*
X13258790Y-17169645D02*
X13258790Y-16969645D01*
X13344504Y-17169645D02*
X13344504Y-17064883D01*
X13344504Y-17064883D02*
X13334980Y-17045836D01*
X13334980Y-17045836D02*
X13315933Y-17036312D01*
X13315933Y-17036312D02*
X13287361Y-17036312D01*
X13287361Y-17036312D02*
X13268313Y-17045836D01*
X13268313Y-17045836D02*
X13258790Y-17055359D01*
X13468313Y-17169645D02*
X13449266Y-17160121D01*
X13449266Y-17160121D02*
X13439742Y-17150597D01*
X13439742Y-17150597D02*
X13430218Y-17131550D01*
X13430218Y-17131550D02*
X13430218Y-17074407D01*
X13430218Y-17074407D02*
X13439742Y-17055359D01*
X13439742Y-17055359D02*
X13449266Y-17045836D01*
X13449266Y-17045836D02*
X13468313Y-17036312D01*
X13468313Y-17036312D02*
X13496885Y-17036312D01*
X13496885Y-17036312D02*
X13515933Y-17045836D01*
X13515933Y-17045836D02*
X13525456Y-17055359D01*
X13525456Y-17055359D02*
X13534980Y-17074407D01*
X13534980Y-17074407D02*
X13534980Y-17131550D01*
X13534980Y-17131550D02*
X13525456Y-17150597D01*
X13525456Y-17150597D02*
X13515933Y-17160121D01*
X13515933Y-17160121D02*
X13496885Y-17169645D01*
X13496885Y-17169645D02*
X13468313Y-17169645D01*
X13649266Y-17169645D02*
X13630218Y-17160121D01*
X13630218Y-17160121D02*
X13620694Y-17141074D01*
X13620694Y-17141074D02*
X13620694Y-16969645D01*
X13801647Y-17160121D02*
X13782599Y-17169645D01*
X13782599Y-17169645D02*
X13744504Y-17169645D01*
X13744504Y-17169645D02*
X13725456Y-17160121D01*
X13725456Y-17160121D02*
X13715933Y-17141074D01*
X13715933Y-17141074D02*
X13715933Y-17064883D01*
X13715933Y-17064883D02*
X13725456Y-17045836D01*
X13725456Y-17045836D02*
X13744504Y-17036312D01*
X13744504Y-17036312D02*
X13782599Y-17036312D01*
X13782599Y-17036312D02*
X13801647Y-17045836D01*
X13801647Y-17045836D02*
X13811171Y-17064883D01*
X13811171Y-17064883D02*
X13811171Y-17083931D01*
X13811171Y-17083931D02*
X13715933Y-17102978D01*
X13887361Y-17160121D02*
X13906409Y-17169645D01*
X13906409Y-17169645D02*
X13944504Y-17169645D01*
X13944504Y-17169645D02*
X13963552Y-17160121D01*
X13963552Y-17160121D02*
X13973075Y-17141074D01*
X13973075Y-17141074D02*
X13973075Y-17131550D01*
X13973075Y-17131550D02*
X13963552Y-17112502D01*
X13963552Y-17112502D02*
X13944504Y-17102978D01*
X13944504Y-17102978D02*
X13915933Y-17102978D01*
X13915933Y-17102978D02*
X13896885Y-17093455D01*
X13896885Y-17093455D02*
X13887361Y-17074407D01*
X13887361Y-17074407D02*
X13887361Y-17064883D01*
X13887361Y-17064883D02*
X13896885Y-17045836D01*
X13896885Y-17045836D02*
X13915933Y-17036312D01*
X13915933Y-17036312D02*
X13944504Y-17036312D01*
X13944504Y-17036312D02*
X13963552Y-17045836D01*
X14039742Y-17245836D02*
X14049266Y-17236312D01*
X14049266Y-17236312D02*
X14068314Y-17207740D01*
X14068314Y-17207740D02*
X14077837Y-17188693D01*
X14077837Y-17188693D02*
X14087361Y-17160121D01*
X14087361Y-17160121D02*
X14096885Y-17112502D01*
X14096885Y-17112502D02*
X14096885Y-17074407D01*
X14096885Y-17074407D02*
X14087361Y-17026788D01*
X14087361Y-17026788D02*
X14077837Y-16998217D01*
X14077837Y-16998217D02*
X14068314Y-16979169D01*
X14068314Y-16979169D02*
X14049266Y-16950597D01*
X14049266Y-16950597D02*
X14039742Y-16941074D01*
D14*
X9114679Y-17267161D02*
X9264679Y-17417161D01*
X9264679Y-17267161D02*
X9114679Y-17417161D01*
X9264679Y-17342161D02*
G75*
G02*
X9114679Y-17342161I-75000J0D01*
G01*
X9114679Y-17342161D02*
G75*
G02*
X9264679Y-17342161I75000J0D01*
G01*
D11*
X9630218Y-17433645D02*
X9515932Y-17433645D01*
X9573075Y-17433645D02*
X9573075Y-17233645D01*
X9573075Y-17233645D02*
X9554027Y-17262217D01*
X9554027Y-17262217D02*
X9534980Y-17281264D01*
X9534980Y-17281264D02*
X9515932Y-17290788D01*
X9715932Y-17414597D02*
X9725456Y-17424121D01*
X9725456Y-17424121D02*
X9715932Y-17433645D01*
X9715932Y-17433645D02*
X9706408Y-17424121D01*
X9706408Y-17424121D02*
X9715932Y-17414597D01*
X9715932Y-17414597D02*
X9715932Y-17433645D01*
X9906408Y-17233645D02*
X9811170Y-17233645D01*
X9811170Y-17233645D02*
X9801647Y-17328883D01*
X9801647Y-17328883D02*
X9811170Y-17319359D01*
X9811170Y-17319359D02*
X9830218Y-17309836D01*
X9830218Y-17309836D02*
X9877837Y-17309836D01*
X9877837Y-17309836D02*
X9896885Y-17319359D01*
X9896885Y-17319359D02*
X9906408Y-17328883D01*
X9906408Y-17328883D02*
X9915932Y-17347931D01*
X9915932Y-17347931D02*
X9915932Y-17395550D01*
X9915932Y-17395550D02*
X9906408Y-17414597D01*
X9906408Y-17414597D02*
X9896885Y-17424121D01*
X9896885Y-17424121D02*
X9877837Y-17433645D01*
X9877837Y-17433645D02*
X9830218Y-17433645D01*
X9830218Y-17433645D02*
X9811170Y-17424121D01*
X9811170Y-17424121D02*
X9801647Y-17414597D01*
X10039742Y-17233645D02*
X10058789Y-17233645D01*
X10058789Y-17233645D02*
X10077837Y-17243169D01*
X10077837Y-17243169D02*
X10087361Y-17252693D01*
X10087361Y-17252693D02*
X10096885Y-17271740D01*
X10096885Y-17271740D02*
X10106408Y-17309836D01*
X10106408Y-17309836D02*
X10106408Y-17357455D01*
X10106408Y-17357455D02*
X10096885Y-17395550D01*
X10096885Y-17395550D02*
X10087361Y-17414597D01*
X10087361Y-17414597D02*
X10077837Y-17424121D01*
X10077837Y-17424121D02*
X10058789Y-17433645D01*
X10058789Y-17433645D02*
X10039742Y-17433645D01*
X10039742Y-17433645D02*
X10020694Y-17424121D01*
X10020694Y-17424121D02*
X10011170Y-17414597D01*
X10011170Y-17414597D02*
X10001647Y-17395550D01*
X10001647Y-17395550D02*
X9992123Y-17357455D01*
X9992123Y-17357455D02*
X9992123Y-17309836D01*
X9992123Y-17309836D02*
X10001647Y-17271740D01*
X10001647Y-17271740D02*
X10011170Y-17252693D01*
X10011170Y-17252693D02*
X10020694Y-17243169D01*
X10020694Y-17243169D02*
X10039742Y-17233645D01*
X10230218Y-17233645D02*
X10249266Y-17233645D01*
X10249266Y-17233645D02*
X10268313Y-17243169D01*
X10268313Y-17243169D02*
X10277837Y-17252693D01*
X10277837Y-17252693D02*
X10287361Y-17271740D01*
X10287361Y-17271740D02*
X10296885Y-17309836D01*
X10296885Y-17309836D02*
X10296885Y-17357455D01*
X10296885Y-17357455D02*
X10287361Y-17395550D01*
X10287361Y-17395550D02*
X10277837Y-17414597D01*
X10277837Y-17414597D02*
X10268313Y-17424121D01*
X10268313Y-17424121D02*
X10249266Y-17433645D01*
X10249266Y-17433645D02*
X10230218Y-17433645D01*
X10230218Y-17433645D02*
X10211170Y-17424121D01*
X10211170Y-17424121D02*
X10201647Y-17414597D01*
X10201647Y-17414597D02*
X10192123Y-17395550D01*
X10192123Y-17395550D02*
X10182599Y-17357455D01*
X10182599Y-17357455D02*
X10182599Y-17309836D01*
X10182599Y-17309836D02*
X10192123Y-17271740D01*
X10192123Y-17271740D02*
X10201647Y-17252693D01*
X10201647Y-17252693D02*
X10211170Y-17243169D01*
X10211170Y-17243169D02*
X10230218Y-17233645D01*
X10382599Y-17433645D02*
X10382599Y-17300312D01*
X10382599Y-17319359D02*
X10392123Y-17309836D01*
X10392123Y-17309836D02*
X10411170Y-17300312D01*
X10411170Y-17300312D02*
X10439742Y-17300312D01*
X10439742Y-17300312D02*
X10458789Y-17309836D01*
X10458789Y-17309836D02*
X10468313Y-17328883D01*
X10468313Y-17328883D02*
X10468313Y-17433645D01*
X10468313Y-17328883D02*
X10477837Y-17309836D01*
X10477837Y-17309836D02*
X10496885Y-17300312D01*
X10496885Y-17300312D02*
X10525456Y-17300312D01*
X10525456Y-17300312D02*
X10544504Y-17309836D01*
X10544504Y-17309836D02*
X10554028Y-17328883D01*
X10554028Y-17328883D02*
X10554028Y-17433645D01*
X10649266Y-17433645D02*
X10649266Y-17300312D01*
X10649266Y-17319359D02*
X10658789Y-17309836D01*
X10658789Y-17309836D02*
X10677837Y-17300312D01*
X10677837Y-17300312D02*
X10706409Y-17300312D01*
X10706409Y-17300312D02*
X10725456Y-17309836D01*
X10725456Y-17309836D02*
X10734980Y-17328883D01*
X10734980Y-17328883D02*
X10734980Y-17433645D01*
X10734980Y-17328883D02*
X10744504Y-17309836D01*
X10744504Y-17309836D02*
X10763551Y-17300312D01*
X10763551Y-17300312D02*
X10792123Y-17300312D01*
X10792123Y-17300312D02*
X10811170Y-17309836D01*
X10811170Y-17309836D02*
X10820694Y-17328883D01*
X10820694Y-17328883D02*
X10820694Y-17433645D01*
X11211170Y-17224121D02*
X11039742Y-17481264D01*
X11468313Y-17233645D02*
X11487361Y-17233645D01*
X11487361Y-17233645D02*
X11506409Y-17243169D01*
X11506409Y-17243169D02*
X11515932Y-17252693D01*
X11515932Y-17252693D02*
X11525456Y-17271740D01*
X11525456Y-17271740D02*
X11534980Y-17309836D01*
X11534980Y-17309836D02*
X11534980Y-17357455D01*
X11534980Y-17357455D02*
X11525456Y-17395550D01*
X11525456Y-17395550D02*
X11515932Y-17414597D01*
X11515932Y-17414597D02*
X11506409Y-17424121D01*
X11506409Y-17424121D02*
X11487361Y-17433645D01*
X11487361Y-17433645D02*
X11468313Y-17433645D01*
X11468313Y-17433645D02*
X11449266Y-17424121D01*
X11449266Y-17424121D02*
X11439742Y-17414597D01*
X11439742Y-17414597D02*
X11430218Y-17395550D01*
X11430218Y-17395550D02*
X11420694Y-17357455D01*
X11420694Y-17357455D02*
X11420694Y-17309836D01*
X11420694Y-17309836D02*
X11430218Y-17271740D01*
X11430218Y-17271740D02*
X11439742Y-17252693D01*
X11439742Y-17252693D02*
X11449266Y-17243169D01*
X11449266Y-17243169D02*
X11468313Y-17233645D01*
X11620694Y-17414597D02*
X11630218Y-17424121D01*
X11630218Y-17424121D02*
X11620694Y-17433645D01*
X11620694Y-17433645D02*
X11611170Y-17424121D01*
X11611170Y-17424121D02*
X11620694Y-17414597D01*
X11620694Y-17414597D02*
X11620694Y-17433645D01*
X11754028Y-17233645D02*
X11773075Y-17233645D01*
X11773075Y-17233645D02*
X11792123Y-17243169D01*
X11792123Y-17243169D02*
X11801647Y-17252693D01*
X11801647Y-17252693D02*
X11811170Y-17271740D01*
X11811170Y-17271740D02*
X11820694Y-17309836D01*
X11820694Y-17309836D02*
X11820694Y-17357455D01*
X11820694Y-17357455D02*
X11811170Y-17395550D01*
X11811170Y-17395550D02*
X11801647Y-17414597D01*
X11801647Y-17414597D02*
X11792123Y-17424121D01*
X11792123Y-17424121D02*
X11773075Y-17433645D01*
X11773075Y-17433645D02*
X11754028Y-17433645D01*
X11754028Y-17433645D02*
X11734980Y-17424121D01*
X11734980Y-17424121D02*
X11725456Y-17414597D01*
X11725456Y-17414597D02*
X11715932Y-17395550D01*
X11715932Y-17395550D02*
X11706409Y-17357455D01*
X11706409Y-17357455D02*
X11706409Y-17309836D01*
X11706409Y-17309836D02*
X11715932Y-17271740D01*
X11715932Y-17271740D02*
X11725456Y-17252693D01*
X11725456Y-17252693D02*
X11734980Y-17243169D01*
X11734980Y-17243169D02*
X11754028Y-17233645D01*
X12001647Y-17233645D02*
X11906409Y-17233645D01*
X11906409Y-17233645D02*
X11896885Y-17328883D01*
X11896885Y-17328883D02*
X11906409Y-17319359D01*
X11906409Y-17319359D02*
X11925456Y-17309836D01*
X11925456Y-17309836D02*
X11973075Y-17309836D01*
X11973075Y-17309836D02*
X11992123Y-17319359D01*
X11992123Y-17319359D02*
X12001647Y-17328883D01*
X12001647Y-17328883D02*
X12011170Y-17347931D01*
X12011170Y-17347931D02*
X12011170Y-17395550D01*
X12011170Y-17395550D02*
X12001647Y-17414597D01*
X12001647Y-17414597D02*
X11992123Y-17424121D01*
X11992123Y-17424121D02*
X11973075Y-17433645D01*
X11973075Y-17433645D02*
X11925456Y-17433645D01*
X11925456Y-17433645D02*
X11906409Y-17424121D01*
X11906409Y-17424121D02*
X11896885Y-17414597D01*
X12106409Y-17433645D02*
X12144504Y-17433645D01*
X12144504Y-17433645D02*
X12163551Y-17424121D01*
X12163551Y-17424121D02*
X12173075Y-17414597D01*
X12173075Y-17414597D02*
X12192123Y-17386026D01*
X12192123Y-17386026D02*
X12201647Y-17347931D01*
X12201647Y-17347931D02*
X12201647Y-17271740D01*
X12201647Y-17271740D02*
X12192123Y-17252693D01*
X12192123Y-17252693D02*
X12182599Y-17243169D01*
X12182599Y-17243169D02*
X12163551Y-17233645D01*
X12163551Y-17233645D02*
X12125456Y-17233645D01*
X12125456Y-17233645D02*
X12106409Y-17243169D01*
X12106409Y-17243169D02*
X12096885Y-17252693D01*
X12096885Y-17252693D02*
X12087361Y-17271740D01*
X12087361Y-17271740D02*
X12087361Y-17319359D01*
X12087361Y-17319359D02*
X12096885Y-17338407D01*
X12096885Y-17338407D02*
X12106409Y-17347931D01*
X12106409Y-17347931D02*
X12125456Y-17357455D01*
X12125456Y-17357455D02*
X12163551Y-17357455D01*
X12163551Y-17357455D02*
X12182599Y-17347931D01*
X12182599Y-17347931D02*
X12192123Y-17338407D01*
X12192123Y-17338407D02*
X12201647Y-17319359D01*
X12392123Y-17433645D02*
X12277837Y-17433645D01*
X12334980Y-17433645D02*
X12334980Y-17233645D01*
X12334980Y-17233645D02*
X12315932Y-17262217D01*
X12315932Y-17262217D02*
X12296885Y-17281264D01*
X12296885Y-17281264D02*
X12277837Y-17290788D01*
X12468313Y-17233645D02*
X12468313Y-17271740D01*
X12544504Y-17233645D02*
X12544504Y-17271740D01*
X12839742Y-17509836D02*
X12830218Y-17500312D01*
X12830218Y-17500312D02*
X12811171Y-17471740D01*
X12811171Y-17471740D02*
X12801647Y-17452693D01*
X12801647Y-17452693D02*
X12792123Y-17424121D01*
X12792123Y-17424121D02*
X12782599Y-17376502D01*
X12782599Y-17376502D02*
X12782599Y-17338407D01*
X12782599Y-17338407D02*
X12792123Y-17290788D01*
X12792123Y-17290788D02*
X12801647Y-17262217D01*
X12801647Y-17262217D02*
X12811171Y-17243169D01*
X12811171Y-17243169D02*
X12830218Y-17214597D01*
X12830218Y-17214597D02*
X12839742Y-17205074D01*
X12906409Y-17252693D02*
X12915932Y-17243169D01*
X12915932Y-17243169D02*
X12934980Y-17233645D01*
X12934980Y-17233645D02*
X12982599Y-17233645D01*
X12982599Y-17233645D02*
X13001647Y-17243169D01*
X13001647Y-17243169D02*
X13011171Y-17252693D01*
X13011171Y-17252693D02*
X13020694Y-17271740D01*
X13020694Y-17271740D02*
X13020694Y-17290788D01*
X13020694Y-17290788D02*
X13011171Y-17319359D01*
X13011171Y-17319359D02*
X12896885Y-17433645D01*
X12896885Y-17433645D02*
X13020694Y-17433645D01*
X13258790Y-17433645D02*
X13258790Y-17233645D01*
X13344504Y-17433645D02*
X13344504Y-17328883D01*
X13344504Y-17328883D02*
X13334980Y-17309836D01*
X13334980Y-17309836D02*
X13315933Y-17300312D01*
X13315933Y-17300312D02*
X13287361Y-17300312D01*
X13287361Y-17300312D02*
X13268313Y-17309836D01*
X13268313Y-17309836D02*
X13258790Y-17319359D01*
X13468313Y-17433645D02*
X13449266Y-17424121D01*
X13449266Y-17424121D02*
X13439742Y-17414597D01*
X13439742Y-17414597D02*
X13430218Y-17395550D01*
X13430218Y-17395550D02*
X13430218Y-17338407D01*
X13430218Y-17338407D02*
X13439742Y-17319359D01*
X13439742Y-17319359D02*
X13449266Y-17309836D01*
X13449266Y-17309836D02*
X13468313Y-17300312D01*
X13468313Y-17300312D02*
X13496885Y-17300312D01*
X13496885Y-17300312D02*
X13515933Y-17309836D01*
X13515933Y-17309836D02*
X13525456Y-17319359D01*
X13525456Y-17319359D02*
X13534980Y-17338407D01*
X13534980Y-17338407D02*
X13534980Y-17395550D01*
X13534980Y-17395550D02*
X13525456Y-17414597D01*
X13525456Y-17414597D02*
X13515933Y-17424121D01*
X13515933Y-17424121D02*
X13496885Y-17433645D01*
X13496885Y-17433645D02*
X13468313Y-17433645D01*
X13649266Y-17433645D02*
X13630218Y-17424121D01*
X13630218Y-17424121D02*
X13620694Y-17405074D01*
X13620694Y-17405074D02*
X13620694Y-17233645D01*
X13801647Y-17424121D02*
X13782599Y-17433645D01*
X13782599Y-17433645D02*
X13744504Y-17433645D01*
X13744504Y-17433645D02*
X13725456Y-17424121D01*
X13725456Y-17424121D02*
X13715933Y-17405074D01*
X13715933Y-17405074D02*
X13715933Y-17328883D01*
X13715933Y-17328883D02*
X13725456Y-17309836D01*
X13725456Y-17309836D02*
X13744504Y-17300312D01*
X13744504Y-17300312D02*
X13782599Y-17300312D01*
X13782599Y-17300312D02*
X13801647Y-17309836D01*
X13801647Y-17309836D02*
X13811171Y-17328883D01*
X13811171Y-17328883D02*
X13811171Y-17347931D01*
X13811171Y-17347931D02*
X13715933Y-17366978D01*
X13887361Y-17424121D02*
X13906409Y-17433645D01*
X13906409Y-17433645D02*
X13944504Y-17433645D01*
X13944504Y-17433645D02*
X13963552Y-17424121D01*
X13963552Y-17424121D02*
X13973075Y-17405074D01*
X13973075Y-17405074D02*
X13973075Y-17395550D01*
X13973075Y-17395550D02*
X13963552Y-17376502D01*
X13963552Y-17376502D02*
X13944504Y-17366978D01*
X13944504Y-17366978D02*
X13915933Y-17366978D01*
X13915933Y-17366978D02*
X13896885Y-17357455D01*
X13896885Y-17357455D02*
X13887361Y-17338407D01*
X13887361Y-17338407D02*
X13887361Y-17328883D01*
X13887361Y-17328883D02*
X13896885Y-17309836D01*
X13896885Y-17309836D02*
X13915933Y-17300312D01*
X13915933Y-17300312D02*
X13944504Y-17300312D01*
X13944504Y-17300312D02*
X13963552Y-17309836D01*
X14039742Y-17509836D02*
X14049266Y-17500312D01*
X14049266Y-17500312D02*
X14068314Y-17471740D01*
X14068314Y-17471740D02*
X14077837Y-17452693D01*
X14077837Y-17452693D02*
X14087361Y-17424121D01*
X14087361Y-17424121D02*
X14096885Y-17376502D01*
X14096885Y-17376502D02*
X14096885Y-17338407D01*
X14096885Y-17338407D02*
X14087361Y-17290788D01*
X14087361Y-17290788D02*
X14077837Y-17262217D01*
X14077837Y-17262217D02*
X14068314Y-17243169D01*
X14068314Y-17243169D02*
X14049266Y-17214597D01*
X14049266Y-17214597D02*
X14039742Y-17205074D01*
D15*
X9104679Y-17532161D02*
X9264679Y-17692161D01*
X9264679Y-17532161D02*
X9104679Y-17692161D01*
X9184679Y-17532161D02*
X9184679Y-17692161D01*
X9104679Y-17612161D02*
X9264679Y-17612161D01*
D11*
X9630218Y-17703645D02*
X9515932Y-17703645D01*
X9573075Y-17703645D02*
X9573075Y-17503645D01*
X9573075Y-17503645D02*
X9554027Y-17532217D01*
X9554027Y-17532217D02*
X9534980Y-17551264D01*
X9534980Y-17551264D02*
X9515932Y-17560788D01*
X9715932Y-17684597D02*
X9725456Y-17694121D01*
X9725456Y-17694121D02*
X9715932Y-17703645D01*
X9715932Y-17703645D02*
X9706408Y-17694121D01*
X9706408Y-17694121D02*
X9715932Y-17684597D01*
X9715932Y-17684597D02*
X9715932Y-17703645D01*
X9896885Y-17503645D02*
X9858789Y-17503645D01*
X9858789Y-17503645D02*
X9839742Y-17513169D01*
X9839742Y-17513169D02*
X9830218Y-17522693D01*
X9830218Y-17522693D02*
X9811170Y-17551264D01*
X9811170Y-17551264D02*
X9801647Y-17589359D01*
X9801647Y-17589359D02*
X9801647Y-17665550D01*
X9801647Y-17665550D02*
X9811170Y-17684597D01*
X9811170Y-17684597D02*
X9820694Y-17694121D01*
X9820694Y-17694121D02*
X9839742Y-17703645D01*
X9839742Y-17703645D02*
X9877837Y-17703645D01*
X9877837Y-17703645D02*
X9896885Y-17694121D01*
X9896885Y-17694121D02*
X9906408Y-17684597D01*
X9906408Y-17684597D02*
X9915932Y-17665550D01*
X9915932Y-17665550D02*
X9915932Y-17617931D01*
X9915932Y-17617931D02*
X9906408Y-17598883D01*
X9906408Y-17598883D02*
X9896885Y-17589359D01*
X9896885Y-17589359D02*
X9877837Y-17579836D01*
X9877837Y-17579836D02*
X9839742Y-17579836D01*
X9839742Y-17579836D02*
X9820694Y-17589359D01*
X9820694Y-17589359D02*
X9811170Y-17598883D01*
X9811170Y-17598883D02*
X9801647Y-17617931D01*
X10039742Y-17503645D02*
X10058789Y-17503645D01*
X10058789Y-17503645D02*
X10077837Y-17513169D01*
X10077837Y-17513169D02*
X10087361Y-17522693D01*
X10087361Y-17522693D02*
X10096885Y-17541740D01*
X10096885Y-17541740D02*
X10106408Y-17579836D01*
X10106408Y-17579836D02*
X10106408Y-17627455D01*
X10106408Y-17627455D02*
X10096885Y-17665550D01*
X10096885Y-17665550D02*
X10087361Y-17684597D01*
X10087361Y-17684597D02*
X10077837Y-17694121D01*
X10077837Y-17694121D02*
X10058789Y-17703645D01*
X10058789Y-17703645D02*
X10039742Y-17703645D01*
X10039742Y-17703645D02*
X10020694Y-17694121D01*
X10020694Y-17694121D02*
X10011170Y-17684597D01*
X10011170Y-17684597D02*
X10001647Y-17665550D01*
X10001647Y-17665550D02*
X9992123Y-17627455D01*
X9992123Y-17627455D02*
X9992123Y-17579836D01*
X9992123Y-17579836D02*
X10001647Y-17541740D01*
X10001647Y-17541740D02*
X10011170Y-17522693D01*
X10011170Y-17522693D02*
X10020694Y-17513169D01*
X10020694Y-17513169D02*
X10039742Y-17503645D01*
X10230218Y-17503645D02*
X10249266Y-17503645D01*
X10249266Y-17503645D02*
X10268313Y-17513169D01*
X10268313Y-17513169D02*
X10277837Y-17522693D01*
X10277837Y-17522693D02*
X10287361Y-17541740D01*
X10287361Y-17541740D02*
X10296885Y-17579836D01*
X10296885Y-17579836D02*
X10296885Y-17627455D01*
X10296885Y-17627455D02*
X10287361Y-17665550D01*
X10287361Y-17665550D02*
X10277837Y-17684597D01*
X10277837Y-17684597D02*
X10268313Y-17694121D01*
X10268313Y-17694121D02*
X10249266Y-17703645D01*
X10249266Y-17703645D02*
X10230218Y-17703645D01*
X10230218Y-17703645D02*
X10211170Y-17694121D01*
X10211170Y-17694121D02*
X10201647Y-17684597D01*
X10201647Y-17684597D02*
X10192123Y-17665550D01*
X10192123Y-17665550D02*
X10182599Y-17627455D01*
X10182599Y-17627455D02*
X10182599Y-17579836D01*
X10182599Y-17579836D02*
X10192123Y-17541740D01*
X10192123Y-17541740D02*
X10201647Y-17522693D01*
X10201647Y-17522693D02*
X10211170Y-17513169D01*
X10211170Y-17513169D02*
X10230218Y-17503645D01*
X10382599Y-17703645D02*
X10382599Y-17570312D01*
X10382599Y-17589359D02*
X10392123Y-17579836D01*
X10392123Y-17579836D02*
X10411170Y-17570312D01*
X10411170Y-17570312D02*
X10439742Y-17570312D01*
X10439742Y-17570312D02*
X10458789Y-17579836D01*
X10458789Y-17579836D02*
X10468313Y-17598883D01*
X10468313Y-17598883D02*
X10468313Y-17703645D01*
X10468313Y-17598883D02*
X10477837Y-17579836D01*
X10477837Y-17579836D02*
X10496885Y-17570312D01*
X10496885Y-17570312D02*
X10525456Y-17570312D01*
X10525456Y-17570312D02*
X10544504Y-17579836D01*
X10544504Y-17579836D02*
X10554028Y-17598883D01*
X10554028Y-17598883D02*
X10554028Y-17703645D01*
X10649266Y-17703645D02*
X10649266Y-17570312D01*
X10649266Y-17589359D02*
X10658789Y-17579836D01*
X10658789Y-17579836D02*
X10677837Y-17570312D01*
X10677837Y-17570312D02*
X10706409Y-17570312D01*
X10706409Y-17570312D02*
X10725456Y-17579836D01*
X10725456Y-17579836D02*
X10734980Y-17598883D01*
X10734980Y-17598883D02*
X10734980Y-17703645D01*
X10734980Y-17598883D02*
X10744504Y-17579836D01*
X10744504Y-17579836D02*
X10763551Y-17570312D01*
X10763551Y-17570312D02*
X10792123Y-17570312D01*
X10792123Y-17570312D02*
X10811170Y-17579836D01*
X10811170Y-17579836D02*
X10820694Y-17598883D01*
X10820694Y-17598883D02*
X10820694Y-17703645D01*
X11211170Y-17494121D02*
X11039742Y-17751264D01*
X11468313Y-17503645D02*
X11487361Y-17503645D01*
X11487361Y-17503645D02*
X11506409Y-17513169D01*
X11506409Y-17513169D02*
X11515932Y-17522693D01*
X11515932Y-17522693D02*
X11525456Y-17541740D01*
X11525456Y-17541740D02*
X11534980Y-17579836D01*
X11534980Y-17579836D02*
X11534980Y-17627455D01*
X11534980Y-17627455D02*
X11525456Y-17665550D01*
X11525456Y-17665550D02*
X11515932Y-17684597D01*
X11515932Y-17684597D02*
X11506409Y-17694121D01*
X11506409Y-17694121D02*
X11487361Y-17703645D01*
X11487361Y-17703645D02*
X11468313Y-17703645D01*
X11468313Y-17703645D02*
X11449266Y-17694121D01*
X11449266Y-17694121D02*
X11439742Y-17684597D01*
X11439742Y-17684597D02*
X11430218Y-17665550D01*
X11430218Y-17665550D02*
X11420694Y-17627455D01*
X11420694Y-17627455D02*
X11420694Y-17579836D01*
X11420694Y-17579836D02*
X11430218Y-17541740D01*
X11430218Y-17541740D02*
X11439742Y-17522693D01*
X11439742Y-17522693D02*
X11449266Y-17513169D01*
X11449266Y-17513169D02*
X11468313Y-17503645D01*
X11620694Y-17684597D02*
X11630218Y-17694121D01*
X11630218Y-17694121D02*
X11620694Y-17703645D01*
X11620694Y-17703645D02*
X11611170Y-17694121D01*
X11611170Y-17694121D02*
X11620694Y-17684597D01*
X11620694Y-17684597D02*
X11620694Y-17703645D01*
X11754028Y-17503645D02*
X11773075Y-17503645D01*
X11773075Y-17503645D02*
X11792123Y-17513169D01*
X11792123Y-17513169D02*
X11801647Y-17522693D01*
X11801647Y-17522693D02*
X11811170Y-17541740D01*
X11811170Y-17541740D02*
X11820694Y-17579836D01*
X11820694Y-17579836D02*
X11820694Y-17627455D01*
X11820694Y-17627455D02*
X11811170Y-17665550D01*
X11811170Y-17665550D02*
X11801647Y-17684597D01*
X11801647Y-17684597D02*
X11792123Y-17694121D01*
X11792123Y-17694121D02*
X11773075Y-17703645D01*
X11773075Y-17703645D02*
X11754028Y-17703645D01*
X11754028Y-17703645D02*
X11734980Y-17694121D01*
X11734980Y-17694121D02*
X11725456Y-17684597D01*
X11725456Y-17684597D02*
X11715932Y-17665550D01*
X11715932Y-17665550D02*
X11706409Y-17627455D01*
X11706409Y-17627455D02*
X11706409Y-17579836D01*
X11706409Y-17579836D02*
X11715932Y-17541740D01*
X11715932Y-17541740D02*
X11725456Y-17522693D01*
X11725456Y-17522693D02*
X11734980Y-17513169D01*
X11734980Y-17513169D02*
X11754028Y-17503645D01*
X11992123Y-17503645D02*
X11954028Y-17503645D01*
X11954028Y-17503645D02*
X11934980Y-17513169D01*
X11934980Y-17513169D02*
X11925456Y-17522693D01*
X11925456Y-17522693D02*
X11906409Y-17551264D01*
X11906409Y-17551264D02*
X11896885Y-17589359D01*
X11896885Y-17589359D02*
X11896885Y-17665550D01*
X11896885Y-17665550D02*
X11906409Y-17684597D01*
X11906409Y-17684597D02*
X11915932Y-17694121D01*
X11915932Y-17694121D02*
X11934980Y-17703645D01*
X11934980Y-17703645D02*
X11973075Y-17703645D01*
X11973075Y-17703645D02*
X11992123Y-17694121D01*
X11992123Y-17694121D02*
X12001647Y-17684597D01*
X12001647Y-17684597D02*
X12011170Y-17665550D01*
X12011170Y-17665550D02*
X12011170Y-17617931D01*
X12011170Y-17617931D02*
X12001647Y-17598883D01*
X12001647Y-17598883D02*
X11992123Y-17589359D01*
X11992123Y-17589359D02*
X11973075Y-17579836D01*
X11973075Y-17579836D02*
X11934980Y-17579836D01*
X11934980Y-17579836D02*
X11915932Y-17589359D01*
X11915932Y-17589359D02*
X11906409Y-17598883D01*
X11906409Y-17598883D02*
X11896885Y-17617931D01*
X12077837Y-17503645D02*
X12201647Y-17503645D01*
X12201647Y-17503645D02*
X12134980Y-17579836D01*
X12134980Y-17579836D02*
X12163551Y-17579836D01*
X12163551Y-17579836D02*
X12182599Y-17589359D01*
X12182599Y-17589359D02*
X12192123Y-17598883D01*
X12192123Y-17598883D02*
X12201647Y-17617931D01*
X12201647Y-17617931D02*
X12201647Y-17665550D01*
X12201647Y-17665550D02*
X12192123Y-17684597D01*
X12192123Y-17684597D02*
X12182599Y-17694121D01*
X12182599Y-17694121D02*
X12163551Y-17703645D01*
X12163551Y-17703645D02*
X12106409Y-17703645D01*
X12106409Y-17703645D02*
X12087361Y-17694121D01*
X12087361Y-17694121D02*
X12077837Y-17684597D01*
X12325456Y-17503645D02*
X12344504Y-17503645D01*
X12344504Y-17503645D02*
X12363551Y-17513169D01*
X12363551Y-17513169D02*
X12373075Y-17522693D01*
X12373075Y-17522693D02*
X12382599Y-17541740D01*
X12382599Y-17541740D02*
X12392123Y-17579836D01*
X12392123Y-17579836D02*
X12392123Y-17627455D01*
X12392123Y-17627455D02*
X12382599Y-17665550D01*
X12382599Y-17665550D02*
X12373075Y-17684597D01*
X12373075Y-17684597D02*
X12363551Y-17694121D01*
X12363551Y-17694121D02*
X12344504Y-17703645D01*
X12344504Y-17703645D02*
X12325456Y-17703645D01*
X12325456Y-17703645D02*
X12306409Y-17694121D01*
X12306409Y-17694121D02*
X12296885Y-17684597D01*
X12296885Y-17684597D02*
X12287361Y-17665550D01*
X12287361Y-17665550D02*
X12277837Y-17627455D01*
X12277837Y-17627455D02*
X12277837Y-17579836D01*
X12277837Y-17579836D02*
X12287361Y-17541740D01*
X12287361Y-17541740D02*
X12296885Y-17522693D01*
X12296885Y-17522693D02*
X12306409Y-17513169D01*
X12306409Y-17513169D02*
X12325456Y-17503645D01*
X12468313Y-17503645D02*
X12468313Y-17541740D01*
X12544504Y-17503645D02*
X12544504Y-17541740D01*
X12839742Y-17779836D02*
X12830218Y-17770312D01*
X12830218Y-17770312D02*
X12811171Y-17741740D01*
X12811171Y-17741740D02*
X12801647Y-17722693D01*
X12801647Y-17722693D02*
X12792123Y-17694121D01*
X12792123Y-17694121D02*
X12782599Y-17646502D01*
X12782599Y-17646502D02*
X12782599Y-17608407D01*
X12782599Y-17608407D02*
X12792123Y-17560788D01*
X12792123Y-17560788D02*
X12801647Y-17532217D01*
X12801647Y-17532217D02*
X12811171Y-17513169D01*
X12811171Y-17513169D02*
X12830218Y-17484597D01*
X12830218Y-17484597D02*
X12839742Y-17475074D01*
X13020694Y-17703645D02*
X12906409Y-17703645D01*
X12963551Y-17703645D02*
X12963551Y-17503645D01*
X12963551Y-17503645D02*
X12944504Y-17532217D01*
X12944504Y-17532217D02*
X12925456Y-17551264D01*
X12925456Y-17551264D02*
X12906409Y-17560788D01*
X13144504Y-17503645D02*
X13163552Y-17503645D01*
X13163552Y-17503645D02*
X13182599Y-17513169D01*
X13182599Y-17513169D02*
X13192123Y-17522693D01*
X13192123Y-17522693D02*
X13201647Y-17541740D01*
X13201647Y-17541740D02*
X13211171Y-17579836D01*
X13211171Y-17579836D02*
X13211171Y-17627455D01*
X13211171Y-17627455D02*
X13201647Y-17665550D01*
X13201647Y-17665550D02*
X13192123Y-17684597D01*
X13192123Y-17684597D02*
X13182599Y-17694121D01*
X13182599Y-17694121D02*
X13163552Y-17703645D01*
X13163552Y-17703645D02*
X13144504Y-17703645D01*
X13144504Y-17703645D02*
X13125456Y-17694121D01*
X13125456Y-17694121D02*
X13115932Y-17684597D01*
X13115932Y-17684597D02*
X13106409Y-17665550D01*
X13106409Y-17665550D02*
X13096885Y-17627455D01*
X13096885Y-17627455D02*
X13096885Y-17579836D01*
X13096885Y-17579836D02*
X13106409Y-17541740D01*
X13106409Y-17541740D02*
X13115932Y-17522693D01*
X13115932Y-17522693D02*
X13125456Y-17513169D01*
X13125456Y-17513169D02*
X13144504Y-17503645D01*
X13449266Y-17703645D02*
X13449266Y-17503645D01*
X13534980Y-17703645D02*
X13534980Y-17598883D01*
X13534980Y-17598883D02*
X13525456Y-17579836D01*
X13525456Y-17579836D02*
X13506409Y-17570312D01*
X13506409Y-17570312D02*
X13477837Y-17570312D01*
X13477837Y-17570312D02*
X13458790Y-17579836D01*
X13458790Y-17579836D02*
X13449266Y-17589359D01*
X13658790Y-17703645D02*
X13639742Y-17694121D01*
X13639742Y-17694121D02*
X13630218Y-17684597D01*
X13630218Y-17684597D02*
X13620694Y-17665550D01*
X13620694Y-17665550D02*
X13620694Y-17608407D01*
X13620694Y-17608407D02*
X13630218Y-17589359D01*
X13630218Y-17589359D02*
X13639742Y-17579836D01*
X13639742Y-17579836D02*
X13658790Y-17570312D01*
X13658790Y-17570312D02*
X13687361Y-17570312D01*
X13687361Y-17570312D02*
X13706409Y-17579836D01*
X13706409Y-17579836D02*
X13715933Y-17589359D01*
X13715933Y-17589359D02*
X13725456Y-17608407D01*
X13725456Y-17608407D02*
X13725456Y-17665550D01*
X13725456Y-17665550D02*
X13715933Y-17684597D01*
X13715933Y-17684597D02*
X13706409Y-17694121D01*
X13706409Y-17694121D02*
X13687361Y-17703645D01*
X13687361Y-17703645D02*
X13658790Y-17703645D01*
X13839742Y-17703645D02*
X13820694Y-17694121D01*
X13820694Y-17694121D02*
X13811171Y-17675074D01*
X13811171Y-17675074D02*
X13811171Y-17503645D01*
X13992123Y-17694121D02*
X13973075Y-17703645D01*
X13973075Y-17703645D02*
X13934980Y-17703645D01*
X13934980Y-17703645D02*
X13915933Y-17694121D01*
X13915933Y-17694121D02*
X13906409Y-17675074D01*
X13906409Y-17675074D02*
X13906409Y-17598883D01*
X13906409Y-17598883D02*
X13915933Y-17579836D01*
X13915933Y-17579836D02*
X13934980Y-17570312D01*
X13934980Y-17570312D02*
X13973075Y-17570312D01*
X13973075Y-17570312D02*
X13992123Y-17579836D01*
X13992123Y-17579836D02*
X14001647Y-17598883D01*
X14001647Y-17598883D02*
X14001647Y-17617931D01*
X14001647Y-17617931D02*
X13906409Y-17636978D01*
X14077837Y-17694121D02*
X14096885Y-17703645D01*
X14096885Y-17703645D02*
X14134980Y-17703645D01*
X14134980Y-17703645D02*
X14154028Y-17694121D01*
X14154028Y-17694121D02*
X14163552Y-17675074D01*
X14163552Y-17675074D02*
X14163552Y-17665550D01*
X14163552Y-17665550D02*
X14154028Y-17646502D01*
X14154028Y-17646502D02*
X14134980Y-17636978D01*
X14134980Y-17636978D02*
X14106409Y-17636978D01*
X14106409Y-17636978D02*
X14087361Y-17627455D01*
X14087361Y-17627455D02*
X14077837Y-17608407D01*
X14077837Y-17608407D02*
X14077837Y-17598883D01*
X14077837Y-17598883D02*
X14087361Y-17579836D01*
X14087361Y-17579836D02*
X14106409Y-17570312D01*
X14106409Y-17570312D02*
X14134980Y-17570312D01*
X14134980Y-17570312D02*
X14154028Y-17579836D01*
X14230218Y-17779836D02*
X14239742Y-17770312D01*
X14239742Y-17770312D02*
X14258790Y-17741740D01*
X14258790Y-17741740D02*
X14268314Y-17722693D01*
X14268314Y-17722693D02*
X14277837Y-17694121D01*
X14277837Y-17694121D02*
X14287361Y-17646502D01*
X14287361Y-17646502D02*
X14287361Y-17608407D01*
X14287361Y-17608407D02*
X14277837Y-17560788D01*
X14277837Y-17560788D02*
X14268314Y-17532217D01*
X14268314Y-17532217D02*
X14258790Y-17513169D01*
X14258790Y-17513169D02*
X14239742Y-17484597D01*
X14239742Y-17484597D02*
X14230218Y-17475074D01*
D16*
X9079259Y-17799451D02*
X9264679Y-17984871D01*
X9264679Y-17799451D02*
X9079259Y-17984871D01*
X9237526Y-17957718D02*
X9237526Y-17826605D01*
X9106413Y-17826605D01*
X9106413Y-17957718D01*
X9237526Y-17957718D01*
D11*
X9630218Y-17983645D02*
X9515932Y-17983645D01*
X9573075Y-17983645D02*
X9573075Y-17783645D01*
X9573075Y-17783645D02*
X9554027Y-17812217D01*
X9554027Y-17812217D02*
X9534980Y-17831264D01*
X9534980Y-17831264D02*
X9515932Y-17840788D01*
X9715932Y-17964597D02*
X9725456Y-17974121D01*
X9725456Y-17974121D02*
X9715932Y-17983645D01*
X9715932Y-17983645D02*
X9706408Y-17974121D01*
X9706408Y-17974121D02*
X9715932Y-17964597D01*
X9715932Y-17964597D02*
X9715932Y-17983645D01*
X9839742Y-17869359D02*
X9820694Y-17859836D01*
X9820694Y-17859836D02*
X9811170Y-17850312D01*
X9811170Y-17850312D02*
X9801647Y-17831264D01*
X9801647Y-17831264D02*
X9801647Y-17821740D01*
X9801647Y-17821740D02*
X9811170Y-17802693D01*
X9811170Y-17802693D02*
X9820694Y-17793169D01*
X9820694Y-17793169D02*
X9839742Y-17783645D01*
X9839742Y-17783645D02*
X9877837Y-17783645D01*
X9877837Y-17783645D02*
X9896885Y-17793169D01*
X9896885Y-17793169D02*
X9906408Y-17802693D01*
X9906408Y-17802693D02*
X9915932Y-17821740D01*
X9915932Y-17821740D02*
X9915932Y-17831264D01*
X9915932Y-17831264D02*
X9906408Y-17850312D01*
X9906408Y-17850312D02*
X9896885Y-17859836D01*
X9896885Y-17859836D02*
X9877837Y-17869359D01*
X9877837Y-17869359D02*
X9839742Y-17869359D01*
X9839742Y-17869359D02*
X9820694Y-17878883D01*
X9820694Y-17878883D02*
X9811170Y-17888407D01*
X9811170Y-17888407D02*
X9801647Y-17907455D01*
X9801647Y-17907455D02*
X9801647Y-17945550D01*
X9801647Y-17945550D02*
X9811170Y-17964597D01*
X9811170Y-17964597D02*
X9820694Y-17974121D01*
X9820694Y-17974121D02*
X9839742Y-17983645D01*
X9839742Y-17983645D02*
X9877837Y-17983645D01*
X9877837Y-17983645D02*
X9896885Y-17974121D01*
X9896885Y-17974121D02*
X9906408Y-17964597D01*
X9906408Y-17964597D02*
X9915932Y-17945550D01*
X9915932Y-17945550D02*
X9915932Y-17907455D01*
X9915932Y-17907455D02*
X9906408Y-17888407D01*
X9906408Y-17888407D02*
X9896885Y-17878883D01*
X9896885Y-17878883D02*
X9877837Y-17869359D01*
X10096885Y-17783645D02*
X10001647Y-17783645D01*
X10001647Y-17783645D02*
X9992123Y-17878883D01*
X9992123Y-17878883D02*
X10001647Y-17869359D01*
X10001647Y-17869359D02*
X10020694Y-17859836D01*
X10020694Y-17859836D02*
X10068313Y-17859836D01*
X10068313Y-17859836D02*
X10087361Y-17869359D01*
X10087361Y-17869359D02*
X10096885Y-17878883D01*
X10096885Y-17878883D02*
X10106408Y-17897931D01*
X10106408Y-17897931D02*
X10106408Y-17945550D01*
X10106408Y-17945550D02*
X10096885Y-17964597D01*
X10096885Y-17964597D02*
X10087361Y-17974121D01*
X10087361Y-17974121D02*
X10068313Y-17983645D01*
X10068313Y-17983645D02*
X10020694Y-17983645D01*
X10020694Y-17983645D02*
X10001647Y-17974121D01*
X10001647Y-17974121D02*
X9992123Y-17964597D01*
X10277837Y-17850312D02*
X10277837Y-17983645D01*
X10230218Y-17774121D02*
X10182599Y-17916978D01*
X10182599Y-17916978D02*
X10306408Y-17916978D01*
X10382599Y-17983645D02*
X10382599Y-17850312D01*
X10382599Y-17869359D02*
X10392123Y-17859836D01*
X10392123Y-17859836D02*
X10411170Y-17850312D01*
X10411170Y-17850312D02*
X10439742Y-17850312D01*
X10439742Y-17850312D02*
X10458789Y-17859836D01*
X10458789Y-17859836D02*
X10468313Y-17878883D01*
X10468313Y-17878883D02*
X10468313Y-17983645D01*
X10468313Y-17878883D02*
X10477837Y-17859836D01*
X10477837Y-17859836D02*
X10496885Y-17850312D01*
X10496885Y-17850312D02*
X10525456Y-17850312D01*
X10525456Y-17850312D02*
X10544504Y-17859836D01*
X10544504Y-17859836D02*
X10554028Y-17878883D01*
X10554028Y-17878883D02*
X10554028Y-17983645D01*
X10649266Y-17983645D02*
X10649266Y-17850312D01*
X10649266Y-17869359D02*
X10658789Y-17859836D01*
X10658789Y-17859836D02*
X10677837Y-17850312D01*
X10677837Y-17850312D02*
X10706409Y-17850312D01*
X10706409Y-17850312D02*
X10725456Y-17859836D01*
X10725456Y-17859836D02*
X10734980Y-17878883D01*
X10734980Y-17878883D02*
X10734980Y-17983645D01*
X10734980Y-17878883D02*
X10744504Y-17859836D01*
X10744504Y-17859836D02*
X10763551Y-17850312D01*
X10763551Y-17850312D02*
X10792123Y-17850312D01*
X10792123Y-17850312D02*
X10811170Y-17859836D01*
X10811170Y-17859836D02*
X10820694Y-17878883D01*
X10820694Y-17878883D02*
X10820694Y-17983645D01*
X11211170Y-17774121D02*
X11039742Y-18031264D01*
X11468313Y-17783645D02*
X11487361Y-17783645D01*
X11487361Y-17783645D02*
X11506409Y-17793169D01*
X11506409Y-17793169D02*
X11515932Y-17802693D01*
X11515932Y-17802693D02*
X11525456Y-17821740D01*
X11525456Y-17821740D02*
X11534980Y-17859836D01*
X11534980Y-17859836D02*
X11534980Y-17907455D01*
X11534980Y-17907455D02*
X11525456Y-17945550D01*
X11525456Y-17945550D02*
X11515932Y-17964597D01*
X11515932Y-17964597D02*
X11506409Y-17974121D01*
X11506409Y-17974121D02*
X11487361Y-17983645D01*
X11487361Y-17983645D02*
X11468313Y-17983645D01*
X11468313Y-17983645D02*
X11449266Y-17974121D01*
X11449266Y-17974121D02*
X11439742Y-17964597D01*
X11439742Y-17964597D02*
X11430218Y-17945550D01*
X11430218Y-17945550D02*
X11420694Y-17907455D01*
X11420694Y-17907455D02*
X11420694Y-17859836D01*
X11420694Y-17859836D02*
X11430218Y-17821740D01*
X11430218Y-17821740D02*
X11439742Y-17802693D01*
X11439742Y-17802693D02*
X11449266Y-17793169D01*
X11449266Y-17793169D02*
X11468313Y-17783645D01*
X11620694Y-17964597D02*
X11630218Y-17974121D01*
X11630218Y-17974121D02*
X11620694Y-17983645D01*
X11620694Y-17983645D02*
X11611170Y-17974121D01*
X11611170Y-17974121D02*
X11620694Y-17964597D01*
X11620694Y-17964597D02*
X11620694Y-17983645D01*
X11754028Y-17783645D02*
X11773075Y-17783645D01*
X11773075Y-17783645D02*
X11792123Y-17793169D01*
X11792123Y-17793169D02*
X11801647Y-17802693D01*
X11801647Y-17802693D02*
X11811170Y-17821740D01*
X11811170Y-17821740D02*
X11820694Y-17859836D01*
X11820694Y-17859836D02*
X11820694Y-17907455D01*
X11820694Y-17907455D02*
X11811170Y-17945550D01*
X11811170Y-17945550D02*
X11801647Y-17964597D01*
X11801647Y-17964597D02*
X11792123Y-17974121D01*
X11792123Y-17974121D02*
X11773075Y-17983645D01*
X11773075Y-17983645D02*
X11754028Y-17983645D01*
X11754028Y-17983645D02*
X11734980Y-17974121D01*
X11734980Y-17974121D02*
X11725456Y-17964597D01*
X11725456Y-17964597D02*
X11715932Y-17945550D01*
X11715932Y-17945550D02*
X11706409Y-17907455D01*
X11706409Y-17907455D02*
X11706409Y-17859836D01*
X11706409Y-17859836D02*
X11715932Y-17821740D01*
X11715932Y-17821740D02*
X11725456Y-17802693D01*
X11725456Y-17802693D02*
X11734980Y-17793169D01*
X11734980Y-17793169D02*
X11754028Y-17783645D01*
X11887361Y-17783645D02*
X12020694Y-17783645D01*
X12020694Y-17783645D02*
X11934980Y-17983645D01*
X12077837Y-17783645D02*
X12201647Y-17783645D01*
X12201647Y-17783645D02*
X12134980Y-17859836D01*
X12134980Y-17859836D02*
X12163551Y-17859836D01*
X12163551Y-17859836D02*
X12182599Y-17869359D01*
X12182599Y-17869359D02*
X12192123Y-17878883D01*
X12192123Y-17878883D02*
X12201647Y-17897931D01*
X12201647Y-17897931D02*
X12201647Y-17945550D01*
X12201647Y-17945550D02*
X12192123Y-17964597D01*
X12192123Y-17964597D02*
X12182599Y-17974121D01*
X12182599Y-17974121D02*
X12163551Y-17983645D01*
X12163551Y-17983645D02*
X12106409Y-17983645D01*
X12106409Y-17983645D02*
X12087361Y-17974121D01*
X12087361Y-17974121D02*
X12077837Y-17964597D01*
X12325456Y-17783645D02*
X12344504Y-17783645D01*
X12344504Y-17783645D02*
X12363551Y-17793169D01*
X12363551Y-17793169D02*
X12373075Y-17802693D01*
X12373075Y-17802693D02*
X12382599Y-17821740D01*
X12382599Y-17821740D02*
X12392123Y-17859836D01*
X12392123Y-17859836D02*
X12392123Y-17907455D01*
X12392123Y-17907455D02*
X12382599Y-17945550D01*
X12382599Y-17945550D02*
X12373075Y-17964597D01*
X12373075Y-17964597D02*
X12363551Y-17974121D01*
X12363551Y-17974121D02*
X12344504Y-17983645D01*
X12344504Y-17983645D02*
X12325456Y-17983645D01*
X12325456Y-17983645D02*
X12306409Y-17974121D01*
X12306409Y-17974121D02*
X12296885Y-17964597D01*
X12296885Y-17964597D02*
X12287361Y-17945550D01*
X12287361Y-17945550D02*
X12277837Y-17907455D01*
X12277837Y-17907455D02*
X12277837Y-17859836D01*
X12277837Y-17859836D02*
X12287361Y-17821740D01*
X12287361Y-17821740D02*
X12296885Y-17802693D01*
X12296885Y-17802693D02*
X12306409Y-17793169D01*
X12306409Y-17793169D02*
X12325456Y-17783645D01*
X12468313Y-17783645D02*
X12468313Y-17821740D01*
X12544504Y-17783645D02*
X12544504Y-17821740D01*
X12839742Y-18059836D02*
X12830218Y-18050312D01*
X12830218Y-18050312D02*
X12811171Y-18021740D01*
X12811171Y-18021740D02*
X12801647Y-18002693D01*
X12801647Y-18002693D02*
X12792123Y-17974121D01*
X12792123Y-17974121D02*
X12782599Y-17926502D01*
X12782599Y-17926502D02*
X12782599Y-17888407D01*
X12782599Y-17888407D02*
X12792123Y-17840788D01*
X12792123Y-17840788D02*
X12801647Y-17812217D01*
X12801647Y-17812217D02*
X12811171Y-17793169D01*
X12811171Y-17793169D02*
X12830218Y-17764597D01*
X12830218Y-17764597D02*
X12839742Y-17755074D01*
X13001647Y-17850312D02*
X13001647Y-17983645D01*
X12954028Y-17774121D02*
X12906409Y-17916978D01*
X12906409Y-17916978D02*
X13030218Y-17916978D01*
X13258790Y-17983645D02*
X13258790Y-17783645D01*
X13344504Y-17983645D02*
X13344504Y-17878883D01*
X13344504Y-17878883D02*
X13334980Y-17859836D01*
X13334980Y-17859836D02*
X13315933Y-17850312D01*
X13315933Y-17850312D02*
X13287361Y-17850312D01*
X13287361Y-17850312D02*
X13268313Y-17859836D01*
X13268313Y-17859836D02*
X13258790Y-17869359D01*
X13468313Y-17983645D02*
X13449266Y-17974121D01*
X13449266Y-17974121D02*
X13439742Y-17964597D01*
X13439742Y-17964597D02*
X13430218Y-17945550D01*
X13430218Y-17945550D02*
X13430218Y-17888407D01*
X13430218Y-17888407D02*
X13439742Y-17869359D01*
X13439742Y-17869359D02*
X13449266Y-17859836D01*
X13449266Y-17859836D02*
X13468313Y-17850312D01*
X13468313Y-17850312D02*
X13496885Y-17850312D01*
X13496885Y-17850312D02*
X13515933Y-17859836D01*
X13515933Y-17859836D02*
X13525456Y-17869359D01*
X13525456Y-17869359D02*
X13534980Y-17888407D01*
X13534980Y-17888407D02*
X13534980Y-17945550D01*
X13534980Y-17945550D02*
X13525456Y-17964597D01*
X13525456Y-17964597D02*
X13515933Y-17974121D01*
X13515933Y-17974121D02*
X13496885Y-17983645D01*
X13496885Y-17983645D02*
X13468313Y-17983645D01*
X13649266Y-17983645D02*
X13630218Y-17974121D01*
X13630218Y-17974121D02*
X13620694Y-17955074D01*
X13620694Y-17955074D02*
X13620694Y-17783645D01*
X13801647Y-17974121D02*
X13782599Y-17983645D01*
X13782599Y-17983645D02*
X13744504Y-17983645D01*
X13744504Y-17983645D02*
X13725456Y-17974121D01*
X13725456Y-17974121D02*
X13715933Y-17955074D01*
X13715933Y-17955074D02*
X13715933Y-17878883D01*
X13715933Y-17878883D02*
X13725456Y-17859836D01*
X13725456Y-17859836D02*
X13744504Y-17850312D01*
X13744504Y-17850312D02*
X13782599Y-17850312D01*
X13782599Y-17850312D02*
X13801647Y-17859836D01*
X13801647Y-17859836D02*
X13811171Y-17878883D01*
X13811171Y-17878883D02*
X13811171Y-17897931D01*
X13811171Y-17897931D02*
X13715933Y-17916978D01*
X13887361Y-17974121D02*
X13906409Y-17983645D01*
X13906409Y-17983645D02*
X13944504Y-17983645D01*
X13944504Y-17983645D02*
X13963552Y-17974121D01*
X13963552Y-17974121D02*
X13973075Y-17955074D01*
X13973075Y-17955074D02*
X13973075Y-17945550D01*
X13973075Y-17945550D02*
X13963552Y-17926502D01*
X13963552Y-17926502D02*
X13944504Y-17916978D01*
X13944504Y-17916978D02*
X13915933Y-17916978D01*
X13915933Y-17916978D02*
X13896885Y-17907455D01*
X13896885Y-17907455D02*
X13887361Y-17888407D01*
X13887361Y-17888407D02*
X13887361Y-17878883D01*
X13887361Y-17878883D02*
X13896885Y-17859836D01*
X13896885Y-17859836D02*
X13915933Y-17850312D01*
X13915933Y-17850312D02*
X13944504Y-17850312D01*
X13944504Y-17850312D02*
X13963552Y-17859836D01*
X14039742Y-18059836D02*
X14049266Y-18050312D01*
X14049266Y-18050312D02*
X14068314Y-18021740D01*
X14068314Y-18021740D02*
X14077837Y-18002693D01*
X14077837Y-18002693D02*
X14087361Y-17974121D01*
X14087361Y-17974121D02*
X14096885Y-17926502D01*
X14096885Y-17926502D02*
X14096885Y-17888407D01*
X14096885Y-17888407D02*
X14087361Y-17840788D01*
X14087361Y-17840788D02*
X14077837Y-17812217D01*
X14077837Y-17812217D02*
X14068314Y-17793169D01*
X14068314Y-17793169D02*
X14049266Y-17764597D01*
X14049266Y-17764597D02*
X14039742Y-17755074D01*
M02*
