%TF.GenerationSoftware,KiCad,Pcbnew,9.0.4*%
%TF.CreationDate,2025-10-23T22:28:31-07:00*%
%TF.ProjectId,Urban MC,55726261-6e20-44d4-932e-6b696361645f,rev?*%
%TF.SameCoordinates,Original*%
%TF.FileFunction,Drillmap*%
%TF.FilePolarity,Positive*%
%FSLAX45Y45*%
G04 Gerber Fmt 4.5, Leading zero omitted, Abs format (unit mm)*
G04 Created by KiCad (PCBNEW 9.0.4) date 2025-10-23 22:28:31*
%MOMM*%
%LPD*%
G01*
G04 APERTURE LIST*
%ADD10C,0.100000*%
%ADD11C,0.200000*%
%ADD12C,0.304800*%
%ADD13C,0.320000*%
%ADD14C,0.325000*%
G04 APERTURE END LIST*
D10*
X23876000Y-14945360D02*
X23875000Y-14585000D01*
X22140942Y-10861040D02*
X22145509Y-3287182D01*
X21714000Y-2855000D02*
G75*
G02*
X22146330Y-3287329I0J-432330D01*
G01*
X9269679Y-3288252D02*
X9271000Y-14935200D01*
X23876000Y-14945361D02*
G75*
G02*
X23444200Y-15377161I-431801J1D01*
G01*
X22140942Y-10861040D02*
X23876000Y-12423000D01*
X9702800Y-15367000D02*
G75*
G02*
X9271000Y-14935200I0J431800D01*
G01*
X21713179Y-2854853D02*
X9701479Y-2856452D01*
X23875000Y-14585000D02*
X23876000Y-12423000D01*
X9702800Y-15367000D02*
X23444200Y-15377160D01*
X9269679Y-3288252D02*
G75*
G02*
X9701479Y-2856449I431801J2D01*
G01*
D11*
D12*
X13324840Y-3410545D02*
X13629640Y-3715345D01*
X13629640Y-3410545D02*
X13324840Y-3715345D01*
D13*
X9862800Y-3289300D02*
G75*
G02*
X9542800Y-3289300I-160000J0D01*
G01*
X9542800Y-3289300D02*
G75*
G02*
X9862800Y-3289300I160000J0D01*
G01*
X9862800Y-14935200D02*
G75*
G02*
X9542800Y-14935200I-160000J0D01*
G01*
X9542800Y-14935200D02*
G75*
G02*
X9862800Y-14935200I160000J0D01*
G01*
X21888419Y-3279034D02*
G75*
G02*
X21568419Y-3279034I-160000J0D01*
G01*
X21568419Y-3279034D02*
G75*
G02*
X21888419Y-3279034I160000J0D01*
G01*
X23611708Y-14975344D02*
G75*
G02*
X23291708Y-14975344I-160000J0D01*
G01*
X23291708Y-14975344D02*
G75*
G02*
X23611708Y-14975344I160000J0D01*
G01*
D14*
X14580000Y-3926500D02*
X14580000Y-4251500D01*
X14417500Y-4089000D02*
X14742500Y-4089000D01*
X14580000Y-8752500D02*
X14580000Y-9077500D01*
X14417500Y-8915000D02*
X14742500Y-8915000D01*
X14581000Y-9822500D02*
X14581000Y-10147500D01*
X14418500Y-9985000D02*
X14743500Y-9985000D01*
X14581000Y-14648500D02*
X14581000Y-14973500D01*
X14418500Y-14811000D02*
X14743500Y-14811000D01*
X19660000Y-3926500D02*
X19660000Y-4251500D01*
X19497500Y-4089000D02*
X19822500Y-4089000D01*
X19660000Y-8752500D02*
X19660000Y-9077500D01*
X19497500Y-8915000D02*
X19822500Y-8915000D01*
X19661000Y-9822500D02*
X19661000Y-10147500D01*
X19498500Y-9985000D02*
X19823500Y-9985000D01*
X19661000Y-14648500D02*
X19661000Y-14973500D01*
X19498500Y-14811000D02*
X19823500Y-14811000D01*
D11*
X9525456Y-15693645D02*
X9525456Y-15493645D01*
X9525456Y-15493645D02*
X9573075Y-15493645D01*
X9573075Y-15493645D02*
X9601647Y-15503169D01*
X9601647Y-15503169D02*
X9620694Y-15522216D01*
X9620694Y-15522216D02*
X9630218Y-15541264D01*
X9630218Y-15541264D02*
X9639742Y-15579359D01*
X9639742Y-15579359D02*
X9639742Y-15607931D01*
X9639742Y-15607931D02*
X9630218Y-15646026D01*
X9630218Y-15646026D02*
X9620694Y-15665074D01*
X9620694Y-15665074D02*
X9601647Y-15684121D01*
X9601647Y-15684121D02*
X9573075Y-15693645D01*
X9573075Y-15693645D02*
X9525456Y-15693645D01*
X9725456Y-15693645D02*
X9725456Y-15560312D01*
X9725456Y-15598407D02*
X9734980Y-15579359D01*
X9734980Y-15579359D02*
X9744504Y-15569835D01*
X9744504Y-15569835D02*
X9763551Y-15560312D01*
X9763551Y-15560312D02*
X9782599Y-15560312D01*
X9849266Y-15693645D02*
X9849266Y-15560312D01*
X9849266Y-15493645D02*
X9839742Y-15503169D01*
X9839742Y-15503169D02*
X9849266Y-15512693D01*
X9849266Y-15512693D02*
X9858789Y-15503169D01*
X9858789Y-15503169D02*
X9849266Y-15493645D01*
X9849266Y-15493645D02*
X9849266Y-15512693D01*
X9973075Y-15693645D02*
X9954027Y-15684121D01*
X9954027Y-15684121D02*
X9944504Y-15665074D01*
X9944504Y-15665074D02*
X9944504Y-15493645D01*
X10077837Y-15693645D02*
X10058789Y-15684121D01*
X10058789Y-15684121D02*
X10049266Y-15665074D01*
X10049266Y-15665074D02*
X10049266Y-15493645D01*
X10306408Y-15693645D02*
X10306408Y-15493645D01*
X10306408Y-15493645D02*
X10373075Y-15636502D01*
X10373075Y-15636502D02*
X10439742Y-15493645D01*
X10439742Y-15493645D02*
X10439742Y-15693645D01*
X10620694Y-15693645D02*
X10620694Y-15588883D01*
X10620694Y-15588883D02*
X10611170Y-15569835D01*
X10611170Y-15569835D02*
X10592123Y-15560312D01*
X10592123Y-15560312D02*
X10554027Y-15560312D01*
X10554027Y-15560312D02*
X10534980Y-15569835D01*
X10620694Y-15684121D02*
X10601647Y-15693645D01*
X10601647Y-15693645D02*
X10554027Y-15693645D01*
X10554027Y-15693645D02*
X10534980Y-15684121D01*
X10534980Y-15684121D02*
X10525456Y-15665074D01*
X10525456Y-15665074D02*
X10525456Y-15646026D01*
X10525456Y-15646026D02*
X10534980Y-15626978D01*
X10534980Y-15626978D02*
X10554027Y-15617455D01*
X10554027Y-15617455D02*
X10601647Y-15617455D01*
X10601647Y-15617455D02*
X10620694Y-15607931D01*
X10715932Y-15560312D02*
X10715932Y-15760312D01*
X10715932Y-15569835D02*
X10734980Y-15560312D01*
X10734980Y-15560312D02*
X10773075Y-15560312D01*
X10773075Y-15560312D02*
X10792123Y-15569835D01*
X10792123Y-15569835D02*
X10801647Y-15579359D01*
X10801647Y-15579359D02*
X10811170Y-15598407D01*
X10811170Y-15598407D02*
X10811170Y-15655550D01*
X10811170Y-15655550D02*
X10801647Y-15674597D01*
X10801647Y-15674597D02*
X10792123Y-15684121D01*
X10792123Y-15684121D02*
X10773075Y-15693645D01*
X10773075Y-15693645D02*
X10734980Y-15693645D01*
X10734980Y-15693645D02*
X10715932Y-15684121D01*
X10896885Y-15674597D02*
X10906408Y-15684121D01*
X10906408Y-15684121D02*
X10896885Y-15693645D01*
X10896885Y-15693645D02*
X10887361Y-15684121D01*
X10887361Y-15684121D02*
X10896885Y-15674597D01*
X10896885Y-15674597D02*
X10896885Y-15693645D01*
X10896885Y-15569835D02*
X10906408Y-15579359D01*
X10906408Y-15579359D02*
X10896885Y-15588883D01*
X10896885Y-15588883D02*
X10887361Y-15579359D01*
X10887361Y-15579359D02*
X10896885Y-15569835D01*
X10896885Y-15569835D02*
X10896885Y-15588883D01*
X9064679Y-15922161D02*
X9264679Y-16122161D01*
X9264679Y-15922161D02*
X9064679Y-16122161D01*
X9506408Y-15913645D02*
X9630218Y-15913645D01*
X9630218Y-15913645D02*
X9563551Y-15989835D01*
X9563551Y-15989835D02*
X9592123Y-15989835D01*
X9592123Y-15989835D02*
X9611170Y-15999359D01*
X9611170Y-15999359D02*
X9620694Y-16008883D01*
X9620694Y-16008883D02*
X9630218Y-16027931D01*
X9630218Y-16027931D02*
X9630218Y-16075550D01*
X9630218Y-16075550D02*
X9620694Y-16094597D01*
X9620694Y-16094597D02*
X9611170Y-16104121D01*
X9611170Y-16104121D02*
X9592123Y-16113645D01*
X9592123Y-16113645D02*
X9534980Y-16113645D01*
X9534980Y-16113645D02*
X9515932Y-16104121D01*
X9515932Y-16104121D02*
X9506408Y-16094597D01*
X9715932Y-16094597D02*
X9725456Y-16104121D01*
X9725456Y-16104121D02*
X9715932Y-16113645D01*
X9715932Y-16113645D02*
X9706408Y-16104121D01*
X9706408Y-16104121D02*
X9715932Y-16094597D01*
X9715932Y-16094597D02*
X9715932Y-16113645D01*
X9849266Y-15913645D02*
X9868313Y-15913645D01*
X9868313Y-15913645D02*
X9887361Y-15923169D01*
X9887361Y-15923169D02*
X9896885Y-15932693D01*
X9896885Y-15932693D02*
X9906408Y-15951740D01*
X9906408Y-15951740D02*
X9915932Y-15989835D01*
X9915932Y-15989835D02*
X9915932Y-16037455D01*
X9915932Y-16037455D02*
X9906408Y-16075550D01*
X9906408Y-16075550D02*
X9896885Y-16094597D01*
X9896885Y-16094597D02*
X9887361Y-16104121D01*
X9887361Y-16104121D02*
X9868313Y-16113645D01*
X9868313Y-16113645D02*
X9849266Y-16113645D01*
X9849266Y-16113645D02*
X9830218Y-16104121D01*
X9830218Y-16104121D02*
X9820694Y-16094597D01*
X9820694Y-16094597D02*
X9811170Y-16075550D01*
X9811170Y-16075550D02*
X9801647Y-16037455D01*
X9801647Y-16037455D02*
X9801647Y-15989835D01*
X9801647Y-15989835D02*
X9811170Y-15951740D01*
X9811170Y-15951740D02*
X9820694Y-15932693D01*
X9820694Y-15932693D02*
X9830218Y-15923169D01*
X9830218Y-15923169D02*
X9849266Y-15913645D01*
X10087361Y-15980312D02*
X10087361Y-16113645D01*
X10039742Y-15904121D02*
X9992123Y-16046978D01*
X9992123Y-16046978D02*
X10115932Y-16046978D01*
X10220694Y-15999359D02*
X10201647Y-15989835D01*
X10201647Y-15989835D02*
X10192123Y-15980312D01*
X10192123Y-15980312D02*
X10182599Y-15961264D01*
X10182599Y-15961264D02*
X10182599Y-15951740D01*
X10182599Y-15951740D02*
X10192123Y-15932693D01*
X10192123Y-15932693D02*
X10201647Y-15923169D01*
X10201647Y-15923169D02*
X10220694Y-15913645D01*
X10220694Y-15913645D02*
X10258789Y-15913645D01*
X10258789Y-15913645D02*
X10277837Y-15923169D01*
X10277837Y-15923169D02*
X10287361Y-15932693D01*
X10287361Y-15932693D02*
X10296885Y-15951740D01*
X10296885Y-15951740D02*
X10296885Y-15961264D01*
X10296885Y-15961264D02*
X10287361Y-15980312D01*
X10287361Y-15980312D02*
X10277837Y-15989835D01*
X10277837Y-15989835D02*
X10258789Y-15999359D01*
X10258789Y-15999359D02*
X10220694Y-15999359D01*
X10220694Y-15999359D02*
X10201647Y-16008883D01*
X10201647Y-16008883D02*
X10192123Y-16018407D01*
X10192123Y-16018407D02*
X10182599Y-16037455D01*
X10182599Y-16037455D02*
X10182599Y-16075550D01*
X10182599Y-16075550D02*
X10192123Y-16094597D01*
X10192123Y-16094597D02*
X10201647Y-16104121D01*
X10201647Y-16104121D02*
X10220694Y-16113645D01*
X10220694Y-16113645D02*
X10258789Y-16113645D01*
X10258789Y-16113645D02*
X10277837Y-16104121D01*
X10277837Y-16104121D02*
X10287361Y-16094597D01*
X10287361Y-16094597D02*
X10296885Y-16075550D01*
X10296885Y-16075550D02*
X10296885Y-16037455D01*
X10296885Y-16037455D02*
X10287361Y-16018407D01*
X10287361Y-16018407D02*
X10277837Y-16008883D01*
X10277837Y-16008883D02*
X10258789Y-15999359D01*
X10382599Y-16113645D02*
X10382599Y-15980312D01*
X10382599Y-15999359D02*
X10392123Y-15989835D01*
X10392123Y-15989835D02*
X10411170Y-15980312D01*
X10411170Y-15980312D02*
X10439742Y-15980312D01*
X10439742Y-15980312D02*
X10458789Y-15989835D01*
X10458789Y-15989835D02*
X10468313Y-16008883D01*
X10468313Y-16008883D02*
X10468313Y-16113645D01*
X10468313Y-16008883D02*
X10477837Y-15989835D01*
X10477837Y-15989835D02*
X10496885Y-15980312D01*
X10496885Y-15980312D02*
X10525456Y-15980312D01*
X10525456Y-15980312D02*
X10544504Y-15989835D01*
X10544504Y-15989835D02*
X10554028Y-16008883D01*
X10554028Y-16008883D02*
X10554028Y-16113645D01*
X10649266Y-16113645D02*
X10649266Y-15980312D01*
X10649266Y-15999359D02*
X10658789Y-15989835D01*
X10658789Y-15989835D02*
X10677837Y-15980312D01*
X10677837Y-15980312D02*
X10706409Y-15980312D01*
X10706409Y-15980312D02*
X10725456Y-15989835D01*
X10725456Y-15989835D02*
X10734980Y-16008883D01*
X10734980Y-16008883D02*
X10734980Y-16113645D01*
X10734980Y-16008883D02*
X10744504Y-15989835D01*
X10744504Y-15989835D02*
X10763551Y-15980312D01*
X10763551Y-15980312D02*
X10792123Y-15980312D01*
X10792123Y-15980312D02*
X10811170Y-15989835D01*
X10811170Y-15989835D02*
X10820694Y-16008883D01*
X10820694Y-16008883D02*
X10820694Y-16113645D01*
X11211170Y-15904121D02*
X11039742Y-16161264D01*
X11468313Y-15913645D02*
X11487361Y-15913645D01*
X11487361Y-15913645D02*
X11506409Y-15923169D01*
X11506409Y-15923169D02*
X11515932Y-15932693D01*
X11515932Y-15932693D02*
X11525456Y-15951740D01*
X11525456Y-15951740D02*
X11534980Y-15989835D01*
X11534980Y-15989835D02*
X11534980Y-16037455D01*
X11534980Y-16037455D02*
X11525456Y-16075550D01*
X11525456Y-16075550D02*
X11515932Y-16094597D01*
X11515932Y-16094597D02*
X11506409Y-16104121D01*
X11506409Y-16104121D02*
X11487361Y-16113645D01*
X11487361Y-16113645D02*
X11468313Y-16113645D01*
X11468313Y-16113645D02*
X11449266Y-16104121D01*
X11449266Y-16104121D02*
X11439742Y-16094597D01*
X11439742Y-16094597D02*
X11430218Y-16075550D01*
X11430218Y-16075550D02*
X11420694Y-16037455D01*
X11420694Y-16037455D02*
X11420694Y-15989835D01*
X11420694Y-15989835D02*
X11430218Y-15951740D01*
X11430218Y-15951740D02*
X11439742Y-15932693D01*
X11439742Y-15932693D02*
X11449266Y-15923169D01*
X11449266Y-15923169D02*
X11468313Y-15913645D01*
X11620694Y-16094597D02*
X11630218Y-16104121D01*
X11630218Y-16104121D02*
X11620694Y-16113645D01*
X11620694Y-16113645D02*
X11611170Y-16104121D01*
X11611170Y-16104121D02*
X11620694Y-16094597D01*
X11620694Y-16094597D02*
X11620694Y-16113645D01*
X11820694Y-16113645D02*
X11706409Y-16113645D01*
X11763551Y-16113645D02*
X11763551Y-15913645D01*
X11763551Y-15913645D02*
X11744504Y-15942216D01*
X11744504Y-15942216D02*
X11725456Y-15961264D01*
X11725456Y-15961264D02*
X11706409Y-15970788D01*
X11896885Y-15932693D02*
X11906409Y-15923169D01*
X11906409Y-15923169D02*
X11925456Y-15913645D01*
X11925456Y-15913645D02*
X11973075Y-15913645D01*
X11973075Y-15913645D02*
X11992123Y-15923169D01*
X11992123Y-15923169D02*
X12001647Y-15932693D01*
X12001647Y-15932693D02*
X12011170Y-15951740D01*
X12011170Y-15951740D02*
X12011170Y-15970788D01*
X12011170Y-15970788D02*
X12001647Y-15999359D01*
X12001647Y-15999359D02*
X11887361Y-16113645D01*
X11887361Y-16113645D02*
X12011170Y-16113645D01*
X12134980Y-15913645D02*
X12154028Y-15913645D01*
X12154028Y-15913645D02*
X12173075Y-15923169D01*
X12173075Y-15923169D02*
X12182599Y-15932693D01*
X12182599Y-15932693D02*
X12192123Y-15951740D01*
X12192123Y-15951740D02*
X12201647Y-15989835D01*
X12201647Y-15989835D02*
X12201647Y-16037455D01*
X12201647Y-16037455D02*
X12192123Y-16075550D01*
X12192123Y-16075550D02*
X12182599Y-16094597D01*
X12182599Y-16094597D02*
X12173075Y-16104121D01*
X12173075Y-16104121D02*
X12154028Y-16113645D01*
X12154028Y-16113645D02*
X12134980Y-16113645D01*
X12134980Y-16113645D02*
X12115932Y-16104121D01*
X12115932Y-16104121D02*
X12106409Y-16094597D01*
X12106409Y-16094597D02*
X12096885Y-16075550D01*
X12096885Y-16075550D02*
X12087361Y-16037455D01*
X12087361Y-16037455D02*
X12087361Y-15989835D01*
X12087361Y-15989835D02*
X12096885Y-15951740D01*
X12096885Y-15951740D02*
X12106409Y-15932693D01*
X12106409Y-15932693D02*
X12115932Y-15923169D01*
X12115932Y-15923169D02*
X12134980Y-15913645D01*
X12325456Y-15913645D02*
X12344504Y-15913645D01*
X12344504Y-15913645D02*
X12363551Y-15923169D01*
X12363551Y-15923169D02*
X12373075Y-15932693D01*
X12373075Y-15932693D02*
X12382599Y-15951740D01*
X12382599Y-15951740D02*
X12392123Y-15989835D01*
X12392123Y-15989835D02*
X12392123Y-16037455D01*
X12392123Y-16037455D02*
X12382599Y-16075550D01*
X12382599Y-16075550D02*
X12373075Y-16094597D01*
X12373075Y-16094597D02*
X12363551Y-16104121D01*
X12363551Y-16104121D02*
X12344504Y-16113645D01*
X12344504Y-16113645D02*
X12325456Y-16113645D01*
X12325456Y-16113645D02*
X12306409Y-16104121D01*
X12306409Y-16104121D02*
X12296885Y-16094597D01*
X12296885Y-16094597D02*
X12287361Y-16075550D01*
X12287361Y-16075550D02*
X12277837Y-16037455D01*
X12277837Y-16037455D02*
X12277837Y-15989835D01*
X12277837Y-15989835D02*
X12287361Y-15951740D01*
X12287361Y-15951740D02*
X12296885Y-15932693D01*
X12296885Y-15932693D02*
X12306409Y-15923169D01*
X12306409Y-15923169D02*
X12325456Y-15913645D01*
X12468313Y-15913645D02*
X12468313Y-15951740D01*
X12544504Y-15913645D02*
X12544504Y-15951740D01*
X12839742Y-16189835D02*
X12830218Y-16180312D01*
X12830218Y-16180312D02*
X12811171Y-16151740D01*
X12811171Y-16151740D02*
X12801647Y-16132693D01*
X12801647Y-16132693D02*
X12792123Y-16104121D01*
X12792123Y-16104121D02*
X12782599Y-16056502D01*
X12782599Y-16056502D02*
X12782599Y-16018407D01*
X12782599Y-16018407D02*
X12792123Y-15970788D01*
X12792123Y-15970788D02*
X12801647Y-15942216D01*
X12801647Y-15942216D02*
X12811171Y-15923169D01*
X12811171Y-15923169D02*
X12830218Y-15894597D01*
X12830218Y-15894597D02*
X12839742Y-15885074D01*
X13020694Y-16113645D02*
X12906409Y-16113645D01*
X12963551Y-16113645D02*
X12963551Y-15913645D01*
X12963551Y-15913645D02*
X12944504Y-15942216D01*
X12944504Y-15942216D02*
X12925456Y-15961264D01*
X12925456Y-15961264D02*
X12906409Y-15970788D01*
X13258790Y-16113645D02*
X13258790Y-15913645D01*
X13344504Y-16113645D02*
X13344504Y-16008883D01*
X13344504Y-16008883D02*
X13334980Y-15989835D01*
X13334980Y-15989835D02*
X13315933Y-15980312D01*
X13315933Y-15980312D02*
X13287361Y-15980312D01*
X13287361Y-15980312D02*
X13268313Y-15989835D01*
X13268313Y-15989835D02*
X13258790Y-15999359D01*
X13468313Y-16113645D02*
X13449266Y-16104121D01*
X13449266Y-16104121D02*
X13439742Y-16094597D01*
X13439742Y-16094597D02*
X13430218Y-16075550D01*
X13430218Y-16075550D02*
X13430218Y-16018407D01*
X13430218Y-16018407D02*
X13439742Y-15999359D01*
X13439742Y-15999359D02*
X13449266Y-15989835D01*
X13449266Y-15989835D02*
X13468313Y-15980312D01*
X13468313Y-15980312D02*
X13496885Y-15980312D01*
X13496885Y-15980312D02*
X13515933Y-15989835D01*
X13515933Y-15989835D02*
X13525456Y-15999359D01*
X13525456Y-15999359D02*
X13534980Y-16018407D01*
X13534980Y-16018407D02*
X13534980Y-16075550D01*
X13534980Y-16075550D02*
X13525456Y-16094597D01*
X13525456Y-16094597D02*
X13515933Y-16104121D01*
X13515933Y-16104121D02*
X13496885Y-16113645D01*
X13496885Y-16113645D02*
X13468313Y-16113645D01*
X13649266Y-16113645D02*
X13630218Y-16104121D01*
X13630218Y-16104121D02*
X13620694Y-16085074D01*
X13620694Y-16085074D02*
X13620694Y-15913645D01*
X13801647Y-16104121D02*
X13782599Y-16113645D01*
X13782599Y-16113645D02*
X13744504Y-16113645D01*
X13744504Y-16113645D02*
X13725456Y-16104121D01*
X13725456Y-16104121D02*
X13715933Y-16085074D01*
X13715933Y-16085074D02*
X13715933Y-16008883D01*
X13715933Y-16008883D02*
X13725456Y-15989835D01*
X13725456Y-15989835D02*
X13744504Y-15980312D01*
X13744504Y-15980312D02*
X13782599Y-15980312D01*
X13782599Y-15980312D02*
X13801647Y-15989835D01*
X13801647Y-15989835D02*
X13811171Y-16008883D01*
X13811171Y-16008883D02*
X13811171Y-16027931D01*
X13811171Y-16027931D02*
X13715933Y-16046978D01*
X13877837Y-16189835D02*
X13887361Y-16180312D01*
X13887361Y-16180312D02*
X13906409Y-16151740D01*
X13906409Y-16151740D02*
X13915933Y-16132693D01*
X13915933Y-16132693D02*
X13925456Y-16104121D01*
X13925456Y-16104121D02*
X13934980Y-16056502D01*
X13934980Y-16056502D02*
X13934980Y-16018407D01*
X13934980Y-16018407D02*
X13925456Y-15970788D01*
X13925456Y-15970788D02*
X13915933Y-15942216D01*
X13915933Y-15942216D02*
X13906409Y-15923169D01*
X13906409Y-15923169D02*
X13887361Y-15894597D01*
X13887361Y-15894597D02*
X13877837Y-15885074D01*
X14239742Y-16189835D02*
X14230218Y-16180312D01*
X14230218Y-16180312D02*
X14211171Y-16151740D01*
X14211171Y-16151740D02*
X14201647Y-16132693D01*
X14201647Y-16132693D02*
X14192123Y-16104121D01*
X14192123Y-16104121D02*
X14182599Y-16056502D01*
X14182599Y-16056502D02*
X14182599Y-16018407D01*
X14182599Y-16018407D02*
X14192123Y-15970788D01*
X14192123Y-15970788D02*
X14201647Y-15942216D01*
X14201647Y-15942216D02*
X14211171Y-15923169D01*
X14211171Y-15923169D02*
X14230218Y-15894597D01*
X14230218Y-15894597D02*
X14239742Y-15885074D01*
X14315933Y-15980312D02*
X14315933Y-16113645D01*
X14315933Y-15999359D02*
X14325456Y-15989835D01*
X14325456Y-15989835D02*
X14344504Y-15980312D01*
X14344504Y-15980312D02*
X14373075Y-15980312D01*
X14373075Y-15980312D02*
X14392123Y-15989835D01*
X14392123Y-15989835D02*
X14401647Y-16008883D01*
X14401647Y-16008883D02*
X14401647Y-16113645D01*
X14525456Y-16113645D02*
X14506409Y-16104121D01*
X14506409Y-16104121D02*
X14496885Y-16094597D01*
X14496885Y-16094597D02*
X14487361Y-16075550D01*
X14487361Y-16075550D02*
X14487361Y-16018407D01*
X14487361Y-16018407D02*
X14496885Y-15999359D01*
X14496885Y-15999359D02*
X14506409Y-15989835D01*
X14506409Y-15989835D02*
X14525456Y-15980312D01*
X14525456Y-15980312D02*
X14554028Y-15980312D01*
X14554028Y-15980312D02*
X14573075Y-15989835D01*
X14573075Y-15989835D02*
X14582599Y-15999359D01*
X14582599Y-15999359D02*
X14592123Y-16018407D01*
X14592123Y-16018407D02*
X14592123Y-16075550D01*
X14592123Y-16075550D02*
X14582599Y-16094597D01*
X14582599Y-16094597D02*
X14573075Y-16104121D01*
X14573075Y-16104121D02*
X14554028Y-16113645D01*
X14554028Y-16113645D02*
X14525456Y-16113645D01*
X14649266Y-15980312D02*
X14725456Y-15980312D01*
X14677837Y-15913645D02*
X14677837Y-16085074D01*
X14677837Y-16085074D02*
X14687361Y-16104121D01*
X14687361Y-16104121D02*
X14706409Y-16113645D01*
X14706409Y-16113645D02*
X14725456Y-16113645D01*
X14944504Y-15980312D02*
X14944504Y-16180312D01*
X14944504Y-15989835D02*
X14963552Y-15980312D01*
X14963552Y-15980312D02*
X15001647Y-15980312D01*
X15001647Y-15980312D02*
X15020695Y-15989835D01*
X15020695Y-15989835D02*
X15030218Y-15999359D01*
X15030218Y-15999359D02*
X15039742Y-16018407D01*
X15039742Y-16018407D02*
X15039742Y-16075550D01*
X15039742Y-16075550D02*
X15030218Y-16094597D01*
X15030218Y-16094597D02*
X15020695Y-16104121D01*
X15020695Y-16104121D02*
X15001647Y-16113645D01*
X15001647Y-16113645D02*
X14963552Y-16113645D01*
X14963552Y-16113645D02*
X14944504Y-16104121D01*
X15154028Y-16113645D02*
X15134980Y-16104121D01*
X15134980Y-16104121D02*
X15125456Y-16085074D01*
X15125456Y-16085074D02*
X15125456Y-15913645D01*
X15315933Y-16113645D02*
X15315933Y-16008883D01*
X15315933Y-16008883D02*
X15306409Y-15989835D01*
X15306409Y-15989835D02*
X15287361Y-15980312D01*
X15287361Y-15980312D02*
X15249266Y-15980312D01*
X15249266Y-15980312D02*
X15230218Y-15989835D01*
X15315933Y-16104121D02*
X15296885Y-16113645D01*
X15296885Y-16113645D02*
X15249266Y-16113645D01*
X15249266Y-16113645D02*
X15230218Y-16104121D01*
X15230218Y-16104121D02*
X15220695Y-16085074D01*
X15220695Y-16085074D02*
X15220695Y-16066026D01*
X15220695Y-16066026D02*
X15230218Y-16046978D01*
X15230218Y-16046978D02*
X15249266Y-16037455D01*
X15249266Y-16037455D02*
X15296885Y-16037455D01*
X15296885Y-16037455D02*
X15315933Y-16027931D01*
X15382599Y-15980312D02*
X15458790Y-15980312D01*
X15411171Y-15913645D02*
X15411171Y-16085074D01*
X15411171Y-16085074D02*
X15420695Y-16104121D01*
X15420695Y-16104121D02*
X15439742Y-16113645D01*
X15439742Y-16113645D02*
X15458790Y-16113645D01*
X15601647Y-16104121D02*
X15582599Y-16113645D01*
X15582599Y-16113645D02*
X15544504Y-16113645D01*
X15544504Y-16113645D02*
X15525456Y-16104121D01*
X15525456Y-16104121D02*
X15515933Y-16085074D01*
X15515933Y-16085074D02*
X15515933Y-16008883D01*
X15515933Y-16008883D02*
X15525456Y-15989835D01*
X15525456Y-15989835D02*
X15544504Y-15980312D01*
X15544504Y-15980312D02*
X15582599Y-15980312D01*
X15582599Y-15980312D02*
X15601647Y-15989835D01*
X15601647Y-15989835D02*
X15611171Y-16008883D01*
X15611171Y-16008883D02*
X15611171Y-16027931D01*
X15611171Y-16027931D02*
X15515933Y-16046978D01*
X15782599Y-16113645D02*
X15782599Y-15913645D01*
X15782599Y-16104121D02*
X15763552Y-16113645D01*
X15763552Y-16113645D02*
X15725456Y-16113645D01*
X15725456Y-16113645D02*
X15706409Y-16104121D01*
X15706409Y-16104121D02*
X15696885Y-16094597D01*
X15696885Y-16094597D02*
X15687361Y-16075550D01*
X15687361Y-16075550D02*
X15687361Y-16018407D01*
X15687361Y-16018407D02*
X15696885Y-15999359D01*
X15696885Y-15999359D02*
X15706409Y-15989835D01*
X15706409Y-15989835D02*
X15725456Y-15980312D01*
X15725456Y-15980312D02*
X15763552Y-15980312D01*
X15763552Y-15980312D02*
X15782599Y-15989835D01*
X15858790Y-16189835D02*
X15868314Y-16180312D01*
X15868314Y-16180312D02*
X15887361Y-16151740D01*
X15887361Y-16151740D02*
X15896885Y-16132693D01*
X15896885Y-16132693D02*
X15906409Y-16104121D01*
X15906409Y-16104121D02*
X15915933Y-16056502D01*
X15915933Y-16056502D02*
X15915933Y-16018407D01*
X15915933Y-16018407D02*
X15906409Y-15970788D01*
X15906409Y-15970788D02*
X15896885Y-15942216D01*
X15896885Y-15942216D02*
X15887361Y-15923169D01*
X15887361Y-15923169D02*
X15868314Y-15894597D01*
X15868314Y-15894597D02*
X15858790Y-15885074D01*
X9264679Y-16342161D02*
G75*
G02*
X9064679Y-16342161I-100000J0D01*
G01*
X9064679Y-16342161D02*
G75*
G02*
X9264679Y-16342161I100000J0D01*
G01*
X9506408Y-16233645D02*
X9630218Y-16233645D01*
X9630218Y-16233645D02*
X9563551Y-16309835D01*
X9563551Y-16309835D02*
X9592123Y-16309835D01*
X9592123Y-16309835D02*
X9611170Y-16319359D01*
X9611170Y-16319359D02*
X9620694Y-16328883D01*
X9620694Y-16328883D02*
X9630218Y-16347931D01*
X9630218Y-16347931D02*
X9630218Y-16395550D01*
X9630218Y-16395550D02*
X9620694Y-16414597D01*
X9620694Y-16414597D02*
X9611170Y-16424121D01*
X9611170Y-16424121D02*
X9592123Y-16433645D01*
X9592123Y-16433645D02*
X9534980Y-16433645D01*
X9534980Y-16433645D02*
X9515932Y-16424121D01*
X9515932Y-16424121D02*
X9506408Y-16414597D01*
X9715932Y-16414597D02*
X9725456Y-16424121D01*
X9725456Y-16424121D02*
X9715932Y-16433645D01*
X9715932Y-16433645D02*
X9706408Y-16424121D01*
X9706408Y-16424121D02*
X9715932Y-16414597D01*
X9715932Y-16414597D02*
X9715932Y-16433645D01*
X9801647Y-16252693D02*
X9811170Y-16243169D01*
X9811170Y-16243169D02*
X9830218Y-16233645D01*
X9830218Y-16233645D02*
X9877837Y-16233645D01*
X9877837Y-16233645D02*
X9896885Y-16243169D01*
X9896885Y-16243169D02*
X9906408Y-16252693D01*
X9906408Y-16252693D02*
X9915932Y-16271740D01*
X9915932Y-16271740D02*
X9915932Y-16290788D01*
X9915932Y-16290788D02*
X9906408Y-16319359D01*
X9906408Y-16319359D02*
X9792123Y-16433645D01*
X9792123Y-16433645D02*
X9915932Y-16433645D01*
X10039742Y-16233645D02*
X10058789Y-16233645D01*
X10058789Y-16233645D02*
X10077837Y-16243169D01*
X10077837Y-16243169D02*
X10087361Y-16252693D01*
X10087361Y-16252693D02*
X10096885Y-16271740D01*
X10096885Y-16271740D02*
X10106408Y-16309835D01*
X10106408Y-16309835D02*
X10106408Y-16357455D01*
X10106408Y-16357455D02*
X10096885Y-16395550D01*
X10096885Y-16395550D02*
X10087361Y-16414597D01*
X10087361Y-16414597D02*
X10077837Y-16424121D01*
X10077837Y-16424121D02*
X10058789Y-16433645D01*
X10058789Y-16433645D02*
X10039742Y-16433645D01*
X10039742Y-16433645D02*
X10020694Y-16424121D01*
X10020694Y-16424121D02*
X10011170Y-16414597D01*
X10011170Y-16414597D02*
X10001647Y-16395550D01*
X10001647Y-16395550D02*
X9992123Y-16357455D01*
X9992123Y-16357455D02*
X9992123Y-16309835D01*
X9992123Y-16309835D02*
X10001647Y-16271740D01*
X10001647Y-16271740D02*
X10011170Y-16252693D01*
X10011170Y-16252693D02*
X10020694Y-16243169D01*
X10020694Y-16243169D02*
X10039742Y-16233645D01*
X10230218Y-16233645D02*
X10249266Y-16233645D01*
X10249266Y-16233645D02*
X10268313Y-16243169D01*
X10268313Y-16243169D02*
X10277837Y-16252693D01*
X10277837Y-16252693D02*
X10287361Y-16271740D01*
X10287361Y-16271740D02*
X10296885Y-16309835D01*
X10296885Y-16309835D02*
X10296885Y-16357455D01*
X10296885Y-16357455D02*
X10287361Y-16395550D01*
X10287361Y-16395550D02*
X10277837Y-16414597D01*
X10277837Y-16414597D02*
X10268313Y-16424121D01*
X10268313Y-16424121D02*
X10249266Y-16433645D01*
X10249266Y-16433645D02*
X10230218Y-16433645D01*
X10230218Y-16433645D02*
X10211170Y-16424121D01*
X10211170Y-16424121D02*
X10201647Y-16414597D01*
X10201647Y-16414597D02*
X10192123Y-16395550D01*
X10192123Y-16395550D02*
X10182599Y-16357455D01*
X10182599Y-16357455D02*
X10182599Y-16309835D01*
X10182599Y-16309835D02*
X10192123Y-16271740D01*
X10192123Y-16271740D02*
X10201647Y-16252693D01*
X10201647Y-16252693D02*
X10211170Y-16243169D01*
X10211170Y-16243169D02*
X10230218Y-16233645D01*
X10382599Y-16433645D02*
X10382599Y-16300312D01*
X10382599Y-16319359D02*
X10392123Y-16309835D01*
X10392123Y-16309835D02*
X10411170Y-16300312D01*
X10411170Y-16300312D02*
X10439742Y-16300312D01*
X10439742Y-16300312D02*
X10458789Y-16309835D01*
X10458789Y-16309835D02*
X10468313Y-16328883D01*
X10468313Y-16328883D02*
X10468313Y-16433645D01*
X10468313Y-16328883D02*
X10477837Y-16309835D01*
X10477837Y-16309835D02*
X10496885Y-16300312D01*
X10496885Y-16300312D02*
X10525456Y-16300312D01*
X10525456Y-16300312D02*
X10544504Y-16309835D01*
X10544504Y-16309835D02*
X10554028Y-16328883D01*
X10554028Y-16328883D02*
X10554028Y-16433645D01*
X10649266Y-16433645D02*
X10649266Y-16300312D01*
X10649266Y-16319359D02*
X10658789Y-16309835D01*
X10658789Y-16309835D02*
X10677837Y-16300312D01*
X10677837Y-16300312D02*
X10706409Y-16300312D01*
X10706409Y-16300312D02*
X10725456Y-16309835D01*
X10725456Y-16309835D02*
X10734980Y-16328883D01*
X10734980Y-16328883D02*
X10734980Y-16433645D01*
X10734980Y-16328883D02*
X10744504Y-16309835D01*
X10744504Y-16309835D02*
X10763551Y-16300312D01*
X10763551Y-16300312D02*
X10792123Y-16300312D01*
X10792123Y-16300312D02*
X10811170Y-16309835D01*
X10811170Y-16309835D02*
X10820694Y-16328883D01*
X10820694Y-16328883D02*
X10820694Y-16433645D01*
X11211170Y-16224121D02*
X11039742Y-16481264D01*
X11468313Y-16233645D02*
X11487361Y-16233645D01*
X11487361Y-16233645D02*
X11506409Y-16243169D01*
X11506409Y-16243169D02*
X11515932Y-16252693D01*
X11515932Y-16252693D02*
X11525456Y-16271740D01*
X11525456Y-16271740D02*
X11534980Y-16309835D01*
X11534980Y-16309835D02*
X11534980Y-16357455D01*
X11534980Y-16357455D02*
X11525456Y-16395550D01*
X11525456Y-16395550D02*
X11515932Y-16414597D01*
X11515932Y-16414597D02*
X11506409Y-16424121D01*
X11506409Y-16424121D02*
X11487361Y-16433645D01*
X11487361Y-16433645D02*
X11468313Y-16433645D01*
X11468313Y-16433645D02*
X11449266Y-16424121D01*
X11449266Y-16424121D02*
X11439742Y-16414597D01*
X11439742Y-16414597D02*
X11430218Y-16395550D01*
X11430218Y-16395550D02*
X11420694Y-16357455D01*
X11420694Y-16357455D02*
X11420694Y-16309835D01*
X11420694Y-16309835D02*
X11430218Y-16271740D01*
X11430218Y-16271740D02*
X11439742Y-16252693D01*
X11439742Y-16252693D02*
X11449266Y-16243169D01*
X11449266Y-16243169D02*
X11468313Y-16233645D01*
X11620694Y-16414597D02*
X11630218Y-16424121D01*
X11630218Y-16424121D02*
X11620694Y-16433645D01*
X11620694Y-16433645D02*
X11611170Y-16424121D01*
X11611170Y-16424121D02*
X11620694Y-16414597D01*
X11620694Y-16414597D02*
X11620694Y-16433645D01*
X11820694Y-16433645D02*
X11706409Y-16433645D01*
X11763551Y-16433645D02*
X11763551Y-16233645D01*
X11763551Y-16233645D02*
X11744504Y-16262216D01*
X11744504Y-16262216D02*
X11725456Y-16281264D01*
X11725456Y-16281264D02*
X11706409Y-16290788D01*
X11896885Y-16252693D02*
X11906409Y-16243169D01*
X11906409Y-16243169D02*
X11925456Y-16233645D01*
X11925456Y-16233645D02*
X11973075Y-16233645D01*
X11973075Y-16233645D02*
X11992123Y-16243169D01*
X11992123Y-16243169D02*
X12001647Y-16252693D01*
X12001647Y-16252693D02*
X12011170Y-16271740D01*
X12011170Y-16271740D02*
X12011170Y-16290788D01*
X12011170Y-16290788D02*
X12001647Y-16319359D01*
X12001647Y-16319359D02*
X11887361Y-16433645D01*
X11887361Y-16433645D02*
X12011170Y-16433645D01*
X12182599Y-16233645D02*
X12144504Y-16233645D01*
X12144504Y-16233645D02*
X12125456Y-16243169D01*
X12125456Y-16243169D02*
X12115932Y-16252693D01*
X12115932Y-16252693D02*
X12096885Y-16281264D01*
X12096885Y-16281264D02*
X12087361Y-16319359D01*
X12087361Y-16319359D02*
X12087361Y-16395550D01*
X12087361Y-16395550D02*
X12096885Y-16414597D01*
X12096885Y-16414597D02*
X12106409Y-16424121D01*
X12106409Y-16424121D02*
X12125456Y-16433645D01*
X12125456Y-16433645D02*
X12163551Y-16433645D01*
X12163551Y-16433645D02*
X12182599Y-16424121D01*
X12182599Y-16424121D02*
X12192123Y-16414597D01*
X12192123Y-16414597D02*
X12201647Y-16395550D01*
X12201647Y-16395550D02*
X12201647Y-16347931D01*
X12201647Y-16347931D02*
X12192123Y-16328883D01*
X12192123Y-16328883D02*
X12182599Y-16319359D01*
X12182599Y-16319359D02*
X12163551Y-16309835D01*
X12163551Y-16309835D02*
X12125456Y-16309835D01*
X12125456Y-16309835D02*
X12106409Y-16319359D01*
X12106409Y-16319359D02*
X12096885Y-16328883D01*
X12096885Y-16328883D02*
X12087361Y-16347931D01*
X12325456Y-16233645D02*
X12344504Y-16233645D01*
X12344504Y-16233645D02*
X12363551Y-16243169D01*
X12363551Y-16243169D02*
X12373075Y-16252693D01*
X12373075Y-16252693D02*
X12382599Y-16271740D01*
X12382599Y-16271740D02*
X12392123Y-16309835D01*
X12392123Y-16309835D02*
X12392123Y-16357455D01*
X12392123Y-16357455D02*
X12382599Y-16395550D01*
X12382599Y-16395550D02*
X12373075Y-16414597D01*
X12373075Y-16414597D02*
X12363551Y-16424121D01*
X12363551Y-16424121D02*
X12344504Y-16433645D01*
X12344504Y-16433645D02*
X12325456Y-16433645D01*
X12325456Y-16433645D02*
X12306409Y-16424121D01*
X12306409Y-16424121D02*
X12296885Y-16414597D01*
X12296885Y-16414597D02*
X12287361Y-16395550D01*
X12287361Y-16395550D02*
X12277837Y-16357455D01*
X12277837Y-16357455D02*
X12277837Y-16309835D01*
X12277837Y-16309835D02*
X12287361Y-16271740D01*
X12287361Y-16271740D02*
X12296885Y-16252693D01*
X12296885Y-16252693D02*
X12306409Y-16243169D01*
X12306409Y-16243169D02*
X12325456Y-16233645D01*
X12468313Y-16233645D02*
X12468313Y-16271740D01*
X12544504Y-16233645D02*
X12544504Y-16271740D01*
X12839742Y-16509835D02*
X12830218Y-16500312D01*
X12830218Y-16500312D02*
X12811171Y-16471740D01*
X12811171Y-16471740D02*
X12801647Y-16452693D01*
X12801647Y-16452693D02*
X12792123Y-16424121D01*
X12792123Y-16424121D02*
X12782599Y-16376502D01*
X12782599Y-16376502D02*
X12782599Y-16338407D01*
X12782599Y-16338407D02*
X12792123Y-16290788D01*
X12792123Y-16290788D02*
X12801647Y-16262216D01*
X12801647Y-16262216D02*
X12811171Y-16243169D01*
X12811171Y-16243169D02*
X12830218Y-16214597D01*
X12830218Y-16214597D02*
X12839742Y-16205074D01*
X13001647Y-16300312D02*
X13001647Y-16433645D01*
X12954028Y-16224121D02*
X12906409Y-16366978D01*
X12906409Y-16366978D02*
X13030218Y-16366978D01*
X13258790Y-16433645D02*
X13258790Y-16233645D01*
X13344504Y-16433645D02*
X13344504Y-16328883D01*
X13344504Y-16328883D02*
X13334980Y-16309835D01*
X13334980Y-16309835D02*
X13315933Y-16300312D01*
X13315933Y-16300312D02*
X13287361Y-16300312D01*
X13287361Y-16300312D02*
X13268313Y-16309835D01*
X13268313Y-16309835D02*
X13258790Y-16319359D01*
X13468313Y-16433645D02*
X13449266Y-16424121D01*
X13449266Y-16424121D02*
X13439742Y-16414597D01*
X13439742Y-16414597D02*
X13430218Y-16395550D01*
X13430218Y-16395550D02*
X13430218Y-16338407D01*
X13430218Y-16338407D02*
X13439742Y-16319359D01*
X13439742Y-16319359D02*
X13449266Y-16309835D01*
X13449266Y-16309835D02*
X13468313Y-16300312D01*
X13468313Y-16300312D02*
X13496885Y-16300312D01*
X13496885Y-16300312D02*
X13515933Y-16309835D01*
X13515933Y-16309835D02*
X13525456Y-16319359D01*
X13525456Y-16319359D02*
X13534980Y-16338407D01*
X13534980Y-16338407D02*
X13534980Y-16395550D01*
X13534980Y-16395550D02*
X13525456Y-16414597D01*
X13525456Y-16414597D02*
X13515933Y-16424121D01*
X13515933Y-16424121D02*
X13496885Y-16433645D01*
X13496885Y-16433645D02*
X13468313Y-16433645D01*
X13649266Y-16433645D02*
X13630218Y-16424121D01*
X13630218Y-16424121D02*
X13620694Y-16405074D01*
X13620694Y-16405074D02*
X13620694Y-16233645D01*
X13801647Y-16424121D02*
X13782599Y-16433645D01*
X13782599Y-16433645D02*
X13744504Y-16433645D01*
X13744504Y-16433645D02*
X13725456Y-16424121D01*
X13725456Y-16424121D02*
X13715933Y-16405074D01*
X13715933Y-16405074D02*
X13715933Y-16328883D01*
X13715933Y-16328883D02*
X13725456Y-16309835D01*
X13725456Y-16309835D02*
X13744504Y-16300312D01*
X13744504Y-16300312D02*
X13782599Y-16300312D01*
X13782599Y-16300312D02*
X13801647Y-16309835D01*
X13801647Y-16309835D02*
X13811171Y-16328883D01*
X13811171Y-16328883D02*
X13811171Y-16347931D01*
X13811171Y-16347931D02*
X13715933Y-16366978D01*
X13887361Y-16424121D02*
X13906409Y-16433645D01*
X13906409Y-16433645D02*
X13944504Y-16433645D01*
X13944504Y-16433645D02*
X13963552Y-16424121D01*
X13963552Y-16424121D02*
X13973075Y-16405074D01*
X13973075Y-16405074D02*
X13973075Y-16395550D01*
X13973075Y-16395550D02*
X13963552Y-16376502D01*
X13963552Y-16376502D02*
X13944504Y-16366978D01*
X13944504Y-16366978D02*
X13915933Y-16366978D01*
X13915933Y-16366978D02*
X13896885Y-16357455D01*
X13896885Y-16357455D02*
X13887361Y-16338407D01*
X13887361Y-16338407D02*
X13887361Y-16328883D01*
X13887361Y-16328883D02*
X13896885Y-16309835D01*
X13896885Y-16309835D02*
X13915933Y-16300312D01*
X13915933Y-16300312D02*
X13944504Y-16300312D01*
X13944504Y-16300312D02*
X13963552Y-16309835D01*
X14039742Y-16509835D02*
X14049266Y-16500312D01*
X14049266Y-16500312D02*
X14068314Y-16471740D01*
X14068314Y-16471740D02*
X14077837Y-16452693D01*
X14077837Y-16452693D02*
X14087361Y-16424121D01*
X14087361Y-16424121D02*
X14096885Y-16376502D01*
X14096885Y-16376502D02*
X14096885Y-16338407D01*
X14096885Y-16338407D02*
X14087361Y-16290788D01*
X14087361Y-16290788D02*
X14077837Y-16262216D01*
X14077837Y-16262216D02*
X14068314Y-16243169D01*
X14068314Y-16243169D02*
X14049266Y-16214597D01*
X14049266Y-16214597D02*
X14039742Y-16205074D01*
X14401647Y-16509835D02*
X14392123Y-16500312D01*
X14392123Y-16500312D02*
X14373075Y-16471740D01*
X14373075Y-16471740D02*
X14363552Y-16452693D01*
X14363552Y-16452693D02*
X14354028Y-16424121D01*
X14354028Y-16424121D02*
X14344504Y-16376502D01*
X14344504Y-16376502D02*
X14344504Y-16338407D01*
X14344504Y-16338407D02*
X14354028Y-16290788D01*
X14354028Y-16290788D02*
X14363552Y-16262216D01*
X14363552Y-16262216D02*
X14373075Y-16243169D01*
X14373075Y-16243169D02*
X14392123Y-16214597D01*
X14392123Y-16214597D02*
X14401647Y-16205074D01*
X14477837Y-16300312D02*
X14477837Y-16433645D01*
X14477837Y-16319359D02*
X14487361Y-16309835D01*
X14487361Y-16309835D02*
X14506409Y-16300312D01*
X14506409Y-16300312D02*
X14534980Y-16300312D01*
X14534980Y-16300312D02*
X14554028Y-16309835D01*
X14554028Y-16309835D02*
X14563552Y-16328883D01*
X14563552Y-16328883D02*
X14563552Y-16433645D01*
X14687361Y-16433645D02*
X14668314Y-16424121D01*
X14668314Y-16424121D02*
X14658790Y-16414597D01*
X14658790Y-16414597D02*
X14649266Y-16395550D01*
X14649266Y-16395550D02*
X14649266Y-16338407D01*
X14649266Y-16338407D02*
X14658790Y-16319359D01*
X14658790Y-16319359D02*
X14668314Y-16309835D01*
X14668314Y-16309835D02*
X14687361Y-16300312D01*
X14687361Y-16300312D02*
X14715933Y-16300312D01*
X14715933Y-16300312D02*
X14734980Y-16309835D01*
X14734980Y-16309835D02*
X14744504Y-16319359D01*
X14744504Y-16319359D02*
X14754028Y-16338407D01*
X14754028Y-16338407D02*
X14754028Y-16395550D01*
X14754028Y-16395550D02*
X14744504Y-16414597D01*
X14744504Y-16414597D02*
X14734980Y-16424121D01*
X14734980Y-16424121D02*
X14715933Y-16433645D01*
X14715933Y-16433645D02*
X14687361Y-16433645D01*
X14811171Y-16300312D02*
X14887361Y-16300312D01*
X14839742Y-16233645D02*
X14839742Y-16405074D01*
X14839742Y-16405074D02*
X14849266Y-16424121D01*
X14849266Y-16424121D02*
X14868314Y-16433645D01*
X14868314Y-16433645D02*
X14887361Y-16433645D01*
X15106409Y-16300312D02*
X15106409Y-16500312D01*
X15106409Y-16309835D02*
X15125456Y-16300312D01*
X15125456Y-16300312D02*
X15163552Y-16300312D01*
X15163552Y-16300312D02*
X15182599Y-16309835D01*
X15182599Y-16309835D02*
X15192123Y-16319359D01*
X15192123Y-16319359D02*
X15201647Y-16338407D01*
X15201647Y-16338407D02*
X15201647Y-16395550D01*
X15201647Y-16395550D02*
X15192123Y-16414597D01*
X15192123Y-16414597D02*
X15182599Y-16424121D01*
X15182599Y-16424121D02*
X15163552Y-16433645D01*
X15163552Y-16433645D02*
X15125456Y-16433645D01*
X15125456Y-16433645D02*
X15106409Y-16424121D01*
X15315933Y-16433645D02*
X15296885Y-16424121D01*
X15296885Y-16424121D02*
X15287361Y-16405074D01*
X15287361Y-16405074D02*
X15287361Y-16233645D01*
X15477837Y-16433645D02*
X15477837Y-16328883D01*
X15477837Y-16328883D02*
X15468314Y-16309835D01*
X15468314Y-16309835D02*
X15449266Y-16300312D01*
X15449266Y-16300312D02*
X15411171Y-16300312D01*
X15411171Y-16300312D02*
X15392123Y-16309835D01*
X15477837Y-16424121D02*
X15458790Y-16433645D01*
X15458790Y-16433645D02*
X15411171Y-16433645D01*
X15411171Y-16433645D02*
X15392123Y-16424121D01*
X15392123Y-16424121D02*
X15382599Y-16405074D01*
X15382599Y-16405074D02*
X15382599Y-16386026D01*
X15382599Y-16386026D02*
X15392123Y-16366978D01*
X15392123Y-16366978D02*
X15411171Y-16357455D01*
X15411171Y-16357455D02*
X15458790Y-16357455D01*
X15458790Y-16357455D02*
X15477837Y-16347931D01*
X15544504Y-16300312D02*
X15620695Y-16300312D01*
X15573076Y-16233645D02*
X15573076Y-16405074D01*
X15573076Y-16405074D02*
X15582599Y-16424121D01*
X15582599Y-16424121D02*
X15601647Y-16433645D01*
X15601647Y-16433645D02*
X15620695Y-16433645D01*
X15763552Y-16424121D02*
X15744504Y-16433645D01*
X15744504Y-16433645D02*
X15706409Y-16433645D01*
X15706409Y-16433645D02*
X15687361Y-16424121D01*
X15687361Y-16424121D02*
X15677837Y-16405074D01*
X15677837Y-16405074D02*
X15677837Y-16328883D01*
X15677837Y-16328883D02*
X15687361Y-16309835D01*
X15687361Y-16309835D02*
X15706409Y-16300312D01*
X15706409Y-16300312D02*
X15744504Y-16300312D01*
X15744504Y-16300312D02*
X15763552Y-16309835D01*
X15763552Y-16309835D02*
X15773076Y-16328883D01*
X15773076Y-16328883D02*
X15773076Y-16347931D01*
X15773076Y-16347931D02*
X15677837Y-16366978D01*
X15944504Y-16433645D02*
X15944504Y-16233645D01*
X15944504Y-16424121D02*
X15925457Y-16433645D01*
X15925457Y-16433645D02*
X15887361Y-16433645D01*
X15887361Y-16433645D02*
X15868314Y-16424121D01*
X15868314Y-16424121D02*
X15858790Y-16414597D01*
X15858790Y-16414597D02*
X15849266Y-16395550D01*
X15849266Y-16395550D02*
X15849266Y-16338407D01*
X15849266Y-16338407D02*
X15858790Y-16319359D01*
X15858790Y-16319359D02*
X15868314Y-16309835D01*
X15868314Y-16309835D02*
X15887361Y-16300312D01*
X15887361Y-16300312D02*
X15925457Y-16300312D01*
X15925457Y-16300312D02*
X15944504Y-16309835D01*
X16020695Y-16509835D02*
X16030218Y-16500312D01*
X16030218Y-16500312D02*
X16049266Y-16471740D01*
X16049266Y-16471740D02*
X16058790Y-16452693D01*
X16058790Y-16452693D02*
X16068314Y-16424121D01*
X16068314Y-16424121D02*
X16077837Y-16376502D01*
X16077837Y-16376502D02*
X16077837Y-16338407D01*
X16077837Y-16338407D02*
X16068314Y-16290788D01*
X16068314Y-16290788D02*
X16058790Y-16262216D01*
X16058790Y-16262216D02*
X16049266Y-16243169D01*
X16049266Y-16243169D02*
X16030218Y-16214597D01*
X16030218Y-16214597D02*
X16020695Y-16205074D01*
X9164679Y-16562161D02*
X9164679Y-16762161D01*
X9064679Y-16662161D02*
X9264679Y-16662161D01*
X9506408Y-16553645D02*
X9630218Y-16553645D01*
X9630218Y-16553645D02*
X9563551Y-16629835D01*
X9563551Y-16629835D02*
X9592123Y-16629835D01*
X9592123Y-16629835D02*
X9611170Y-16639359D01*
X9611170Y-16639359D02*
X9620694Y-16648883D01*
X9620694Y-16648883D02*
X9630218Y-16667931D01*
X9630218Y-16667931D02*
X9630218Y-16715550D01*
X9630218Y-16715550D02*
X9620694Y-16734597D01*
X9620694Y-16734597D02*
X9611170Y-16744121D01*
X9611170Y-16744121D02*
X9592123Y-16753645D01*
X9592123Y-16753645D02*
X9534980Y-16753645D01*
X9534980Y-16753645D02*
X9515932Y-16744121D01*
X9515932Y-16744121D02*
X9506408Y-16734597D01*
X9715932Y-16734597D02*
X9725456Y-16744121D01*
X9725456Y-16744121D02*
X9715932Y-16753645D01*
X9715932Y-16753645D02*
X9706408Y-16744121D01*
X9706408Y-16744121D02*
X9715932Y-16734597D01*
X9715932Y-16734597D02*
X9715932Y-16753645D01*
X9801647Y-16572693D02*
X9811170Y-16563169D01*
X9811170Y-16563169D02*
X9830218Y-16553645D01*
X9830218Y-16553645D02*
X9877837Y-16553645D01*
X9877837Y-16553645D02*
X9896885Y-16563169D01*
X9896885Y-16563169D02*
X9906408Y-16572693D01*
X9906408Y-16572693D02*
X9915932Y-16591740D01*
X9915932Y-16591740D02*
X9915932Y-16610788D01*
X9915932Y-16610788D02*
X9906408Y-16639359D01*
X9906408Y-16639359D02*
X9792123Y-16753645D01*
X9792123Y-16753645D02*
X9915932Y-16753645D01*
X10096885Y-16553645D02*
X10001647Y-16553645D01*
X10001647Y-16553645D02*
X9992123Y-16648883D01*
X9992123Y-16648883D02*
X10001647Y-16639359D01*
X10001647Y-16639359D02*
X10020694Y-16629835D01*
X10020694Y-16629835D02*
X10068313Y-16629835D01*
X10068313Y-16629835D02*
X10087361Y-16639359D01*
X10087361Y-16639359D02*
X10096885Y-16648883D01*
X10096885Y-16648883D02*
X10106408Y-16667931D01*
X10106408Y-16667931D02*
X10106408Y-16715550D01*
X10106408Y-16715550D02*
X10096885Y-16734597D01*
X10096885Y-16734597D02*
X10087361Y-16744121D01*
X10087361Y-16744121D02*
X10068313Y-16753645D01*
X10068313Y-16753645D02*
X10020694Y-16753645D01*
X10020694Y-16753645D02*
X10001647Y-16744121D01*
X10001647Y-16744121D02*
X9992123Y-16734597D01*
X10230218Y-16553645D02*
X10249266Y-16553645D01*
X10249266Y-16553645D02*
X10268313Y-16563169D01*
X10268313Y-16563169D02*
X10277837Y-16572693D01*
X10277837Y-16572693D02*
X10287361Y-16591740D01*
X10287361Y-16591740D02*
X10296885Y-16629835D01*
X10296885Y-16629835D02*
X10296885Y-16677455D01*
X10296885Y-16677455D02*
X10287361Y-16715550D01*
X10287361Y-16715550D02*
X10277837Y-16734597D01*
X10277837Y-16734597D02*
X10268313Y-16744121D01*
X10268313Y-16744121D02*
X10249266Y-16753645D01*
X10249266Y-16753645D02*
X10230218Y-16753645D01*
X10230218Y-16753645D02*
X10211170Y-16744121D01*
X10211170Y-16744121D02*
X10201647Y-16734597D01*
X10201647Y-16734597D02*
X10192123Y-16715550D01*
X10192123Y-16715550D02*
X10182599Y-16677455D01*
X10182599Y-16677455D02*
X10182599Y-16629835D01*
X10182599Y-16629835D02*
X10192123Y-16591740D01*
X10192123Y-16591740D02*
X10201647Y-16572693D01*
X10201647Y-16572693D02*
X10211170Y-16563169D01*
X10211170Y-16563169D02*
X10230218Y-16553645D01*
X10382599Y-16753645D02*
X10382599Y-16620312D01*
X10382599Y-16639359D02*
X10392123Y-16629835D01*
X10392123Y-16629835D02*
X10411170Y-16620312D01*
X10411170Y-16620312D02*
X10439742Y-16620312D01*
X10439742Y-16620312D02*
X10458789Y-16629835D01*
X10458789Y-16629835D02*
X10468313Y-16648883D01*
X10468313Y-16648883D02*
X10468313Y-16753645D01*
X10468313Y-16648883D02*
X10477837Y-16629835D01*
X10477837Y-16629835D02*
X10496885Y-16620312D01*
X10496885Y-16620312D02*
X10525456Y-16620312D01*
X10525456Y-16620312D02*
X10544504Y-16629835D01*
X10544504Y-16629835D02*
X10554028Y-16648883D01*
X10554028Y-16648883D02*
X10554028Y-16753645D01*
X10649266Y-16753645D02*
X10649266Y-16620312D01*
X10649266Y-16639359D02*
X10658789Y-16629835D01*
X10658789Y-16629835D02*
X10677837Y-16620312D01*
X10677837Y-16620312D02*
X10706409Y-16620312D01*
X10706409Y-16620312D02*
X10725456Y-16629835D01*
X10725456Y-16629835D02*
X10734980Y-16648883D01*
X10734980Y-16648883D02*
X10734980Y-16753645D01*
X10734980Y-16648883D02*
X10744504Y-16629835D01*
X10744504Y-16629835D02*
X10763551Y-16620312D01*
X10763551Y-16620312D02*
X10792123Y-16620312D01*
X10792123Y-16620312D02*
X10811170Y-16629835D01*
X10811170Y-16629835D02*
X10820694Y-16648883D01*
X10820694Y-16648883D02*
X10820694Y-16753645D01*
X11211170Y-16544121D02*
X11039742Y-16801264D01*
X11468313Y-16553645D02*
X11487361Y-16553645D01*
X11487361Y-16553645D02*
X11506409Y-16563169D01*
X11506409Y-16563169D02*
X11515932Y-16572693D01*
X11515932Y-16572693D02*
X11525456Y-16591740D01*
X11525456Y-16591740D02*
X11534980Y-16629835D01*
X11534980Y-16629835D02*
X11534980Y-16677455D01*
X11534980Y-16677455D02*
X11525456Y-16715550D01*
X11525456Y-16715550D02*
X11515932Y-16734597D01*
X11515932Y-16734597D02*
X11506409Y-16744121D01*
X11506409Y-16744121D02*
X11487361Y-16753645D01*
X11487361Y-16753645D02*
X11468313Y-16753645D01*
X11468313Y-16753645D02*
X11449266Y-16744121D01*
X11449266Y-16744121D02*
X11439742Y-16734597D01*
X11439742Y-16734597D02*
X11430218Y-16715550D01*
X11430218Y-16715550D02*
X11420694Y-16677455D01*
X11420694Y-16677455D02*
X11420694Y-16629835D01*
X11420694Y-16629835D02*
X11430218Y-16591740D01*
X11430218Y-16591740D02*
X11439742Y-16572693D01*
X11439742Y-16572693D02*
X11449266Y-16563169D01*
X11449266Y-16563169D02*
X11468313Y-16553645D01*
X11620694Y-16734597D02*
X11630218Y-16744121D01*
X11630218Y-16744121D02*
X11620694Y-16753645D01*
X11620694Y-16753645D02*
X11611170Y-16744121D01*
X11611170Y-16744121D02*
X11620694Y-16734597D01*
X11620694Y-16734597D02*
X11620694Y-16753645D01*
X11820694Y-16753645D02*
X11706409Y-16753645D01*
X11763551Y-16753645D02*
X11763551Y-16553645D01*
X11763551Y-16553645D02*
X11744504Y-16582216D01*
X11744504Y-16582216D02*
X11725456Y-16601264D01*
X11725456Y-16601264D02*
X11706409Y-16610788D01*
X11896885Y-16572693D02*
X11906409Y-16563169D01*
X11906409Y-16563169D02*
X11925456Y-16553645D01*
X11925456Y-16553645D02*
X11973075Y-16553645D01*
X11973075Y-16553645D02*
X11992123Y-16563169D01*
X11992123Y-16563169D02*
X12001647Y-16572693D01*
X12001647Y-16572693D02*
X12011170Y-16591740D01*
X12011170Y-16591740D02*
X12011170Y-16610788D01*
X12011170Y-16610788D02*
X12001647Y-16639359D01*
X12001647Y-16639359D02*
X11887361Y-16753645D01*
X11887361Y-16753645D02*
X12011170Y-16753645D01*
X12125456Y-16639359D02*
X12106409Y-16629835D01*
X12106409Y-16629835D02*
X12096885Y-16620312D01*
X12096885Y-16620312D02*
X12087361Y-16601264D01*
X12087361Y-16601264D02*
X12087361Y-16591740D01*
X12087361Y-16591740D02*
X12096885Y-16572693D01*
X12096885Y-16572693D02*
X12106409Y-16563169D01*
X12106409Y-16563169D02*
X12125456Y-16553645D01*
X12125456Y-16553645D02*
X12163551Y-16553645D01*
X12163551Y-16553645D02*
X12182599Y-16563169D01*
X12182599Y-16563169D02*
X12192123Y-16572693D01*
X12192123Y-16572693D02*
X12201647Y-16591740D01*
X12201647Y-16591740D02*
X12201647Y-16601264D01*
X12201647Y-16601264D02*
X12192123Y-16620312D01*
X12192123Y-16620312D02*
X12182599Y-16629835D01*
X12182599Y-16629835D02*
X12163551Y-16639359D01*
X12163551Y-16639359D02*
X12125456Y-16639359D01*
X12125456Y-16639359D02*
X12106409Y-16648883D01*
X12106409Y-16648883D02*
X12096885Y-16658407D01*
X12096885Y-16658407D02*
X12087361Y-16677455D01*
X12087361Y-16677455D02*
X12087361Y-16715550D01*
X12087361Y-16715550D02*
X12096885Y-16734597D01*
X12096885Y-16734597D02*
X12106409Y-16744121D01*
X12106409Y-16744121D02*
X12125456Y-16753645D01*
X12125456Y-16753645D02*
X12163551Y-16753645D01*
X12163551Y-16753645D02*
X12182599Y-16744121D01*
X12182599Y-16744121D02*
X12192123Y-16734597D01*
X12192123Y-16734597D02*
X12201647Y-16715550D01*
X12201647Y-16715550D02*
X12201647Y-16677455D01*
X12201647Y-16677455D02*
X12192123Y-16658407D01*
X12192123Y-16658407D02*
X12182599Y-16648883D01*
X12182599Y-16648883D02*
X12163551Y-16639359D01*
X12325456Y-16553645D02*
X12344504Y-16553645D01*
X12344504Y-16553645D02*
X12363551Y-16563169D01*
X12363551Y-16563169D02*
X12373075Y-16572693D01*
X12373075Y-16572693D02*
X12382599Y-16591740D01*
X12382599Y-16591740D02*
X12392123Y-16629835D01*
X12392123Y-16629835D02*
X12392123Y-16677455D01*
X12392123Y-16677455D02*
X12382599Y-16715550D01*
X12382599Y-16715550D02*
X12373075Y-16734597D01*
X12373075Y-16734597D02*
X12363551Y-16744121D01*
X12363551Y-16744121D02*
X12344504Y-16753645D01*
X12344504Y-16753645D02*
X12325456Y-16753645D01*
X12325456Y-16753645D02*
X12306409Y-16744121D01*
X12306409Y-16744121D02*
X12296885Y-16734597D01*
X12296885Y-16734597D02*
X12287361Y-16715550D01*
X12287361Y-16715550D02*
X12277837Y-16677455D01*
X12277837Y-16677455D02*
X12277837Y-16629835D01*
X12277837Y-16629835D02*
X12287361Y-16591740D01*
X12287361Y-16591740D02*
X12296885Y-16572693D01*
X12296885Y-16572693D02*
X12306409Y-16563169D01*
X12306409Y-16563169D02*
X12325456Y-16553645D01*
X12468313Y-16553645D02*
X12468313Y-16591740D01*
X12544504Y-16553645D02*
X12544504Y-16591740D01*
X12839742Y-16829836D02*
X12830218Y-16820312D01*
X12830218Y-16820312D02*
X12811171Y-16791740D01*
X12811171Y-16791740D02*
X12801647Y-16772693D01*
X12801647Y-16772693D02*
X12792123Y-16744121D01*
X12792123Y-16744121D02*
X12782599Y-16696502D01*
X12782599Y-16696502D02*
X12782599Y-16658407D01*
X12782599Y-16658407D02*
X12792123Y-16610788D01*
X12792123Y-16610788D02*
X12801647Y-16582216D01*
X12801647Y-16582216D02*
X12811171Y-16563169D01*
X12811171Y-16563169D02*
X12830218Y-16534597D01*
X12830218Y-16534597D02*
X12839742Y-16525074D01*
X12944504Y-16639359D02*
X12925456Y-16629835D01*
X12925456Y-16629835D02*
X12915932Y-16620312D01*
X12915932Y-16620312D02*
X12906409Y-16601264D01*
X12906409Y-16601264D02*
X12906409Y-16591740D01*
X12906409Y-16591740D02*
X12915932Y-16572693D01*
X12915932Y-16572693D02*
X12925456Y-16563169D01*
X12925456Y-16563169D02*
X12944504Y-16553645D01*
X12944504Y-16553645D02*
X12982599Y-16553645D01*
X12982599Y-16553645D02*
X13001647Y-16563169D01*
X13001647Y-16563169D02*
X13011171Y-16572693D01*
X13011171Y-16572693D02*
X13020694Y-16591740D01*
X13020694Y-16591740D02*
X13020694Y-16601264D01*
X13020694Y-16601264D02*
X13011171Y-16620312D01*
X13011171Y-16620312D02*
X13001647Y-16629835D01*
X13001647Y-16629835D02*
X12982599Y-16639359D01*
X12982599Y-16639359D02*
X12944504Y-16639359D01*
X12944504Y-16639359D02*
X12925456Y-16648883D01*
X12925456Y-16648883D02*
X12915932Y-16658407D01*
X12915932Y-16658407D02*
X12906409Y-16677455D01*
X12906409Y-16677455D02*
X12906409Y-16715550D01*
X12906409Y-16715550D02*
X12915932Y-16734597D01*
X12915932Y-16734597D02*
X12925456Y-16744121D01*
X12925456Y-16744121D02*
X12944504Y-16753645D01*
X12944504Y-16753645D02*
X12982599Y-16753645D01*
X12982599Y-16753645D02*
X13001647Y-16744121D01*
X13001647Y-16744121D02*
X13011171Y-16734597D01*
X13011171Y-16734597D02*
X13020694Y-16715550D01*
X13020694Y-16715550D02*
X13020694Y-16677455D01*
X13020694Y-16677455D02*
X13011171Y-16658407D01*
X13011171Y-16658407D02*
X13001647Y-16648883D01*
X13001647Y-16648883D02*
X12982599Y-16639359D01*
X13258790Y-16753645D02*
X13258790Y-16553645D01*
X13344504Y-16753645D02*
X13344504Y-16648883D01*
X13344504Y-16648883D02*
X13334980Y-16629835D01*
X13334980Y-16629835D02*
X13315933Y-16620312D01*
X13315933Y-16620312D02*
X13287361Y-16620312D01*
X13287361Y-16620312D02*
X13268313Y-16629835D01*
X13268313Y-16629835D02*
X13258790Y-16639359D01*
X13468313Y-16753645D02*
X13449266Y-16744121D01*
X13449266Y-16744121D02*
X13439742Y-16734597D01*
X13439742Y-16734597D02*
X13430218Y-16715550D01*
X13430218Y-16715550D02*
X13430218Y-16658407D01*
X13430218Y-16658407D02*
X13439742Y-16639359D01*
X13439742Y-16639359D02*
X13449266Y-16629835D01*
X13449266Y-16629835D02*
X13468313Y-16620312D01*
X13468313Y-16620312D02*
X13496885Y-16620312D01*
X13496885Y-16620312D02*
X13515933Y-16629835D01*
X13515933Y-16629835D02*
X13525456Y-16639359D01*
X13525456Y-16639359D02*
X13534980Y-16658407D01*
X13534980Y-16658407D02*
X13534980Y-16715550D01*
X13534980Y-16715550D02*
X13525456Y-16734597D01*
X13525456Y-16734597D02*
X13515933Y-16744121D01*
X13515933Y-16744121D02*
X13496885Y-16753645D01*
X13496885Y-16753645D02*
X13468313Y-16753645D01*
X13649266Y-16753645D02*
X13630218Y-16744121D01*
X13630218Y-16744121D02*
X13620694Y-16725074D01*
X13620694Y-16725074D02*
X13620694Y-16553645D01*
X13801647Y-16744121D02*
X13782599Y-16753645D01*
X13782599Y-16753645D02*
X13744504Y-16753645D01*
X13744504Y-16753645D02*
X13725456Y-16744121D01*
X13725456Y-16744121D02*
X13715933Y-16725074D01*
X13715933Y-16725074D02*
X13715933Y-16648883D01*
X13715933Y-16648883D02*
X13725456Y-16629835D01*
X13725456Y-16629835D02*
X13744504Y-16620312D01*
X13744504Y-16620312D02*
X13782599Y-16620312D01*
X13782599Y-16620312D02*
X13801647Y-16629835D01*
X13801647Y-16629835D02*
X13811171Y-16648883D01*
X13811171Y-16648883D02*
X13811171Y-16667931D01*
X13811171Y-16667931D02*
X13715933Y-16686978D01*
X13887361Y-16744121D02*
X13906409Y-16753645D01*
X13906409Y-16753645D02*
X13944504Y-16753645D01*
X13944504Y-16753645D02*
X13963552Y-16744121D01*
X13963552Y-16744121D02*
X13973075Y-16725074D01*
X13973075Y-16725074D02*
X13973075Y-16715550D01*
X13973075Y-16715550D02*
X13963552Y-16696502D01*
X13963552Y-16696502D02*
X13944504Y-16686978D01*
X13944504Y-16686978D02*
X13915933Y-16686978D01*
X13915933Y-16686978D02*
X13896885Y-16677455D01*
X13896885Y-16677455D02*
X13887361Y-16658407D01*
X13887361Y-16658407D02*
X13887361Y-16648883D01*
X13887361Y-16648883D02*
X13896885Y-16629835D01*
X13896885Y-16629835D02*
X13915933Y-16620312D01*
X13915933Y-16620312D02*
X13944504Y-16620312D01*
X13944504Y-16620312D02*
X13963552Y-16629835D01*
X14039742Y-16829836D02*
X14049266Y-16820312D01*
X14049266Y-16820312D02*
X14068314Y-16791740D01*
X14068314Y-16791740D02*
X14077837Y-16772693D01*
X14077837Y-16772693D02*
X14087361Y-16744121D01*
X14087361Y-16744121D02*
X14096885Y-16696502D01*
X14096885Y-16696502D02*
X14096885Y-16658407D01*
X14096885Y-16658407D02*
X14087361Y-16610788D01*
X14087361Y-16610788D02*
X14077837Y-16582216D01*
X14077837Y-16582216D02*
X14068314Y-16563169D01*
X14068314Y-16563169D02*
X14049266Y-16534597D01*
X14049266Y-16534597D02*
X14039742Y-16525074D01*
X14401647Y-16829836D02*
X14392123Y-16820312D01*
X14392123Y-16820312D02*
X14373075Y-16791740D01*
X14373075Y-16791740D02*
X14363552Y-16772693D01*
X14363552Y-16772693D02*
X14354028Y-16744121D01*
X14354028Y-16744121D02*
X14344504Y-16696502D01*
X14344504Y-16696502D02*
X14344504Y-16658407D01*
X14344504Y-16658407D02*
X14354028Y-16610788D01*
X14354028Y-16610788D02*
X14363552Y-16582216D01*
X14363552Y-16582216D02*
X14373075Y-16563169D01*
X14373075Y-16563169D02*
X14392123Y-16534597D01*
X14392123Y-16534597D02*
X14401647Y-16525074D01*
X14477837Y-16620312D02*
X14477837Y-16753645D01*
X14477837Y-16639359D02*
X14487361Y-16629835D01*
X14487361Y-16629835D02*
X14506409Y-16620312D01*
X14506409Y-16620312D02*
X14534980Y-16620312D01*
X14534980Y-16620312D02*
X14554028Y-16629835D01*
X14554028Y-16629835D02*
X14563552Y-16648883D01*
X14563552Y-16648883D02*
X14563552Y-16753645D01*
X14687361Y-16753645D02*
X14668314Y-16744121D01*
X14668314Y-16744121D02*
X14658790Y-16734597D01*
X14658790Y-16734597D02*
X14649266Y-16715550D01*
X14649266Y-16715550D02*
X14649266Y-16658407D01*
X14649266Y-16658407D02*
X14658790Y-16639359D01*
X14658790Y-16639359D02*
X14668314Y-16629835D01*
X14668314Y-16629835D02*
X14687361Y-16620312D01*
X14687361Y-16620312D02*
X14715933Y-16620312D01*
X14715933Y-16620312D02*
X14734980Y-16629835D01*
X14734980Y-16629835D02*
X14744504Y-16639359D01*
X14744504Y-16639359D02*
X14754028Y-16658407D01*
X14754028Y-16658407D02*
X14754028Y-16715550D01*
X14754028Y-16715550D02*
X14744504Y-16734597D01*
X14744504Y-16734597D02*
X14734980Y-16744121D01*
X14734980Y-16744121D02*
X14715933Y-16753645D01*
X14715933Y-16753645D02*
X14687361Y-16753645D01*
X14811171Y-16620312D02*
X14887361Y-16620312D01*
X14839742Y-16553645D02*
X14839742Y-16725074D01*
X14839742Y-16725074D02*
X14849266Y-16744121D01*
X14849266Y-16744121D02*
X14868314Y-16753645D01*
X14868314Y-16753645D02*
X14887361Y-16753645D01*
X15106409Y-16620312D02*
X15106409Y-16820312D01*
X15106409Y-16629835D02*
X15125456Y-16620312D01*
X15125456Y-16620312D02*
X15163552Y-16620312D01*
X15163552Y-16620312D02*
X15182599Y-16629835D01*
X15182599Y-16629835D02*
X15192123Y-16639359D01*
X15192123Y-16639359D02*
X15201647Y-16658407D01*
X15201647Y-16658407D02*
X15201647Y-16715550D01*
X15201647Y-16715550D02*
X15192123Y-16734597D01*
X15192123Y-16734597D02*
X15182599Y-16744121D01*
X15182599Y-16744121D02*
X15163552Y-16753645D01*
X15163552Y-16753645D02*
X15125456Y-16753645D01*
X15125456Y-16753645D02*
X15106409Y-16744121D01*
X15315933Y-16753645D02*
X15296885Y-16744121D01*
X15296885Y-16744121D02*
X15287361Y-16725074D01*
X15287361Y-16725074D02*
X15287361Y-16553645D01*
X15477837Y-16753645D02*
X15477837Y-16648883D01*
X15477837Y-16648883D02*
X15468314Y-16629835D01*
X15468314Y-16629835D02*
X15449266Y-16620312D01*
X15449266Y-16620312D02*
X15411171Y-16620312D01*
X15411171Y-16620312D02*
X15392123Y-16629835D01*
X15477837Y-16744121D02*
X15458790Y-16753645D01*
X15458790Y-16753645D02*
X15411171Y-16753645D01*
X15411171Y-16753645D02*
X15392123Y-16744121D01*
X15392123Y-16744121D02*
X15382599Y-16725074D01*
X15382599Y-16725074D02*
X15382599Y-16706026D01*
X15382599Y-16706026D02*
X15392123Y-16686978D01*
X15392123Y-16686978D02*
X15411171Y-16677455D01*
X15411171Y-16677455D02*
X15458790Y-16677455D01*
X15458790Y-16677455D02*
X15477837Y-16667931D01*
X15544504Y-16620312D02*
X15620695Y-16620312D01*
X15573076Y-16553645D02*
X15573076Y-16725074D01*
X15573076Y-16725074D02*
X15582599Y-16744121D01*
X15582599Y-16744121D02*
X15601647Y-16753645D01*
X15601647Y-16753645D02*
X15620695Y-16753645D01*
X15763552Y-16744121D02*
X15744504Y-16753645D01*
X15744504Y-16753645D02*
X15706409Y-16753645D01*
X15706409Y-16753645D02*
X15687361Y-16744121D01*
X15687361Y-16744121D02*
X15677837Y-16725074D01*
X15677837Y-16725074D02*
X15677837Y-16648883D01*
X15677837Y-16648883D02*
X15687361Y-16629835D01*
X15687361Y-16629835D02*
X15706409Y-16620312D01*
X15706409Y-16620312D02*
X15744504Y-16620312D01*
X15744504Y-16620312D02*
X15763552Y-16629835D01*
X15763552Y-16629835D02*
X15773076Y-16648883D01*
X15773076Y-16648883D02*
X15773076Y-16667931D01*
X15773076Y-16667931D02*
X15677837Y-16686978D01*
X15944504Y-16753645D02*
X15944504Y-16553645D01*
X15944504Y-16744121D02*
X15925457Y-16753645D01*
X15925457Y-16753645D02*
X15887361Y-16753645D01*
X15887361Y-16753645D02*
X15868314Y-16744121D01*
X15868314Y-16744121D02*
X15858790Y-16734597D01*
X15858790Y-16734597D02*
X15849266Y-16715550D01*
X15849266Y-16715550D02*
X15849266Y-16658407D01*
X15849266Y-16658407D02*
X15858790Y-16639359D01*
X15858790Y-16639359D02*
X15868314Y-16629835D01*
X15868314Y-16629835D02*
X15887361Y-16620312D01*
X15887361Y-16620312D02*
X15925457Y-16620312D01*
X15925457Y-16620312D02*
X15944504Y-16629835D01*
X16020695Y-16829836D02*
X16030218Y-16820312D01*
X16030218Y-16820312D02*
X16049266Y-16791740D01*
X16049266Y-16791740D02*
X16058790Y-16772693D01*
X16058790Y-16772693D02*
X16068314Y-16744121D01*
X16068314Y-16744121D02*
X16077837Y-16696502D01*
X16077837Y-16696502D02*
X16077837Y-16658407D01*
X16077837Y-16658407D02*
X16068314Y-16610788D01*
X16068314Y-16610788D02*
X16058790Y-16582216D01*
X16058790Y-16582216D02*
X16049266Y-16563169D01*
X16049266Y-16563169D02*
X16030218Y-16534597D01*
X16030218Y-16534597D02*
X16020695Y-16525074D01*
M02*
