%TF.GenerationSoftware,KiCad,Pcbnew,8.0.6*%
%TF.CreationDate,2025-02-10T15:47:37-08:00*%
%TF.ProjectId,Urban MC,55726261-6e20-44d4-932e-6b696361645f,rev?*%
%TF.SameCoordinates,Original*%
%TF.FileFunction,Drillmap*%
%TF.FilePolarity,Positive*%
%FSLAX45Y45*%
G04 Gerber Fmt 4.5, Leading zero omitted, Abs format (unit mm)*
G04 Created by KiCad (PCBNEW 8.0.6) date 2025-02-10 15:47:37*
%MOMM*%
%LPD*%
G01*
G04 APERTURE LIST*
%ADD10C,0.100000*%
%ADD11C,0.200000*%
%ADD12C,0.299999*%
%ADD13C,0.320000*%
%ADD14C,0.325000*%
G04 APERTURE END LIST*
D10*
X25908000Y-14935200D02*
X25906339Y-3287235D01*
X25474539Y-2855435D02*
G75*
G02*
X25906345Y-3287235I1J-431805D01*
G01*
X9269679Y-3288252D02*
X9271000Y-14935200D01*
X9702800Y-15367000D02*
G75*
G02*
X9271000Y-14935200I0J431800D01*
G01*
X25474539Y-2855435D02*
X9701479Y-2856452D01*
X9702800Y-15367000D02*
X25476200Y-15367000D01*
X9269679Y-3288252D02*
G75*
G02*
X9701479Y-2856449I431801J2D01*
G01*
X25908000Y-14935200D02*
G75*
G02*
X25476200Y-15367000I-431800J0D01*
G01*
D11*
D12*
X9603600Y-9209900D02*
X9903600Y-9509900D01*
X9903600Y-9209900D02*
X9603600Y-9509900D01*
X9603600Y-12346800D02*
X9903600Y-12646800D01*
X9903600Y-12346800D02*
X9603600Y-12646800D01*
X12321643Y-3190579D02*
X12621642Y-3490579D01*
X12621642Y-3190579D02*
X12321643Y-3490579D01*
X13570951Y-3191924D02*
X13870950Y-3491924D01*
X13870950Y-3191924D02*
X13570951Y-3491924D01*
D13*
X9862800Y-3289300D02*
G75*
G02*
X9542800Y-3289300I-160000J0D01*
G01*
X9542800Y-3289300D02*
G75*
G02*
X9862800Y-3289300I160000J0D01*
G01*
X9862800Y-14935200D02*
G75*
G02*
X9542800Y-14935200I-160000J0D01*
G01*
X9542800Y-14935200D02*
G75*
G02*
X9862800Y-14935200I160000J0D01*
G01*
X25610800Y-3302000D02*
G75*
G02*
X25290800Y-3302000I-160000J0D01*
G01*
X25290800Y-3302000D02*
G75*
G02*
X25610800Y-3302000I160000J0D01*
G01*
X25610800Y-14935200D02*
G75*
G02*
X25290800Y-14935200I-160000J0D01*
G01*
X25290800Y-14935200D02*
G75*
G02*
X25610800Y-14935200I160000J0D01*
G01*
D14*
X17668700Y-3994900D02*
X17668700Y-4319900D01*
X17506200Y-4157400D02*
X17831200Y-4157400D01*
X17668700Y-8820900D02*
X17668700Y-9145900D01*
X17506200Y-8983400D02*
X17831200Y-8983400D01*
X17750600Y-9911225D02*
X17750600Y-10236225D01*
X17588100Y-10073725D02*
X17913100Y-10073725D01*
X17750600Y-14737225D02*
X17750600Y-15062225D01*
X17588100Y-14899725D02*
X17913100Y-14899725D01*
X22748700Y-3994900D02*
X22748700Y-4319900D01*
X22586200Y-4157400D02*
X22911200Y-4157400D01*
X22748700Y-8820900D02*
X22748700Y-9145900D01*
X22586200Y-8983400D02*
X22911200Y-8983400D01*
X22830600Y-9911225D02*
X22830600Y-10236225D01*
X22668100Y-10073725D02*
X22993100Y-10073725D01*
X22830600Y-14737225D02*
X22830600Y-15062225D01*
X22668100Y-14899725D02*
X22993100Y-14899725D01*
D11*
X9525456Y-15683484D02*
X9525456Y-15483484D01*
X9525456Y-15483484D02*
X9573075Y-15483484D01*
X9573075Y-15483484D02*
X9601647Y-15493008D01*
X9601647Y-15493008D02*
X9620694Y-15512055D01*
X9620694Y-15512055D02*
X9630218Y-15531103D01*
X9630218Y-15531103D02*
X9639742Y-15569198D01*
X9639742Y-15569198D02*
X9639742Y-15597769D01*
X9639742Y-15597769D02*
X9630218Y-15635865D01*
X9630218Y-15635865D02*
X9620694Y-15654912D01*
X9620694Y-15654912D02*
X9601647Y-15673960D01*
X9601647Y-15673960D02*
X9573075Y-15683484D01*
X9573075Y-15683484D02*
X9525456Y-15683484D01*
X9725456Y-15683484D02*
X9725456Y-15550150D01*
X9725456Y-15588246D02*
X9734980Y-15569198D01*
X9734980Y-15569198D02*
X9744504Y-15559674D01*
X9744504Y-15559674D02*
X9763551Y-15550150D01*
X9763551Y-15550150D02*
X9782599Y-15550150D01*
X9849266Y-15683484D02*
X9849266Y-15550150D01*
X9849266Y-15483484D02*
X9839742Y-15493008D01*
X9839742Y-15493008D02*
X9849266Y-15502531D01*
X9849266Y-15502531D02*
X9858789Y-15493008D01*
X9858789Y-15493008D02*
X9849266Y-15483484D01*
X9849266Y-15483484D02*
X9849266Y-15502531D01*
X9973075Y-15683484D02*
X9954027Y-15673960D01*
X9954027Y-15673960D02*
X9944504Y-15654912D01*
X9944504Y-15654912D02*
X9944504Y-15483484D01*
X10077837Y-15683484D02*
X10058789Y-15673960D01*
X10058789Y-15673960D02*
X10049266Y-15654912D01*
X10049266Y-15654912D02*
X10049266Y-15483484D01*
X10306408Y-15683484D02*
X10306408Y-15483484D01*
X10306408Y-15483484D02*
X10373075Y-15626341D01*
X10373075Y-15626341D02*
X10439742Y-15483484D01*
X10439742Y-15483484D02*
X10439742Y-15683484D01*
X10620694Y-15683484D02*
X10620694Y-15578722D01*
X10620694Y-15578722D02*
X10611170Y-15559674D01*
X10611170Y-15559674D02*
X10592123Y-15550150D01*
X10592123Y-15550150D02*
X10554027Y-15550150D01*
X10554027Y-15550150D02*
X10534980Y-15559674D01*
X10620694Y-15673960D02*
X10601647Y-15683484D01*
X10601647Y-15683484D02*
X10554027Y-15683484D01*
X10554027Y-15683484D02*
X10534980Y-15673960D01*
X10534980Y-15673960D02*
X10525456Y-15654912D01*
X10525456Y-15654912D02*
X10525456Y-15635865D01*
X10525456Y-15635865D02*
X10534980Y-15616817D01*
X10534980Y-15616817D02*
X10554027Y-15607293D01*
X10554027Y-15607293D02*
X10601647Y-15607293D01*
X10601647Y-15607293D02*
X10620694Y-15597769D01*
X10715932Y-15550150D02*
X10715932Y-15750150D01*
X10715932Y-15559674D02*
X10734980Y-15550150D01*
X10734980Y-15550150D02*
X10773075Y-15550150D01*
X10773075Y-15550150D02*
X10792123Y-15559674D01*
X10792123Y-15559674D02*
X10801647Y-15569198D01*
X10801647Y-15569198D02*
X10811170Y-15588246D01*
X10811170Y-15588246D02*
X10811170Y-15645388D01*
X10811170Y-15645388D02*
X10801647Y-15664436D01*
X10801647Y-15664436D02*
X10792123Y-15673960D01*
X10792123Y-15673960D02*
X10773075Y-15683484D01*
X10773075Y-15683484D02*
X10734980Y-15683484D01*
X10734980Y-15683484D02*
X10715932Y-15673960D01*
X10896885Y-15664436D02*
X10906408Y-15673960D01*
X10906408Y-15673960D02*
X10896885Y-15683484D01*
X10896885Y-15683484D02*
X10887361Y-15673960D01*
X10887361Y-15673960D02*
X10896885Y-15664436D01*
X10896885Y-15664436D02*
X10896885Y-15683484D01*
X10896885Y-15559674D02*
X10906408Y-15569198D01*
X10906408Y-15569198D02*
X10896885Y-15578722D01*
X10896885Y-15578722D02*
X10887361Y-15569198D01*
X10887361Y-15569198D02*
X10896885Y-15559674D01*
X10896885Y-15559674D02*
X10896885Y-15578722D01*
X9064679Y-15912000D02*
X9264679Y-16112000D01*
X9264679Y-15912000D02*
X9064679Y-16112000D01*
X9506408Y-15903484D02*
X9630218Y-15903484D01*
X9630218Y-15903484D02*
X9563551Y-15979674D01*
X9563551Y-15979674D02*
X9592123Y-15979674D01*
X9592123Y-15979674D02*
X9611170Y-15989198D01*
X9611170Y-15989198D02*
X9620694Y-15998722D01*
X9620694Y-15998722D02*
X9630218Y-16017769D01*
X9630218Y-16017769D02*
X9630218Y-16065388D01*
X9630218Y-16065388D02*
X9620694Y-16084436D01*
X9620694Y-16084436D02*
X9611170Y-16093960D01*
X9611170Y-16093960D02*
X9592123Y-16103484D01*
X9592123Y-16103484D02*
X9534980Y-16103484D01*
X9534980Y-16103484D02*
X9515932Y-16093960D01*
X9515932Y-16093960D02*
X9506408Y-16084436D01*
X9715932Y-16084436D02*
X9725456Y-16093960D01*
X9725456Y-16093960D02*
X9715932Y-16103484D01*
X9715932Y-16103484D02*
X9706408Y-16093960D01*
X9706408Y-16093960D02*
X9715932Y-16084436D01*
X9715932Y-16084436D02*
X9715932Y-16103484D01*
X9849266Y-15903484D02*
X9868313Y-15903484D01*
X9868313Y-15903484D02*
X9887361Y-15913008D01*
X9887361Y-15913008D02*
X9896885Y-15922531D01*
X9896885Y-15922531D02*
X9906408Y-15941579D01*
X9906408Y-15941579D02*
X9915932Y-15979674D01*
X9915932Y-15979674D02*
X9915932Y-16027293D01*
X9915932Y-16027293D02*
X9906408Y-16065388D01*
X9906408Y-16065388D02*
X9896885Y-16084436D01*
X9896885Y-16084436D02*
X9887361Y-16093960D01*
X9887361Y-16093960D02*
X9868313Y-16103484D01*
X9868313Y-16103484D02*
X9849266Y-16103484D01*
X9849266Y-16103484D02*
X9830218Y-16093960D01*
X9830218Y-16093960D02*
X9820694Y-16084436D01*
X9820694Y-16084436D02*
X9811170Y-16065388D01*
X9811170Y-16065388D02*
X9801647Y-16027293D01*
X9801647Y-16027293D02*
X9801647Y-15979674D01*
X9801647Y-15979674D02*
X9811170Y-15941579D01*
X9811170Y-15941579D02*
X9820694Y-15922531D01*
X9820694Y-15922531D02*
X9830218Y-15913008D01*
X9830218Y-15913008D02*
X9849266Y-15903484D01*
X10039742Y-15903484D02*
X10058789Y-15903484D01*
X10058789Y-15903484D02*
X10077837Y-15913008D01*
X10077837Y-15913008D02*
X10087361Y-15922531D01*
X10087361Y-15922531D02*
X10096885Y-15941579D01*
X10096885Y-15941579D02*
X10106408Y-15979674D01*
X10106408Y-15979674D02*
X10106408Y-16027293D01*
X10106408Y-16027293D02*
X10096885Y-16065388D01*
X10096885Y-16065388D02*
X10087361Y-16084436D01*
X10087361Y-16084436D02*
X10077837Y-16093960D01*
X10077837Y-16093960D02*
X10058789Y-16103484D01*
X10058789Y-16103484D02*
X10039742Y-16103484D01*
X10039742Y-16103484D02*
X10020694Y-16093960D01*
X10020694Y-16093960D02*
X10011170Y-16084436D01*
X10011170Y-16084436D02*
X10001647Y-16065388D01*
X10001647Y-16065388D02*
X9992123Y-16027293D01*
X9992123Y-16027293D02*
X9992123Y-15979674D01*
X9992123Y-15979674D02*
X10001647Y-15941579D01*
X10001647Y-15941579D02*
X10011170Y-15922531D01*
X10011170Y-15922531D02*
X10020694Y-15913008D01*
X10020694Y-15913008D02*
X10039742Y-15903484D01*
X10230218Y-15903484D02*
X10249266Y-15903484D01*
X10249266Y-15903484D02*
X10268313Y-15913008D01*
X10268313Y-15913008D02*
X10277837Y-15922531D01*
X10277837Y-15922531D02*
X10287361Y-15941579D01*
X10287361Y-15941579D02*
X10296885Y-15979674D01*
X10296885Y-15979674D02*
X10296885Y-16027293D01*
X10296885Y-16027293D02*
X10287361Y-16065388D01*
X10287361Y-16065388D02*
X10277837Y-16084436D01*
X10277837Y-16084436D02*
X10268313Y-16093960D01*
X10268313Y-16093960D02*
X10249266Y-16103484D01*
X10249266Y-16103484D02*
X10230218Y-16103484D01*
X10230218Y-16103484D02*
X10211170Y-16093960D01*
X10211170Y-16093960D02*
X10201647Y-16084436D01*
X10201647Y-16084436D02*
X10192123Y-16065388D01*
X10192123Y-16065388D02*
X10182599Y-16027293D01*
X10182599Y-16027293D02*
X10182599Y-15979674D01*
X10182599Y-15979674D02*
X10192123Y-15941579D01*
X10192123Y-15941579D02*
X10201647Y-15922531D01*
X10201647Y-15922531D02*
X10211170Y-15913008D01*
X10211170Y-15913008D02*
X10230218Y-15903484D01*
X10382599Y-16103484D02*
X10382599Y-15970150D01*
X10382599Y-15989198D02*
X10392123Y-15979674D01*
X10392123Y-15979674D02*
X10411170Y-15970150D01*
X10411170Y-15970150D02*
X10439742Y-15970150D01*
X10439742Y-15970150D02*
X10458789Y-15979674D01*
X10458789Y-15979674D02*
X10468313Y-15998722D01*
X10468313Y-15998722D02*
X10468313Y-16103484D01*
X10468313Y-15998722D02*
X10477837Y-15979674D01*
X10477837Y-15979674D02*
X10496885Y-15970150D01*
X10496885Y-15970150D02*
X10525456Y-15970150D01*
X10525456Y-15970150D02*
X10544504Y-15979674D01*
X10544504Y-15979674D02*
X10554028Y-15998722D01*
X10554028Y-15998722D02*
X10554028Y-16103484D01*
X10649266Y-16103484D02*
X10649266Y-15970150D01*
X10649266Y-15989198D02*
X10658789Y-15979674D01*
X10658789Y-15979674D02*
X10677837Y-15970150D01*
X10677837Y-15970150D02*
X10706409Y-15970150D01*
X10706409Y-15970150D02*
X10725456Y-15979674D01*
X10725456Y-15979674D02*
X10734980Y-15998722D01*
X10734980Y-15998722D02*
X10734980Y-16103484D01*
X10734980Y-15998722D02*
X10744504Y-15979674D01*
X10744504Y-15979674D02*
X10763551Y-15970150D01*
X10763551Y-15970150D02*
X10792123Y-15970150D01*
X10792123Y-15970150D02*
X10811170Y-15979674D01*
X10811170Y-15979674D02*
X10820694Y-15998722D01*
X10820694Y-15998722D02*
X10820694Y-16103484D01*
X11211170Y-15893960D02*
X11039742Y-16151103D01*
X11468313Y-15903484D02*
X11487361Y-15903484D01*
X11487361Y-15903484D02*
X11506409Y-15913008D01*
X11506409Y-15913008D02*
X11515932Y-15922531D01*
X11515932Y-15922531D02*
X11525456Y-15941579D01*
X11525456Y-15941579D02*
X11534980Y-15979674D01*
X11534980Y-15979674D02*
X11534980Y-16027293D01*
X11534980Y-16027293D02*
X11525456Y-16065388D01*
X11525456Y-16065388D02*
X11515932Y-16084436D01*
X11515932Y-16084436D02*
X11506409Y-16093960D01*
X11506409Y-16093960D02*
X11487361Y-16103484D01*
X11487361Y-16103484D02*
X11468313Y-16103484D01*
X11468313Y-16103484D02*
X11449266Y-16093960D01*
X11449266Y-16093960D02*
X11439742Y-16084436D01*
X11439742Y-16084436D02*
X11430218Y-16065388D01*
X11430218Y-16065388D02*
X11420694Y-16027293D01*
X11420694Y-16027293D02*
X11420694Y-15979674D01*
X11420694Y-15979674D02*
X11430218Y-15941579D01*
X11430218Y-15941579D02*
X11439742Y-15922531D01*
X11439742Y-15922531D02*
X11449266Y-15913008D01*
X11449266Y-15913008D02*
X11468313Y-15903484D01*
X11620694Y-16084436D02*
X11630218Y-16093960D01*
X11630218Y-16093960D02*
X11620694Y-16103484D01*
X11620694Y-16103484D02*
X11611170Y-16093960D01*
X11611170Y-16093960D02*
X11620694Y-16084436D01*
X11620694Y-16084436D02*
X11620694Y-16103484D01*
X11820694Y-16103484D02*
X11706409Y-16103484D01*
X11763551Y-16103484D02*
X11763551Y-15903484D01*
X11763551Y-15903484D02*
X11744504Y-15932055D01*
X11744504Y-15932055D02*
X11725456Y-15951103D01*
X11725456Y-15951103D02*
X11706409Y-15960627D01*
X12011170Y-16103484D02*
X11896885Y-16103484D01*
X11954028Y-16103484D02*
X11954028Y-15903484D01*
X11954028Y-15903484D02*
X11934980Y-15932055D01*
X11934980Y-15932055D02*
X11915932Y-15951103D01*
X11915932Y-15951103D02*
X11896885Y-15960627D01*
X12125456Y-15989198D02*
X12106409Y-15979674D01*
X12106409Y-15979674D02*
X12096885Y-15970150D01*
X12096885Y-15970150D02*
X12087361Y-15951103D01*
X12087361Y-15951103D02*
X12087361Y-15941579D01*
X12087361Y-15941579D02*
X12096885Y-15922531D01*
X12096885Y-15922531D02*
X12106409Y-15913008D01*
X12106409Y-15913008D02*
X12125456Y-15903484D01*
X12125456Y-15903484D02*
X12163551Y-15903484D01*
X12163551Y-15903484D02*
X12182599Y-15913008D01*
X12182599Y-15913008D02*
X12192123Y-15922531D01*
X12192123Y-15922531D02*
X12201647Y-15941579D01*
X12201647Y-15941579D02*
X12201647Y-15951103D01*
X12201647Y-15951103D02*
X12192123Y-15970150D01*
X12192123Y-15970150D02*
X12182599Y-15979674D01*
X12182599Y-15979674D02*
X12163551Y-15989198D01*
X12163551Y-15989198D02*
X12125456Y-15989198D01*
X12125456Y-15989198D02*
X12106409Y-15998722D01*
X12106409Y-15998722D02*
X12096885Y-16008246D01*
X12096885Y-16008246D02*
X12087361Y-16027293D01*
X12087361Y-16027293D02*
X12087361Y-16065388D01*
X12087361Y-16065388D02*
X12096885Y-16084436D01*
X12096885Y-16084436D02*
X12106409Y-16093960D01*
X12106409Y-16093960D02*
X12125456Y-16103484D01*
X12125456Y-16103484D02*
X12163551Y-16103484D01*
X12163551Y-16103484D02*
X12182599Y-16093960D01*
X12182599Y-16093960D02*
X12192123Y-16084436D01*
X12192123Y-16084436D02*
X12201647Y-16065388D01*
X12201647Y-16065388D02*
X12201647Y-16027293D01*
X12201647Y-16027293D02*
X12192123Y-16008246D01*
X12192123Y-16008246D02*
X12182599Y-15998722D01*
X12182599Y-15998722D02*
X12163551Y-15989198D01*
X12392123Y-16103484D02*
X12277837Y-16103484D01*
X12334980Y-16103484D02*
X12334980Y-15903484D01*
X12334980Y-15903484D02*
X12315932Y-15932055D01*
X12315932Y-15932055D02*
X12296885Y-15951103D01*
X12296885Y-15951103D02*
X12277837Y-15960627D01*
X12468313Y-15903484D02*
X12468313Y-15941579D01*
X12544504Y-15903484D02*
X12544504Y-15941579D01*
X12839742Y-16179674D02*
X12830218Y-16170150D01*
X12830218Y-16170150D02*
X12811171Y-16141579D01*
X12811171Y-16141579D02*
X12801647Y-16122531D01*
X12801647Y-16122531D02*
X12792123Y-16093960D01*
X12792123Y-16093960D02*
X12782599Y-16046341D01*
X12782599Y-16046341D02*
X12782599Y-16008246D01*
X12782599Y-16008246D02*
X12792123Y-15960627D01*
X12792123Y-15960627D02*
X12801647Y-15932055D01*
X12801647Y-15932055D02*
X12811171Y-15913008D01*
X12811171Y-15913008D02*
X12830218Y-15884436D01*
X12830218Y-15884436D02*
X12839742Y-15874912D01*
X13001647Y-15970150D02*
X13001647Y-16103484D01*
X12954028Y-15893960D02*
X12906409Y-16036817D01*
X12906409Y-16036817D02*
X13030218Y-16036817D01*
X13258790Y-16103484D02*
X13258790Y-15903484D01*
X13344504Y-16103484D02*
X13344504Y-15998722D01*
X13344504Y-15998722D02*
X13334980Y-15979674D01*
X13334980Y-15979674D02*
X13315933Y-15970150D01*
X13315933Y-15970150D02*
X13287361Y-15970150D01*
X13287361Y-15970150D02*
X13268313Y-15979674D01*
X13268313Y-15979674D02*
X13258790Y-15989198D01*
X13468313Y-16103484D02*
X13449266Y-16093960D01*
X13449266Y-16093960D02*
X13439742Y-16084436D01*
X13439742Y-16084436D02*
X13430218Y-16065388D01*
X13430218Y-16065388D02*
X13430218Y-16008246D01*
X13430218Y-16008246D02*
X13439742Y-15989198D01*
X13439742Y-15989198D02*
X13449266Y-15979674D01*
X13449266Y-15979674D02*
X13468313Y-15970150D01*
X13468313Y-15970150D02*
X13496885Y-15970150D01*
X13496885Y-15970150D02*
X13515933Y-15979674D01*
X13515933Y-15979674D02*
X13525456Y-15989198D01*
X13525456Y-15989198D02*
X13534980Y-16008246D01*
X13534980Y-16008246D02*
X13534980Y-16065388D01*
X13534980Y-16065388D02*
X13525456Y-16084436D01*
X13525456Y-16084436D02*
X13515933Y-16093960D01*
X13515933Y-16093960D02*
X13496885Y-16103484D01*
X13496885Y-16103484D02*
X13468313Y-16103484D01*
X13649266Y-16103484D02*
X13630218Y-16093960D01*
X13630218Y-16093960D02*
X13620694Y-16074912D01*
X13620694Y-16074912D02*
X13620694Y-15903484D01*
X13801647Y-16093960D02*
X13782599Y-16103484D01*
X13782599Y-16103484D02*
X13744504Y-16103484D01*
X13744504Y-16103484D02*
X13725456Y-16093960D01*
X13725456Y-16093960D02*
X13715933Y-16074912D01*
X13715933Y-16074912D02*
X13715933Y-15998722D01*
X13715933Y-15998722D02*
X13725456Y-15979674D01*
X13725456Y-15979674D02*
X13744504Y-15970150D01*
X13744504Y-15970150D02*
X13782599Y-15970150D01*
X13782599Y-15970150D02*
X13801647Y-15979674D01*
X13801647Y-15979674D02*
X13811171Y-15998722D01*
X13811171Y-15998722D02*
X13811171Y-16017769D01*
X13811171Y-16017769D02*
X13715933Y-16036817D01*
X13887361Y-16093960D02*
X13906409Y-16103484D01*
X13906409Y-16103484D02*
X13944504Y-16103484D01*
X13944504Y-16103484D02*
X13963552Y-16093960D01*
X13963552Y-16093960D02*
X13973075Y-16074912D01*
X13973075Y-16074912D02*
X13973075Y-16065388D01*
X13973075Y-16065388D02*
X13963552Y-16046341D01*
X13963552Y-16046341D02*
X13944504Y-16036817D01*
X13944504Y-16036817D02*
X13915933Y-16036817D01*
X13915933Y-16036817D02*
X13896885Y-16027293D01*
X13896885Y-16027293D02*
X13887361Y-16008246D01*
X13887361Y-16008246D02*
X13887361Y-15998722D01*
X13887361Y-15998722D02*
X13896885Y-15979674D01*
X13896885Y-15979674D02*
X13915933Y-15970150D01*
X13915933Y-15970150D02*
X13944504Y-15970150D01*
X13944504Y-15970150D02*
X13963552Y-15979674D01*
X14039742Y-16179674D02*
X14049266Y-16170150D01*
X14049266Y-16170150D02*
X14068314Y-16141579D01*
X14068314Y-16141579D02*
X14077837Y-16122531D01*
X14077837Y-16122531D02*
X14087361Y-16093960D01*
X14087361Y-16093960D02*
X14096885Y-16046341D01*
X14096885Y-16046341D02*
X14096885Y-16008246D01*
X14096885Y-16008246D02*
X14087361Y-15960627D01*
X14087361Y-15960627D02*
X14077837Y-15932055D01*
X14077837Y-15932055D02*
X14068314Y-15913008D01*
X14068314Y-15913008D02*
X14049266Y-15884436D01*
X14049266Y-15884436D02*
X14039742Y-15874912D01*
X14401647Y-16179674D02*
X14392123Y-16170150D01*
X14392123Y-16170150D02*
X14373075Y-16141579D01*
X14373075Y-16141579D02*
X14363552Y-16122531D01*
X14363552Y-16122531D02*
X14354028Y-16093960D01*
X14354028Y-16093960D02*
X14344504Y-16046341D01*
X14344504Y-16046341D02*
X14344504Y-16008246D01*
X14344504Y-16008246D02*
X14354028Y-15960627D01*
X14354028Y-15960627D02*
X14363552Y-15932055D01*
X14363552Y-15932055D02*
X14373075Y-15913008D01*
X14373075Y-15913008D02*
X14392123Y-15884436D01*
X14392123Y-15884436D02*
X14401647Y-15874912D01*
X14477837Y-15970150D02*
X14477837Y-16103484D01*
X14477837Y-15989198D02*
X14487361Y-15979674D01*
X14487361Y-15979674D02*
X14506409Y-15970150D01*
X14506409Y-15970150D02*
X14534980Y-15970150D01*
X14534980Y-15970150D02*
X14554028Y-15979674D01*
X14554028Y-15979674D02*
X14563552Y-15998722D01*
X14563552Y-15998722D02*
X14563552Y-16103484D01*
X14687361Y-16103484D02*
X14668314Y-16093960D01*
X14668314Y-16093960D02*
X14658790Y-16084436D01*
X14658790Y-16084436D02*
X14649266Y-16065388D01*
X14649266Y-16065388D02*
X14649266Y-16008246D01*
X14649266Y-16008246D02*
X14658790Y-15989198D01*
X14658790Y-15989198D02*
X14668314Y-15979674D01*
X14668314Y-15979674D02*
X14687361Y-15970150D01*
X14687361Y-15970150D02*
X14715933Y-15970150D01*
X14715933Y-15970150D02*
X14734980Y-15979674D01*
X14734980Y-15979674D02*
X14744504Y-15989198D01*
X14744504Y-15989198D02*
X14754028Y-16008246D01*
X14754028Y-16008246D02*
X14754028Y-16065388D01*
X14754028Y-16065388D02*
X14744504Y-16084436D01*
X14744504Y-16084436D02*
X14734980Y-16093960D01*
X14734980Y-16093960D02*
X14715933Y-16103484D01*
X14715933Y-16103484D02*
X14687361Y-16103484D01*
X14811171Y-15970150D02*
X14887361Y-15970150D01*
X14839742Y-15903484D02*
X14839742Y-16074912D01*
X14839742Y-16074912D02*
X14849266Y-16093960D01*
X14849266Y-16093960D02*
X14868314Y-16103484D01*
X14868314Y-16103484D02*
X14887361Y-16103484D01*
X15106409Y-15970150D02*
X15106409Y-16170150D01*
X15106409Y-15979674D02*
X15125456Y-15970150D01*
X15125456Y-15970150D02*
X15163552Y-15970150D01*
X15163552Y-15970150D02*
X15182599Y-15979674D01*
X15182599Y-15979674D02*
X15192123Y-15989198D01*
X15192123Y-15989198D02*
X15201647Y-16008246D01*
X15201647Y-16008246D02*
X15201647Y-16065388D01*
X15201647Y-16065388D02*
X15192123Y-16084436D01*
X15192123Y-16084436D02*
X15182599Y-16093960D01*
X15182599Y-16093960D02*
X15163552Y-16103484D01*
X15163552Y-16103484D02*
X15125456Y-16103484D01*
X15125456Y-16103484D02*
X15106409Y-16093960D01*
X15315933Y-16103484D02*
X15296885Y-16093960D01*
X15296885Y-16093960D02*
X15287361Y-16074912D01*
X15287361Y-16074912D02*
X15287361Y-15903484D01*
X15477837Y-16103484D02*
X15477837Y-15998722D01*
X15477837Y-15998722D02*
X15468314Y-15979674D01*
X15468314Y-15979674D02*
X15449266Y-15970150D01*
X15449266Y-15970150D02*
X15411171Y-15970150D01*
X15411171Y-15970150D02*
X15392123Y-15979674D01*
X15477837Y-16093960D02*
X15458790Y-16103484D01*
X15458790Y-16103484D02*
X15411171Y-16103484D01*
X15411171Y-16103484D02*
X15392123Y-16093960D01*
X15392123Y-16093960D02*
X15382599Y-16074912D01*
X15382599Y-16074912D02*
X15382599Y-16055865D01*
X15382599Y-16055865D02*
X15392123Y-16036817D01*
X15392123Y-16036817D02*
X15411171Y-16027293D01*
X15411171Y-16027293D02*
X15458790Y-16027293D01*
X15458790Y-16027293D02*
X15477837Y-16017769D01*
X15544504Y-15970150D02*
X15620695Y-15970150D01*
X15573076Y-15903484D02*
X15573076Y-16074912D01*
X15573076Y-16074912D02*
X15582599Y-16093960D01*
X15582599Y-16093960D02*
X15601647Y-16103484D01*
X15601647Y-16103484D02*
X15620695Y-16103484D01*
X15763552Y-16093960D02*
X15744504Y-16103484D01*
X15744504Y-16103484D02*
X15706409Y-16103484D01*
X15706409Y-16103484D02*
X15687361Y-16093960D01*
X15687361Y-16093960D02*
X15677837Y-16074912D01*
X15677837Y-16074912D02*
X15677837Y-15998722D01*
X15677837Y-15998722D02*
X15687361Y-15979674D01*
X15687361Y-15979674D02*
X15706409Y-15970150D01*
X15706409Y-15970150D02*
X15744504Y-15970150D01*
X15744504Y-15970150D02*
X15763552Y-15979674D01*
X15763552Y-15979674D02*
X15773076Y-15998722D01*
X15773076Y-15998722D02*
X15773076Y-16017769D01*
X15773076Y-16017769D02*
X15677837Y-16036817D01*
X15944504Y-16103484D02*
X15944504Y-15903484D01*
X15944504Y-16093960D02*
X15925457Y-16103484D01*
X15925457Y-16103484D02*
X15887361Y-16103484D01*
X15887361Y-16103484D02*
X15868314Y-16093960D01*
X15868314Y-16093960D02*
X15858790Y-16084436D01*
X15858790Y-16084436D02*
X15849266Y-16065388D01*
X15849266Y-16065388D02*
X15849266Y-16008246D01*
X15849266Y-16008246D02*
X15858790Y-15989198D01*
X15858790Y-15989198D02*
X15868314Y-15979674D01*
X15868314Y-15979674D02*
X15887361Y-15970150D01*
X15887361Y-15970150D02*
X15925457Y-15970150D01*
X15925457Y-15970150D02*
X15944504Y-15979674D01*
X16020695Y-16179674D02*
X16030218Y-16170150D01*
X16030218Y-16170150D02*
X16049266Y-16141579D01*
X16049266Y-16141579D02*
X16058790Y-16122531D01*
X16058790Y-16122531D02*
X16068314Y-16093960D01*
X16068314Y-16093960D02*
X16077837Y-16046341D01*
X16077837Y-16046341D02*
X16077837Y-16008246D01*
X16077837Y-16008246D02*
X16068314Y-15960627D01*
X16068314Y-15960627D02*
X16058790Y-15932055D01*
X16058790Y-15932055D02*
X16049266Y-15913008D01*
X16049266Y-15913008D02*
X16030218Y-15884436D01*
X16030218Y-15884436D02*
X16020695Y-15874912D01*
X9264679Y-16332000D02*
G75*
G02*
X9064679Y-16332000I-100000J0D01*
G01*
X9064679Y-16332000D02*
G75*
G02*
X9264679Y-16332000I100000J0D01*
G01*
X9506408Y-16223484D02*
X9630218Y-16223484D01*
X9630218Y-16223484D02*
X9563551Y-16299674D01*
X9563551Y-16299674D02*
X9592123Y-16299674D01*
X9592123Y-16299674D02*
X9611170Y-16309198D01*
X9611170Y-16309198D02*
X9620694Y-16318722D01*
X9620694Y-16318722D02*
X9630218Y-16337769D01*
X9630218Y-16337769D02*
X9630218Y-16385388D01*
X9630218Y-16385388D02*
X9620694Y-16404436D01*
X9620694Y-16404436D02*
X9611170Y-16413960D01*
X9611170Y-16413960D02*
X9592123Y-16423484D01*
X9592123Y-16423484D02*
X9534980Y-16423484D01*
X9534980Y-16423484D02*
X9515932Y-16413960D01*
X9515932Y-16413960D02*
X9506408Y-16404436D01*
X9715932Y-16404436D02*
X9725456Y-16413960D01*
X9725456Y-16413960D02*
X9715932Y-16423484D01*
X9715932Y-16423484D02*
X9706408Y-16413960D01*
X9706408Y-16413960D02*
X9715932Y-16404436D01*
X9715932Y-16404436D02*
X9715932Y-16423484D01*
X9801647Y-16242531D02*
X9811170Y-16233008D01*
X9811170Y-16233008D02*
X9830218Y-16223484D01*
X9830218Y-16223484D02*
X9877837Y-16223484D01*
X9877837Y-16223484D02*
X9896885Y-16233008D01*
X9896885Y-16233008D02*
X9906408Y-16242531D01*
X9906408Y-16242531D02*
X9915932Y-16261579D01*
X9915932Y-16261579D02*
X9915932Y-16280627D01*
X9915932Y-16280627D02*
X9906408Y-16309198D01*
X9906408Y-16309198D02*
X9792123Y-16423484D01*
X9792123Y-16423484D02*
X9915932Y-16423484D01*
X10039742Y-16223484D02*
X10058789Y-16223484D01*
X10058789Y-16223484D02*
X10077837Y-16233008D01*
X10077837Y-16233008D02*
X10087361Y-16242531D01*
X10087361Y-16242531D02*
X10096885Y-16261579D01*
X10096885Y-16261579D02*
X10106408Y-16299674D01*
X10106408Y-16299674D02*
X10106408Y-16347293D01*
X10106408Y-16347293D02*
X10096885Y-16385388D01*
X10096885Y-16385388D02*
X10087361Y-16404436D01*
X10087361Y-16404436D02*
X10077837Y-16413960D01*
X10077837Y-16413960D02*
X10058789Y-16423484D01*
X10058789Y-16423484D02*
X10039742Y-16423484D01*
X10039742Y-16423484D02*
X10020694Y-16413960D01*
X10020694Y-16413960D02*
X10011170Y-16404436D01*
X10011170Y-16404436D02*
X10001647Y-16385388D01*
X10001647Y-16385388D02*
X9992123Y-16347293D01*
X9992123Y-16347293D02*
X9992123Y-16299674D01*
X9992123Y-16299674D02*
X10001647Y-16261579D01*
X10001647Y-16261579D02*
X10011170Y-16242531D01*
X10011170Y-16242531D02*
X10020694Y-16233008D01*
X10020694Y-16233008D02*
X10039742Y-16223484D01*
X10230218Y-16223484D02*
X10249266Y-16223484D01*
X10249266Y-16223484D02*
X10268313Y-16233008D01*
X10268313Y-16233008D02*
X10277837Y-16242531D01*
X10277837Y-16242531D02*
X10287361Y-16261579D01*
X10287361Y-16261579D02*
X10296885Y-16299674D01*
X10296885Y-16299674D02*
X10296885Y-16347293D01*
X10296885Y-16347293D02*
X10287361Y-16385388D01*
X10287361Y-16385388D02*
X10277837Y-16404436D01*
X10277837Y-16404436D02*
X10268313Y-16413960D01*
X10268313Y-16413960D02*
X10249266Y-16423484D01*
X10249266Y-16423484D02*
X10230218Y-16423484D01*
X10230218Y-16423484D02*
X10211170Y-16413960D01*
X10211170Y-16413960D02*
X10201647Y-16404436D01*
X10201647Y-16404436D02*
X10192123Y-16385388D01*
X10192123Y-16385388D02*
X10182599Y-16347293D01*
X10182599Y-16347293D02*
X10182599Y-16299674D01*
X10182599Y-16299674D02*
X10192123Y-16261579D01*
X10192123Y-16261579D02*
X10201647Y-16242531D01*
X10201647Y-16242531D02*
X10211170Y-16233008D01*
X10211170Y-16233008D02*
X10230218Y-16223484D01*
X10382599Y-16423484D02*
X10382599Y-16290150D01*
X10382599Y-16309198D02*
X10392123Y-16299674D01*
X10392123Y-16299674D02*
X10411170Y-16290150D01*
X10411170Y-16290150D02*
X10439742Y-16290150D01*
X10439742Y-16290150D02*
X10458789Y-16299674D01*
X10458789Y-16299674D02*
X10468313Y-16318722D01*
X10468313Y-16318722D02*
X10468313Y-16423484D01*
X10468313Y-16318722D02*
X10477837Y-16299674D01*
X10477837Y-16299674D02*
X10496885Y-16290150D01*
X10496885Y-16290150D02*
X10525456Y-16290150D01*
X10525456Y-16290150D02*
X10544504Y-16299674D01*
X10544504Y-16299674D02*
X10554028Y-16318722D01*
X10554028Y-16318722D02*
X10554028Y-16423484D01*
X10649266Y-16423484D02*
X10649266Y-16290150D01*
X10649266Y-16309198D02*
X10658789Y-16299674D01*
X10658789Y-16299674D02*
X10677837Y-16290150D01*
X10677837Y-16290150D02*
X10706409Y-16290150D01*
X10706409Y-16290150D02*
X10725456Y-16299674D01*
X10725456Y-16299674D02*
X10734980Y-16318722D01*
X10734980Y-16318722D02*
X10734980Y-16423484D01*
X10734980Y-16318722D02*
X10744504Y-16299674D01*
X10744504Y-16299674D02*
X10763551Y-16290150D01*
X10763551Y-16290150D02*
X10792123Y-16290150D01*
X10792123Y-16290150D02*
X10811170Y-16299674D01*
X10811170Y-16299674D02*
X10820694Y-16318722D01*
X10820694Y-16318722D02*
X10820694Y-16423484D01*
X11211170Y-16213960D02*
X11039742Y-16471103D01*
X11468313Y-16223484D02*
X11487361Y-16223484D01*
X11487361Y-16223484D02*
X11506409Y-16233008D01*
X11506409Y-16233008D02*
X11515932Y-16242531D01*
X11515932Y-16242531D02*
X11525456Y-16261579D01*
X11525456Y-16261579D02*
X11534980Y-16299674D01*
X11534980Y-16299674D02*
X11534980Y-16347293D01*
X11534980Y-16347293D02*
X11525456Y-16385388D01*
X11525456Y-16385388D02*
X11515932Y-16404436D01*
X11515932Y-16404436D02*
X11506409Y-16413960D01*
X11506409Y-16413960D02*
X11487361Y-16423484D01*
X11487361Y-16423484D02*
X11468313Y-16423484D01*
X11468313Y-16423484D02*
X11449266Y-16413960D01*
X11449266Y-16413960D02*
X11439742Y-16404436D01*
X11439742Y-16404436D02*
X11430218Y-16385388D01*
X11430218Y-16385388D02*
X11420694Y-16347293D01*
X11420694Y-16347293D02*
X11420694Y-16299674D01*
X11420694Y-16299674D02*
X11430218Y-16261579D01*
X11430218Y-16261579D02*
X11439742Y-16242531D01*
X11439742Y-16242531D02*
X11449266Y-16233008D01*
X11449266Y-16233008D02*
X11468313Y-16223484D01*
X11620694Y-16404436D02*
X11630218Y-16413960D01*
X11630218Y-16413960D02*
X11620694Y-16423484D01*
X11620694Y-16423484D02*
X11611170Y-16413960D01*
X11611170Y-16413960D02*
X11620694Y-16404436D01*
X11620694Y-16404436D02*
X11620694Y-16423484D01*
X11820694Y-16423484D02*
X11706409Y-16423484D01*
X11763551Y-16423484D02*
X11763551Y-16223484D01*
X11763551Y-16223484D02*
X11744504Y-16252055D01*
X11744504Y-16252055D02*
X11725456Y-16271103D01*
X11725456Y-16271103D02*
X11706409Y-16280627D01*
X11896885Y-16242531D02*
X11906409Y-16233008D01*
X11906409Y-16233008D02*
X11925456Y-16223484D01*
X11925456Y-16223484D02*
X11973075Y-16223484D01*
X11973075Y-16223484D02*
X11992123Y-16233008D01*
X11992123Y-16233008D02*
X12001647Y-16242531D01*
X12001647Y-16242531D02*
X12011170Y-16261579D01*
X12011170Y-16261579D02*
X12011170Y-16280627D01*
X12011170Y-16280627D02*
X12001647Y-16309198D01*
X12001647Y-16309198D02*
X11887361Y-16423484D01*
X11887361Y-16423484D02*
X12011170Y-16423484D01*
X12182599Y-16223484D02*
X12144504Y-16223484D01*
X12144504Y-16223484D02*
X12125456Y-16233008D01*
X12125456Y-16233008D02*
X12115932Y-16242531D01*
X12115932Y-16242531D02*
X12096885Y-16271103D01*
X12096885Y-16271103D02*
X12087361Y-16309198D01*
X12087361Y-16309198D02*
X12087361Y-16385388D01*
X12087361Y-16385388D02*
X12096885Y-16404436D01*
X12096885Y-16404436D02*
X12106409Y-16413960D01*
X12106409Y-16413960D02*
X12125456Y-16423484D01*
X12125456Y-16423484D02*
X12163551Y-16423484D01*
X12163551Y-16423484D02*
X12182599Y-16413960D01*
X12182599Y-16413960D02*
X12192123Y-16404436D01*
X12192123Y-16404436D02*
X12201647Y-16385388D01*
X12201647Y-16385388D02*
X12201647Y-16337769D01*
X12201647Y-16337769D02*
X12192123Y-16318722D01*
X12192123Y-16318722D02*
X12182599Y-16309198D01*
X12182599Y-16309198D02*
X12163551Y-16299674D01*
X12163551Y-16299674D02*
X12125456Y-16299674D01*
X12125456Y-16299674D02*
X12106409Y-16309198D01*
X12106409Y-16309198D02*
X12096885Y-16318722D01*
X12096885Y-16318722D02*
X12087361Y-16337769D01*
X12325456Y-16223484D02*
X12344504Y-16223484D01*
X12344504Y-16223484D02*
X12363551Y-16233008D01*
X12363551Y-16233008D02*
X12373075Y-16242531D01*
X12373075Y-16242531D02*
X12382599Y-16261579D01*
X12382599Y-16261579D02*
X12392123Y-16299674D01*
X12392123Y-16299674D02*
X12392123Y-16347293D01*
X12392123Y-16347293D02*
X12382599Y-16385388D01*
X12382599Y-16385388D02*
X12373075Y-16404436D01*
X12373075Y-16404436D02*
X12363551Y-16413960D01*
X12363551Y-16413960D02*
X12344504Y-16423484D01*
X12344504Y-16423484D02*
X12325456Y-16423484D01*
X12325456Y-16423484D02*
X12306409Y-16413960D01*
X12306409Y-16413960D02*
X12296885Y-16404436D01*
X12296885Y-16404436D02*
X12287361Y-16385388D01*
X12287361Y-16385388D02*
X12277837Y-16347293D01*
X12277837Y-16347293D02*
X12277837Y-16299674D01*
X12277837Y-16299674D02*
X12287361Y-16261579D01*
X12287361Y-16261579D02*
X12296885Y-16242531D01*
X12296885Y-16242531D02*
X12306409Y-16233008D01*
X12306409Y-16233008D02*
X12325456Y-16223484D01*
X12468313Y-16223484D02*
X12468313Y-16261579D01*
X12544504Y-16223484D02*
X12544504Y-16261579D01*
X12839742Y-16499674D02*
X12830218Y-16490150D01*
X12830218Y-16490150D02*
X12811171Y-16461579D01*
X12811171Y-16461579D02*
X12801647Y-16442531D01*
X12801647Y-16442531D02*
X12792123Y-16413960D01*
X12792123Y-16413960D02*
X12782599Y-16366341D01*
X12782599Y-16366341D02*
X12782599Y-16328246D01*
X12782599Y-16328246D02*
X12792123Y-16280627D01*
X12792123Y-16280627D02*
X12801647Y-16252055D01*
X12801647Y-16252055D02*
X12811171Y-16233008D01*
X12811171Y-16233008D02*
X12830218Y-16204436D01*
X12830218Y-16204436D02*
X12839742Y-16194912D01*
X13001647Y-16290150D02*
X13001647Y-16423484D01*
X12954028Y-16213960D02*
X12906409Y-16356817D01*
X12906409Y-16356817D02*
X13030218Y-16356817D01*
X13258790Y-16423484D02*
X13258790Y-16223484D01*
X13344504Y-16423484D02*
X13344504Y-16318722D01*
X13344504Y-16318722D02*
X13334980Y-16299674D01*
X13334980Y-16299674D02*
X13315933Y-16290150D01*
X13315933Y-16290150D02*
X13287361Y-16290150D01*
X13287361Y-16290150D02*
X13268313Y-16299674D01*
X13268313Y-16299674D02*
X13258790Y-16309198D01*
X13468313Y-16423484D02*
X13449266Y-16413960D01*
X13449266Y-16413960D02*
X13439742Y-16404436D01*
X13439742Y-16404436D02*
X13430218Y-16385388D01*
X13430218Y-16385388D02*
X13430218Y-16328246D01*
X13430218Y-16328246D02*
X13439742Y-16309198D01*
X13439742Y-16309198D02*
X13449266Y-16299674D01*
X13449266Y-16299674D02*
X13468313Y-16290150D01*
X13468313Y-16290150D02*
X13496885Y-16290150D01*
X13496885Y-16290150D02*
X13515933Y-16299674D01*
X13515933Y-16299674D02*
X13525456Y-16309198D01*
X13525456Y-16309198D02*
X13534980Y-16328246D01*
X13534980Y-16328246D02*
X13534980Y-16385388D01*
X13534980Y-16385388D02*
X13525456Y-16404436D01*
X13525456Y-16404436D02*
X13515933Y-16413960D01*
X13515933Y-16413960D02*
X13496885Y-16423484D01*
X13496885Y-16423484D02*
X13468313Y-16423484D01*
X13649266Y-16423484D02*
X13630218Y-16413960D01*
X13630218Y-16413960D02*
X13620694Y-16394912D01*
X13620694Y-16394912D02*
X13620694Y-16223484D01*
X13801647Y-16413960D02*
X13782599Y-16423484D01*
X13782599Y-16423484D02*
X13744504Y-16423484D01*
X13744504Y-16423484D02*
X13725456Y-16413960D01*
X13725456Y-16413960D02*
X13715933Y-16394912D01*
X13715933Y-16394912D02*
X13715933Y-16318722D01*
X13715933Y-16318722D02*
X13725456Y-16299674D01*
X13725456Y-16299674D02*
X13744504Y-16290150D01*
X13744504Y-16290150D02*
X13782599Y-16290150D01*
X13782599Y-16290150D02*
X13801647Y-16299674D01*
X13801647Y-16299674D02*
X13811171Y-16318722D01*
X13811171Y-16318722D02*
X13811171Y-16337769D01*
X13811171Y-16337769D02*
X13715933Y-16356817D01*
X13887361Y-16413960D02*
X13906409Y-16423484D01*
X13906409Y-16423484D02*
X13944504Y-16423484D01*
X13944504Y-16423484D02*
X13963552Y-16413960D01*
X13963552Y-16413960D02*
X13973075Y-16394912D01*
X13973075Y-16394912D02*
X13973075Y-16385388D01*
X13973075Y-16385388D02*
X13963552Y-16366341D01*
X13963552Y-16366341D02*
X13944504Y-16356817D01*
X13944504Y-16356817D02*
X13915933Y-16356817D01*
X13915933Y-16356817D02*
X13896885Y-16347293D01*
X13896885Y-16347293D02*
X13887361Y-16328246D01*
X13887361Y-16328246D02*
X13887361Y-16318722D01*
X13887361Y-16318722D02*
X13896885Y-16299674D01*
X13896885Y-16299674D02*
X13915933Y-16290150D01*
X13915933Y-16290150D02*
X13944504Y-16290150D01*
X13944504Y-16290150D02*
X13963552Y-16299674D01*
X14039742Y-16499674D02*
X14049266Y-16490150D01*
X14049266Y-16490150D02*
X14068314Y-16461579D01*
X14068314Y-16461579D02*
X14077837Y-16442531D01*
X14077837Y-16442531D02*
X14087361Y-16413960D01*
X14087361Y-16413960D02*
X14096885Y-16366341D01*
X14096885Y-16366341D02*
X14096885Y-16328246D01*
X14096885Y-16328246D02*
X14087361Y-16280627D01*
X14087361Y-16280627D02*
X14077837Y-16252055D01*
X14077837Y-16252055D02*
X14068314Y-16233008D01*
X14068314Y-16233008D02*
X14049266Y-16204436D01*
X14049266Y-16204436D02*
X14039742Y-16194912D01*
X14401647Y-16499674D02*
X14392123Y-16490150D01*
X14392123Y-16490150D02*
X14373075Y-16461579D01*
X14373075Y-16461579D02*
X14363552Y-16442531D01*
X14363552Y-16442531D02*
X14354028Y-16413960D01*
X14354028Y-16413960D02*
X14344504Y-16366341D01*
X14344504Y-16366341D02*
X14344504Y-16328246D01*
X14344504Y-16328246D02*
X14354028Y-16280627D01*
X14354028Y-16280627D02*
X14363552Y-16252055D01*
X14363552Y-16252055D02*
X14373075Y-16233008D01*
X14373075Y-16233008D02*
X14392123Y-16204436D01*
X14392123Y-16204436D02*
X14401647Y-16194912D01*
X14477837Y-16290150D02*
X14477837Y-16423484D01*
X14477837Y-16309198D02*
X14487361Y-16299674D01*
X14487361Y-16299674D02*
X14506409Y-16290150D01*
X14506409Y-16290150D02*
X14534980Y-16290150D01*
X14534980Y-16290150D02*
X14554028Y-16299674D01*
X14554028Y-16299674D02*
X14563552Y-16318722D01*
X14563552Y-16318722D02*
X14563552Y-16423484D01*
X14687361Y-16423484D02*
X14668314Y-16413960D01*
X14668314Y-16413960D02*
X14658790Y-16404436D01*
X14658790Y-16404436D02*
X14649266Y-16385388D01*
X14649266Y-16385388D02*
X14649266Y-16328246D01*
X14649266Y-16328246D02*
X14658790Y-16309198D01*
X14658790Y-16309198D02*
X14668314Y-16299674D01*
X14668314Y-16299674D02*
X14687361Y-16290150D01*
X14687361Y-16290150D02*
X14715933Y-16290150D01*
X14715933Y-16290150D02*
X14734980Y-16299674D01*
X14734980Y-16299674D02*
X14744504Y-16309198D01*
X14744504Y-16309198D02*
X14754028Y-16328246D01*
X14754028Y-16328246D02*
X14754028Y-16385388D01*
X14754028Y-16385388D02*
X14744504Y-16404436D01*
X14744504Y-16404436D02*
X14734980Y-16413960D01*
X14734980Y-16413960D02*
X14715933Y-16423484D01*
X14715933Y-16423484D02*
X14687361Y-16423484D01*
X14811171Y-16290150D02*
X14887361Y-16290150D01*
X14839742Y-16223484D02*
X14839742Y-16394912D01*
X14839742Y-16394912D02*
X14849266Y-16413960D01*
X14849266Y-16413960D02*
X14868314Y-16423484D01*
X14868314Y-16423484D02*
X14887361Y-16423484D01*
X15106409Y-16290150D02*
X15106409Y-16490150D01*
X15106409Y-16299674D02*
X15125456Y-16290150D01*
X15125456Y-16290150D02*
X15163552Y-16290150D01*
X15163552Y-16290150D02*
X15182599Y-16299674D01*
X15182599Y-16299674D02*
X15192123Y-16309198D01*
X15192123Y-16309198D02*
X15201647Y-16328246D01*
X15201647Y-16328246D02*
X15201647Y-16385388D01*
X15201647Y-16385388D02*
X15192123Y-16404436D01*
X15192123Y-16404436D02*
X15182599Y-16413960D01*
X15182599Y-16413960D02*
X15163552Y-16423484D01*
X15163552Y-16423484D02*
X15125456Y-16423484D01*
X15125456Y-16423484D02*
X15106409Y-16413960D01*
X15315933Y-16423484D02*
X15296885Y-16413960D01*
X15296885Y-16413960D02*
X15287361Y-16394912D01*
X15287361Y-16394912D02*
X15287361Y-16223484D01*
X15477837Y-16423484D02*
X15477837Y-16318722D01*
X15477837Y-16318722D02*
X15468314Y-16299674D01*
X15468314Y-16299674D02*
X15449266Y-16290150D01*
X15449266Y-16290150D02*
X15411171Y-16290150D01*
X15411171Y-16290150D02*
X15392123Y-16299674D01*
X15477837Y-16413960D02*
X15458790Y-16423484D01*
X15458790Y-16423484D02*
X15411171Y-16423484D01*
X15411171Y-16423484D02*
X15392123Y-16413960D01*
X15392123Y-16413960D02*
X15382599Y-16394912D01*
X15382599Y-16394912D02*
X15382599Y-16375865D01*
X15382599Y-16375865D02*
X15392123Y-16356817D01*
X15392123Y-16356817D02*
X15411171Y-16347293D01*
X15411171Y-16347293D02*
X15458790Y-16347293D01*
X15458790Y-16347293D02*
X15477837Y-16337769D01*
X15544504Y-16290150D02*
X15620695Y-16290150D01*
X15573076Y-16223484D02*
X15573076Y-16394912D01*
X15573076Y-16394912D02*
X15582599Y-16413960D01*
X15582599Y-16413960D02*
X15601647Y-16423484D01*
X15601647Y-16423484D02*
X15620695Y-16423484D01*
X15763552Y-16413960D02*
X15744504Y-16423484D01*
X15744504Y-16423484D02*
X15706409Y-16423484D01*
X15706409Y-16423484D02*
X15687361Y-16413960D01*
X15687361Y-16413960D02*
X15677837Y-16394912D01*
X15677837Y-16394912D02*
X15677837Y-16318722D01*
X15677837Y-16318722D02*
X15687361Y-16299674D01*
X15687361Y-16299674D02*
X15706409Y-16290150D01*
X15706409Y-16290150D02*
X15744504Y-16290150D01*
X15744504Y-16290150D02*
X15763552Y-16299674D01*
X15763552Y-16299674D02*
X15773076Y-16318722D01*
X15773076Y-16318722D02*
X15773076Y-16337769D01*
X15773076Y-16337769D02*
X15677837Y-16356817D01*
X15944504Y-16423484D02*
X15944504Y-16223484D01*
X15944504Y-16413960D02*
X15925457Y-16423484D01*
X15925457Y-16423484D02*
X15887361Y-16423484D01*
X15887361Y-16423484D02*
X15868314Y-16413960D01*
X15868314Y-16413960D02*
X15858790Y-16404436D01*
X15858790Y-16404436D02*
X15849266Y-16385388D01*
X15849266Y-16385388D02*
X15849266Y-16328246D01*
X15849266Y-16328246D02*
X15858790Y-16309198D01*
X15858790Y-16309198D02*
X15868314Y-16299674D01*
X15868314Y-16299674D02*
X15887361Y-16290150D01*
X15887361Y-16290150D02*
X15925457Y-16290150D01*
X15925457Y-16290150D02*
X15944504Y-16299674D01*
X16020695Y-16499674D02*
X16030218Y-16490150D01*
X16030218Y-16490150D02*
X16049266Y-16461579D01*
X16049266Y-16461579D02*
X16058790Y-16442531D01*
X16058790Y-16442531D02*
X16068314Y-16413960D01*
X16068314Y-16413960D02*
X16077837Y-16366341D01*
X16077837Y-16366341D02*
X16077837Y-16328246D01*
X16077837Y-16328246D02*
X16068314Y-16280627D01*
X16068314Y-16280627D02*
X16058790Y-16252055D01*
X16058790Y-16252055D02*
X16049266Y-16233008D01*
X16049266Y-16233008D02*
X16030218Y-16204436D01*
X16030218Y-16204436D02*
X16020695Y-16194912D01*
X9164679Y-16552000D02*
X9164679Y-16752000D01*
X9064679Y-16652000D02*
X9264679Y-16652000D01*
X9506408Y-16543484D02*
X9630218Y-16543484D01*
X9630218Y-16543484D02*
X9563551Y-16619674D01*
X9563551Y-16619674D02*
X9592123Y-16619674D01*
X9592123Y-16619674D02*
X9611170Y-16629198D01*
X9611170Y-16629198D02*
X9620694Y-16638722D01*
X9620694Y-16638722D02*
X9630218Y-16657769D01*
X9630218Y-16657769D02*
X9630218Y-16705388D01*
X9630218Y-16705388D02*
X9620694Y-16724436D01*
X9620694Y-16724436D02*
X9611170Y-16733960D01*
X9611170Y-16733960D02*
X9592123Y-16743484D01*
X9592123Y-16743484D02*
X9534980Y-16743484D01*
X9534980Y-16743484D02*
X9515932Y-16733960D01*
X9515932Y-16733960D02*
X9506408Y-16724436D01*
X9715932Y-16724436D02*
X9725456Y-16733960D01*
X9725456Y-16733960D02*
X9715932Y-16743484D01*
X9715932Y-16743484D02*
X9706408Y-16733960D01*
X9706408Y-16733960D02*
X9715932Y-16724436D01*
X9715932Y-16724436D02*
X9715932Y-16743484D01*
X9801647Y-16562531D02*
X9811170Y-16553008D01*
X9811170Y-16553008D02*
X9830218Y-16543484D01*
X9830218Y-16543484D02*
X9877837Y-16543484D01*
X9877837Y-16543484D02*
X9896885Y-16553008D01*
X9896885Y-16553008D02*
X9906408Y-16562531D01*
X9906408Y-16562531D02*
X9915932Y-16581579D01*
X9915932Y-16581579D02*
X9915932Y-16600627D01*
X9915932Y-16600627D02*
X9906408Y-16629198D01*
X9906408Y-16629198D02*
X9792123Y-16743484D01*
X9792123Y-16743484D02*
X9915932Y-16743484D01*
X10096885Y-16543484D02*
X10001647Y-16543484D01*
X10001647Y-16543484D02*
X9992123Y-16638722D01*
X9992123Y-16638722D02*
X10001647Y-16629198D01*
X10001647Y-16629198D02*
X10020694Y-16619674D01*
X10020694Y-16619674D02*
X10068313Y-16619674D01*
X10068313Y-16619674D02*
X10087361Y-16629198D01*
X10087361Y-16629198D02*
X10096885Y-16638722D01*
X10096885Y-16638722D02*
X10106408Y-16657769D01*
X10106408Y-16657769D02*
X10106408Y-16705388D01*
X10106408Y-16705388D02*
X10096885Y-16724436D01*
X10096885Y-16724436D02*
X10087361Y-16733960D01*
X10087361Y-16733960D02*
X10068313Y-16743484D01*
X10068313Y-16743484D02*
X10020694Y-16743484D01*
X10020694Y-16743484D02*
X10001647Y-16733960D01*
X10001647Y-16733960D02*
X9992123Y-16724436D01*
X10230218Y-16543484D02*
X10249266Y-16543484D01*
X10249266Y-16543484D02*
X10268313Y-16553008D01*
X10268313Y-16553008D02*
X10277837Y-16562531D01*
X10277837Y-16562531D02*
X10287361Y-16581579D01*
X10287361Y-16581579D02*
X10296885Y-16619674D01*
X10296885Y-16619674D02*
X10296885Y-16667293D01*
X10296885Y-16667293D02*
X10287361Y-16705388D01*
X10287361Y-16705388D02*
X10277837Y-16724436D01*
X10277837Y-16724436D02*
X10268313Y-16733960D01*
X10268313Y-16733960D02*
X10249266Y-16743484D01*
X10249266Y-16743484D02*
X10230218Y-16743484D01*
X10230218Y-16743484D02*
X10211170Y-16733960D01*
X10211170Y-16733960D02*
X10201647Y-16724436D01*
X10201647Y-16724436D02*
X10192123Y-16705388D01*
X10192123Y-16705388D02*
X10182599Y-16667293D01*
X10182599Y-16667293D02*
X10182599Y-16619674D01*
X10182599Y-16619674D02*
X10192123Y-16581579D01*
X10192123Y-16581579D02*
X10201647Y-16562531D01*
X10201647Y-16562531D02*
X10211170Y-16553008D01*
X10211170Y-16553008D02*
X10230218Y-16543484D01*
X10382599Y-16743484D02*
X10382599Y-16610150D01*
X10382599Y-16629198D02*
X10392123Y-16619674D01*
X10392123Y-16619674D02*
X10411170Y-16610150D01*
X10411170Y-16610150D02*
X10439742Y-16610150D01*
X10439742Y-16610150D02*
X10458789Y-16619674D01*
X10458789Y-16619674D02*
X10468313Y-16638722D01*
X10468313Y-16638722D02*
X10468313Y-16743484D01*
X10468313Y-16638722D02*
X10477837Y-16619674D01*
X10477837Y-16619674D02*
X10496885Y-16610150D01*
X10496885Y-16610150D02*
X10525456Y-16610150D01*
X10525456Y-16610150D02*
X10544504Y-16619674D01*
X10544504Y-16619674D02*
X10554028Y-16638722D01*
X10554028Y-16638722D02*
X10554028Y-16743484D01*
X10649266Y-16743484D02*
X10649266Y-16610150D01*
X10649266Y-16629198D02*
X10658789Y-16619674D01*
X10658789Y-16619674D02*
X10677837Y-16610150D01*
X10677837Y-16610150D02*
X10706409Y-16610150D01*
X10706409Y-16610150D02*
X10725456Y-16619674D01*
X10725456Y-16619674D02*
X10734980Y-16638722D01*
X10734980Y-16638722D02*
X10734980Y-16743484D01*
X10734980Y-16638722D02*
X10744504Y-16619674D01*
X10744504Y-16619674D02*
X10763551Y-16610150D01*
X10763551Y-16610150D02*
X10792123Y-16610150D01*
X10792123Y-16610150D02*
X10811170Y-16619674D01*
X10811170Y-16619674D02*
X10820694Y-16638722D01*
X10820694Y-16638722D02*
X10820694Y-16743484D01*
X11211170Y-16533960D02*
X11039742Y-16791103D01*
X11468313Y-16543484D02*
X11487361Y-16543484D01*
X11487361Y-16543484D02*
X11506409Y-16553008D01*
X11506409Y-16553008D02*
X11515932Y-16562531D01*
X11515932Y-16562531D02*
X11525456Y-16581579D01*
X11525456Y-16581579D02*
X11534980Y-16619674D01*
X11534980Y-16619674D02*
X11534980Y-16667293D01*
X11534980Y-16667293D02*
X11525456Y-16705388D01*
X11525456Y-16705388D02*
X11515932Y-16724436D01*
X11515932Y-16724436D02*
X11506409Y-16733960D01*
X11506409Y-16733960D02*
X11487361Y-16743484D01*
X11487361Y-16743484D02*
X11468313Y-16743484D01*
X11468313Y-16743484D02*
X11449266Y-16733960D01*
X11449266Y-16733960D02*
X11439742Y-16724436D01*
X11439742Y-16724436D02*
X11430218Y-16705388D01*
X11430218Y-16705388D02*
X11420694Y-16667293D01*
X11420694Y-16667293D02*
X11420694Y-16619674D01*
X11420694Y-16619674D02*
X11430218Y-16581579D01*
X11430218Y-16581579D02*
X11439742Y-16562531D01*
X11439742Y-16562531D02*
X11449266Y-16553008D01*
X11449266Y-16553008D02*
X11468313Y-16543484D01*
X11620694Y-16724436D02*
X11630218Y-16733960D01*
X11630218Y-16733960D02*
X11620694Y-16743484D01*
X11620694Y-16743484D02*
X11611170Y-16733960D01*
X11611170Y-16733960D02*
X11620694Y-16724436D01*
X11620694Y-16724436D02*
X11620694Y-16743484D01*
X11820694Y-16743484D02*
X11706409Y-16743484D01*
X11763551Y-16743484D02*
X11763551Y-16543484D01*
X11763551Y-16543484D02*
X11744504Y-16572055D01*
X11744504Y-16572055D02*
X11725456Y-16591103D01*
X11725456Y-16591103D02*
X11706409Y-16600627D01*
X11896885Y-16562531D02*
X11906409Y-16553008D01*
X11906409Y-16553008D02*
X11925456Y-16543484D01*
X11925456Y-16543484D02*
X11973075Y-16543484D01*
X11973075Y-16543484D02*
X11992123Y-16553008D01*
X11992123Y-16553008D02*
X12001647Y-16562531D01*
X12001647Y-16562531D02*
X12011170Y-16581579D01*
X12011170Y-16581579D02*
X12011170Y-16600627D01*
X12011170Y-16600627D02*
X12001647Y-16629198D01*
X12001647Y-16629198D02*
X11887361Y-16743484D01*
X11887361Y-16743484D02*
X12011170Y-16743484D01*
X12125456Y-16629198D02*
X12106409Y-16619674D01*
X12106409Y-16619674D02*
X12096885Y-16610150D01*
X12096885Y-16610150D02*
X12087361Y-16591103D01*
X12087361Y-16591103D02*
X12087361Y-16581579D01*
X12087361Y-16581579D02*
X12096885Y-16562531D01*
X12096885Y-16562531D02*
X12106409Y-16553008D01*
X12106409Y-16553008D02*
X12125456Y-16543484D01*
X12125456Y-16543484D02*
X12163551Y-16543484D01*
X12163551Y-16543484D02*
X12182599Y-16553008D01*
X12182599Y-16553008D02*
X12192123Y-16562531D01*
X12192123Y-16562531D02*
X12201647Y-16581579D01*
X12201647Y-16581579D02*
X12201647Y-16591103D01*
X12201647Y-16591103D02*
X12192123Y-16610150D01*
X12192123Y-16610150D02*
X12182599Y-16619674D01*
X12182599Y-16619674D02*
X12163551Y-16629198D01*
X12163551Y-16629198D02*
X12125456Y-16629198D01*
X12125456Y-16629198D02*
X12106409Y-16638722D01*
X12106409Y-16638722D02*
X12096885Y-16648246D01*
X12096885Y-16648246D02*
X12087361Y-16667293D01*
X12087361Y-16667293D02*
X12087361Y-16705388D01*
X12087361Y-16705388D02*
X12096885Y-16724436D01*
X12096885Y-16724436D02*
X12106409Y-16733960D01*
X12106409Y-16733960D02*
X12125456Y-16743484D01*
X12125456Y-16743484D02*
X12163551Y-16743484D01*
X12163551Y-16743484D02*
X12182599Y-16733960D01*
X12182599Y-16733960D02*
X12192123Y-16724436D01*
X12192123Y-16724436D02*
X12201647Y-16705388D01*
X12201647Y-16705388D02*
X12201647Y-16667293D01*
X12201647Y-16667293D02*
X12192123Y-16648246D01*
X12192123Y-16648246D02*
X12182599Y-16638722D01*
X12182599Y-16638722D02*
X12163551Y-16629198D01*
X12325456Y-16543484D02*
X12344504Y-16543484D01*
X12344504Y-16543484D02*
X12363551Y-16553008D01*
X12363551Y-16553008D02*
X12373075Y-16562531D01*
X12373075Y-16562531D02*
X12382599Y-16581579D01*
X12382599Y-16581579D02*
X12392123Y-16619674D01*
X12392123Y-16619674D02*
X12392123Y-16667293D01*
X12392123Y-16667293D02*
X12382599Y-16705388D01*
X12382599Y-16705388D02*
X12373075Y-16724436D01*
X12373075Y-16724436D02*
X12363551Y-16733960D01*
X12363551Y-16733960D02*
X12344504Y-16743484D01*
X12344504Y-16743484D02*
X12325456Y-16743484D01*
X12325456Y-16743484D02*
X12306409Y-16733960D01*
X12306409Y-16733960D02*
X12296885Y-16724436D01*
X12296885Y-16724436D02*
X12287361Y-16705388D01*
X12287361Y-16705388D02*
X12277837Y-16667293D01*
X12277837Y-16667293D02*
X12277837Y-16619674D01*
X12277837Y-16619674D02*
X12287361Y-16581579D01*
X12287361Y-16581579D02*
X12296885Y-16562531D01*
X12296885Y-16562531D02*
X12306409Y-16553008D01*
X12306409Y-16553008D02*
X12325456Y-16543484D01*
X12468313Y-16543484D02*
X12468313Y-16581579D01*
X12544504Y-16543484D02*
X12544504Y-16581579D01*
X12839742Y-16819674D02*
X12830218Y-16810150D01*
X12830218Y-16810150D02*
X12811171Y-16781579D01*
X12811171Y-16781579D02*
X12801647Y-16762531D01*
X12801647Y-16762531D02*
X12792123Y-16733960D01*
X12792123Y-16733960D02*
X12782599Y-16686341D01*
X12782599Y-16686341D02*
X12782599Y-16648246D01*
X12782599Y-16648246D02*
X12792123Y-16600627D01*
X12792123Y-16600627D02*
X12801647Y-16572055D01*
X12801647Y-16572055D02*
X12811171Y-16553008D01*
X12811171Y-16553008D02*
X12830218Y-16524436D01*
X12830218Y-16524436D02*
X12839742Y-16514912D01*
X12944504Y-16629198D02*
X12925456Y-16619674D01*
X12925456Y-16619674D02*
X12915932Y-16610150D01*
X12915932Y-16610150D02*
X12906409Y-16591103D01*
X12906409Y-16591103D02*
X12906409Y-16581579D01*
X12906409Y-16581579D02*
X12915932Y-16562531D01*
X12915932Y-16562531D02*
X12925456Y-16553008D01*
X12925456Y-16553008D02*
X12944504Y-16543484D01*
X12944504Y-16543484D02*
X12982599Y-16543484D01*
X12982599Y-16543484D02*
X13001647Y-16553008D01*
X13001647Y-16553008D02*
X13011171Y-16562531D01*
X13011171Y-16562531D02*
X13020694Y-16581579D01*
X13020694Y-16581579D02*
X13020694Y-16591103D01*
X13020694Y-16591103D02*
X13011171Y-16610150D01*
X13011171Y-16610150D02*
X13001647Y-16619674D01*
X13001647Y-16619674D02*
X12982599Y-16629198D01*
X12982599Y-16629198D02*
X12944504Y-16629198D01*
X12944504Y-16629198D02*
X12925456Y-16638722D01*
X12925456Y-16638722D02*
X12915932Y-16648246D01*
X12915932Y-16648246D02*
X12906409Y-16667293D01*
X12906409Y-16667293D02*
X12906409Y-16705388D01*
X12906409Y-16705388D02*
X12915932Y-16724436D01*
X12915932Y-16724436D02*
X12925456Y-16733960D01*
X12925456Y-16733960D02*
X12944504Y-16743484D01*
X12944504Y-16743484D02*
X12982599Y-16743484D01*
X12982599Y-16743484D02*
X13001647Y-16733960D01*
X13001647Y-16733960D02*
X13011171Y-16724436D01*
X13011171Y-16724436D02*
X13020694Y-16705388D01*
X13020694Y-16705388D02*
X13020694Y-16667293D01*
X13020694Y-16667293D02*
X13011171Y-16648246D01*
X13011171Y-16648246D02*
X13001647Y-16638722D01*
X13001647Y-16638722D02*
X12982599Y-16629198D01*
X13258790Y-16743484D02*
X13258790Y-16543484D01*
X13344504Y-16743484D02*
X13344504Y-16638722D01*
X13344504Y-16638722D02*
X13334980Y-16619674D01*
X13334980Y-16619674D02*
X13315933Y-16610150D01*
X13315933Y-16610150D02*
X13287361Y-16610150D01*
X13287361Y-16610150D02*
X13268313Y-16619674D01*
X13268313Y-16619674D02*
X13258790Y-16629198D01*
X13468313Y-16743484D02*
X13449266Y-16733960D01*
X13449266Y-16733960D02*
X13439742Y-16724436D01*
X13439742Y-16724436D02*
X13430218Y-16705388D01*
X13430218Y-16705388D02*
X13430218Y-16648246D01*
X13430218Y-16648246D02*
X13439742Y-16629198D01*
X13439742Y-16629198D02*
X13449266Y-16619674D01*
X13449266Y-16619674D02*
X13468313Y-16610150D01*
X13468313Y-16610150D02*
X13496885Y-16610150D01*
X13496885Y-16610150D02*
X13515933Y-16619674D01*
X13515933Y-16619674D02*
X13525456Y-16629198D01*
X13525456Y-16629198D02*
X13534980Y-16648246D01*
X13534980Y-16648246D02*
X13534980Y-16705388D01*
X13534980Y-16705388D02*
X13525456Y-16724436D01*
X13525456Y-16724436D02*
X13515933Y-16733960D01*
X13515933Y-16733960D02*
X13496885Y-16743484D01*
X13496885Y-16743484D02*
X13468313Y-16743484D01*
X13649266Y-16743484D02*
X13630218Y-16733960D01*
X13630218Y-16733960D02*
X13620694Y-16714912D01*
X13620694Y-16714912D02*
X13620694Y-16543484D01*
X13801647Y-16733960D02*
X13782599Y-16743484D01*
X13782599Y-16743484D02*
X13744504Y-16743484D01*
X13744504Y-16743484D02*
X13725456Y-16733960D01*
X13725456Y-16733960D02*
X13715933Y-16714912D01*
X13715933Y-16714912D02*
X13715933Y-16638722D01*
X13715933Y-16638722D02*
X13725456Y-16619674D01*
X13725456Y-16619674D02*
X13744504Y-16610150D01*
X13744504Y-16610150D02*
X13782599Y-16610150D01*
X13782599Y-16610150D02*
X13801647Y-16619674D01*
X13801647Y-16619674D02*
X13811171Y-16638722D01*
X13811171Y-16638722D02*
X13811171Y-16657769D01*
X13811171Y-16657769D02*
X13715933Y-16676817D01*
X13887361Y-16733960D02*
X13906409Y-16743484D01*
X13906409Y-16743484D02*
X13944504Y-16743484D01*
X13944504Y-16743484D02*
X13963552Y-16733960D01*
X13963552Y-16733960D02*
X13973075Y-16714912D01*
X13973075Y-16714912D02*
X13973075Y-16705388D01*
X13973075Y-16705388D02*
X13963552Y-16686341D01*
X13963552Y-16686341D02*
X13944504Y-16676817D01*
X13944504Y-16676817D02*
X13915933Y-16676817D01*
X13915933Y-16676817D02*
X13896885Y-16667293D01*
X13896885Y-16667293D02*
X13887361Y-16648246D01*
X13887361Y-16648246D02*
X13887361Y-16638722D01*
X13887361Y-16638722D02*
X13896885Y-16619674D01*
X13896885Y-16619674D02*
X13915933Y-16610150D01*
X13915933Y-16610150D02*
X13944504Y-16610150D01*
X13944504Y-16610150D02*
X13963552Y-16619674D01*
X14039742Y-16819674D02*
X14049266Y-16810150D01*
X14049266Y-16810150D02*
X14068314Y-16781579D01*
X14068314Y-16781579D02*
X14077837Y-16762531D01*
X14077837Y-16762531D02*
X14087361Y-16733960D01*
X14087361Y-16733960D02*
X14096885Y-16686341D01*
X14096885Y-16686341D02*
X14096885Y-16648246D01*
X14096885Y-16648246D02*
X14087361Y-16600627D01*
X14087361Y-16600627D02*
X14077837Y-16572055D01*
X14077837Y-16572055D02*
X14068314Y-16553008D01*
X14068314Y-16553008D02*
X14049266Y-16524436D01*
X14049266Y-16524436D02*
X14039742Y-16514912D01*
X14401647Y-16819674D02*
X14392123Y-16810150D01*
X14392123Y-16810150D02*
X14373075Y-16781579D01*
X14373075Y-16781579D02*
X14363552Y-16762531D01*
X14363552Y-16762531D02*
X14354028Y-16733960D01*
X14354028Y-16733960D02*
X14344504Y-16686341D01*
X14344504Y-16686341D02*
X14344504Y-16648246D01*
X14344504Y-16648246D02*
X14354028Y-16600627D01*
X14354028Y-16600627D02*
X14363552Y-16572055D01*
X14363552Y-16572055D02*
X14373075Y-16553008D01*
X14373075Y-16553008D02*
X14392123Y-16524436D01*
X14392123Y-16524436D02*
X14401647Y-16514912D01*
X14477837Y-16610150D02*
X14477837Y-16743484D01*
X14477837Y-16629198D02*
X14487361Y-16619674D01*
X14487361Y-16619674D02*
X14506409Y-16610150D01*
X14506409Y-16610150D02*
X14534980Y-16610150D01*
X14534980Y-16610150D02*
X14554028Y-16619674D01*
X14554028Y-16619674D02*
X14563552Y-16638722D01*
X14563552Y-16638722D02*
X14563552Y-16743484D01*
X14687361Y-16743484D02*
X14668314Y-16733960D01*
X14668314Y-16733960D02*
X14658790Y-16724436D01*
X14658790Y-16724436D02*
X14649266Y-16705388D01*
X14649266Y-16705388D02*
X14649266Y-16648246D01*
X14649266Y-16648246D02*
X14658790Y-16629198D01*
X14658790Y-16629198D02*
X14668314Y-16619674D01*
X14668314Y-16619674D02*
X14687361Y-16610150D01*
X14687361Y-16610150D02*
X14715933Y-16610150D01*
X14715933Y-16610150D02*
X14734980Y-16619674D01*
X14734980Y-16619674D02*
X14744504Y-16629198D01*
X14744504Y-16629198D02*
X14754028Y-16648246D01*
X14754028Y-16648246D02*
X14754028Y-16705388D01*
X14754028Y-16705388D02*
X14744504Y-16724436D01*
X14744504Y-16724436D02*
X14734980Y-16733960D01*
X14734980Y-16733960D02*
X14715933Y-16743484D01*
X14715933Y-16743484D02*
X14687361Y-16743484D01*
X14811171Y-16610150D02*
X14887361Y-16610150D01*
X14839742Y-16543484D02*
X14839742Y-16714912D01*
X14839742Y-16714912D02*
X14849266Y-16733960D01*
X14849266Y-16733960D02*
X14868314Y-16743484D01*
X14868314Y-16743484D02*
X14887361Y-16743484D01*
X15106409Y-16610150D02*
X15106409Y-16810150D01*
X15106409Y-16619674D02*
X15125456Y-16610150D01*
X15125456Y-16610150D02*
X15163552Y-16610150D01*
X15163552Y-16610150D02*
X15182599Y-16619674D01*
X15182599Y-16619674D02*
X15192123Y-16629198D01*
X15192123Y-16629198D02*
X15201647Y-16648246D01*
X15201647Y-16648246D02*
X15201647Y-16705388D01*
X15201647Y-16705388D02*
X15192123Y-16724436D01*
X15192123Y-16724436D02*
X15182599Y-16733960D01*
X15182599Y-16733960D02*
X15163552Y-16743484D01*
X15163552Y-16743484D02*
X15125456Y-16743484D01*
X15125456Y-16743484D02*
X15106409Y-16733960D01*
X15315933Y-16743484D02*
X15296885Y-16733960D01*
X15296885Y-16733960D02*
X15287361Y-16714912D01*
X15287361Y-16714912D02*
X15287361Y-16543484D01*
X15477837Y-16743484D02*
X15477837Y-16638722D01*
X15477837Y-16638722D02*
X15468314Y-16619674D01*
X15468314Y-16619674D02*
X15449266Y-16610150D01*
X15449266Y-16610150D02*
X15411171Y-16610150D01*
X15411171Y-16610150D02*
X15392123Y-16619674D01*
X15477837Y-16733960D02*
X15458790Y-16743484D01*
X15458790Y-16743484D02*
X15411171Y-16743484D01*
X15411171Y-16743484D02*
X15392123Y-16733960D01*
X15392123Y-16733960D02*
X15382599Y-16714912D01*
X15382599Y-16714912D02*
X15382599Y-16695865D01*
X15382599Y-16695865D02*
X15392123Y-16676817D01*
X15392123Y-16676817D02*
X15411171Y-16667293D01*
X15411171Y-16667293D02*
X15458790Y-16667293D01*
X15458790Y-16667293D02*
X15477837Y-16657769D01*
X15544504Y-16610150D02*
X15620695Y-16610150D01*
X15573076Y-16543484D02*
X15573076Y-16714912D01*
X15573076Y-16714912D02*
X15582599Y-16733960D01*
X15582599Y-16733960D02*
X15601647Y-16743484D01*
X15601647Y-16743484D02*
X15620695Y-16743484D01*
X15763552Y-16733960D02*
X15744504Y-16743484D01*
X15744504Y-16743484D02*
X15706409Y-16743484D01*
X15706409Y-16743484D02*
X15687361Y-16733960D01*
X15687361Y-16733960D02*
X15677837Y-16714912D01*
X15677837Y-16714912D02*
X15677837Y-16638722D01*
X15677837Y-16638722D02*
X15687361Y-16619674D01*
X15687361Y-16619674D02*
X15706409Y-16610150D01*
X15706409Y-16610150D02*
X15744504Y-16610150D01*
X15744504Y-16610150D02*
X15763552Y-16619674D01*
X15763552Y-16619674D02*
X15773076Y-16638722D01*
X15773076Y-16638722D02*
X15773076Y-16657769D01*
X15773076Y-16657769D02*
X15677837Y-16676817D01*
X15944504Y-16743484D02*
X15944504Y-16543484D01*
X15944504Y-16733960D02*
X15925457Y-16743484D01*
X15925457Y-16743484D02*
X15887361Y-16743484D01*
X15887361Y-16743484D02*
X15868314Y-16733960D01*
X15868314Y-16733960D02*
X15858790Y-16724436D01*
X15858790Y-16724436D02*
X15849266Y-16705388D01*
X15849266Y-16705388D02*
X15849266Y-16648246D01*
X15849266Y-16648246D02*
X15858790Y-16629198D01*
X15858790Y-16629198D02*
X15868314Y-16619674D01*
X15868314Y-16619674D02*
X15887361Y-16610150D01*
X15887361Y-16610150D02*
X15925457Y-16610150D01*
X15925457Y-16610150D02*
X15944504Y-16619674D01*
X16020695Y-16819674D02*
X16030218Y-16810150D01*
X16030218Y-16810150D02*
X16049266Y-16781579D01*
X16049266Y-16781579D02*
X16058790Y-16762531D01*
X16058790Y-16762531D02*
X16068314Y-16733960D01*
X16068314Y-16733960D02*
X16077837Y-16686341D01*
X16077837Y-16686341D02*
X16077837Y-16648246D01*
X16077837Y-16648246D02*
X16068314Y-16600627D01*
X16068314Y-16600627D02*
X16058790Y-16572055D01*
X16058790Y-16572055D02*
X16049266Y-16553008D01*
X16049266Y-16553008D02*
X16030218Y-16524436D01*
X16030218Y-16524436D02*
X16020695Y-16514912D01*
M02*
