M48
; DRILL file {KiCad 8.0.6} date 2025-02-10T16:05:41-0800
; FORMAT={-:-/ absolute / metric / decimal}
; #@! TF.CreationDate,2025-02-10T16:05:41-08:00
; #@! TF.GenerationSoftware,Kicad,Pcbnew,8.0.6
; #@! TF.FileFunction,Plated,1,4,PTH
FMAT,2
METRIC
; #@! TA.AperFunction,Plated,PTH,ViaDrill
T1C0.400
; #@! TA.AperFunction,Plated,PTH,ComponentDrill
T2C0.800
; #@! TA.AperFunction,Plated,PTH,ComponentDrill
T3C1.000
; #@! TA.AperFunction,Plated,PTH,ComponentDrill
T4C1.020
; #@! TA.AperFunction,Plated,PTH,ComponentDrill
T5C1.500
; #@! TA.AperFunction,Plated,PTH,ComponentDrill
T6C1.600
%
G90
G05
T1
X105.862Y-106.299
X112.649Y-81.661
X113.558Y-57.645
X113.616Y-64.28
X117.602Y-57.658
X117.602Y-64.222
X118.681Y-44.767
X121.412Y-49.493
X122.936Y-44.577
X122.936Y-70.993
X123.444Y-64.643
X124.229Y-78.763
X124.594Y-77.832
X124.989Y-65.807
X125.222Y-76.962
X127.127Y-51.943
X127.127Y-58.293
X127.127Y-60.833
X130.048Y-104.648
X132.588Y-65.532
X133.096Y-53.34
X133.985Y-93.853
X133.985Y-123.444
X135.128Y-139.446
X137.922Y-61.214
X137.922Y-65.786
X137.922Y-69.85
X137.922Y-74.168
X137.922Y-78.486
X137.922Y-81.788
X137.922Y-87.63
X137.922Y-91.948
X137.922Y-96.266
X137.922Y-100.584
X137.922Y-104.648
X137.922Y-108.966
X137.922Y-113.284
X137.922Y-117.856
X137.922Y-121.92
X137.922Y-126.238
X137.922Y-130.556
X137.922Y-141.478
X137.922Y-146.304
X138.176Y-152.4
X140.462Y-134.366
X140.462Y-137.922
X144.526Y-61.214
X144.526Y-65.786
X144.526Y-69.85
X144.526Y-74.168
X144.526Y-78.486
X144.526Y-83.566
X144.526Y-87.63
X144.526Y-91.948
X144.526Y-96.266
X144.526Y-100.584
X144.526Y-104.648
X144.526Y-108.966
X144.526Y-113.284
X144.526Y-117.856
X144.526Y-121.92
X144.526Y-126.238
X144.526Y-130.556
X144.526Y-135.636
X144.526Y-139.446
X144.526Y-143.764
X144.526Y-148.082
X144.526Y-152.146
X149.098Y-69.85
X151.384Y-61.214
X151.384Y-65.786
X151.384Y-74.168
X151.384Y-78.486
X151.384Y-83.566
X151.384Y-87.63
X151.384Y-91.948
X151.384Y-96.266
X151.384Y-100.584
X151.384Y-104.648
X151.384Y-108.966
X151.384Y-113.284
X151.384Y-117.856
X151.384Y-121.92
X151.384Y-126.238
X151.384Y-130.556
X151.384Y-135.636
X151.384Y-139.446
X151.384Y-143.764
X151.384Y-148.082
X151.384Y-152.146
X153.67Y-84.318
X153.924Y-122.174
X155.448Y-45.847
X155.448Y-46.863
X155.458Y-48.133
X155.938Y-123.089
X155.938Y-124.359
X155.956Y-82.804
X155.956Y-84.074
X155.956Y-85.842
X156.464Y-126.238
X156.718Y-60.96
X156.718Y-65.532
X156.718Y-69.596
X157.988Y-135.636
X157.988Y-139.446
X157.988Y-143.764
X157.988Y-148.082
X157.988Y-152.146
X159.004Y-100.584
X159.004Y-104.648
X159.004Y-108.966
X160.147Y-73.279
X160.383Y-113.564
X160.528Y-36.967
X163.068Y-42.682
X163.322Y-60.96
X163.322Y-65.532
X163.322Y-69.596
X163.322Y-74.168
X163.823Y-121.184
X163.957Y-80.899
X164.846Y-135.636
X164.846Y-139.446
X164.846Y-143.764
X164.846Y-148.082
X164.846Y-152.146
X166.37Y-100.584
X166.37Y-104.648
X166.37Y-108.966
X166.878Y-54.102
X167.513Y-41.402
X168.003Y-118.009
X168.402Y-77.724
X168.402Y-91.059
X168.638Y-133.249
X170.18Y-60.96
X170.18Y-65.532
X170.18Y-69.596
X170.18Y-74.168
X171.196Y-130.81
X171.196Y-135.382
X171.196Y-139.446
X171.196Y-143.764
X171.196Y-148.082
X171.196Y-152.146
X173.228Y-90.678
X173.228Y-94.742
X173.228Y-98.806
X173.99Y-69.85
X173.99Y-73.914
X173.99Y-77.724
X173.99Y-81.524
X173.99Y-107.696
X173.99Y-114.554
X173.99Y-121.412
X174.72Y-39.075
X174.72Y-44.663
X174.752Y-33.274
X176.498Y-52.029
X176.53Y-56.007
X176.53Y-60.579
X176.53Y-64.643
X176.657Y-85.344
X176.893Y-125.629
X177.885Y-48.473
X178.054Y-130.81
X178.054Y-135.382
X178.054Y-139.446
X178.054Y-143.764
X178.054Y-146.685
X178.054Y-152.146
X180.848Y-90.678
X180.848Y-94.742
X180.848Y-98.806
X181.356Y-107.696
X181.356Y-114.554
X181.356Y-121.412
X181.61Y-69.85
X181.61Y-73.914
X181.61Y-77.724
X181.61Y-81.524
X182.086Y-39.075
X182.086Y-44.663
X182.118Y-33.274
X183.102Y-52.029
X183.134Y-56.007
X183.134Y-60.579
X183.134Y-64.643
X184.513Y-125.629
X184.658Y-130.81
X184.658Y-135.382
X184.658Y-139.446
X184.658Y-143.764
X184.658Y-148.082
X184.658Y-152.146
X184.912Y-85.344
X185.505Y-48.473
X188.468Y-90.678
X188.468Y-94.742
X188.468Y-98.806
X188.976Y-107.696
X188.976Y-114.554
X188.976Y-121.412
X189.103Y-69.85
X189.103Y-73.914
X189.103Y-77.724
X189.103Y-81.407
X189.706Y-39.075
X189.706Y-44.663
X189.738Y-33.274
X189.96Y-52.029
X189.992Y-56.007
X189.992Y-60.579
X189.992Y-64.643
X191.516Y-130.81
X191.516Y-135.382
X191.516Y-139.446
X191.516Y-143.764
X191.516Y-148.082
X191.516Y-152.146
X191.897Y-85.344
X192.133Y-125.629
X193.125Y-48.473
X195.834Y-90.678
X195.834Y-94.742
X195.834Y-98.806
X196.342Y-107.696
X196.342Y-114.554
X196.342Y-121.412
X196.564Y-52.029
X196.596Y-56.007
X196.596Y-60.579
X196.596Y-64.643
X196.596Y-69.723
X196.596Y-73.787
X196.596Y-77.597
X196.596Y-81.524
X197.072Y-39.075
X197.072Y-44.663
X197.104Y-33.274
X197.612Y-130.81
X197.612Y-135.382
X197.612Y-139.446
X197.612Y-143.764
X197.612Y-148.082
X197.612Y-152.146
X199.118Y-125.629
X199.517Y-85.344
X200.11Y-48.473
X201.93Y-129.032
X202.152Y-52.029
X202.692Y-132.842
X202.692Y-136.652
X202.692Y-140.716
X202.819Y-90.805
X202.819Y-95.123
X202.819Y-99.187
X202.946Y-55.753
X202.946Y-60.579
X202.946Y-64.897
X203.327Y-85.344
X203.454Y-107.696
X203.454Y-114.554
X203.454Y-121.412
X203.708Y-143.764
X203.708Y-148.082
X203.708Y-152.146
X203.942Y-48.494
X203.962Y-69.596
X203.962Y-73.66
X203.962Y-77.597
X203.962Y-81.524
X204.438Y-39.075
X204.438Y-44.663
X204.47Y-33.274
X204.851Y-125.603
X208.661Y-90.805
X208.661Y-95.123
X208.661Y-99.187
X209.042Y-129.032
X209.042Y-132.842
X209.042Y-136.652
X209.042Y-140.716
X209.264Y-52.029
X209.296Y-55.753
X209.296Y-60.579
X209.296Y-64.897
X210.566Y-143.764
X210.566Y-148.082
X210.566Y-152.146
X210.82Y-107.696
X210.82Y-114.554
X210.82Y-121.412
X210.947Y-85.344
X211.582Y-69.596
X211.582Y-73.66
X211.582Y-77.597
X211.582Y-81.524
X211.709Y-48.514
X211.804Y-39.075
X211.804Y-44.663
X211.836Y-33.274
X211.905Y-125.629
X215.138Y-129.032
X215.138Y-132.842
X215.138Y-136.652
X215.138Y-140.716
X215.265Y-90.805
X215.265Y-95.123
X215.265Y-99.187
X215.614Y-52.029
X215.646Y-55.753
X215.646Y-60.579
X215.646Y-64.897
X216.662Y-143.764
X216.662Y-148.082
X216.662Y-152.146
X217.971Y-85.217
X218.44Y-107.696
X218.44Y-114.554
X218.44Y-121.412
X218.694Y-48.473
X218.948Y-69.596
X218.948Y-73.66
X218.948Y-77.597
X218.948Y-81.524
X219.424Y-39.075
X219.424Y-44.663
X219.456Y-33.274
X219.525Y-125.629
X221.742Y-129.032
X221.742Y-132.842
X221.742Y-136.652
X221.742Y-140.716
X222.472Y-52.029
X222.504Y-55.753
X222.504Y-60.579
X222.504Y-64.897
X222.631Y-90.805
X222.631Y-95.123
X222.631Y-99.187
X223.012Y-143.764
X223.012Y-148.082
X223.012Y-152.146
X224.956Y-85.217
X225.806Y-107.696
X225.806Y-114.554
X225.806Y-121.412
X225.875Y-125.629
X226.06Y-48.514
X226.568Y-69.596
X226.568Y-73.66
X226.568Y-77.597
X226.568Y-81.524
X226.79Y-39.075
X226.79Y-44.663
X226.822Y-33.274
X229.108Y-129.032
X229.108Y-132.842
X229.108Y-136.652
X229.108Y-140.716
X229.584Y-52.029
X229.616Y-55.753
X229.616Y-60.579
X229.616Y-64.897
X229.87Y-143.764
X229.87Y-147.193
X229.87Y-152.146
X230.251Y-90.805
X230.251Y-95.123
X230.251Y-99.187
X233.426Y-107.696
X233.426Y-114.554
X233.426Y-121.412
X233.68Y-69.596
X233.68Y-73.66
X233.68Y-77.597
X233.68Y-80.518
X234.156Y-37.846
X234.188Y-31.75
X234.188Y-43.434
X235.966Y-129.032
X235.966Y-132.842
X235.966Y-136.652
X235.966Y-140.716
X235.966Y-143.764
X235.966Y-148.082
X235.966Y-152.146
X236.188Y-52.705
X236.22Y-55.753
X236.22Y-60.579
X236.22Y-64.897
X237.617Y-90.805
X237.617Y-95.123
X237.617Y-99.187
X241.046Y-103.124
X241.046Y-107.696
X241.046Y-114.554
X241.046Y-121.412
X241.808Y-31.75
X241.808Y-37.846
X241.808Y-43.688
X241.808Y-49.276
X241.808Y-55.118
X241.808Y-60.96
X241.808Y-66.548
X241.808Y-72.136
X242.062Y-126.238
X242.062Y-143.51
X242.062Y-148.082
X242.062Y-152.146
X242.316Y-134.62
X244.094Y-79.756
X244.094Y-85.09
X244.094Y-90.932
X248.158Y-138.43
X248.158Y-143.51
X248.158Y-148.082
X248.158Y-152.146
X248.666Y-96.52
X248.666Y-103.124
X248.666Y-107.696
X248.666Y-114.554
X248.666Y-121.412
X249.174Y-31.75
X249.174Y-37.846
X249.174Y-43.688
X249.174Y-49.276
X249.174Y-55.118
X249.174Y-60.96
X249.174Y-66.548
X249.174Y-72.136
X249.174Y-77.47
X249.174Y-126.238
X249.174Y-130.302
X249.174Y-134.62
X254.254Y-79.756
X254.254Y-85.09
X254.254Y-91.186
X254.762Y-138.176
X254.762Y-143.51
X256.032Y-96.52
X256.032Y-103.124
X256.032Y-107.696
X256.032Y-114.554
X256.032Y-121.412
X256.286Y-37.846
X256.286Y-43.688
X256.286Y-49.276
X256.286Y-55.118
X256.286Y-60.96
X256.286Y-66.548
X256.286Y-72.136
X256.286Y-77.47
X256.286Y-126.238
X256.286Y-130.302
X256.286Y-134.62
T2
X115.697Y-58.383
X115.697Y-63.263
T3
X94.742Y-43.18
X94.742Y-45.72
X94.742Y-48.26
X94.742Y-50.8
X94.742Y-53.34
X94.742Y-55.88
X94.742Y-58.42
X94.742Y-60.96
X94.742Y-63.5
X94.742Y-66.04
X94.742Y-68.58
X94.742Y-71.12
X94.742Y-73.66
X94.742Y-76.2
X94.742Y-78.74
X109.982Y-43.18
X109.982Y-45.72
X109.982Y-48.26
X109.982Y-50.8
X109.982Y-53.34
X109.982Y-55.88
X109.982Y-58.42
X109.982Y-60.96
X109.982Y-63.5
X109.982Y-66.04
X109.982Y-68.58
X109.982Y-71.12
X109.982Y-73.66
X109.982Y-76.2
X109.982Y-78.74
X110.871Y-88.773
X110.871Y-91.313
X110.871Y-93.853
X110.871Y-96.393
X110.871Y-98.933
X110.871Y-101.473
X110.871Y-104.013
X110.871Y-106.553
X110.871Y-109.093
X110.871Y-111.633
X110.871Y-114.173
X110.871Y-116.713
X110.871Y-119.253
X110.871Y-121.793
X110.871Y-124.333
X113.917Y-38.751
X116.457Y-38.751
X126.111Y-88.773
X126.111Y-91.313
X126.111Y-93.853
X126.111Y-96.393
X126.111Y-98.933
X126.111Y-101.473
X126.111Y-104.013
X126.111Y-106.553
X126.111Y-109.093
X126.111Y-111.633
X126.111Y-114.173
X126.111Y-116.713
X126.111Y-119.253
X126.111Y-121.793
X126.111Y-124.333
X127.29Y-135.378
X127.29Y-137.918
X127.29Y-140.458
T4
X101.856Y-92.099
X101.856Y-95.099
X101.856Y-121.968
X101.856Y-124.968
X101.856Y-127.968
X123.216Y-37.726
X126.216Y-37.726
X135.71Y-37.739
X138.71Y-37.739
T5
X119.59Y-149.86
X139.49Y-149.86
T6
X242.062Y-76.454
X242.062Y-86.614
X242.062Y-96.774
X242.062Y-129.887
X242.062Y-140.047
X252.222Y-76.454
X252.222Y-86.614
X252.222Y-96.774
X252.222Y-129.887
X252.222Y-140.047
M30
