%TF.GenerationSoftware,KiCad,Pcbnew,8.0.6*%
%TF.CreationDate,2025-02-10T16:04:45-08:00*%
%TF.ProjectId,Urban MC,55726261-6e20-44d4-932e-6b696361645f,rev?*%
%TF.SameCoordinates,Original*%
%TF.FileFunction,Soldermask,Bot*%
%TF.FilePolarity,Negative*%
%FSLAX46Y46*%
G04 Gerber Fmt 4.6, Leading zero omitted, Abs format (unit mm)*
G04 Created by KiCad (PCBNEW 8.0.6) date 2025-02-10 16:04:45*
%MOMM*%
%LPD*%
G01*
G04 APERTURE LIST*
G04 Aperture macros list*
%AMRoundRect*
0 Rectangle with rounded corners*
0 $1 Rounding radius*
0 $2 $3 $4 $5 $6 $7 $8 $9 X,Y pos of 4 corners*
0 Add a 4 corners polygon primitive as box body*
4,1,4,$2,$3,$4,$5,$6,$7,$8,$9,$2,$3,0*
0 Add four circle primitives for the rounded corners*
1,1,$1+$1,$2,$3*
1,1,$1+$1,$4,$5*
1,1,$1+$1,$6,$7*
1,1,$1+$1,$8,$9*
0 Add four rect primitives between the rounded corners*
20,1,$1+$1,$2,$3,$4,$5,0*
20,1,$1+$1,$4,$5,$6,$7,0*
20,1,$1+$1,$6,$7,$8,$9,0*
20,1,$1+$1,$8,$9,$2,$3,0*%
G04 Aperture macros list end*
%ADD10R,1.600000X1.600000*%
%ADD11O,1.600000X1.600000*%
%ADD12C,3.250000*%
%ADD13R,1.520000X1.520000*%
%ADD14C,1.520000*%
%ADD15C,2.999999*%
%ADD16C,1.500000*%
%ADD17RoundRect,0.102000X0.975000X-0.975000X0.975000X0.975000X-0.975000X0.975000X-0.975000X-0.975000X0*%
%ADD18C,2.154000*%
%ADD19C,3.200000*%
%ADD20R,1.700000X1.700000*%
%ADD21O,1.700000X1.700000*%
%ADD22RoundRect,0.102000X-1.125000X-1.125000X1.125000X-1.125000X1.125000X1.125000X-1.125000X1.125000X0*%
%ADD23C,2.454000*%
%ADD24RoundRect,0.102000X0.754000X-0.754000X0.754000X0.754000X-0.754000X0.754000X-0.754000X-0.754000X0*%
%ADD25C,1.712000*%
G04 APERTURE END LIST*
D10*
%TO.C,A2-CAN*%
X109982000Y-78740000D03*
D11*
X109982000Y-76200000D03*
X109982000Y-73660000D03*
X109982000Y-71120000D03*
X109982000Y-68580000D03*
X109982000Y-66040000D03*
X109982000Y-63500000D03*
X109982000Y-60960000D03*
X109982000Y-58420000D03*
X109982000Y-55880000D03*
X109982000Y-53340000D03*
X109982000Y-50800000D03*
X109982000Y-48260000D03*
X109982000Y-45720000D03*
X109982000Y-43180000D03*
X94742000Y-43180000D03*
X94742000Y-45720000D03*
X94742000Y-48260000D03*
X94742000Y-50800000D03*
X94742000Y-53340000D03*
X94742000Y-55880000D03*
X94742000Y-58420000D03*
X94742000Y-60960000D03*
X94742000Y-63500000D03*
X94742000Y-66040000D03*
X94742000Y-68580000D03*
X94742000Y-71120000D03*
X94742000Y-73660000D03*
X94742000Y-76200000D03*
X94742000Y-78740000D03*
%TD*%
D10*
%TO.C,A1-Motor Control*%
X110871000Y-88773000D03*
D11*
X110871000Y-91313000D03*
X110871000Y-93853000D03*
X110871000Y-96393000D03*
X110871000Y-98933000D03*
X110871000Y-101473000D03*
X110871000Y-104013000D03*
X110871000Y-106553000D03*
X110871000Y-109093000D03*
X110871000Y-111633000D03*
X110871000Y-114173000D03*
X110871000Y-116713000D03*
X110871000Y-119253000D03*
X110871000Y-121793000D03*
X110871000Y-124333000D03*
X126111000Y-124333000D03*
X126111000Y-121793000D03*
X126111000Y-119253000D03*
X126111000Y-116713000D03*
X126111000Y-114173000D03*
X126111000Y-111633000D03*
X126111000Y-109093000D03*
X126111000Y-106553000D03*
X126111000Y-104013000D03*
X126111000Y-101473000D03*
X126111000Y-98933000D03*
X126111000Y-96393000D03*
X126111000Y-93853000D03*
X126111000Y-91313000D03*
X126111000Y-88773000D03*
%TD*%
D12*
%TO.C,HEATSINK*%
X177506000Y-100737252D03*
X177506000Y-148997252D03*
X228306000Y-100737252D03*
X228306000Y-148997252D03*
%TD*%
D13*
%TO.C,HallConnectors1*%
X101855999Y-127967999D03*
D14*
X101855999Y-124968000D03*
X101855999Y-121968001D03*
D15*
X97536000Y-124968000D03*
%TD*%
D16*
%TO.C,Y1*%
X115697000Y-58383000D03*
X115697000Y-63263000D03*
%TD*%
D17*
%TO.C,J4*%
X242062000Y-140047500D03*
D18*
X242062000Y-129887500D03*
D17*
X252222000Y-140047500D03*
D18*
X252222000Y-129887500D03*
%TD*%
D19*
%TO.C,REF\u002A\u002A*%
X97028000Y-149352000D03*
%TD*%
D20*
%TO.C,SW1*%
X113916577Y-38750639D03*
D21*
X116456577Y-38750639D03*
%TD*%
D19*
%TO.C,REF\u002A\u002A*%
X254508000Y-33020000D03*
%TD*%
%TO.C,REF\u002A\u002A*%
X97028000Y-32893000D03*
%TD*%
D13*
%TO.C,J1*%
X123216425Y-37725788D03*
D14*
X126216424Y-37725788D03*
D15*
X124716425Y-33405789D03*
%TD*%
D12*
%TO.C,HEATSINK*%
X176687000Y-41574000D03*
X176687000Y-89834000D03*
X227487000Y-41574000D03*
X227487000Y-89834000D03*
%TD*%
D17*
%TO.C,J3*%
X242062000Y-96774000D03*
D18*
X242062000Y-86614000D03*
X242062000Y-76454000D03*
D17*
X252222000Y-96774000D03*
D18*
X252222000Y-86614000D03*
X252222000Y-76454000D03*
%TD*%
D19*
%TO.C,REF\u002A\u002A*%
X254508000Y-149352000D03*
%TD*%
D13*
%TO.C,J2*%
X135709506Y-37739236D03*
D14*
X138709505Y-37739236D03*
D15*
X137209506Y-33419237D03*
%TD*%
D13*
%TO.C,HallPowerInput1*%
X101855999Y-95099000D03*
D14*
X101855999Y-92099001D03*
D15*
X97536000Y-93599000D03*
%TD*%
D22*
%TO.C,D4*%
X119590000Y-149860000D03*
D23*
X139490000Y-149860000D03*
%TD*%
D24*
%TO.C,U4*%
X127290000Y-140458000D03*
D25*
X127290000Y-137918000D03*
X127290000Y-135378000D03*
%TD*%
M02*
