G04 #@! TF.GenerationSoftware,KiCad,Pcbnew,8.0.6*
G04 #@! TF.CreationDate,2025-03-09T01:50:26-08:00*
G04 #@! TF.ProjectId,Urban MC,55726261-6e20-44d4-932e-6b696361645f,rev?*
G04 #@! TF.SameCoordinates,Original*
G04 #@! TF.FileFunction,Soldermask,Bot*
G04 #@! TF.FilePolarity,Negative*
%FSLAX46Y46*%
G04 Gerber Fmt 4.6, Leading zero omitted, Abs format (unit mm)*
G04 Created by KiCad (PCBNEW 8.0.6) date 2025-03-09 01:50:26*
%MOMM*%
%LPD*%
G01*
G04 APERTURE LIST*
G04 Aperture macros list*
%AMRoundRect*
0 Rectangle with rounded corners*
0 $1 Rounding radius*
0 $2 $3 $4 $5 $6 $7 $8 $9 X,Y pos of 4 corners*
0 Add a 4 corners polygon primitive as box body*
4,1,4,$2,$3,$4,$5,$6,$7,$8,$9,$2,$3,0*
0 Add four circle primitives for the rounded corners*
1,1,$1+$1,$2,$3*
1,1,$1+$1,$4,$5*
1,1,$1+$1,$6,$7*
1,1,$1+$1,$8,$9*
0 Add four rect primitives between the rounded corners*
20,1,$1+$1,$2,$3,$4,$5,0*
20,1,$1+$1,$4,$5,$6,$7,0*
20,1,$1+$1,$6,$7,$8,$9,0*
20,1,$1+$1,$8,$9,$2,$3,0*%
G04 Aperture macros list end*
%ADD10C,1.676400*%
%ADD11C,1.803400*%
%ADD12C,1.500000*%
%ADD13RoundRect,0.102000X1.350000X-1.350000X1.350000X1.350000X-1.350000X1.350000X-1.350000X-1.350000X0*%
%ADD14C,2.904000*%
%ADD15C,3.200000*%
%ADD16R,1.600000X1.600000*%
%ADD17O,1.600000X1.600000*%
%ADD18R,1.700000X1.700000*%
%ADD19O,1.700000X1.700000*%
%ADD20C,3.250000*%
%ADD21C,2.454000*%
%ADD22RoundRect,0.102000X-1.125000X-1.125000X1.125000X-1.125000X1.125000X1.125000X-1.125000X1.125000X0*%
%ADD23RoundRect,0.102000X0.754000X-0.754000X0.754000X0.754000X-0.754000X0.754000X-0.754000X-0.754000X0*%
%ADD24C,1.712000*%
G04 APERTURE END LIST*
D10*
X135788400Y-41808400D03*
X138328400Y-41808400D03*
X140868400Y-41808400D03*
X123774200Y-41808400D03*
X126314200Y-41808400D03*
X128854200Y-41808400D03*
D11*
X97155000Y-127508000D03*
X97155000Y-122508000D03*
X97155000Y-117508000D03*
D12*
X115697000Y-58383000D03*
X115697000Y-63263000D03*
D13*
X242062000Y-140047500D03*
X252222000Y-140047500D03*
D14*
X242062000Y-129887500D03*
X252222000Y-129887500D03*
D15*
X97028000Y-149352000D03*
D16*
X109982000Y-78740000D03*
D17*
X109982000Y-76200000D03*
X109982000Y-73660000D03*
X109982000Y-71120000D03*
X109982000Y-68580000D03*
X109982000Y-66040000D03*
X109982000Y-63500000D03*
X109982000Y-60960000D03*
X109982000Y-58420000D03*
X109982000Y-55880000D03*
X109982000Y-53340000D03*
X109982000Y-50800000D03*
X109982000Y-48260000D03*
X109982000Y-45720000D03*
X109982000Y-43180000D03*
X94742000Y-43180000D03*
X94742000Y-45720000D03*
X94742000Y-48260000D03*
X94742000Y-50800000D03*
X94742000Y-53340000D03*
X94742000Y-55880000D03*
X94742000Y-58420000D03*
X94742000Y-60960000D03*
X94742000Y-63500000D03*
X94742000Y-66040000D03*
X94742000Y-68580000D03*
X94742000Y-71120000D03*
X94742000Y-73660000D03*
X94742000Y-76200000D03*
X94742000Y-78740000D03*
D18*
X113916577Y-38750639D03*
D19*
X116456577Y-38750639D03*
D15*
X254508000Y-33020000D03*
X97028000Y-32893000D03*
D20*
X177506000Y-100737252D03*
X177506000Y-148997252D03*
X228306000Y-100737252D03*
X228306000Y-148997252D03*
D17*
X133096000Y-124333000D03*
X133096000Y-121793000D03*
X133096000Y-119253000D03*
X133096000Y-116713000D03*
X133096000Y-114173000D03*
X133096000Y-111633000D03*
X133096000Y-109093000D03*
X133096000Y-106553000D03*
X133096000Y-104013000D03*
X133096000Y-101473000D03*
X133096000Y-98933000D03*
X133096000Y-96393000D03*
X133096000Y-93853000D03*
X133096000Y-91313000D03*
X133096000Y-88773000D03*
D20*
X176687000Y-41574000D03*
X176687000Y-89834000D03*
X227487000Y-41574000D03*
X227487000Y-89834000D03*
D14*
X252222000Y-76454000D03*
X242062000Y-76454000D03*
X252222000Y-86614000D03*
X242062000Y-86614000D03*
D13*
X252222000Y-96774000D03*
X242062000Y-96774000D03*
D15*
X254508000Y-149352000D03*
D11*
X96320501Y-95084900D03*
X96320501Y-100164900D03*
D21*
X140963200Y-150469600D03*
D22*
X121063200Y-150469600D03*
D16*
X113665000Y-88773000D03*
D17*
X113665000Y-91313000D03*
X113665000Y-93853000D03*
X113665000Y-96393000D03*
X113665000Y-98933000D03*
X113665000Y-101473000D03*
X113665000Y-104013000D03*
X113665000Y-106553000D03*
X113665000Y-109093000D03*
X113665000Y-111633000D03*
X113665000Y-114173000D03*
X113665000Y-116713000D03*
X113665000Y-119253000D03*
X113665000Y-121793000D03*
X113665000Y-124333000D03*
X128905000Y-124333000D03*
X128905000Y-121793000D03*
X128905000Y-119253000D03*
X128905000Y-116713000D03*
X128905000Y-114173000D03*
X128905000Y-111633000D03*
X128905000Y-109093000D03*
X128905000Y-106553000D03*
X128905000Y-104013000D03*
X128905000Y-101473000D03*
X128905000Y-98933000D03*
X128905000Y-96393000D03*
X128905000Y-93853000D03*
X128905000Y-91313000D03*
X128905000Y-88773000D03*
D23*
X129830000Y-143506000D03*
D24*
X129830000Y-140966000D03*
X129830000Y-138426000D03*
M02*
