G04 #@! TF.GenerationSoftware,KiCad,Pcbnew,8.0.6*
G04 #@! TF.CreationDate,2025-02-10T17:55:51-08:00*
G04 #@! TF.ProjectId,Urban MC,55726261-6e20-44d4-932e-6b696361645f,rev?*
G04 #@! TF.SameCoordinates,Original*
G04 #@! TF.FileFunction,Paste,Top*
G04 #@! TF.FilePolarity,Positive*
%FSLAX46Y46*%
G04 Gerber Fmt 4.6, Leading zero omitted, Abs format (unit mm)*
G04 Created by KiCad (PCBNEW 8.0.6) date 2025-02-10 17:55:51*
%MOMM*%
%LPD*%
G01*
G04 APERTURE LIST*
G04 Aperture macros list*
%AMRoundRect*
0 Rectangle with rounded corners*
0 $1 Rounding radius*
0 $2 $3 $4 $5 $6 $7 $8 $9 X,Y pos of 4 corners*
0 Add a 4 corners polygon primitive as box body*
4,1,4,$2,$3,$4,$5,$6,$7,$8,$9,$2,$3,0*
0 Add four circle primitives for the rounded corners*
1,1,$1+$1,$2,$3*
1,1,$1+$1,$4,$5*
1,1,$1+$1,$6,$7*
1,1,$1+$1,$8,$9*
0 Add four rect primitives between the rounded corners*
20,1,$1+$1,$2,$3,$4,$5,0*
20,1,$1+$1,$4,$5,$6,$7,0*
20,1,$1+$1,$6,$7,$8,$9,0*
20,1,$1+$1,$8,$9,$2,$3,0*%
G04 Aperture macros list end*
%ADD10C,0.000000*%
%ADD11R,2.159000X1.955800*%
%ADD12R,0.000001X0.000001*%
%ADD13RoundRect,0.250000X-0.250000X-0.475000X0.250000X-0.475000X0.250000X0.475000X-0.250000X0.475000X0*%
%ADD14RoundRect,0.135000X-0.135000X-0.185000X0.135000X-0.185000X0.135000X0.185000X-0.135000X0.185000X0*%
%ADD15RoundRect,0.200000X-0.200000X-0.275000X0.200000X-0.275000X0.200000X0.275000X-0.200000X0.275000X0*%
%ADD16RoundRect,0.250000X0.337500X0.475000X-0.337500X0.475000X-0.337500X-0.475000X0.337500X-0.475000X0*%
%ADD17RoundRect,0.250000X2.450000X-0.650000X2.450000X0.650000X-2.450000X0.650000X-2.450000X-0.650000X0*%
%ADD18RoundRect,0.250000X-0.475000X0.250000X-0.475000X-0.250000X0.475000X-0.250000X0.475000X0.250000X0*%
%ADD19RoundRect,0.250000X0.475000X-0.250000X0.475000X0.250000X-0.475000X0.250000X-0.475000X-0.250000X0*%
%ADD20RoundRect,0.150000X-0.825000X-0.150000X0.825000X-0.150000X0.825000X0.150000X-0.825000X0.150000X0*%
%ADD21RoundRect,0.150000X-0.875000X-0.150000X0.875000X-0.150000X0.875000X0.150000X-0.875000X0.150000X0*%
%ADD22RoundRect,0.200000X0.200000X0.275000X-0.200000X0.275000X-0.200000X-0.275000X0.200000X-0.275000X0*%
%ADD23RoundRect,0.135000X0.185000X-0.135000X0.185000X0.135000X-0.185000X0.135000X-0.185000X-0.135000X0*%
%ADD24RoundRect,0.250000X0.325000X0.650000X-0.325000X0.650000X-0.325000X-0.650000X0.325000X-0.650000X0*%
%ADD25RoundRect,0.250000X0.250000X0.475000X-0.250000X0.475000X-0.250000X-0.475000X0.250000X-0.475000X0*%
%ADD26RoundRect,0.150000X-0.512500X-0.150000X0.512500X-0.150000X0.512500X0.150000X-0.512500X0.150000X0*%
%ADD27RoundRect,0.250000X0.475000X-0.337500X0.475000X0.337500X-0.475000X0.337500X-0.475000X-0.337500X0*%
%ADD28RoundRect,0.250000X-0.650000X0.325000X-0.650000X-0.325000X0.650000X-0.325000X0.650000X0.325000X0*%
%ADD29R,2.100000X1.400000*%
G04 APERTURE END LIST*
D10*
G36*
X175810143Y-126381467D02*
G01*
X174710143Y-126381467D01*
X174710143Y-125931467D01*
X175810143Y-125931467D01*
X175810143Y-126381467D01*
G37*
G36*
X175057712Y-127661467D02*
G01*
X174710143Y-127661467D01*
X174710136Y-127214467D01*
X174410098Y-127214552D01*
X174410143Y-127661467D01*
X174060143Y-127661467D01*
X174060176Y-127214486D01*
X173758019Y-127214356D01*
X173757712Y-127661467D01*
X173407712Y-127661467D01*
X173407459Y-127214601D01*
X173107886Y-127214595D01*
X173107712Y-127661467D01*
X172757712Y-127661467D01*
X172757712Y-126861467D01*
X175057712Y-126861467D01*
X175057712Y-127661467D01*
G37*
G36*
X173110150Y-124557988D02*
G01*
X173410115Y-124558047D01*
X173410143Y-123861467D01*
X173760143Y-123861467D01*
X173760115Y-124558047D01*
X174060016Y-124557970D01*
X174060143Y-123861467D01*
X174410143Y-123861467D01*
X174410143Y-124558097D01*
X174709962Y-124558038D01*
X174710143Y-123861467D01*
X175060143Y-123861467D01*
X175060068Y-124558078D01*
X175115120Y-124558017D01*
X175115133Y-125546467D01*
X174385263Y-125546523D01*
X174385143Y-126211468D01*
X172705196Y-126211746D01*
X172705227Y-124558057D01*
X172760130Y-124558033D01*
X172760143Y-123861467D01*
X173110143Y-123861467D01*
X173110150Y-124557988D01*
G37*
G36*
X183465143Y-126488967D02*
G01*
X182365143Y-126488967D01*
X182365143Y-126038967D01*
X183465143Y-126038967D01*
X183465143Y-126488967D01*
G37*
G36*
X182712712Y-127768967D02*
G01*
X182365143Y-127768967D01*
X182365136Y-127321967D01*
X182065098Y-127322052D01*
X182065143Y-127768967D01*
X181715143Y-127768967D01*
X181715176Y-127321986D01*
X181413019Y-127321856D01*
X181412712Y-127768967D01*
X181062712Y-127768967D01*
X181062459Y-127322101D01*
X180762886Y-127322095D01*
X180762712Y-127768967D01*
X180412712Y-127768967D01*
X180412712Y-126968967D01*
X182712712Y-126968967D01*
X182712712Y-127768967D01*
G37*
G36*
X180765150Y-124665488D02*
G01*
X181065115Y-124665547D01*
X181065143Y-123968967D01*
X181415143Y-123968967D01*
X181415115Y-124665547D01*
X181715016Y-124665470D01*
X181715143Y-123968967D01*
X182065143Y-123968967D01*
X182065143Y-124665597D01*
X182364962Y-124665538D01*
X182365143Y-123968967D01*
X182715143Y-123968967D01*
X182715068Y-124665578D01*
X182770120Y-124665517D01*
X182770133Y-125653967D01*
X182040263Y-125654023D01*
X182040143Y-126318968D01*
X180360196Y-126319246D01*
X180360227Y-124665557D01*
X180415130Y-124665533D01*
X180415143Y-123968967D01*
X180765143Y-123968967D01*
X180765150Y-124665488D01*
G37*
G36*
X198042143Y-86192297D02*
G01*
X196942143Y-86192297D01*
X196942143Y-85742297D01*
X198042143Y-85742297D01*
X198042143Y-86192297D01*
G37*
G36*
X197289712Y-87472297D02*
G01*
X196942143Y-87472297D01*
X196942136Y-87025297D01*
X196642098Y-87025382D01*
X196642143Y-87472297D01*
X196292143Y-87472297D01*
X196292176Y-87025316D01*
X195990019Y-87025186D01*
X195989712Y-87472297D01*
X195639712Y-87472297D01*
X195639459Y-87025431D01*
X195339886Y-87025425D01*
X195339712Y-87472297D01*
X194989712Y-87472297D01*
X194989712Y-86672297D01*
X197289712Y-86672297D01*
X197289712Y-87472297D01*
G37*
G36*
X195342150Y-84368818D02*
G01*
X195642115Y-84368877D01*
X195642143Y-83672297D01*
X195992143Y-83672297D01*
X195992115Y-84368877D01*
X196292016Y-84368800D01*
X196292143Y-83672297D01*
X196642143Y-83672297D01*
X196642143Y-84368927D01*
X196941962Y-84368868D01*
X196942143Y-83672297D01*
X197292143Y-83672297D01*
X197292068Y-84368908D01*
X197347120Y-84368847D01*
X197347133Y-85357297D01*
X196617263Y-85357353D01*
X196617143Y-86022298D01*
X194937196Y-86022576D01*
X194937227Y-84368887D01*
X194992130Y-84368863D01*
X194992143Y-83672297D01*
X195342143Y-83672297D01*
X195342150Y-84368818D01*
G37*
G36*
X213299112Y-85039272D02*
G01*
X212199112Y-85039272D01*
X212199112Y-84589272D01*
X213299112Y-84589272D01*
X213299112Y-85039272D01*
G37*
G36*
X213299119Y-83756272D02*
G01*
X213599157Y-83756187D01*
X213599112Y-83309272D01*
X213949112Y-83309272D01*
X213949079Y-83756253D01*
X214251236Y-83756383D01*
X214251543Y-83309272D01*
X214601543Y-83309272D01*
X214601796Y-83756138D01*
X214901369Y-83756144D01*
X214901543Y-83309272D01*
X215251543Y-83309272D01*
X215251543Y-84109272D01*
X212951543Y-84109272D01*
X212951543Y-83309272D01*
X213299112Y-83309272D01*
X213299119Y-83756272D01*
G37*
G36*
X215304028Y-86412682D02*
G01*
X215249125Y-86412706D01*
X215249112Y-87109272D01*
X214899112Y-87109272D01*
X214899105Y-86412751D01*
X214599140Y-86412692D01*
X214599112Y-87109272D01*
X214249112Y-87109272D01*
X214249140Y-86412692D01*
X213949239Y-86412769D01*
X213949112Y-87109272D01*
X213599112Y-87109272D01*
X213599112Y-86412642D01*
X213299293Y-86412701D01*
X213299112Y-87109272D01*
X212949112Y-87109272D01*
X212949187Y-86412661D01*
X212894135Y-86412722D01*
X212894122Y-85424272D01*
X213623992Y-85424216D01*
X213624112Y-84759271D01*
X215304059Y-84758993D01*
X215304028Y-86412682D01*
G37*
G36*
X207354476Y-125536000D02*
G01*
X206254476Y-125536000D01*
X206254476Y-125086000D01*
X207354476Y-125086000D01*
X207354476Y-125536000D01*
G37*
G36*
X207354483Y-124253000D02*
G01*
X207654521Y-124252915D01*
X207654476Y-123806000D01*
X208004476Y-123806000D01*
X208004443Y-124252981D01*
X208306600Y-124253111D01*
X208306907Y-123806000D01*
X208656907Y-123806000D01*
X208657160Y-124252866D01*
X208956733Y-124252872D01*
X208956907Y-123806000D01*
X209306907Y-123806000D01*
X209306907Y-124606000D01*
X207006907Y-124606000D01*
X207006907Y-123806000D01*
X207354476Y-123806000D01*
X207354483Y-124253000D01*
G37*
G36*
X209359392Y-126909410D02*
G01*
X209304489Y-126909434D01*
X209304476Y-127606000D01*
X208954476Y-127606000D01*
X208954469Y-126909479D01*
X208654504Y-126909420D01*
X208654476Y-127606000D01*
X208304476Y-127606000D01*
X208304504Y-126909420D01*
X208004603Y-126909497D01*
X208004476Y-127606000D01*
X207654476Y-127606000D01*
X207654476Y-126909370D01*
X207354657Y-126909429D01*
X207354476Y-127606000D01*
X207004476Y-127606000D01*
X207004551Y-126909389D01*
X206949499Y-126909450D01*
X206949486Y-125921000D01*
X207679356Y-125920944D01*
X207679476Y-125255999D01*
X209359423Y-125255721D01*
X209359392Y-126909410D01*
G37*
G36*
X175677000Y-86244000D02*
G01*
X174577000Y-86244000D01*
X174577000Y-85794000D01*
X175677000Y-85794000D01*
X175677000Y-86244000D01*
G37*
G36*
X174924569Y-87524000D02*
G01*
X174577000Y-87524000D01*
X174576993Y-87077000D01*
X174276955Y-87077085D01*
X174277000Y-87524000D01*
X173927000Y-87524000D01*
X173927033Y-87077019D01*
X173624876Y-87076889D01*
X173624569Y-87524000D01*
X173274569Y-87524000D01*
X173274316Y-87077134D01*
X172974743Y-87077128D01*
X172974569Y-87524000D01*
X172624569Y-87524000D01*
X172624569Y-86724000D01*
X174924569Y-86724000D01*
X174924569Y-87524000D01*
G37*
G36*
X172977007Y-84420521D02*
G01*
X173276972Y-84420580D01*
X173277000Y-83724000D01*
X173627000Y-83724000D01*
X173626972Y-84420580D01*
X173926873Y-84420503D01*
X173927000Y-83724000D01*
X174277000Y-83724000D01*
X174277000Y-84420630D01*
X174576819Y-84420571D01*
X174577000Y-83724000D01*
X174927000Y-83724000D01*
X174926925Y-84420611D01*
X174981977Y-84420550D01*
X174981990Y-85409000D01*
X174252120Y-85409056D01*
X174252000Y-86074001D01*
X172572053Y-86074279D01*
X172572084Y-84420590D01*
X172626987Y-84420566D01*
X172627000Y-83724000D01*
X172977000Y-83724000D01*
X172977007Y-84420521D01*
G37*
G36*
X190917000Y-86244000D02*
G01*
X189817000Y-86244000D01*
X189817000Y-85794000D01*
X190917000Y-85794000D01*
X190917000Y-86244000D01*
G37*
G36*
X190164569Y-87524000D02*
G01*
X189817000Y-87524000D01*
X189816993Y-87077000D01*
X189516955Y-87077085D01*
X189517000Y-87524000D01*
X189167000Y-87524000D01*
X189167033Y-87077019D01*
X188864876Y-87076889D01*
X188864569Y-87524000D01*
X188514569Y-87524000D01*
X188514316Y-87077134D01*
X188214743Y-87077128D01*
X188214569Y-87524000D01*
X187864569Y-87524000D01*
X187864569Y-86724000D01*
X190164569Y-86724000D01*
X190164569Y-87524000D01*
G37*
G36*
X188217007Y-84420521D02*
G01*
X188516972Y-84420580D01*
X188517000Y-83724000D01*
X188867000Y-83724000D01*
X188866972Y-84420580D01*
X189166873Y-84420503D01*
X189167000Y-83724000D01*
X189517000Y-83724000D01*
X189517000Y-84420630D01*
X189816819Y-84420571D01*
X189817000Y-83724000D01*
X190167000Y-83724000D01*
X190166925Y-84420611D01*
X190221977Y-84420550D01*
X190221990Y-85409000D01*
X189492120Y-85409056D01*
X189492000Y-86074001D01*
X187812053Y-86074279D01*
X187812084Y-84420590D01*
X187866987Y-84420566D01*
X187867000Y-83724000D01*
X188217000Y-83724000D01*
X188217007Y-84420521D01*
G37*
G36*
X228642000Y-48288466D02*
G01*
X227542000Y-48288466D01*
X227542000Y-47838466D01*
X228642000Y-47838466D01*
X228642000Y-48288466D01*
G37*
G36*
X228642007Y-47005466D02*
G01*
X228942045Y-47005381D01*
X228942000Y-46558466D01*
X229292000Y-46558466D01*
X229291967Y-47005447D01*
X229594124Y-47005577D01*
X229594431Y-46558466D01*
X229944431Y-46558466D01*
X229944684Y-47005332D01*
X230244257Y-47005338D01*
X230244431Y-46558466D01*
X230594431Y-46558466D01*
X230594431Y-47358466D01*
X228294431Y-47358466D01*
X228294431Y-46558466D01*
X228642000Y-46558466D01*
X228642007Y-47005466D01*
G37*
G36*
X230646916Y-49661876D02*
G01*
X230592013Y-49661900D01*
X230592000Y-50358466D01*
X230242000Y-50358466D01*
X230241993Y-49661945D01*
X229942028Y-49661886D01*
X229942000Y-50358466D01*
X229592000Y-50358466D01*
X229592028Y-49661886D01*
X229292127Y-49661963D01*
X229292000Y-50358466D01*
X228942000Y-50358466D01*
X228942000Y-49661836D01*
X228642181Y-49661895D01*
X228642000Y-50358466D01*
X228292000Y-50358466D01*
X228292075Y-49661855D01*
X228237023Y-49661916D01*
X228237010Y-48673466D01*
X228966880Y-48673410D01*
X228967000Y-48008465D01*
X230646947Y-48008187D01*
X230646916Y-49661876D01*
G37*
G36*
X206146330Y-85032314D02*
G01*
X205046330Y-85032314D01*
X205046330Y-84582314D01*
X206146330Y-84582314D01*
X206146330Y-85032314D01*
G37*
G36*
X206146337Y-83749314D02*
G01*
X206446375Y-83749229D01*
X206446330Y-83302314D01*
X206796330Y-83302314D01*
X206796297Y-83749295D01*
X207098454Y-83749425D01*
X207098761Y-83302314D01*
X207448761Y-83302314D01*
X207449014Y-83749180D01*
X207748587Y-83749186D01*
X207748761Y-83302314D01*
X208098761Y-83302314D01*
X208098761Y-84102314D01*
X205798761Y-84102314D01*
X205798761Y-83302314D01*
X206146330Y-83302314D01*
X206146337Y-83749314D01*
G37*
G36*
X208151246Y-86405724D02*
G01*
X208096343Y-86405748D01*
X208096330Y-87102314D01*
X207746330Y-87102314D01*
X207746323Y-86405793D01*
X207446358Y-86405734D01*
X207446330Y-87102314D01*
X207096330Y-87102314D01*
X207096358Y-86405734D01*
X206796457Y-86405811D01*
X206796330Y-87102314D01*
X206446330Y-87102314D01*
X206446330Y-86405684D01*
X206146511Y-86405743D01*
X206146330Y-87102314D01*
X205796330Y-87102314D01*
X205796405Y-86405703D01*
X205741353Y-86405764D01*
X205741340Y-85417314D01*
X206471210Y-85417258D01*
X206471330Y-84752313D01*
X208151277Y-84752035D01*
X208151246Y-86405724D01*
G37*
G36*
X191085143Y-126381467D02*
G01*
X189985143Y-126381467D01*
X189985143Y-125931467D01*
X191085143Y-125931467D01*
X191085143Y-126381467D01*
G37*
G36*
X190332712Y-127661467D02*
G01*
X189985143Y-127661467D01*
X189985136Y-127214467D01*
X189685098Y-127214552D01*
X189685143Y-127661467D01*
X189335143Y-127661467D01*
X189335176Y-127214486D01*
X189033019Y-127214356D01*
X189032712Y-127661467D01*
X188682712Y-127661467D01*
X188682459Y-127214601D01*
X188382886Y-127214595D01*
X188382712Y-127661467D01*
X188032712Y-127661467D01*
X188032712Y-126861467D01*
X190332712Y-126861467D01*
X190332712Y-127661467D01*
G37*
G36*
X188385150Y-124557988D02*
G01*
X188685115Y-124558047D01*
X188685143Y-123861467D01*
X189035143Y-123861467D01*
X189035115Y-124558047D01*
X189335016Y-124557970D01*
X189335143Y-123861467D01*
X189685143Y-123861467D01*
X189685143Y-124558097D01*
X189984962Y-124558038D01*
X189985143Y-123861467D01*
X190335143Y-123861467D01*
X190335068Y-124558078D01*
X190390120Y-124558017D01*
X190390133Y-125546467D01*
X189660263Y-125546523D01*
X189660143Y-126211468D01*
X187980196Y-126211746D01*
X187980227Y-124558057D01*
X188035130Y-124558033D01*
X188035143Y-123861467D01*
X188385143Y-123861467D01*
X188385150Y-124557988D01*
G37*
G36*
X183449500Y-86244000D02*
G01*
X182349500Y-86244000D01*
X182349500Y-85794000D01*
X183449500Y-85794000D01*
X183449500Y-86244000D01*
G37*
G36*
X182697069Y-87524000D02*
G01*
X182349500Y-87524000D01*
X182349493Y-87077000D01*
X182049455Y-87077085D01*
X182049500Y-87524000D01*
X181699500Y-87524000D01*
X181699533Y-87077019D01*
X181397376Y-87076889D01*
X181397069Y-87524000D01*
X181047069Y-87524000D01*
X181046816Y-87077134D01*
X180747243Y-87077128D01*
X180747069Y-87524000D01*
X180397069Y-87524000D01*
X180397069Y-86724000D01*
X182697069Y-86724000D01*
X182697069Y-87524000D01*
G37*
G36*
X180749507Y-84420521D02*
G01*
X181049472Y-84420580D01*
X181049500Y-83724000D01*
X181399500Y-83724000D01*
X181399472Y-84420580D01*
X181699373Y-84420503D01*
X181699500Y-83724000D01*
X182049500Y-83724000D01*
X182049500Y-84420630D01*
X182349319Y-84420571D01*
X182349500Y-83724000D01*
X182699500Y-83724000D01*
X182699425Y-84420611D01*
X182754477Y-84420550D01*
X182754490Y-85409000D01*
X182024620Y-85409056D01*
X182024500Y-86074001D01*
X180344553Y-86074279D01*
X180344584Y-84420590D01*
X180399487Y-84420566D01*
X180399500Y-83724000D01*
X180749500Y-83724000D01*
X180749507Y-84420521D01*
G37*
G36*
X198647024Y-49343466D02*
G01*
X197547024Y-49343466D01*
X197547024Y-48893466D01*
X198647024Y-48893466D01*
X198647024Y-49343466D01*
G37*
G36*
X197894593Y-50623466D02*
G01*
X197547024Y-50623466D01*
X197547017Y-50176466D01*
X197246979Y-50176551D01*
X197247024Y-50623466D01*
X196897024Y-50623466D01*
X196897057Y-50176485D01*
X196594900Y-50176355D01*
X196594593Y-50623466D01*
X196244593Y-50623466D01*
X196244340Y-50176600D01*
X195944767Y-50176594D01*
X195944593Y-50623466D01*
X195594593Y-50623466D01*
X195594593Y-49823466D01*
X197894593Y-49823466D01*
X197894593Y-50623466D01*
G37*
G36*
X195947031Y-47519987D02*
G01*
X196246996Y-47520046D01*
X196247024Y-46823466D01*
X196597024Y-46823466D01*
X196596996Y-47520046D01*
X196896897Y-47519969D01*
X196897024Y-46823466D01*
X197247024Y-46823466D01*
X197247024Y-47520096D01*
X197546843Y-47520037D01*
X197547024Y-46823466D01*
X197897024Y-46823466D01*
X197896949Y-47520077D01*
X197952001Y-47520016D01*
X197952014Y-48508466D01*
X197222144Y-48508522D01*
X197222024Y-49173467D01*
X195542077Y-49173745D01*
X195542108Y-47520056D01*
X195597011Y-47520032D01*
X195597024Y-46823466D01*
X195947024Y-46823466D01*
X195947031Y-47519987D01*
G37*
G36*
X222188074Y-125405807D02*
G01*
X221088074Y-125405807D01*
X221088074Y-124955807D01*
X222188074Y-124955807D01*
X222188074Y-125405807D01*
G37*
G36*
X222188081Y-124122807D02*
G01*
X222488119Y-124122722D01*
X222488074Y-123675807D01*
X222838074Y-123675807D01*
X222838041Y-124122788D01*
X223140198Y-124122918D01*
X223140505Y-123675807D01*
X223490505Y-123675807D01*
X223490758Y-124122673D01*
X223790331Y-124122679D01*
X223790505Y-123675807D01*
X224140505Y-123675807D01*
X224140505Y-124475807D01*
X221840505Y-124475807D01*
X221840505Y-123675807D01*
X222188074Y-123675807D01*
X222188081Y-124122807D01*
G37*
G36*
X224192990Y-126779217D02*
G01*
X224138087Y-126779241D01*
X224138074Y-127475807D01*
X223788074Y-127475807D01*
X223788067Y-126779286D01*
X223488102Y-126779227D01*
X223488074Y-127475807D01*
X223138074Y-127475807D01*
X223138102Y-126779227D01*
X222838201Y-126779304D01*
X222838074Y-127475807D01*
X222488074Y-127475807D01*
X222488074Y-126779177D01*
X222188255Y-126779236D01*
X222188074Y-127475807D01*
X221838074Y-127475807D01*
X221838149Y-126779196D01*
X221783097Y-126779257D01*
X221783084Y-125790807D01*
X222512954Y-125790751D01*
X222513074Y-125125806D01*
X224193021Y-125125528D01*
X224192990Y-126779217D01*
G37*
G36*
X227308000Y-85051276D02*
G01*
X226208000Y-85051276D01*
X226208000Y-84601276D01*
X227308000Y-84601276D01*
X227308000Y-85051276D01*
G37*
G36*
X227308007Y-83768276D02*
G01*
X227608045Y-83768191D01*
X227608000Y-83321276D01*
X227958000Y-83321276D01*
X227957967Y-83768257D01*
X228260124Y-83768387D01*
X228260431Y-83321276D01*
X228610431Y-83321276D01*
X228610684Y-83768142D01*
X228910257Y-83768148D01*
X228910431Y-83321276D01*
X229260431Y-83321276D01*
X229260431Y-84121276D01*
X226960431Y-84121276D01*
X226960431Y-83321276D01*
X227308000Y-83321276D01*
X227308007Y-83768276D01*
G37*
G36*
X229312916Y-86424686D02*
G01*
X229258013Y-86424710D01*
X229258000Y-87121276D01*
X228908000Y-87121276D01*
X228907993Y-86424755D01*
X228608028Y-86424696D01*
X228608000Y-87121276D01*
X228258000Y-87121276D01*
X228258028Y-86424696D01*
X227958127Y-86424773D01*
X227958000Y-87121276D01*
X227608000Y-87121276D01*
X227608000Y-86424646D01*
X227308181Y-86424705D01*
X227308000Y-87121276D01*
X226958000Y-87121276D01*
X226958075Y-86424665D01*
X226903023Y-86424726D01*
X226903010Y-85436276D01*
X227632880Y-85436220D01*
X227633000Y-84771275D01*
X229312947Y-84770997D01*
X229312916Y-86424686D01*
G37*
G36*
X191650699Y-49365655D02*
G01*
X190550699Y-49365655D01*
X190550699Y-48915655D01*
X191650699Y-48915655D01*
X191650699Y-49365655D01*
G37*
G36*
X190898268Y-50645655D02*
G01*
X190550699Y-50645655D01*
X190550692Y-50198655D01*
X190250654Y-50198740D01*
X190250699Y-50645655D01*
X189900699Y-50645655D01*
X189900732Y-50198674D01*
X189598575Y-50198544D01*
X189598268Y-50645655D01*
X189248268Y-50645655D01*
X189248015Y-50198789D01*
X188948442Y-50198783D01*
X188948268Y-50645655D01*
X188598268Y-50645655D01*
X188598268Y-49845655D01*
X190898268Y-49845655D01*
X190898268Y-50645655D01*
G37*
G36*
X188950706Y-47542176D02*
G01*
X189250671Y-47542235D01*
X189250699Y-46845655D01*
X189600699Y-46845655D01*
X189600671Y-47542235D01*
X189900572Y-47542158D01*
X189900699Y-46845655D01*
X190250699Y-46845655D01*
X190250699Y-47542285D01*
X190550518Y-47542226D01*
X190550699Y-46845655D01*
X190900699Y-46845655D01*
X190900624Y-47542266D01*
X190955676Y-47542205D01*
X190955689Y-48530655D01*
X190225819Y-48530711D01*
X190225699Y-49195656D01*
X188545752Y-49195934D01*
X188545783Y-47542245D01*
X188600686Y-47542221D01*
X188600699Y-46845655D01*
X188950699Y-46845655D01*
X188950706Y-47542176D01*
G37*
G36*
X220388309Y-85051276D02*
G01*
X219288309Y-85051276D01*
X219288309Y-84601276D01*
X220388309Y-84601276D01*
X220388309Y-85051276D01*
G37*
G36*
X220388316Y-83768276D02*
G01*
X220688354Y-83768191D01*
X220688309Y-83321276D01*
X221038309Y-83321276D01*
X221038276Y-83768257D01*
X221340433Y-83768387D01*
X221340740Y-83321276D01*
X221690740Y-83321276D01*
X221690993Y-83768142D01*
X221990566Y-83768148D01*
X221990740Y-83321276D01*
X222340740Y-83321276D01*
X222340740Y-84121276D01*
X220040740Y-84121276D01*
X220040740Y-83321276D01*
X220388309Y-83321276D01*
X220388316Y-83768276D01*
G37*
G36*
X222393225Y-86424686D02*
G01*
X222338322Y-86424710D01*
X222338309Y-87121276D01*
X221988309Y-87121276D01*
X221988302Y-86424755D01*
X221688337Y-86424696D01*
X221688309Y-87121276D01*
X221338309Y-87121276D01*
X221338337Y-86424696D01*
X221038436Y-86424773D01*
X221038309Y-87121276D01*
X220688309Y-87121276D01*
X220688309Y-86424646D01*
X220388490Y-86424705D01*
X220388309Y-87121276D01*
X220038309Y-87121276D01*
X220038384Y-86424665D01*
X219983332Y-86424726D01*
X219983319Y-85436276D01*
X220713189Y-85436220D01*
X220713309Y-84771275D01*
X222393256Y-84770997D01*
X222393225Y-86424686D01*
G37*
G36*
X206865976Y-48320000D02*
G01*
X205765976Y-48320000D01*
X205765976Y-47870000D01*
X206865976Y-47870000D01*
X206865976Y-48320000D01*
G37*
G36*
X206865983Y-47037000D02*
G01*
X207166021Y-47036915D01*
X207165976Y-46590000D01*
X207515976Y-46590000D01*
X207515943Y-47036981D01*
X207818100Y-47037111D01*
X207818407Y-46590000D01*
X208168407Y-46590000D01*
X208168660Y-47036866D01*
X208468233Y-47036872D01*
X208468407Y-46590000D01*
X208818407Y-46590000D01*
X208818407Y-47390000D01*
X206518407Y-47390000D01*
X206518407Y-46590000D01*
X206865976Y-46590000D01*
X206865983Y-47037000D01*
G37*
G36*
X208870892Y-49693410D02*
G01*
X208815989Y-49693434D01*
X208815976Y-50390000D01*
X208465976Y-50390000D01*
X208465969Y-49693479D01*
X208166004Y-49693420D01*
X208165976Y-50390000D01*
X207815976Y-50390000D01*
X207816004Y-49693420D01*
X207516103Y-49693497D01*
X207515976Y-50390000D01*
X207165976Y-50390000D01*
X207165976Y-49693370D01*
X206866157Y-49693429D01*
X206865976Y-50390000D01*
X206515976Y-50390000D01*
X206516051Y-49693389D01*
X206460999Y-49693450D01*
X206460986Y-48705000D01*
X207190856Y-48704944D01*
X207190976Y-48039999D01*
X208870923Y-48039721D01*
X208870892Y-49693410D01*
G37*
G36*
X228717577Y-125417822D02*
G01*
X227617577Y-125417822D01*
X227617577Y-124967822D01*
X228717577Y-124967822D01*
X228717577Y-125417822D01*
G37*
G36*
X228717584Y-124134822D02*
G01*
X229017622Y-124134737D01*
X229017577Y-123687822D01*
X229367577Y-123687822D01*
X229367544Y-124134803D01*
X229669701Y-124134933D01*
X229670008Y-123687822D01*
X230020008Y-123687822D01*
X230020261Y-124134688D01*
X230319834Y-124134694D01*
X230320008Y-123687822D01*
X230670008Y-123687822D01*
X230670008Y-124487822D01*
X228370008Y-124487822D01*
X228370008Y-123687822D01*
X228717577Y-123687822D01*
X228717584Y-124134822D01*
G37*
G36*
X230722493Y-126791232D02*
G01*
X230667590Y-126791256D01*
X230667577Y-127487822D01*
X230317577Y-127487822D01*
X230317570Y-126791301D01*
X230017605Y-126791242D01*
X230017577Y-127487822D01*
X229667577Y-127487822D01*
X229667605Y-126791242D01*
X229367704Y-126791319D01*
X229367577Y-127487822D01*
X229017577Y-127487822D01*
X229017577Y-126791192D01*
X228717758Y-126791251D01*
X228717577Y-127487822D01*
X228367577Y-127487822D01*
X228367652Y-126791211D01*
X228312600Y-126791272D01*
X228312587Y-125802822D01*
X229042457Y-125802766D01*
X229042577Y-125137821D01*
X230722524Y-125137543D01*
X230722493Y-126791232D01*
G37*
G36*
X176389267Y-49386333D02*
G01*
X175289267Y-49386333D01*
X175289267Y-48936333D01*
X176389267Y-48936333D01*
X176389267Y-49386333D01*
G37*
G36*
X175636836Y-50666333D02*
G01*
X175289267Y-50666333D01*
X175289260Y-50219333D01*
X174989222Y-50219418D01*
X174989267Y-50666333D01*
X174639267Y-50666333D01*
X174639300Y-50219352D01*
X174337143Y-50219222D01*
X174336836Y-50666333D01*
X173986836Y-50666333D01*
X173986583Y-50219467D01*
X173687010Y-50219461D01*
X173686836Y-50666333D01*
X173336836Y-50666333D01*
X173336836Y-49866333D01*
X175636836Y-49866333D01*
X175636836Y-50666333D01*
G37*
G36*
X173689274Y-47562854D02*
G01*
X173989239Y-47562913D01*
X173989267Y-46866333D01*
X174339267Y-46866333D01*
X174339239Y-47562913D01*
X174639140Y-47562836D01*
X174639267Y-46866333D01*
X174989267Y-46866333D01*
X174989267Y-47562963D01*
X175289086Y-47562904D01*
X175289267Y-46866333D01*
X175639267Y-46866333D01*
X175639192Y-47562944D01*
X175694244Y-47562883D01*
X175694257Y-48551333D01*
X174964387Y-48551389D01*
X174964267Y-49216334D01*
X173284320Y-49216612D01*
X173284351Y-47562923D01*
X173339254Y-47562899D01*
X173339267Y-46866333D01*
X173689267Y-46866333D01*
X173689274Y-47562854D01*
G37*
G36*
X214847619Y-125433967D02*
G01*
X213747619Y-125433967D01*
X213747619Y-124983967D01*
X214847619Y-124983967D01*
X214847619Y-125433967D01*
G37*
G36*
X214847626Y-124150967D02*
G01*
X215147664Y-124150882D01*
X215147619Y-123703967D01*
X215497619Y-123703967D01*
X215497586Y-124150948D01*
X215799743Y-124151078D01*
X215800050Y-123703967D01*
X216150050Y-123703967D01*
X216150303Y-124150833D01*
X216449876Y-124150839D01*
X216450050Y-123703967D01*
X216800050Y-123703967D01*
X216800050Y-124503967D01*
X214500050Y-124503967D01*
X214500050Y-123703967D01*
X214847619Y-123703967D01*
X214847626Y-124150967D01*
G37*
G36*
X216852535Y-126807377D02*
G01*
X216797632Y-126807401D01*
X216797619Y-127503967D01*
X216447619Y-127503967D01*
X216447612Y-126807446D01*
X216147647Y-126807387D01*
X216147619Y-127503967D01*
X215797619Y-127503967D01*
X215797647Y-126807387D01*
X215497746Y-126807464D01*
X215497619Y-127503967D01*
X215147619Y-127503967D01*
X215147619Y-126807337D01*
X214847800Y-126807396D01*
X214847619Y-127503967D01*
X214497619Y-127503967D01*
X214497694Y-126807356D01*
X214442642Y-126807417D01*
X214442629Y-125818967D01*
X215172499Y-125818911D01*
X215172619Y-125153966D01*
X216852566Y-125153688D01*
X216852535Y-126807377D01*
G37*
G36*
X198152643Y-126381467D02*
G01*
X197052643Y-126381467D01*
X197052643Y-125931467D01*
X198152643Y-125931467D01*
X198152643Y-126381467D01*
G37*
G36*
X197400212Y-127661467D02*
G01*
X197052643Y-127661467D01*
X197052636Y-127214467D01*
X196752598Y-127214552D01*
X196752643Y-127661467D01*
X196402643Y-127661467D01*
X196402676Y-127214486D01*
X196100519Y-127214356D01*
X196100212Y-127661467D01*
X195750212Y-127661467D01*
X195749959Y-127214601D01*
X195450386Y-127214595D01*
X195450212Y-127661467D01*
X195100212Y-127661467D01*
X195100212Y-126861467D01*
X197400212Y-126861467D01*
X197400212Y-127661467D01*
G37*
G36*
X195452650Y-124557988D02*
G01*
X195752615Y-124558047D01*
X195752643Y-123861467D01*
X196102643Y-123861467D01*
X196102615Y-124558047D01*
X196402516Y-124557970D01*
X196402643Y-123861467D01*
X196752643Y-123861467D01*
X196752643Y-124558097D01*
X197052462Y-124558038D01*
X197052643Y-123861467D01*
X197402643Y-123861467D01*
X197402568Y-124558078D01*
X197457620Y-124558017D01*
X197457633Y-125546467D01*
X196727763Y-125546523D01*
X196727643Y-126211468D01*
X195047696Y-126211746D01*
X195047727Y-124558057D01*
X195102630Y-124558033D01*
X195102643Y-123861467D01*
X195452643Y-123861467D01*
X195452650Y-124557988D01*
G37*
G36*
X214037000Y-48288466D02*
G01*
X212937000Y-48288466D01*
X212937000Y-47838466D01*
X214037000Y-47838466D01*
X214037000Y-48288466D01*
G37*
G36*
X214037007Y-47005466D02*
G01*
X214337045Y-47005381D01*
X214337000Y-46558466D01*
X214687000Y-46558466D01*
X214686967Y-47005447D01*
X214989124Y-47005577D01*
X214989431Y-46558466D01*
X215339431Y-46558466D01*
X215339684Y-47005332D01*
X215639257Y-47005338D01*
X215639431Y-46558466D01*
X215989431Y-46558466D01*
X215989431Y-47358466D01*
X213689431Y-47358466D01*
X213689431Y-46558466D01*
X214037000Y-46558466D01*
X214037007Y-47005466D01*
G37*
G36*
X216041916Y-49661876D02*
G01*
X215987013Y-49661900D01*
X215987000Y-50358466D01*
X215637000Y-50358466D01*
X215636993Y-49661945D01*
X215337028Y-49661886D01*
X215337000Y-50358466D01*
X214987000Y-50358466D01*
X214987028Y-49661886D01*
X214687127Y-49661963D01*
X214687000Y-50358466D01*
X214337000Y-50358466D01*
X214337000Y-49661836D01*
X214037181Y-49661895D01*
X214037000Y-50358466D01*
X213687000Y-50358466D01*
X213687075Y-49661855D01*
X213632023Y-49661916D01*
X213632010Y-48673466D01*
X214361880Y-48673410D01*
X214362000Y-48008465D01*
X216041947Y-48008187D01*
X216041916Y-49661876D01*
G37*
G36*
X184042024Y-49340769D02*
G01*
X182942024Y-49340769D01*
X182942024Y-48890769D01*
X184042024Y-48890769D01*
X184042024Y-49340769D01*
G37*
G36*
X183289593Y-50620769D02*
G01*
X182942024Y-50620769D01*
X182942017Y-50173769D01*
X182641979Y-50173854D01*
X182642024Y-50620769D01*
X182292024Y-50620769D01*
X182292057Y-50173788D01*
X181989900Y-50173658D01*
X181989593Y-50620769D01*
X181639593Y-50620769D01*
X181639340Y-50173903D01*
X181339767Y-50173897D01*
X181339593Y-50620769D01*
X180989593Y-50620769D01*
X180989593Y-49820769D01*
X183289593Y-49820769D01*
X183289593Y-50620769D01*
G37*
G36*
X181342031Y-47517290D02*
G01*
X181641996Y-47517349D01*
X181642024Y-46820769D01*
X181992024Y-46820769D01*
X181991996Y-47517349D01*
X182291897Y-47517272D01*
X182292024Y-46820769D01*
X182642024Y-46820769D01*
X182642024Y-47517399D01*
X182941843Y-47517340D01*
X182942024Y-46820769D01*
X183292024Y-46820769D01*
X183291949Y-47517380D01*
X183347001Y-47517319D01*
X183347014Y-48505769D01*
X182617144Y-48505825D01*
X182617024Y-49170770D01*
X180937077Y-49171048D01*
X180937108Y-47517359D01*
X180992011Y-47517335D01*
X180992024Y-46820769D01*
X181342024Y-46820769D01*
X181342031Y-47517290D01*
G37*
G36*
X221470976Y-48320000D02*
G01*
X220370976Y-48320000D01*
X220370976Y-47870000D01*
X221470976Y-47870000D01*
X221470976Y-48320000D01*
G37*
G36*
X221470983Y-47037000D02*
G01*
X221771021Y-47036915D01*
X221770976Y-46590000D01*
X222120976Y-46590000D01*
X222120943Y-47036981D01*
X222423100Y-47037111D01*
X222423407Y-46590000D01*
X222773407Y-46590000D01*
X222773660Y-47036866D01*
X223073233Y-47036872D01*
X223073407Y-46590000D01*
X223423407Y-46590000D01*
X223423407Y-47390000D01*
X221123407Y-47390000D01*
X221123407Y-46590000D01*
X221470976Y-46590000D01*
X221470983Y-47037000D01*
G37*
G36*
X223475892Y-49693410D02*
G01*
X223420989Y-49693434D01*
X223420976Y-50390000D01*
X223070976Y-50390000D01*
X223070969Y-49693479D01*
X222771004Y-49693420D01*
X222770976Y-50390000D01*
X222420976Y-50390000D01*
X222421004Y-49693420D01*
X222121103Y-49693497D01*
X222120976Y-50390000D01*
X221770976Y-50390000D01*
X221770976Y-49693370D01*
X221471157Y-49693429D01*
X221470976Y-50390000D01*
X221120976Y-50390000D01*
X221121051Y-49693389D01*
X221065999Y-49693450D01*
X221065986Y-48705000D01*
X221795856Y-48704944D01*
X221795976Y-48039999D01*
X223475923Y-48039721D01*
X223475892Y-49693410D01*
G37*
D11*
X155937643Y-115405467D03*
X155937643Y-119342467D03*
X155067000Y-75755500D03*
X155067000Y-79692500D03*
X153543000Y-38173500D03*
X153543000Y-42110500D03*
D12*
X174886013Y-124208374D03*
D13*
X161483000Y-52207000D03*
X163383000Y-52207000D03*
D14*
X164717000Y-91059000D03*
X165737000Y-91059000D03*
D12*
X182541013Y-124315874D03*
D15*
X169736000Y-121539000D03*
X171386000Y-121539000D03*
D12*
X197118013Y-84019204D03*
D14*
X131062000Y-67183000D03*
X132082000Y-67183000D03*
D12*
X213123242Y-86762365D03*
X207178606Y-127259093D03*
X174752870Y-84070907D03*
D13*
X161657643Y-129438967D03*
X163557643Y-129438967D03*
D12*
X189992870Y-84070907D03*
X228466130Y-50011559D03*
D16*
X124989500Y-67183000D03*
X122914500Y-67183000D03*
D17*
X236982000Y-127010000D03*
X236982000Y-121910000D03*
D12*
X205970460Y-86755407D03*
D15*
X169038000Y-81280000D03*
X170688000Y-81280000D03*
D12*
X190161013Y-124208374D03*
D18*
X129032000Y-89159000D03*
X129032000Y-91059000D03*
D19*
X166878000Y-47442000D03*
X166878000Y-45542000D03*
D20*
X158942000Y-82804000D03*
X158942000Y-84074000D03*
X158942000Y-85344000D03*
X158942000Y-86614000D03*
X163892000Y-86614000D03*
X163892000Y-85344000D03*
X163892000Y-84074000D03*
X163892000Y-82804000D03*
D21*
X121588000Y-51943000D03*
X121588000Y-53213000D03*
X121588000Y-54483000D03*
X121588000Y-55753000D03*
X121588000Y-57023000D03*
X121588000Y-58293000D03*
X121588000Y-59563000D03*
X121588000Y-60833000D03*
X121588000Y-62103000D03*
X130888000Y-62103000D03*
X130888000Y-60833000D03*
X130888000Y-59563000D03*
X130888000Y-58293000D03*
X130888000Y-57023000D03*
X130888000Y-55753000D03*
X130888000Y-54483000D03*
X130888000Y-53213000D03*
X130888000Y-51943000D03*
D12*
X182525370Y-84070907D03*
X197722894Y-47170373D03*
D20*
X159177643Y-123088967D03*
X159177643Y-124358967D03*
X159177643Y-125628967D03*
X159177643Y-126898967D03*
X164127643Y-126898967D03*
X164127643Y-125628967D03*
X164127643Y-124358967D03*
X164127643Y-123088967D03*
D22*
X121096577Y-40725639D03*
X119446577Y-40725639D03*
D14*
X165587643Y-118008967D03*
X166607643Y-118008967D03*
X123569000Y-83693000D03*
X124589000Y-83693000D03*
D17*
X235712000Y-87513000D03*
X235712000Y-82413000D03*
D12*
X222012204Y-127128900D03*
X227132130Y-86774369D03*
X190726569Y-47192562D03*
D14*
X163828000Y-54102000D03*
X164848000Y-54102000D03*
D19*
X167367643Y-125308967D03*
X167367643Y-123408967D03*
D20*
X125922000Y-70358000D03*
X125922000Y-71628000D03*
X125922000Y-72898000D03*
X125922000Y-74168000D03*
X130872000Y-74168000D03*
X130872000Y-72898000D03*
X130872000Y-71628000D03*
X130872000Y-70358000D03*
D23*
X130048000Y-106684000D03*
X130048000Y-105664000D03*
D12*
X220212439Y-86774369D03*
D19*
X167767000Y-85024000D03*
X167767000Y-83124000D03*
X115570000Y-81722000D03*
X115570000Y-79822000D03*
D24*
X137619000Y-134112000D03*
X134669000Y-134112000D03*
D14*
X165098000Y-40767000D03*
X166118000Y-40767000D03*
X165987000Y-77724000D03*
X167007000Y-77724000D03*
D15*
X168720000Y-44577000D03*
X170370000Y-44577000D03*
D12*
X206690106Y-50043093D03*
D14*
X164827643Y-133248967D03*
X165847643Y-133248967D03*
D16*
X116734500Y-68543000D03*
X114659500Y-68543000D03*
D12*
X228541707Y-127140915D03*
D13*
X161737000Y-89154000D03*
X163637000Y-89154000D03*
D12*
X175465137Y-47213240D03*
X214671749Y-127157060D03*
D25*
X137094000Y-137668000D03*
X135194000Y-137668000D03*
D12*
X197228513Y-124208374D03*
D20*
X158053000Y-45222000D03*
X158053000Y-46492000D03*
X158053000Y-47762000D03*
X158053000Y-49032000D03*
X163003000Y-49032000D03*
X163003000Y-47762000D03*
X163003000Y-46492000D03*
X163003000Y-45222000D03*
D26*
X120782500Y-76520000D03*
X120782500Y-77470000D03*
X120782500Y-78420000D03*
X123057500Y-78420000D03*
X123057500Y-77470000D03*
X123057500Y-76520000D03*
D27*
X118110000Y-81809500D03*
X118110000Y-79734500D03*
D17*
X236220000Y-50556000D03*
X236220000Y-45456000D03*
D12*
X213861130Y-50011559D03*
D28*
X121666000Y-136193000D03*
X121666000Y-139143000D03*
D12*
X183117894Y-47167676D03*
D14*
X123569000Y-82169000D03*
X124589000Y-82169000D03*
D16*
X116734500Y-53340000D03*
X114659500Y-53340000D03*
D12*
X221295106Y-50043093D03*
D29*
X105862500Y-106299000D03*
X105862500Y-110799000D03*
X96762500Y-110799000D03*
X96762500Y-106299000D03*
M02*
